<svg xmlns="http://www.w3.org/2000/svg" width="327" height="318" viewBox="0 0 327 318">
  <title>(GYM 015) Prototyping for Digital Products and Websites</title>
  <desc>Learn how to use prototypes as a communication and collaboration device for building digital products and websites.</desc>
  <defs>
    <mask id="a" width="299.561" height="292.205" x="13" y="7.771" maskUnits="userSpaceOnUse">
      <g data-name="mask-2">
        <path fill="#fff" fill-rule="evenodd" d="M314.061 106.376L311.536 286.2a5.16 5.16 0 0 1-3.763 4.717s-34.573 10.069-136.979 10.069S21.453 295.2 21.453 295.2a4.611 4.611 0 0 1-3.97-4.223s-2.055-38.68-2.978-128C14.387 151.7 16.4 30.162 16.4 30.162a8.7 8.7 0 0 1 8.231-8.447s108.252-4.731 144.248-4.7c38.1.027 73.668 2.4 115.677 1.386 2.035-.049 6.672-.035 12.855-.022 3.231.008 2.713.005 2.713.005a8.779 8.779 0 0 1 8.63 8.09z" data-name="path-1" transform="translate(-1.5 -1.009)"/>
      </g>
    </mask>
    <mask id="b" width="299.561" height="283.976" x="13" y="16" maskUnits="userSpaceOnUse">
      <g data-name="mask-2">
        <path fill="#fff" fill-rule="evenodd" d="M314.061 106.376L311.536 286.2a5.16 5.16 0 0 1-3.763 4.717s-34.573 10.069-136.979 10.069S21.453 295.2 21.453 295.2a4.611 4.611 0 0 1-3.97-4.223s-2.055-38.68-2.978-128C14.387 151.7 16.4 30.162 16.4 30.162a8.7 8.7 0 0 1 8.231-8.447s108.252-4.731 144.248-4.7c38.1.027 73.668 2.4 115.677 1.386 2.035-.049 6.672-.035 12.855-.022 3.231.008 2.713.005 2.713.005a8.779 8.779 0 0 1 8.63 8.09z" data-name="path-1" transform="translate(-1.5 -1.009)"/>
      </g>
    </mask>
    <clipPath id="c" transform="translate(-1.5 -1.009)">
      <path fill="none" d="M280.081 210.974c2.407-2.786 1.3-71.334 0-71.618-.78-.17-27.955-.678-52.975-.016-16.609.44-33.6.627-36.46 1.969-1.421 23.493-1.913 48.187.854 71.474 3.741 1.595 21.447 2.213 39.147 2.226 23.187.017 48.378-2.809 49.434-4.035z" clip-rule="evenodd"/>
    </clipPath>
    <mask id="d" width="110" height="112" x="44" y="50" maskUnits="userSpaceOnUse">
      <g data-name="mask-6">
        <path fill="#fff" fill-rule="evenodd" d="M47.919 55.045c-2.407 2.786-1.3 71.334 0 71.617.78.171 27.955.679 52.975.016 16.609-.439 33.6-.626 36.459-1.968 1.422-23.493 1.914-48.187-.853-71.474-3.741-1.6-21.447-2.214-39.147-2.226-23.187-.018-48.378 2.813-49.434 4.035z" data-name="path-5" transform="translate(-1.5 -1.009)"/>
      </g>
    </mask>
  </defs>
  <title>
    gym-015-canvas-ai
  </title>
  <g data-name="gym-015">
    <g data-name="artwork">
      <g data-name="prototyping">
        <path fill="#24152c" fill-rule="evenodd" d="M326.392 158.344c.318 73.118 4.085 147.766-11.918 148.729-8.923 5.694-83.878 10.579-152.292 10.909-70.251.339-134.074-3.985-148.788-5.977-18.222-.092-12.207-77.266-12.338-167.665C1.434 45.323-8.343 4.779 24.964 4.631 40.313 1.746 291.544-3.89 312.5 4.12c16.26 3.527 13.59 84.793 13.892 154.224z" data-name="frame"/>
        <g data-name="layout">
          <path fill="#e2e2e2" fill-rule="evenodd" d="M312.561 105.367l-2.525 179.824a5.16 5.16 0 0 1-3.763 4.717s-34.573 10.069-136.979 10.069-149.341-5.786-149.341-5.786a4.611 4.611 0 0 1-3.97-4.223s-2.055-38.68-2.978-128C12.887 150.691 14.9 29.153 14.9 29.153a8.7 8.7 0 0 1 8.231-8.447s108.252-4.731 144.248-4.7c38.1.027 73.668 2.4 115.677 1.386 2.035-.049 6.672-.035 12.855-.022 3.231.008 2.713.005 2.713.005a8.779 8.779 0 0 1 8.63 8.09z" data-name="mask"/>
          <g mask="url(#a)">
            <path fill="#f9f9f9" fill-rule="evenodd" d="M174 12.277s.161 83.874 1.868 84.469c1.026.357 32.136 2.118 65.068.728 21.862-.923 50.536-.211 54.3-3.028.511-13.446-.624-37.345-1.134-53.494-1.386-43.853 1.134-29.551 1.134-29.551s-27.882-3.6-51.179-3.629C213.533 7.736 174 12.277 174 12.277z" data-name="artboard-1-blank"/>
          </g>
          <g mask="url(#b)">
            <path fill="#f9f9f9" fill-rule="evenodd" d="M150.1 218.731c-1.043-.358-37.389-1.429-70.851-.034-22.214.926-44.943-.706-48.764 2.12-1.011 26.3-.16 47 0 74.433 0 0 20.278 1.71 34.513 2.375 29.025 1.357 60 2.225 78 2.225 1.579 0 4.1.032 6 .05 1.778.017 3 .02 3 .02.002-20.412-.427-80.684-1.898-81.189z" data-name="artboard-2-blank"/>
          </g>
          <g data-name="artboard-2">
            <path fill="#fff" fill-rule="evenodd" d="M294.018 275.942c3.207-5.826 1.951-152.623.223-153.216-1.039-.356-37.239-1.419-70.567-.033-22.125.92-44.762 1.31-48.568 4.118-1.893 49.141-1.008 101.842.081 153.53 4.983 3.337 29.626.6 53.2.632 30.891.036 64.224-2.474 65.631-5.031z" data-name="artboard"/>
            <g fill-rule="evenodd">
              <g data-name="line-3">
                <path fill="#c9c9c9" d="M197.068 264.244a65.185 65.185 0 0 0 9.067-.51 2.178 2.178 0 0 0 1.892-2.22v-.058a3.036 3.036 0 0 0-3.13-2.9l-11.465.368a3.622 3.622 0 0 0-3.372 3.072l.122-.983a2.691 2.691 0 0 0 2.624 3.08z" data-name="code"/>
                <path fill="#5ca5a0" d="M223.424 264.326a125.8 125.8 0 0 0 12.725-.451 2.029 2.029 0 0 0 1.851-2.152v-.059a3.206 3.206 0 0 0-3.2-2.951l-17.29.267a3.676 3.676 0 0 0-3.452 3.018l.151-.982a2.606 2.606 0 0 0 2.552 3.077z"/>
                <path fill="#24152c" d="M253.424 264.326a125.8 125.8 0 0 0 12.725-.451 2.029 2.029 0 0 0 1.851-2.152v-.059a3.206 3.206 0 0 0-3.2-2.951l-17.29.267a3.676 3.676 0 0 0-3.452 3.018l.151-.982a2.606 2.606 0 0 0 2.552 3.077z"/>
              </g>
              <g data-name="line-2">
                <path fill="#5ca5a0" d="M272.13 243.382a65.1 65.1 0 0 0-9.067.509 2.178 2.178 0 0 0-1.891 2.22v.058a3.038 3.038 0 0 0 3.131 2.9l11.464-.369a3.62 3.62 0 0 0 3.372-3.072l-.122.984a2.69 2.69 0 0 0-2.624-3.08z"/>
                <path fill="#c9c9c9" d="M250.129 243.382a65.089 65.089 0 0 0-9.067.509 2.178 2.178 0 0 0-1.892 2.22v.058a3.038 3.038 0 0 0 3.131 2.9l11.465-.369a3.62 3.62 0 0 0 3.371-3.072l-.121.984a2.691 2.691 0 0 0-2.624-3.08z"/>
                <path fill="#24152c" d="M226.129 243.382a65.089 65.089 0 0 0-9.067.509 2.178 2.178 0 0 0-1.892 2.22v.058a3.038 3.038 0 0 0 3.131 2.9l11.465-.369a3.62 3.62 0 0 0 3.371-3.072l-.121.984a2.691 2.691 0 0 0-2.624-3.08z"/>
                <path fill="#5ca5a0" d="M201.13 243.382a65.1 65.1 0 0 0-9.067.509 2.178 2.178 0 0 0-1.891 2.22v.058a3.038 3.038 0 0 0 3.131 2.9l11.464-.369a3.62 3.62 0 0 0 3.372-3.072l-.122.984a2.69 2.69 0 0 0-2.624-3.08z"/>
              </g>
              <g data-name="line-1">
                <path fill="#c9c9c9" d="M261.129 228.491a65.185 65.185 0 0 0-9.067.51 2.177 2.177 0 0 0-1.892 2.22v.058a3.036 3.036 0 0 0 3.131 2.9l11.465-.368a3.621 3.621 0 0 0 3.371-3.072l-.121.983a2.691 2.691 0 0 0-2.624-3.08z"/>
                <path fill="#5ca5a0" d="M234.771 228.509a125.608 125.608 0 0 0-12.725.45 2.03 2.03 0 0 0-1.851 2.153v.058a3.206 3.206 0 0 0 3.2 2.952l17.29-.267a3.675 3.675 0 0 0 3.452-3.019l-.15.983a2.606 2.606 0 0 0-2.552-3.077z"/>
                <path fill="#24152c" d="M204.771 228.509a125.608 125.608 0 0 0-12.725.45 2.03 2.03 0 0 0-1.851 2.153v.058a3.206 3.206 0 0 0 3.2 2.952l17.29-.267a3.675 3.675 0 0 0 3.452-3.019l-.15.983a2.606 2.606 0 0 0-2.552-3.077z"/>
              </g>
            </g>
            <g clip-path="url(#c)">
              <path fill="#e2e2e2" d="M215.287 184.405c2.215-1.443 14.779 14.854 16.5 14.686L261.762 170c1.3 2.612 13.382 13.244 18.185 19.33.255-21.112-.516-50.8-1.369-50.983-.78-.17-27.955-.678-52.975-.016-16.609.44-33.6.627-36.46 1.969-1.4 23.132-1.89 47.426.736 70.4a158.709 158.709 0 0 1 25.408-26.295z"/>
              <path fill="#c9c9c9" d="M281.913 192.858c0-.756-.758-2-1.963-3.528-4.8-6.086-16.883-16.718-18.185-19.33l-29.975 29.091c-1.724.168-14.288-16.129-16.5-14.686a158.709 158.709 0 0 0-25.4 26.293c-.5.663-.994 1.332-1.482 2.012-9.629 13.4-17.225 30.537-16.328 34.026 1.333 5.181 27.263 2.643 59.718 2.643 14.267 0 48.536-3.863 48.726-5.285 1.876-14.129 1.455-34.311 1.389-51.236z"/>
            </g>
          </g>
          <g data-name="artboard-1">
            <path fill="#fff" fill-rule="evenodd" d="M149.809 189.267c3.852-5.168 1.8-153.94.071-154.536-1.041-.358-37.315-1.428-70.711-.034-22.17.926-47.527 1.834-47.527 1.834s-3.694 105.749 0 154.761c4.993 3.357 28.627 2.633 52.252 2.66 30.951.039 63.076-.876 65.915-4.685z"/>
            <g fill="#c9c9c9" fill-rule="evenodd" data-name="text">
              <path d="M109.484 174.773c-2.448 2.23-5.314 1.8-8.095 2.106-8.658.948-17.343.665-26.025.477-7.691-.167-15.394.644-23.049.644s-3.485-5.457 0-5.328c8.609.317 26.991-.938 35.6-.619 2.483.092 4.35.671 6.828.392a48 48 0 0 1 13.868.227c.428.081.989 1.407.873 2.101zM48.009 159.068c1.827-1.8 6.379-1.8 9.716-2.107 10.392-.948 20.814-.665 31.234-.476 9.231.167 18.475-.645 27.662-.645s4.183 5.458 0 5.328c-10.331-.316-47.149.393-50.123.672-5.362.505-12.049.505-16.662-.672-.513-.077-1.967-1.406-1.827-2.1zM129.979 142.773c-3.265 2.23-7.086 1.8-10.793 2.106-11.545.948-23.125.665-34.7.477-10.255-.167-20.525.644-30.731.644s-4.648-5.457 0-5.328c11.478.317 35.987-.938 47.466-.619 3.311.092 5.8.671 9.1.392a85.118 85.118 0 0 1 18.491.227c.573.081 1.323 1.407 1.167 2.101z"/>
            </g>
            <path fill="#c9c9c9" fill-rule="evenodd" d="M135.581 121.965c2.407-2.786 1.3-71.334 0-71.618-.78-.17-27.955-.678-52.975-.016-16.609.44-33.6.627-36.46 1.969-1.421 23.491-1.913 48.191.854 71.474 3.741 1.595 21.447 2.213 39.147 2.226 23.187.017 48.378-2.809 49.434-4.035z"/>
            <g mask="url(#d)">
              <path fill="#e2e2e2" fill-rule="evenodd" d="M94.21 111.091c1.724.168 14.288-16.129 16.5-14.686a157.4 157.4 0 0 1 26.887 28.3c9.629 13.4 17.225 30.537 16.328 34.026-1.333 5.181-27.263 2.643-59.718 2.643-14.267 0-48.536-3.863-48.726-5.285-1.888-14.129-1.463-34.311-1.4-51.236C44.1 101.091 62.606 85.267 64.235 82z"/>
            </g>
          </g>
        </g>
        <g stroke="#5ca5a0" stroke-width="8" data-name="interaction-arrow">
          <path fill="none" stroke-linecap="round" d="M115.022 86q-1.038 38 46.827 38T217 156" data-name="flow"/>
          <path fill="#5ca5a0" fill-rule="evenodd" stroke-linecap="round" stroke-linejoin="round" d="M201.139 153.884q4.992 5.353 7.667 8.709t6.445 9l6.27-9.008 5.465-9.62a139.659 139.659 0 0 1-18.025.843q-7.161-.246-7.822.076z" data-name="arrow-head"/>
          <path fill="#fff" fill-rule="evenodd" d="M114.527 82c5.528 0 9.473-5.217 9.473-10.74S119.537 62 114.009 62 104 67.218 104 72.741 109 82 114.527 82z" data-name="start-point"/>
        </g>
      </g>
    </g>
  </g>
</svg>
