<svg xmlns="http://www.w3.org/2000/svg" width="132" height="144" viewBox="0 0 132 144" role="img">
  <title>Aquent</title>
  <desc>Aquent “A” logo in black.</desc>
  <g fill="#1A1919" fill-rule="nonzero">
    <path d="M51 94.1481481L54.1202532 121 80 117.666667 76.8797468 91 51 94.1481481z"/>
    <path d="M128.101266 133.979381L76.6751055 2.78350515l-.185654-.55670103L75.5611814 0H56.9957806l-1.2995781 2.78350515-.556962 1.6701031L1.85654008 138.989691 0 143.814433h24.8776371S60.5232068 51.0309278 65.907173 36.742268c3.3417721 8.5360825 7.9831224 20.5979382 7.9831224 20.5979382 27.8481016 72.7422678 30.6329116 79.6082478 31.0042196 80.5360828 0-.185567-.185654-.371134-.185654-.371134l.742616 1.85567.556962 1.670103L107.122363 144H132l-2.413502-6.309278-1.485232-3.711341z"/>
  </g>
</svg>
