<?xml version="1.0" encoding="UTF-8"?>
<svg width="32px" height="32px" viewBox="0 0 32 32" version="1.1" xmlns="http://www.w3.org/2000/svg" xmlns:xlink="http://www.w3.org/1999/xlink">
    <title>icon-threads</title>
    <g id="icon-threads" stroke="none" stroke-width="1" fill="none" fill-rule="evenodd">
        <g id="threads" transform="translate(5.000000, 3.000000)" fill="#FFFFFF">
            <path d="M17.1191762,12.050499 C17.0090324,11.9968198 16.8971571,11.9451583 16.7838168,11.8956906 C16.5864369,8.19788125 14.5991864,6.08088542 11.2623608,6.05921875 C11.2472443,6.05912396 11.2322077,6.05912396 11.2170912,6.05912396 C9.22123692,6.05912396 7.56131466,6.92533021 6.53964064,8.50155312 L8.37479417,9.781525 C9.13802305,8.60414479 10.335834,8.35315 11.2179703,8.35315 C11.2281589,8.35315 11.2383875,8.35315 11.2484696,8.35324479 C12.3471644,8.36036771 13.1762398,8.68516458 13.7128414,9.3185625 C14.1033393,9.77969688 14.3645147,10.4169271 14.4938372,11.2211396 C13.5197235,11.0528031 12.4662316,11.0010469 11.3400208,11.0666969 C8.16751865,11.2525021 6.12797971,13.1337781 6.26496029,15.747875 C6.33446944,17.073875 6.98417159,18.214625 8.09430695,18.9598229 C9.0329136,19.5897813 10.2417789,19.8978542 11.4981512,19.8281146 C13.1573276,19.735625 14.4589428,19.0919896 15.3669968,17.9150833 C16.0566278,17.0213333 16.492808,15.8631146 16.6853933,14.4037292 C17.4761115,14.8889271 18.0621247,15.5274167 18.3857638,16.2949583 C18.9360834,17.5996979 18.9681809,19.74375 17.2475664,21.4917083 C15.7400475,23.023 13.9279349,23.6854583 11.1893222,23.7059063 C8.15146988,23.6830208 5.85397859,22.6924479 4.3602177,20.7616771 C2.96143089,18.9537292 2.23853037,16.3423542 2.21156044,13 C2.23853037,9.65761875 2.96143089,7.04621667 4.3602177,5.23828229 C5.85397859,3.30753854 8.15142992,2.31697917 11.1892823,2.29402604 C14.2491767,2.31715521 16.5867033,3.31248125 18.1376404,5.25254167 C18.8981257,6.203925 19.4714863,7.40035833 19.8494648,8.79535313 L22,8.21196458 C21.5418442,6.49488125 20.8209149,5.01525104 19.8398755,3.78814583 C17.8515595,1.30090458 14.9436023,0.0264262917 11.1967806,0 L11.181784,0 C7.4425804,0.0263344792 4.56718689,1.30566042 2.63550102,3.80240521 C0.916564558,6.0242 0.0298866718,9.11566771 0,12.9908594 L0,13 L0,13.0091406 C0.0298866718,16.8842917 0.916564558,19.9758542 2.63550102,22.1976354 C4.56718689,24.6943125 7.4425804,25.9737292 11.181784,26 L11.1967806,26 C14.5211401,25.9765729 16.8643936,25.091625 18.7947743,23.1306563 C21.3203579,20.5651875 21.2443094,17.3494479 20.4119043,15.3753438 C19.8147036,13.9596979 18.6761066,12.8099021 17.1191762,12.050499 Z M11.3793769,17.5374063 C9.9889275,17.6170313 8.54439171,16.9824688 8.47316447,15.6232917 C8.42037001,14.6155208 9.17853787,13.4910208 11.4647084,13.3570667 C11.7265231,13.3417104 11.9834367,13.3342083 12.2358219,13.3342083 C13.0662292,13.3342083 13.8430962,13.4162302 14.5493752,13.5732188 C14.2859357,16.9182813 12.7407255,17.4614375 11.3793769,17.5374063 Z" id="Shape"></path>
        </g>
    </g>
</svg>