<svg xmlns="http://www.w3.org/2000/svg" width="32" height="32" viewBox="0 0 32 32" role="img">
  <title>Threads</title>
  <path fill="#FFF" fill-rule="evenodd" d="M22.12 15.05a8.808 8.808 0 0 0-.336-.154c-.198-3.698-2.185-5.815-5.522-5.837h-.045c-1.996 0-3.656.866-4.677 2.443l1.835 1.28c.763-1.178 1.96-1.429 2.843-1.429h.03c1.1.007 1.928.332 2.465.966.39.46.652 1.098.78 1.902a13.812 13.812 0 0 0-3.153-.154c-3.172.186-5.212 2.067-5.075 4.68.07 1.327.72 2.468 1.83 3.213.938.63 2.147.938 3.403.868 1.66-.092 2.96-.736 3.869-1.913.69-.894 1.126-2.052 1.318-3.511.791.485 1.377 1.123 1.7 1.891.551 1.305.583 3.449-1.137 5.197-1.508 1.531-3.32 2.193-6.059 2.214-3.038-.023-5.335-1.014-6.829-2.944C7.961 21.954 7.24 19.342 7.212 16c.027-3.342.75-5.954 2.148-7.762 1.494-1.93 3.791-2.921 6.83-2.944 3.06.023 5.397 1.018 6.948 2.959.76.95 1.333 2.147 1.711 3.542L27 11.212c-.458-1.717-1.18-3.197-2.16-4.424C22.852 4.301 19.944 3.026 16.197 3h-.015c-3.74.026-6.615 1.306-8.546 3.802C5.916 9.024 5.03 12.116 5 15.991v.019c.03 3.874.917 6.966 2.636 9.188 1.931 2.496 4.807 3.776 8.546 3.802h.015c3.324-.023 5.667-.908 7.598-2.87 2.525-2.565 2.45-5.78 1.617-7.755-.597-1.415-1.736-2.565-3.293-3.325Zm-5.74 5.487c-1.391.08-2.836-.555-2.907-1.914-.053-1.007.706-2.132 2.992-2.266.262-.015.518-.023.77-.023.831 0 1.608.082 2.314.24-.263 3.344-1.808 3.887-3.17 3.963Z"/>
</svg>