<svg xmlns="http://www.w3.org/2000/svg" width="32" height="32" viewBox="0 0 32 32" role="img">
  <title>Medium</title>
  <path fill="#FFF" fill-rule="evenodd" d="M17.907 16.035c0 4.701-3.785 8.512-8.454 8.512-4.67 0-8.454-3.81-8.454-8.512 0-4.701 3.785-8.512 8.454-8.512 4.669 0 8.454 3.811 8.454 8.512m9.274 0c0 4.425-1.892 8.013-4.227 8.013-2.334 0-4.227-3.588-4.227-8.013s1.893-8.013 4.227-8.013c2.335 0 4.227 3.588 4.227 8.013m3.794 0c0 3.965-.666 7.18-1.487 7.18-.82 0-1.487-3.215-1.487-7.18s.666-7.179 1.487-7.179c.821 0 1.487 3.214 1.487 7.18"/>
</svg>