<svg xmlns="http://www.w3.org/2000/svg" width="32" height="32" viewBox="0 0 32 32" role="img">
  <title>GitHub</title>
  <path fill="#FFF" fill-rule="evenodd" d="M16 3C8.544 3 2.5 8.968 2.5 16.33c0 5.888 3.868 10.885 9.233 12.647.675.122.921-.289.921-.642 0-.317-.011-1.155-.018-2.268-3.755.806-4.547-1.786-4.547-1.786-.614-1.54-1.5-1.95-1.5-1.95-1.225-.827.094-.81.094-.81 1.355.094 2.067 1.373 2.067 1.373 1.204 2.038 3.16 1.45 3.93 1.108.122-.861.47-1.449.856-1.782-2.997-.336-6.149-1.48-6.149-6.588 0-1.455.526-2.644 1.39-3.576-.14-.337-.603-1.693.132-3.527 0 0 1.133-.36 3.712 1.366a13.085 13.085 0 0 1 3.38-.449c1.146.005 2.301.153 3.38.449 2.577-1.725 3.708-1.366 3.708-1.366.737 1.834.273 3.19.134 3.527.865.932 1.388 2.121 1.388 3.576 0 5.12-3.156 6.248-6.164 6.578.485.411.917 1.225.917 2.468 0 1.782-.017 3.22-.017 3.657 0 .356.243.77.928.64 5.36-1.765 9.225-6.758 9.225-12.645C29.5 8.968 23.455 3 16 3"/>
</svg>