<svg xmlns="http://www.w3.org/2000/svg" width="32" height="32" viewBox="0 0 32 32" role="img">
  <title>LinkedIn</title>
  <path fill="#FFF" fill-rule="evenodd" d="M27 27h-4.558v-7.147c0-1.703-.03-3.896-2.369-3.896-2.373 0-2.735 1.857-2.735 3.775V27h-4.553V12.305h4.37v2.01h.063c.608-1.157 2.095-2.375 4.313-2.375 4.616 0 5.469 3.043 5.469 7V27zM7.645 10.297A2.645 2.645 0 0 1 5 7.648 2.645 2.645 0 0 1 7.645 5a2.646 2.646 0 0 1 2.642 2.648 2.646 2.646 0 0 1-2.642 2.65zM5.362 27h4.564V12.305H5.362V27z"/>
</svg>