<svg xmlns="http://www.w3.org/2000/svg" width="32" height="32" viewBox="0 0 32 32" role="img">
  <title>Medium</title>
  <g fill="#FFF" fill-rule="evenodd">
    <path d="M17.9068605 16.0351173c0 4.7010885-3.7850555 8.5120522-8.45408922 8.5120522-4.66906243 0-8.45408927-3.8109637-8.45408927-8.5120522 0-4.7011173 3.78502684-8.51208099 8.45408927-8.51208099 4.66903372 0 8.45408922 3.81096369 8.45408922 8.51208099M27.1812778 16.0351173c0 4.4252618-1.8925565 8.0126459-4.2271595 8.0126459-2.3344881 0-4.2270159-3.5873841-4.2270159-8.0126459 0-4.4252906 1.8925278-8.01267471 4.2270159-8.01267471 2.334603 0 4.2271595 3.58738411 4.2271595 8.01267471M30.9747205 16.0351173c0 3.9648613-.6655112 7.1789904-1.4867009 7.1789904-.8209025 0-1.486701-3.2141291-1.486701-7.1789904 0-3.9648901.6657985-7.17901922 1.486701-7.17901922.8211897 0 1.4867009 3.21412912 1.4867009 7.17901922"/>
  </g>
</svg>
