<svg xmlns="http://www.w3.org/2000/svg" width="32" height="32" viewBox="0 0 32 32" role="img">
  <title>Twitter</title>
  <path fill="#FFF" d="M10.796 27.5c10.565 0 16.347-8.851 16.347-16.514 0-.25 0-.498-.011-.747A11.772 11.772 0 0 0 30 7.228c-1.03.464-2.14.77-3.305.917a5.83 5.83 0 0 0 2.532-3.215 11.358 11.358 0 0 1-3.653 1.404 5.708 5.708 0 0 0-4.19-1.834c-3.171 0-5.748 2.603-5.748 5.807 0 .452.056.894.146 1.324-4.774-.238-9.009-2.558-11.844-6.067a5.85 5.85 0 0 0-.773 2.92 5.836 5.836 0 0 0 2.555 4.833 5.767 5.767 0 0 1-2.6-.724v.08c0 2.806 1.984 5.16 4.605 5.693a5.548 5.548 0 0 1-1.512.203c-.37 0-.728-.034-1.076-.101.729 2.309 2.857 3.984 5.367 4.029a11.45 11.45 0 0 1-7.137 2.49c-.46 0-.919-.022-1.367-.079a16.223 16.223 0 0 0 8.796 2.592z"/>
</svg>