<svg xmlns="http://www.w3.org/2000/svg" width="32" height="32" viewBox="0 0 32 32" role="img">
  <title>YouTube</title>
  <path fill="#FFF" fill-rule="evenodd" d="M13.136 19.94v-8.275l7.319 4.138-7.319 4.137zM29.415 9.06a3.507 3.507 0 0 0-2.476-2.476C24.756 6 16 6 16 6s-8.756 0-10.94.585a3.507 3.507 0 0 0-2.475 2.476C2 11.245 2 15.802 2 15.802s0 4.557.585 6.741a3.507 3.507 0 0 0 2.476 2.477c2.183.585 10.939.585 10.939.585s8.756 0 10.94-.585a3.507 3.507 0 0 0 2.475-2.477c.585-2.184.585-6.74.585-6.74s0-4.558-.585-6.742z"/>
</svg>