<?xml version="1.0" encoding="UTF-8"?>
<svg xmlns="http://www.w3.org/2000/svg" width="208" height="24" viewBox="0 0 208 24" role="img">
  <title>Gymnasium</title>
  <desc>Gymnasium logo in white.</desc>
  <g fill="none">
    <path d="M194.64 24c-.192 0-.32-.085-.415-.274l-6.026-13.393h-.37l-1.982 12.973c-.02.145-.212.356-.432.356h-3.04c-.163 0-.29-.05-.372-.145-.088-.1-.12-.248-.095-.43L185.928.36c.013-.09.074-.359.434-.359h.54c.188 0 .338.088.414.239l7.48 16.068h.33L202.608.235c.082-.163.205-.235.413-.235h.54c.36 0 .42.27.432.352l3.989 22.741c.038.18.015.324-.064.423-.077.094-.208.146-.37.146h-3.075c-.223 0-.423-.22-.468-.377l-2.013-12.952h-.371l-5.962 13.401c-.047.138-.173.266-.41.266h-.609m-26.386-.338c-5.168 0-9.216-4.008-9.216-9.124V.465c0-.24.225-.465.464-.465h3.21c.286 0 .463.24.463.465V14.3c0 3.084 2.136 5.32 5.079 5.32 2.963 0 5.112-2.224 5.112-5.286V.465c0-.224.177-.465.463-.465h3.212c.237 0 .462.226.462.465v14.073c0 5.116-4.063 9.124-9.25 9.124m-19.684-.339a.488.488 0 0 1-.464-.462V.465a.49.49 0 0 1 .464-.465h3.143c.238 0 .462.226.462.465V22.86a.486.486 0 0 1-.462.462h-3.143M134.086 24c-4.366 0-6.856-2.157-7.31-2.59-.294-.294-.375-.373-.136-.796l1.214-2.096a.576.576 0 0 1 .517-.303c.138 0 .272.043.367.118l.106.07c1.99 1.35 3.755 2.064 5.107 2.064 1.825 0 3.253-1.222 3.253-2.783 0-1.712-1.316-2.976-4.402-4.225-2.68-1.085-6.243-3.005-6.243-7.142 0-3.042 2.324-6.317 7.426-6.317 3.507 0 6.155 1.859 6.65 2.231a.556.556 0 0 1 .244.371.65.65 0 0 1-.08.499l-1.286 1.933c-.175.263-.441.434-.677.434a.453.453 0 0 1-.257-.078c-1.143-.728-3.208-1.89-4.797-1.89-1.973 0-3.151 1.293-3.151 2.546 0 1.622 1.187 2.769 4.098 3.956 3.437 1.383 6.95 3.352 6.95 7.48 0 3.159-2.662 6.518-7.593 6.518M95.95 24 81.824 8.472h-.257l-.033.178V23.2a.464.464 0 0 1-.464.463h-3.075a.488.488 0 0 1-.464-.463V.43c0-.23.218-.431.464-.431h.767L92.82 14.952h.256l.035-.178V.804c0-.225.176-.466.462-.466h3.11c.238 0 .462.226.462.465v22.768c0 .228-.216.429-.463.429h-.732m-37.486 0c-.191 0-.32-.085-.416-.274l-6.026-13.393h-.37l-1.981 12.973c-.021.145-.213.356-.433.356h-3.04c-.162 0-.29-.05-.372-.145-.088-.1-.12-.248-.094-.43L49.752.36c.012-.09.074-.359.434-.359h.54c.187 0 .338.088.414.239l7.48 16.068h.33L66.43.235c.083-.163.206-.235.414-.235h.539c.36 0 .421.27.432.352l3.989 22.741c.039.18.016.324-.064.423-.076.094-.207.146-.37.146h-3.075c-.223 0-.422-.22-.468-.377l-2.013-12.952h-.37l-5.963 13.401c-.046.138-.173.266-.41.266h-.608m-26.334-.677a.464.464 0 0 1-.462-.462V12.046L23.93.702a.471.471 0 0 1-.02-.478.455.455 0 0 1 .414-.224h3.446c.152 0 .278.074.396.233l5.55 7.988L39.271.228c.116-.153.243-.228.395-.228h3.481c.182 0 .333.082.413.225a.472.472 0 0 1-.026.484L35.7 12.01v10.85a.486.486 0 0 1-.461.462h-3.11m-20.177.643C5.25 23.966 0 18.725 0 12.034 0 5.398 5.363 0 11.953 0c2.9 0 5.787 1.104 8.129 3.104.099.1.159.233.159.368 0 .12-.047.228-.134.316L18.01 5.991c-.097.096-.199.147-.298.147-.103 0-.216-.054-.334-.158-1.461-1.295-3.315-2.008-5.22-2.008-4.272 0-7.749 3.602-7.749 8.029 0 4.37 3.491 7.926 7.782 7.926 1.947 0 3.446-.602 4.088-.86l.11-.045v-3.175h-2.88c-.264 0-.464-.185-.464-.43v-2.672c0-.273.191-.464.464-.464h6.488c.229 0 .43.218.43.464v8.66c0 .166-.068.3-.198.397-.024.014-3.487 2.164-8.275 2.164" fill="#fff"/>
    <g fill="#ff5f14">
      <path d="m109.75 15.546.547 4.454 4.453-.547L114.2 15l-4.45.546"/>
      <path d="M113.813.008 110.543 0 101 23.65h4.199l6.943-17.707 6.95 17.707h4.197L113.813.008"/>
    </g>
  </g>
</svg>
