<svg xmlns="http://www.w3.org/2000/svg" width="574" height="488" viewBox="0 0 574 488" xmlns:xlink="http://www.w3.org/1999/xlink">
  <title>
    gym-013
  </title>
  <defs>
    <path id="a" d="M.868 94l6-94h188c4 21.02 6 36.676 6 46.97 0 10.296-2 22.64-6 37.03l-194 10z"/>
    <path id="c" d="M4.218 80L0 0h227.868C230.623 17.905 232 31.24 232 40c0 8.76-1.377 19.428-4.132 32L4.218 80z"/>
  </defs>
  <g fill="none" fill-rule="evenodd">
    <path fill="#5CA5A0" d="M0 0h574v488H0z"/>
    <g transform="translate(305.132 248)">
      <mask id="b" fill="#fff">
        <use xlink:href="#a"/>
      </mask>
      <use fill="#CCC" xlink:href="#a"/>
      <path fill="#B7B7B7" d="M.868 0v93.944h201c-19.25-29.513-43.934-51.433-74.053-65.76C97.697 13.853 58.907 4.46 11.447 0" mask="url(#b)"/>
    </g>
    <g transform="translate(120.132 140)">
      <mask id="d" fill="#fff">
        <use xlink:href="#c"/>
      </mask>
      <use fill="#C9C9C9" xlink:href="#c"/>
      <path fill="#B7B7B7" d="M-.132 0l8 80h227.62c-22.565-25.132-51.5-43.798-86.807-56C113.376 11.798 67.905 3.798 12.27 0H-.133z" mask="url(#d)"/>
    </g>
    <path fill="#1D2631" d="M120 140l80 46 112 62-6 94-90-48-16-66-8 48-68-48"/>
    <path stroke="#E1E1E1" stroke-width="9" d="M374 230H252" stroke-linecap="round" stroke-linejoin="bevel" stroke-dasharray="16 28"/>
    <path stroke="#FFF" stroke-width="9" d="M244 402V234M244 236V76" stroke-linecap="round" stroke-linejoin="bevel" stroke-dasharray="16 28"/>
    <path stroke="#EBEBEB" stroke-width="9" d="M410 340L70.22 148.56" stroke-linecap="round" stroke-linejoin="bevel" stroke-dasharray="16 24"/>
    <path fill="#1D2631" d="M200 186l112 62-6 94-90-48-16-66-8 48"/>
    <path fill="#1D2631" d="M120 140l80 46v38l-8 52-68-48"/>
    <path stroke="#E1E1E1" stroke-width="9" d="M180 230H58" stroke-linecap="round" stroke-linejoin="bevel" stroke-dasharray="16 28"/>
  </g>
</svg>
