<svg xmlns="http://www.w3.org/2000/svg" width="574" height="488" viewBox="0 0 574 488" version="1"><title>gym-004</title><desc>Created with Sketch.</desc><g stroke="none" stroke-width="1" fill="none" fill-rule="evenodd"><rect fill="#D73158" x="0" y="0" width="583" height="488"/><g transform="translate(78.363612, 357.970438)"><path d="M111 11C112 10 112 10 113 10 112 9 111 8 110 8 97 12 83 15 69 15 66 15 64 16 60 16 57 16 53 16 49 16 39 16 25 18 14 23 4 28-2 36 3 47 26 72 147 78 249 78 307 78 377 70 403 65 418 62 437 51 432 35 430 27 410 18 395 16 342 8 317 1 279 0 278 1 277 2 277 4 261 3 244 3 226 3 183 3 143 6 111 11Z" fill="#951C27"/><path d="M72 18C52 21 33 25 33 33 33 56 57 61 78 61 92 61 105 59 108 59 155 59 198 70 225 70 229 70 232 70 235 69 392 65 403 39 403 39 408 29 405 23 386 23 383 23 379 23 374 24 371 23 369 23 366 23 363 23 359 24 356 24 354 24 351 24 348 24 347 24 346 24 346 24 348 26 350 29 349 33 289 46 228 52 167 52 138 52 108 51 79 48 70 47 59 40 61 28 63 23 67 20 71 19 71 18 72 18 72 18" fill="#751721"/><path d="M101 10C91 13 82 16 73 19 86 18 100 17 110 17 107 15 104 12 101 10M289 9C288 10 288 10 288 10 292 11 296 11 298 12 322 22 334 24 344 25 342 23 340 22 338 21 322 16 305 12 289 9" fill="#751721"/><path d="M291 4C267 26 239 36 206 36 203 36 201 36 198 36 160 34 133 32 108 12 98 12 84 13 70 15 70 15 69 15 69 15 65 17 60 20 59 27 56 40 68 48 77 49 107 53 137 54 167 54 229 54 291 47 353 32 353 28 352 24 349 22 339 21 327 19 302 7 300 6 296 5 291 4" fill="#65141E"/></g><g transform="translate(116.985219, 60.541790)"><path d="M129 4C151-2 164 3 168 3 190 4 205 5 226 14 245 21 274 40 288 56 313 84 322 125 322 164 322 214 304 248 275 282 243 321 206 336 158 334 109 332 80 329 47 293 19 261 8 233 2 189 -4 141 5 87 39 56 65 24 129 4 129 4" fill="#3C1218"/><path d="M50 71C37 87 23 112 18 134 6 187 22 288 113 316 137 323 180 321 204 312 225 304 238 296 255 282 302 244 311 189 302 134 297 109 284 83 269 61 219-7 98 11 50 71" fill="#DCDBDB"/><path d="M293 175C288 167 286 157 282 149 273 131 253 120 233 118 212 116 192 121 172 127 161 131 150 135 141 142 133 148 126 156 119 163 110 171 100 179 90 185 79 191 67 196 59 205 50 215 61 234 50 243 47 245 36 235 34 233 22 221 23 213 22 208 15 178 7 153 24 122 28 113 33 104 39 96 51 80 65 66 80 54 96 41 114 32 133 29 146 27 159 28 172 30 201 35 229 44 251 64 258 69 263 76 269 82 283 97 292 104 299 123 304 135 303 160 305 172 306 180 302 212 298 222 291 237 280 252 268 263 278 245 283 232 288 212 290 208 297 181 293 175" fill="#C9C9C9"/><path d="M13 101C21 133 35 172 49 201 65 234 77 271 89 305 93 316 100 329 110 317 117 308 139 218 152 193 155 187 156 181 159 175 169 201 208 300 223 319 234 310 234 300 237 287 241 269 273 179 282 151 289 128 293 97 280 74 261 42 226 52 226 84 226 118 264 143 255 179 247 206 239 232 234 259 227 248 224 230 218 218 211 200 205 185 201 167 195 143 183 120 180 97 185 95 190 95 196 95 197 95 198 95 200 95 200 92 200 88 200 86 186 82 106 81 105 95 126 95 129 100 137 118 142 130 155 151 153 165 150 182 137 199 133 217 131 226 124 257 114 258 107 248 107 232 102 220 96 204 88 189 83 173 77 153 62 121 64 100 71 101 77 97 83 93 83 93 83 89 83 89 69 84 50 88 36 89 18 90 12 97 14 117L13 101" fill="#3C1218"/><path d="M248 65C239 70 255 79 262 87 268 95 268 118 276 119 281 102 279 70 258 68 258 68 253 65 248 65" fill="#711D2A"/></g></g></svg>