<svg xmlns="http://www.w3.org/2000/svg" width="574" height="488" viewBox="0 0 574 488" role="img">
  <title>(GYM 016) Designing Accessible and Responsive Websites</title>
  <desc>Learn accessible and responsive design best practices in order to help improve the web for everyone.</desc>
  <path fill="#D73158" fill-rule="evenodd" d="M0 0h574v488H0z" clip-rule="evenodd"/>
  <g fill-rule="evenodd" clip-rule="evenodd">
    <path fill="#951C27" d="M54.5 414.6c-19.7 12.9 30.1 25.4 67.2 30.7 14.7 2.1 33.2 3.6 56.1 3.6 80.8 0 127.8 6.1 152.8 6.1 113 0 179.3-18.6 191.6-37 8-11.9-13.3-21.3-35.9-25.7-41.1-8-110.3-4.6-183.3-4.6-112.9 0-199.3-5.1-248.5 26.9z"/>
    <path fill="#881A25" d="M261.9 442.7c33.6-1 59.3.6 91.4 0 55.9-1.1 112.3-4.4 128.2-8 13.9-3.1 30.6-17.8 32-18.7 4.3-2.9-12.8-25.8-109-28.3s-49.8 3.9-90.8 3.9C210.5 391.5 64 401 64 416c0 13.5 105.7 29.5 197.9 26.7z"/>
    <path fill="#6E1620" d="M131.1 398.2s1.3-.2 3.3-.4c8.6-1.2 31.1-4.2 33-4.3 11.6-1.1 25-1.1 61.4-3.7 16.6-1.2 35.7-.7 51.7 0 9 .4 90.6 6.8 127.6 10.3 59 5.5 101.8 16.1 82.1 24.1-13.9 5.5-107.9 12.8-199.3 12.8-63.4 0-173.9-12.9-173.9-12.9s-26.5-3.2-37.6-8c-5.1-2.2-.7-5.7 0-7.6 1.9-5.1 51.7-10.3 51.7-10.3z"/>
  </g>
  <g fill-rule="evenodd" clip-rule="evenodd">
    <path fill="#3C1218" d="M311.6 320.6c-19 .3-32.9 1.1-51.8-.6.7 19.7 5 43.8-17 53.4-8.4 3.7-16.3 8.2-25.3 10.5-3.6.9-7.5 1.8-10 4.3-2.4 2.5-2.2 7.2 1.3 8.4.7.2 1.5.3 2.2.4 45.8 4.1 92.1 4 137.9-.2 4.2-.4 8.5-.8 12.1-2.8 3.6-2 7.9-4.4 6.6-7.9-1.5-4-24.4-7.8-28.9-9.3-25.1-8.5-27.7-28.3-27.1-56.2"/>
    <path fill="#711D2A" d="M261.6 368c-2.6 2.5-5 4.2-6.4 5.4-3.3 2.9-12.4 5.1-12.9 9.1-1.2 1.1 1.7 1.5 6.5 1.5 3.6 0 8.3-.2 13.2-.4-.2-5.5-.3-10.7-.4-15.6"/>
  </g>
  <g fill-rule="evenodd" clip-rule="evenodd">
    <path fill="#3C1218" d="M310.8 36.2c37.3.7 74.7 1.4 114.4 1.1 8.1-.1 23.7 1.1 31.2 4.3 13.5 5.9 11.4 27.6 11.9 46 2.4 83.1 1.3 126.5 1.3 192.2-1.7 32.4 2.1 47.1-36.2 51.3-23 2.5-102.9 2.4-140.4 1-23-.8-92.3-1.2-108.1-1-70.7.7-81 10.3-80.7-46.3-1-75.5.2-102.3 2.3-180.9.5-14.2.5-36.7 2.2-50.6 1-7.9 8-13.1 16-14.2 31.3-4.3 43-4.1 58.3-4 4.1 0 8.4.1 13.4.1 39.8-.4 77.1.3 114.4 1z"/>
    <path fill="#DCDBDB" d="M202.9 55.2c-16.3.4-34.1-1-79.9 2.5 2 74.6 2.8 160.2 2.1 234.9 38.9 2.1 53.5 1.3 80.3.7 57.4-1.3 114.8 1.5 172.2.2 20-.5 63.8.2 72.5-3.2 2.2-9.9-.2-57.2-.2-62.6-.2-52.4-.3-80.6-.5-132.9 0-9.2.3-24.5-1.3-37.1-22.6-3.8-45-3-57.8-3.1-68.6-.6-119-1.2-187.4.6"/>
    <path fill="#C9C9C9" d="M338.7 96.2c-11.4 2.4-23.1 2.3-34.7 3.1-29.4 1.9-19.6 20.5-48.2 27.7-7.8 2-41.8 34.8-47.8 40.3-7.7 7.2-46 22.7-55.4 41-9.4 18.3-16 39.7-10.7 59.7 103.3-.1 191.7-14.5 287.8-8.6 4.6-60.3 2.4-121.2-6.5-181-27.8-9.5-55.8 11.8-84.5 17.8"/>
    <path fill="#FFF" d="M146.3 163.8c.9-11.6 2.6-23.1 5.1-34.5 2.8-12.5 3.7-27.4 14.2-34.9 8.8-6.3 23.6-6.8 34.3-7.9 8.8-.9 29.5-5 43.6-7 .8-.1.7-1.2 0-1.3-47.9-5.5-97.2.8-97.2.8-7.7-2-2.9 19-2.6 28.8.4 17.3-.9 34.7-.5 52 0 2 1.2 4.9 3.1 4"/>
  </g>
  <path fill="#3C1218" fill-rule="evenodd" d="M288.2 78c6.4 0 12.4 1.3 18.2 3.4 13.8 3.4 26.3 10.5 36.2 20.1 6.2 4.7 11.8 10.1 15.8 16.8l.4.6c6.7 11.6 9.2 25.6 9.2 39.9v.8c0 14.3-2.2 28.4-8.7 40.1l-.4.6c-6.9 11.9-18.2 20.9-30.2 27.9l-.7.4c-11.6 6.7-24.8 11.4-39.1 11.5h-.8c-5.8 0-11.4-.9-16.7-2.5-16.5-3.2-31.2-11.6-42.4-23.3-4.6-3.8-8.6-8.1-11.7-13.1l-.4-.6c-6.6-11.7-10.7-26-10.9-40.3v-.8c0-14.3 4.6-28.3 11.2-40l.4-.6c2.5-4.3 5.5-8.4 8.9-12.2 8.5-9.9 19.3-17.6 31.7-22.3 9.1-3.8 19-6.2 29.2-6.4h.8zm-43.5 44l33.9 2.8h14.9l36.1-2.8c2.9-.1 5.3 2 5.4 4.8.1 2.7-2.1 6.6-5 6.8l-30.3 3.9 1.6 25 13.1 48.4c.8 2.9-1.1 5.9-4.2 6.6-3.1.7-7.2-.9-7.9-3.8l-14-42.4h-3.6l-13.8 43.2c-1.2 2.8-5.5 4.1-8.4 3-2.9-1.1-4.7-4.3-3.6-7.1l12.7-45.7 2-27.4-29.6-3.8c-2.9-.2-5.2-4.2-5-6.9.2-2.7 2.8-4.8 5.7-4.6zM287 96c5.5 0 10 4.5 10 10s-4.5 10-10 10-10-4.5-10-10 4.5-10 10-10z" clip-rule="evenodd"/>
  <path fill="#711D2A" fill-rule="evenodd" d="M286 42c-.4 0-.8.1-1.1.2-1.9 1-2.3 2.8-1.5 4.8 1 .5 2.1 1 3.1 1 .5 0 1-.1 1.4-.5 1.2-1.1 1.5-3.1.6-4.4-.1-.2-.3-.4-.5-.5-.4-.4-1.3-.6-2-.6" clip-rule="evenodd"/>
  <g>
    <path fill="#3C1218" fill-rule="evenodd" d="M358 426.7c-25.8-.4-51.6-.9-79.1-.7-5.6 0-16.4-.7-21.6-2.8-9.4-3.8-7.9-17.8-8.3-29.7-1.6-53.5-.8-81.5-.8-123.9.4-8.4-.2-18.5 14.8-18.8 31-.7 63.8-2.7 97.6-1.3 13.1.5 23.8.5 34 .4 9.2-.1 18-.1 27.9.3 5.6.2 14 .1 23-.1 16.6-.3 35.6-.6 44.1 1.5 12.2 3 7.7 22.7 9.6 51.1.7 48.7 1.4 29.7-.1 80.4-.3 9.1-.2 23.6-1.4 32.6-.7 5.1-5.6 8.5-11.1 9.2-21.6 2.8-29.7 2.7-40.3 2.6-2.8 0-5.8-.1-9.3 0-27.4.1-53.2-.4-79-.8z" clip-rule="evenodd"/>
    <path fill="#DCDBDB" fill-rule="evenodd" d="M423.9 413.2c10.6-.3 22.3.6 52.1-1.6-1.3-47.3-1.8-101.5-1.4-148.8-25.3-1.3-34.9-.8-52.4-.5-37.4.8-74.9-1-112.3-.1-13.1.3-41.6-.1-47.3 2-1.4 6.3.1 36.2.1 39.6.1 33.2.2 51 .4 84.2 0 5.8-.2 15.5.9 23.5 14.7 2.4 29.3 1.9 37.7 2 44.6.5 77.5.9 122.2-.3" clip-rule="evenodd"/>
    <path fill="#C9C9C9" fill-rule="evenodd" d="M281.9 300.1c-1.5.2-18.4 89.4 21.5 101.3 8.8 2.6 59.5-.5 68.6-1 34.4-2.1 55.4-5.8 89.5-1.1 0-4.1.1-8.3.1-12.4 23.6-51.1-82.9-54.9-89-63.8-7.2-10.6-31.6-21.7-33.4-34.7-2.5-17.3-47.8-17-56.6-15-3 6.9 0 26.7-.7 26.7" clip-rule="evenodd"/>
    <path fill="#FFF" fill-rule="evenodd" d="M463.2 277.3c1.4.1 3.3.7 2.9 1.6-8.1 3-17.6 3.6-26.8 4-54.1 2.4-108.5-1.1-162.5 1.5-12-4.3 20.4-6.6 31.9-6.4 28.5.4 57.5-2 86-1.5 8.2.1 14.4.9 22.6.5 14.7-.7 31.1-.8 45.9.3" clip-rule="evenodd"/>
    <path fill="#3C1218" fill-rule="evenodd" d="M370.821167 290.431484c3.9 0 7.7.8 11.2 2.1 8.5 2.1 16.2 6.5 22.3 12.4 3.8 2.9 7.2 6.2 9.7 10.2l.3.5c4.1 7.1 5.6 15.7 5.7 24.4v.7c0 8.8-1.3 17.4-5.3 24.6l-.3.5c-4.2 7.3-11.2 12.8-18.5 17.1l-.5.3c-7.1 4.1-15.2 7-24 7.1h-.7c-3.6 0-7-.6-10.3-1.5-10.2-2-19.3-7.2-26.2-14.4-2.8-2.3-5.2-4.9-7.1-8l-.3-.5c-4-7-6.6-15.8-6.7-24.5v-.7c0-8.8 2.8-17.4 6.9-24.6l.3-.5c1.5-2.7 3.4-5.2 5.5-7.5 5.3-6.1 12-10.9 19.6-13.8 5.5-2.3 11.5-3.8 17.8-3.9h.6zm-26.8 27.2l20.9 1.7h9.2l22.3-1.7c1.8-.1 3.3 1.2 3.3 2.9.1 1.7-1.3 4.1-3.1 4.2l-18.7 2.4 1 15.4 8.1 29.9c.5 1.8-.7 3.6-2.6 4.1-1.9.5-4.4-.5-4.9-2.4l-8.7-26.2h-2.2l-8.5 26.8c-.7 1.7-3.4 2.5-5.2 1.9-1.8-.7-2.9-2.6-2.2-4.4l7.8-28.2 1.2-16.9-18.2-2.4c-1.8-.1-3.2-2.6-3.1-4.3.2-1.7 1.8-3 3.6-2.8zm26.1-16.1c3.4 0 6.2 2.8 6.2 6.2 0 3.4-2.8 6.2-6.2 6.2-3.4 0-6.2-2.8-6.2-6.2 0-3.4 2.8-6.2 6.2-6.2z" clip-rule="evenodd"/>
    <g>
      <path fill="#962536" fill-rule="evenodd" d="M487.4 333c-.7 0-1.4.1-1.9.3-3.5 1.7-4.2 4.7-2.9 8.1 1.8.7 3.8 1.6 5.6 1.6.9 0 1.8-.2 2.6-.9 2.1-1.8 2.7-5.1 1.1-7.4-.2-.2-.5-.5-.8-.7-.8-.6-2.3-1-3.7-1" clip-rule="evenodd"/>
    </g>
  </g>
  <g>
    <path fill="#3C1218" fill-rule="evenodd" d="M74 377.1c-.2-34 .9-63.9.7-97.9 0-3.5.4-10.2 1.5-13.4 2-5.8 9.2-4.9 15.3-5.1 27.6-1 42.1-.6 63.9-.6 4.3.2 9.5-.1 9.7 9.2.4 19.2 1.4 39.5.7 60.4-.5 15.4 0 25.3-.4 38.3-.3 9.9 1 33.4-.7 41.5-1.6 7.6-11.7 4.7-26.4 5.9-25.1.4-15.3.9-41.4 0-4.7-.2-12.2-.1-16.8-.9-2.6-.4-4.4-3.4-4.7-6.9-1.9-16.8-1.3-20.3-1.4-30.5" clip-rule="evenodd"/>
    <path fill="#DCDBDB" fill-rule="evenodd" d="M85.3 365.6c.1 6.2-.3 13 .7 30.4 21.8-.8 46.7-1.1 68.5-.8.6-14.8.4-20.4.2-30.6-.4-21.9.4-43.7.1-65.6-.1-7.6.1-24.3-.9-27.6-2.9-.8-16.7.1-18.2.1-15.3.1-23.5.1-38.8.2-2.7 0-7.1-.1-10.8.5-1.1 8.6-.9 17.1-.9 22-.2 26.1-.4 45.3.1 71.4" clip-rule="evenodd"/>
    <path fill="#C9C9C9" fill-rule="evenodd" d="M90 282c13.9 5.6 30.7 2 43 11.1 12.4 9.1 15.6 27.5 14.9 43.8-.7 16.3-4.2 32.9-.6 48.7-15.8 3.9-32.1 5.2-48.3 3.8-3.9-35.7-4.9-70.5-7-106.4" clip-rule="evenodd"/>
    <path fill="#FFF" fill-rule="evenodd" d="M104.9 279c.4-.9-.8-1.9-1.8-1.9-5.6-.2-7.2-.3-10 2.1-.8.7-1.5 3.4-1.9 4.3-.3.7-.4 1.4-.5 2.1-.7 5-.9 10.1-.6 15.2 1.3 1.1 2.7-1.7 3.5-3.7 1.8-4.7 2.6-8.2 4.9-12.3.9-1.7 4.5-3.7 5.9-5.1.2-.3.4-.5.5-.7" clip-rule="evenodd"/>
    <path fill="#3C1218" fill-rule="evenodd" d="M120.4 306c2.2 0 4.3.5 6.3 1.2 4.8 1.2 9.1 3.6 12.5 6.9 2.1 1.6 4 3.4 5.3 5.6l.2.4c2.3 3.9 3.1 8.7 3.2 13.5v.5c0 4.9-.7 9.7-2.9 13.6l-.2.4c-2.4 4.1-6.2 7.1-10.2 9.5l-.4.4c-3.9 2.3-8.4 3.9-13.3 4h-.5c-2 0-3.9-.3-5.8-.9-5.7-1.1-10.8-4-14.7-8.1-1.5-1.3-2.9-2.7-3.9-4.3l-.3-.4c-2.2-3.9-3.6-8.7-3.7-13.6v-.5c0-4.9 1.5-9.6 3.8-13.6l.2-.5c.9-1.5 1.9-2.9 3.1-4.2 2.9-3.4 6.7-6 10.9-7.7 3.1-1.3 6.4-2.1 9.8-2.2h.6zm-15 15.2l11.7 1h5.1l12.5-1c1 0 1.8.7 1.9 1.6 0 .9-.7 2.3-1.7 2.3l-10.5 1.4.6 8.6 4.5 16.7c.3 1-.4 2-1.4 2.3-1.1.3-2.5-.3-2.7-1.3l-4.9-14.6h-1.3l-4.8 14.9c-.4 1-1.9 1.4-2.9 1-1-.4-1.6-1.5-1.2-2.5l4.3-15.6.7-9.5-10.2-1.4c-1-.1-1.8-1.4-1.7-2.4.1-.8 1-1.6 2-1.5zm14.6-9c1.9 0 3.5 1.5 3.5 3.4s-1.5 3.5-3.5 3.5c-1.9 0-3.4-1.5-3.4-3.5-.1-1.8 1.5-3.4 3.4-3.4z" clip-rule="evenodd"/>
    <g>
      <path fill="#962536" fill-rule="evenodd" d="M120.9 401c-1 0-2.2.3-3.4.7-1 2.1-2.3 4.9-.7 6.6 1 1.1 2.5 1.7 4 1.7.9 0 1.9-.2 2.7-.8.3-.2.5-.4.7-.6.8-1 1.2-4.1.6-5.2-1-1.8-2.3-2.4-3.9-2.4" clip-rule="evenodd"/>
    </g>
  </g>
</svg>
