<svg width="574" height="488" viewBox="0 0 574 488" xmlns="http://www.w3.org/2000/svg" xmlns:xlink="http://www.w3.org/1999/xlink">
  <title>(GYM 008) Advanced Rapid Prototyping with Axure</title>
  <desc>Learn how to use the conditional logic features in Axure in order to quickly create an interactive prototype.</desc>
  <g fill="none" fill-rule="evenodd">
    <path fill="#5CA5A0" d="M0 0h574v488H0z"/>
    <path fill="#315A5B" d="M57.662 378.23c-19.217 17.952 29.418 35.57 65.63 43.01 14.334 2.943 32.34 4.998 54.682 4.998 78.78 0 124.705 8.516 149.082 8.516C437.26 434.754 502 408.688 514 383c7.805-16.708-12.944-29.802-35-36-40.146-11.28-107.725-6.423-178.852-6.423-110.202 0-194.497-7.175-242.486 37.653z"/>
    <path fill="#2C4F4F" d="M265 420.84c12.828 1.204 77.93-1.39 90.544 0 54.668 6.032 91.848 1.18 116.562-7.57 13.75-4.87 29.246-31.87 30.54-33.274C506.852 375.436 490 340 395 336s-49.2 6-89.644 6C203.574 342 59 356.78 59 379.996c0 21.09 78.728 28.907 206 40.845z"/>
    <path fill="#274444" d="M133 402l3.227.75c8.325 1.93 30 6.946 31.773 7.25 11.206 1.924 24.136 1.852 59.15 6.158 16.026 1.97 34.432 1.1 49.85 0 8.69-.62 87.31-11.423 122.926-17.175C456.773 389.803 498 372 479 358.603 465.675 349.21 375.08 337 287 337c-61.025 0-167.533 21.604-167.533 21.604S93.924 364.014 83.27 372c-4.948 3.707-.703 9.502 0 12.802C85.07 393.282 133 402 133 402z"/>
    <path fill="#1D2631" d="M441.39 233.16c.32 73.432 4.093 148.4-11.938 149.366-8.94 5.718-84.025 10.624-152.56 10.955-70.373.342-134.31-4-149.048-6-18.254-.093-12.23-77.598-12.36-168.383.38-99.44-9.415-140.157 23.95-140.306 15.376-2.897 267.048-8.556 288.043-.512 16.286 3.54 13.612 85.155 13.914 154.883z"/>
    <path fill="#FFF" d="M425.29 180.443c-.148 79.392 2.635 115.245-1.906 187.967-165.834 10.475-201.076 3.7-291.51-.022.274-125.114-.96-43.536-1.87-131.93-.115-11.16 1.87-131.466 1.87-131.466.073-4.414 3.715-8.147 8.125-8.336 0 0 106.697-4.68 142.18-4.656 37.56.027 72.618 2.374 114.028 1.372 2.006-.05 6.577-.035 12.672-.02 3.185.007 2.66.004 2.66.004 4.415.004 8.242 3.58 8.55 7.986 0 0 5.21 74.284 5.2 79.1z"/>
    <g transform="translate(258 186.23)">
      <path fill="#C9C9C9" d="M3.397 21.12C-2.47 36.543-.078 150.2 6.252 159.07c5.168 7.252 12.648 6.243 19.506 6.45 31.877.954 64.655 4.614 118.53-6.335 2.242-3.563 4.08 8.256 6.445-30.932 1.23-20.37.8-74.724.8-74.724s-.58-39.735-10.598-39.735c-20.864 0-134.547-.536-137.538 7.326z"/>
      <path fill="#B7B7B7" d="M116.126 41.66C91.316 43.55 61.39 55.478 12.768 77.607-3.13 84.842.838 82.132.838 96.682c0 14.55.983 12.07.983 26.188 0 26.844 1.325 24.814 1.46 35.568.104 8.37 16.39 5.75 23.168 5.945 31.51.895 63.913 4.33 117.17-5.945 2.216-3.344 4.034 7.748 6.37-29.028 1.256-19.752 3.22-37.634 1.876-68.64-.306-7.075-10.93-21-35.738-19.11z"/>
      <rect width="23.845" height="24" x="130.006" y=".769" fill="#5CA5A0" rx="8"/>
    </g>
    <g transform="translate(148 190)">
      <path fill="#C9C9C9" d="M2.013 18.498C-1.23 33.238.09 141.88 3.59 150.36c2.857 6.93 6.99 5.967 10.782 6.164 17.62.912 27.713 4.55 63.77 0 2.254-.285 4 1.837 5.308-35.622 1.306-37.458 1.307-109.547-10.372-110.545-30.993-2.65-50.29-.325-60.15.605-3.176.298-9.262.022-10.915 7.536z"/>
      <path fill="#B7B7B7" d="M8.898 125.47c-7.91 16.205-6.74 30.683-5.467 32.522 2.858 4.13 6.992 3.555 10.783 3.673 17.62.543 27.713 2.71 63.77 0 2.254-.17 2.737 3.652 4.074-18.665 1.14-19.04 1.977-50 1.977-50-39.23 14.73-67.227 16.263-75.136 32.47z"/>
      <rect width="23.727" height="24" x="63.273" fill="#5CA5A0" rx="8"/>
    </g>
    <g transform="translate(145 105)">
      <path fill="#C9C9C9" d="M254.287 69.943c9.996-6.342 5.922-53.085-4.864-56.733-8.806-2.982-21.55-2.567-33.234-2.652-54.313-.393-110.16-1.898-201.95 2.605-3.3.162-6.77.468-9.168 1.36C1.128 15.988-1.115 24 .562 42c1.677 18-1.625 30.566 13.8 31.406.296.017-14.874 1.19 20.866.04 7.547-.244 15.46-.445 23.53-.584 20.68-.357 42.406-.31 61.702.46 35.067 1.4 69.788.263 100.175-.137 9.794-.128 28.556-.01 33.652-3.242z"/>
      <rect width="23.822" height="24" x="241.193" fill="#5CA5A0" rx="8"/>
    </g>
    <path fill="#DCDBDB" d="M451.007 144.92c-5.544-3.882-14.183-7.887-14.183-7.887-.99-.474-2.46-.27-3.258.5 0 0-3.753 2.916-2.496 5.3 1.257 2.386 6.995 4.652 11.003 6.705 4.567 2.34 9.866 6.668 9.866 6.668 1.736 1.35 4.284 1.066 5.694-.636l.6-.725c1.41-1.7 1.078-4.11-.725-5.373l-6.503-4.552zm30.451 31.1c-3.384-5.863-9.52-13.144-9.52-13.144-.698-.847-2.028-1.077-2.968-.5 0 0-3.33 1.908-5.768 4.022 2.923 3.526 5.443 6.476 8.208 10.03 3.15 4.05 6.123 10.213 6.123 10.213 1.004 1.957 3.433 2.778 5.43 1.83l.85-.402c1.997-.945 2.715-3.27 1.614-5.176l-3.97-6.873zm9.992 43.5c.59-6.743-.26-16.228-.26-16.228-.086-1.093-1.045-2.045-2.145-2.113 0 0-3.822-.346-7.032-.013.372 4.565.744 8.426.97 12.924.257 5.126-.842 11.88-.842 11.88-.298 2.177 1.22 4.243 3.4 4.613l.928.158c2.177.37 4.098-1.12 4.29-3.314l.692-7.907zm-15.41 40.802c3.883-5.544 7.89-14.183 7.89-14.183.472-.99.118-2.294-.8-2.903 0 0-3.14-2.21-6.085-3.527-1.96 4.14-3.57 7.67-5.622 11.678-2.34 4.567-6.668 9.865-6.668 9.865-1.348 1.737-1.066 4.285.636 5.696l.726.6c1.7 1.408 4.11 1.077 5.373-.726l4.55-6.502zm-29.33 30.748c5.862-3.383 13.143-9.52 13.143-9.52.847-.697 1.077-2.028.5-2.968 0 0-1.91-3.33-4.022-5.768-3.525 2.923-6.475 5.443-10.03 8.208-4.05 3.15-10.212 6.123-10.212 6.123-1.957 1.004-2.777 3.433-1.83 5.43l.402.85c.946 1.997 3.27 2.715 5.176 1.614l6.874-3.97zM204.303 66.122c6.36 2.315 14.596 7.094 14.596 7.094.954.54 1.436 1.827 1.037 2.847 0 0-1.317 4.605-3.937 4.937-2.62.332-6.375-2.805-10.356-4.91-4.536-2.4-11.12-4.258-11.12-4.258-2.1-.65-3.332-2.898-2.746-5.03l.25-.907c.583-2.13 2.748-3.24 4.816-2.487l7.46 2.714zM160.228 54.89c6.768 0 16.142 1.675 16.142 1.675 1.082.18 2.23 1.182 2.52 2.254 0 0 1.844 4.943-.56 6.18-2.405 1.237-8.972-.585-13.433-1.202-5.083-.703-11.906-.196-11.906-.196-2.195.108-4.12-1.585-4.3-3.788l-.076-.938c-.18-2.2 1.475-3.985 3.676-3.985h7.938zM114.63 65.67c5.543-3.883 14.182-7.888 14.182-7.888.99-.474 2.293-.12 2.902.8 0 0 2.21 3.137 3.527 6.083-4.138 1.96-7.67 3.57-11.677 5.622-4.567 2.34-9.865 6.668-9.865 6.668-1.737 1.35-4.285 1.066-5.696-.636l-.6-.726c-1.41-1.7-1.078-4.11.725-5.372l6.502-4.553zm-29.802 36.94c2.86-6.135 8.34-13.923 8.34-13.923.62-.905 1.925-1.25 2.912-.758 0 0 3.483 1.61 6.096 3.504-2.605 3.767-4.858 6.925-7.302 10.708-2.786 4.31-5.21 10.707-5.21 10.707-.83 2.035-3.178 3.065-5.25 2.296l-.883-.327c-2.07-.77-2.987-3.022-2.057-5.017l3.355-7.194zM72.1 145.976c0-6.768 1.674-16.142 1.674-16.142.18-1.082 1.218-1.947 2.32-1.918 0 0 3.838-.01 7.006.6-.768 4.515-1.476 8.33-2.092 12.79-.703 5.084-.197 11.907-.197 11.907.11 2.196-1.584 4.12-3.787 4.3l-.938.077c-2.2.18-3.985-1.475-3.985-3.677v-7.937zm9.323 42.694c-2.86-6.133-5.305-15.337-5.305-15.337-.294-1.056.28-2.278 1.292-2.718 0 0 3.474-1.632 6.604-2.417 1.21 4.417 2.182 8.173 3.51 12.476 1.51 4.904 4.852 10.874 4.852 10.874 1.027 1.945.306 4.405-1.616 5.5l-.817.464c-1.92 1.092-4.235.347-5.166-1.648 0 0-.493-1.06-3.354-7.193zm27.01 34.485c-5.544-3.882-12.262-10.63-12.262-10.63-.783-.768-.895-2.114-.24-3 0 0 2.192-3.15 4.51-5.395 3.258 3.22 5.977 5.986 9.277 9.05 3.76 3.492 9.64 6.99 9.64 6.99 1.862 1.17 2.468 3.662 1.35 5.57l-.475.812c-1.116 1.905-3.494 2.418-5.297 1.156l-6.502-4.553z"/>
  </g>
</svg>
