<svg width="574" height="488" viewBox="0 0 574 488" xmlns="http://www.w3.org/2000/svg">
  <title>(GYM 105) Writing for Web &amp; Mobile</title>
  <desc>A deep dive on how to use data to write compelling copy and engage users.</desc>
  <g fill="none" fill-rule="evenodd">
    <path fill="#2C9959" d="M0 0h574v488H0z"/>
    <path d="M141.638918 402.039713c-10.32619 0-20.656287-.015618-30.980524-.040996 5.470713.587604 6.533001-.281113 12.99395 0-2.928221.251216 3.127171 4.969185 13.583911 8.849747 14.652051 5.437469 47.529034 11.8218 112.88137 11.8218 5.230478 0 10.685566-.040996 16.339873-.126891 78.025528-1.183016 98.724783-11.219131 144.437755-15.527575-24.689497-1.239629-49.752041-4.722303-74.414194-8.380673-64.918084 2.774036-129.881089 3.404588-194.842141 3.404588zm380.569031-39.369449c5.982433 5.690581 9.324236 14.49878 6.029308 21.924841-22.46293 12.77306-46.77938 19.176184-72.047002 21.643729.849611.005857 1.708987.009761 2.582035.009761 31.978573 0 79.232562-4.037091 79.882954-32.402147.175782-7.681796-7.025403-10.346511-16.447295-11.176184" fill="#196336"/>
    <path d="M45.1733019 354.925424c-2.7102644 5.062634-2.0700916 10.882226.5823379 15.983879.8515695-.413595 4.5288093-2.915561 5.414282-3.268678-.3749299-5.025567-.6079999-8.503167 12.7199598-8.503167 2.6324864 0 5.6817832.218503 9.2156968.702331 7.8495959-1.724613 14.2971934-2.343054 20.3219976-2.458158-.2692316-4.133998-.5524233-8.831811-.8475809-14.013451-16.1479111 1.857274-31.9946817 5.445014-47.4066932 11.557244z" fill="#175830"/>
    <path d="M94.7972756 355.381631c-6.1253481.130181-12.6805452.829629-20.6611378 2.780142-3.5928887-.547203-6.6930731-.794327-9.3694914-.794327-13.5503811 0-16.1659716 6.330339-15.7847848 12.014185 2.9846119-1.323877 6.1152102-2.296927 9.0511599-3.007408 12.28111-2.976517 24.5906063-5.807407 36.9142957-8.488258-.0486622-.814185-.0993519-1.648227-.1500416-2.504334" fill="#16502C"/>
    <path d="M434.539408 406.582678c-.370848 0-.685092.005853-.944686.017558-7.212015.335558-13.781878.809632-19.898917 1.387104 6.109231.306294 12.200896.476024 18.253524.476024 9.097484 0 18.111039-.38238 27.011389-1.25249-5.332403-.033166-10.163184-.171681-14.185908-.310196-4.666828-.158024-8.24063-.318-10.235402-.318m65.079901-52.460212c-.162002 3.193655-.770973 6.330733-1.50291 9.454154.413788.003902.833432.005853 1.255027.005853 2.552995 0 5.260185-.06243 8.022026-.124859 2.761841-.06243 5.580285-.122908 8.351885-.122908 3.173677 0 6.286847.079988 9.18922.335558-.99153-.944245-2.05723-1.800698-3.177581-2.553753-6.49179-4.358353-14.306921-5.993223-22.137667-6.994045" fill="#175830"/>
    <path d="M514.729212 362.334706c-2.787057 0-5.62122.062303-8.398463.126617-2.777244.064313-5.499532.128626-8.066765.128626-.423947 0-.845931-.00201-1.262027-.006029-.785087 3.442764-1.709526 6.869451-2.368999 10.330304-5.882261.038186-11.770411.078381-17.666411.116567-14.724299 15.260311-39.629209 20.46164-60.859913 22.053391-26.245445 1.965571-52.508554 3.472911-78.775589 4.622509 24.783221 3.766341 49.968799 7.3518 74.779498 8.628015 6.151154-.594897 12.757657-1.083275 20.009895-1.428958.261041-.012059.577039-.018089.949955-.018089 2.005896 0 5.59963.164803 10.292485.327596 4.045159.142695 8.902882.285389 14.265023.319556 25.391664-2.540371 49.827484-9.132471 72.400687-22.282506 3.311102-7.645229-.047106-16.713387-6.058906-22.571916-2.91856-.263282-6.049092-.345683-9.24047-.345683" fill="#16502C"/>
    <path d="M48.6487436 368.909303c-6.0385536 3.019235-10.9446297 7.639367-11.4083684 14.688931-.9215063 14.117182 16.0736189 19.074345 28.6861155 19.126504 17.0906594.070215 34.1833093.14043 51.2779493.184565-53.7140698-5.82582-62.4813174-24.771773-63.3192314-26.952443-2.1276249-2.046259-3.9268511-4.457635-5.236465-7.047557" fill="#1A6839"/>
    <path d="M51.5628433 376.762881c.8217208 2.120649 9.4195363 20.545128 62.0955507 26.210597 10.317379.025362 20.640613.040969 30.959943.040969 64.917899 0 129.837749-.630147 194.712708-3.402402-9.7006-1.437828-19.342645-2.904919-28.873436-4.270562-54.967464-7.879762-110.495104-11.834275-166.026647-11.834275-18.251572 0-36.508999.427252-54.7410522 1.283705-3.4215597.159975-6.8958189.323853-10.3603189.323853-7.5965262 0-15.1247383-.790123-21.8409887-4.151556-2.1450623-1.073005-4.1515445-2.508882-5.9257589-4.200329" fill="#185B32"/>
    <path d="M49.404771 368.760212c-1.3500571.441248-2.6788294.919064-3.977195 1.435885 2.0007601 3.147245 4.7495249 6.077523 8 8.564115-.0790574-.163335-.1094641-.24866-.1094641-.24866s-3.4450779-4.6392-3.9133409-9.75134" fill="#16532D"/>
    <path d="M93.6889748 357.596852c-11.9955798 2.485017-23.9773444 5.109113-35.9314785 7.868198-2.8577821.658581-5.9050304 1.56055-8.8101791 2.787719.3039354 4.288956 2.5400315 8.181126 2.5400315 8.181126s.019736.071585.0710498.208619c1.7940082 1.773259 3.8228756 3.278587 5.9918691 4.403491 6.7911797 3.524021 14.4033797 4.35236 22.0846559 4.35236 3.5031514 0 7.0161708-.171804 10.4759029-.339517 18.4354576-.897879 36.8965726-1.345795 55.3517656-1.345795 56.151077 0 112.298206 4.145785 167.87891 12.406678 9.63712 1.431697 19.386736 2.969749 29.19556 4.477121 26.412774-1.169901 52.821602-2.703862 79.212667-4.704148 21.348501-1.619863 46.391593-6.913051 61.197588-22.442874-128.237051.869244-259.7345 1.738489-387.6557737 2.607734-.3730117-1.34375-.9354895-7.929557-1.6025685-18.460712" fill="#164C2A"/>
    <path d="M496.627152 65.0606523c-136.825304 2.6415443-387.631682.4643188-410.4798155 7.9285348-2.9043245 99.0891269 6.398102 295.3476749 8.6661296 303.2157319 132.3595149-.868159 268.5895099-1.734367 400.9470729-2.600575 1.29016-6.60191 3.597225-13.080912 3.874385-19.807681 3.874384-93.66167-3.983687-192.889312-3.007772-288.7360107" fill="#0E2215"/>
    <path d="M114.950506 84.2303823c30.993125-2.3547592 59.214649-1.7265633 86.669103-1.0964164 29.045197.6652633 57.23354 1.3305267 86.936504-1.5373242 10.479381-1.012527 22.395309-2.1713728 30.106993 6.1707568 2.398801 2.5966731 4.366246 6.0946709 7.504791 7.1696273 1.918649.6594106 3.971976.2789814 5.94918-.0682822 8.931579-1.5763425 17.937327-1.4631892 26.960642-1.3500359 5.119652.0624294 10.247112.1268097 15.366765-.1190061 17.666022-.8447479 35.839521-.5091899 54.011067-.1755827 18.169595.3355581 36.339189.6691652 54.00326-.1755827.470391 3.4901941-.560176 9.2415028.891987 12.3395628-25.403081 6.164904-86.2924 5.039224-124.118885 3.913543-16.559334-.493582-28.697771-.985214-31.506455-.866208-67.182023 2.838587-125.664735 6.804806-201.579249 4.789506-1.229654-.031214-2.652538 0-4.176918.033166-5.71301.122908-12.843048.243865-16.473454-3.068796-4.600466-4.194475-2.404656-17.9055341 1.901083-22.5097029 2.022097-2.1616182 4.817119-3.2424273 7.553586-3.4492248M196.78102 125.632785c-19.020592.431153-39.844677-.961803-93.268243 2.510833 2.390993 74.234418 3.212714 159.341309 2.474922 233.601089 45.376166 2.112845 62.56399 3.316562 93.775719.712085 83.552029-6.96478 134.077126 1.517815 201.114713.195092 23.39855-.462367 74.540426.197043 84.662621-3.193654 2.525669-9.867748.158098-56.8927-.216653-62.205052-4.953747-70.855427-.382559-80.114488-.634345-132.217682-.044892-9.114693.333763-24.318205-1.551706-36.891878-26.378996-3.825752-66.580859.323852-81.588487.216552-79.976275-.567718-124.819592-4.545641-204.768541-2.727385" fill="#DCDBDB"/>
    <path d="M116.088424 133.344768c2.197762 29.482288 25.567034 53.273745 51.422939 66.565356 25.859809 13.291611 54.809366 18.777595 81.957383 29.037478 83.06212 31.386385 147.035332 106.364104 233.093512 127.740323-1.118399-73.72718-6.347354-147.388028-15.655636-220.508472-116.869784-4.846083-233.889859-5.792278-350.818198-2.834685" fill="#C9C9C9"/>
    <g fill="#0E2215">
      <path d="M299.3243636 190.733032c-7.194449-8.33627687-18.2008226-13.14337226-29.30088537-13.15897962-.24397887 0-.48795775.00195092-.73193662.00780368l-1.01300028.02536195.06245859 1.01057603c.11906169 1.93921348.11906169 3.31656229.19127944 4.59831607.07221774 1.27980285.22446056 2.47376528.65191155 3.90378889l.20103859.675018.70461098.023411c2.42027043.0624294 10.15537752 1.215423 14.50796062 3.1136671l.509427-.8310919-.5094279.8310915c1.4853434.9110792 2.6135017 1.6173119 3.4859701 2.2864771 1.3077268 1.0144778 2.0572299 1.8943423 2.8223476 3.4960468.7592623 1.5997536 1.4736324 3.9291509 2.4924882 7.5812712 1.1027845 3.9330527 1.2550273 8.4650375 1.2530755 12.9833659 0 1.5061095-.0156146 3.010268-.0156146 4.4929664 0 1.1237294.0097591 2.2357532.0429402 3.324366.0975916 3.3029058.1327246 6.5999589.1327246 9.8931102 0 10.0257727-.3435223 20.0144779-.3435223 30.0851218 0 3.3068076.0390366 6.621419.1366282 9.9496868.0546512 1.8338641.1327245 3.8745251.1327245 5.9756651 0 2.955642-.1561465 6.028339-.7358403 8.771332-.5757901 2.748844-1.5751276 5.140671-3.1736772 6.806756-1.9147462 2.019201-5.5763811 4.280316-8.1898828 5.589383-2.7208524 1.371496-4.7078163 2.103091-6.85483043 2.532293-2.14701409.427251-4.49701859.55211-7.88344535.639901l-.93492705.023411-.01561464.93449c-.00195183.230209-.0058555.458466-.0058555.688675.00195183 2.627888.21665324 5.078242.21470141 7.594927 0 .228258-.00195183.456515-.00390366.684773l-.01366282.928637.92711972.058528c1.03447042.06438 2.08065183.099497 3.1307369.099497 5.51977802-.001951 11.19570252-.930589 16.19043802-3.154636 4.9927837-2.222097 8.4436208-4.537882 11.1117737-9.719523l1e-7-1.677746-1e-7 1.677746c5.5353927 8.652326 15.0857018 13.498453 25.3738029 13.51406 2.0708927 0 4.1359299-.245816 6.1541231-.768662l.7202257-.185337.0117109-.7433c.0078074-.542356.011711-1.074957.011711-1.601705 0-1.74217-.0370848-3.414108-.0370848-5.127015 0-.534552.0039037-1.073005.0136629-1.619263l.0195183-1.172502-1.155484.193141c-1.1125436.183386-2.2543648.27508-3.4078969.27508-4.8854329.001951-9.9758081-1.636821-13.8794701-4.491016-3.9114693-2.860047-6.6206107-6.871137-6.9797476-11.678201-.6226341-8.305062-1.3096786-17.3690318-1.3096786-26.2437623 0-2.8346853.0702659-5.6518123.2342197-8.4162645.2264124-3.7750282.300582-7.6358969.300582-11.5221276 0-7.7705103-.2986302-15.6444193-.2986302-23.1222918 0-4.383715-.2147014-7.4837253-.2147014-10.7729747 0-2.7078756.1424837-5.5581682.6675262-9.4287915 1.1769541-4.5417394 4.1320262-8.0241298 7.9986034-10.3905945 3.8626735-2.360612 8.6329485-3.5623781 13.3017282-3.5604272.8939386 0 1.7839735.0448711 2.6622974.1326625l.8880831.0877914.1678575-.87401175c.3142448-1.63682104.5875011-3.15658693.589453-4.7348804 0-1.23493172-.1756648-2.49912722-.6226341-3.82965397l-.2088459-.62234316-.6558152-.0409693c-.8392874-.05267481-1.6785747-.07803676-2.5139584-.07803676-5.7071538 0-11.2893904 1.22322621-16.1318831 3.75356814-4.838589 2.52839101-8.2113543 5.12509519-10.8756036 10.3223434l.1483405 1.6972685.739744-.6359996-.739744.6359996.8685648.4448095c2.4729699-4.8187699 6.2419555-8.36944244 10.7643479-10.73590718 4.5204406-2.36451381 9.7981916-3.53116337 15.2262335-3.53116337.7943953 0 1.5926941.02536195 2.3929448.07413492l.0605068-.97350857-.9251679.31214703c.3786552 1.12568026.519187 2.15186365.5211389 3.20731082 0 1.34613411-.2420271 2.74494303-.55432 4.36615671l.958349.18338638.0975915-.96960674c-.946638-.09559503-1.9010833-.14241708-2.8574805-.14241708-4.9986392.00195092-10.0968217 1.27199918-14.3186321 3.84721228-4.2179068 2.5693603-7.5633451 6.4848547-8.8944938 11.6821029-.5582237 4.0598624-.7065629 7.0233084-.7065629 9.801417 0 3.3789917.2166533 6.4575419.2147015 10.7729747 0 7.5285964.2986301 15.4005545.2986301 23.1222918 0 3.8608687-.0741696 7.68467-.2966783 11.4070234-.1678575 2.8093233-.2381234 5.6635178-.2381234 8.5313687 0 8.9742274.6929 18.0850193 1.3155341 26.3900813.4059808 5.480131 3.5113439 10.004313 7.7741428 13.108225 4.2686544 3.109765 9.712311 4.86169 15.0310504 4.865592 1.2550274 0 2.5783688-.171681 2.5783688.372625 0 1.74022.0370847 3.412157.0370847 5.127015-.0019518.518945-.0039036 1.041791-.0117109 1.57049l.9759155.015607-.2459307-.944244c-1.848384.477975-3.7494674.706232-5.6642136.706232-9.5190797.015608-19.4109591-5.684978-24.5501301-13.765684l-.9134569-1.431975-.7768287 1.510012c-2.4417406 4.732929-6.3629691 7.973406-11.0395561 10.060889-4.6726834 2.085532-10.0948699 2.986857-15.39604282 2.986857-1.00909662 0-2.01428957-.033166-3.00777155-.095595l-.06050676.973508.9759155.013657c.00195183-.238012.00390366-.476024.00390366-.712086 0-2.625937-.21470141-5.078242-.21470141-7.594927 0-.216552.00195183-.435055.00585549-.65746l-.97591549-.015607.0253738.975459c3.40399324-.089742 5.86330028-.208748 8.21330478-.676969 2.3500045-.466269 4.5458144-1.283704 7.3525473-2.702023 2.7540336-1.394907 6.4878862-3.654071 8.7246845-5.983468 1.9557347-2.054318 3.0468082-4.799261 3.6713941-7.752952.6206823-2.957593.7768288-6.149297.7768288-9.173221 0-2.147962-.0780733-4.212034-.1327245-6.0322417-.0975916-3.3048568-.1366282-6.6019099-.1366282-9.8931102 0-10.0257727.3435222-20.0164289.3435222-30.0851218 0-3.3087586-.0351329-6.62337-.1346763-9.9516378-.0331811-1.0612999-.0409885-2.1538145-.0409885-3.2658384 0-1.469042.0156147-2.9732005.0156147-4.4929664-.0019518-4.5592977-.1366282-9.2493069-1.3252932-13.5081631-1.3721372-4.8870521-2.1860507-7.5305473-3.5367178-9.5419448-.6753335-.9988705-1.4794879-1.8006982-2.4690662-2.5576548-.9895783-.7589075-2.1626287-1.4866003-3.6557794-2.4015813-4.9361806-2.1245507-12.69275693-3.3009549-15.46630876-3.40240268l-.03122929.97545948.93687887-.2770305c-.37865521-1.27785192-.50552422-2.25721326-.57579014-3.45897936-.06831408-1.19981518-.06831408-2.61228053-.19127944-4.61002157l-.97396366.06047849.0253738.97545949c.22446057-.00585276.45282479-.00780367.68314085-.00780367 10.40716277-.01755828 21.93272477 5.64595956 28.70948197 13.54132872l.946638 1.1003183.6616707-1.2915084-.8685648-.4448095-.1483405-1.6972685z"/>
      <path d="M269.31496358 178.55731556c.24202704 3.93890544 0 5.57767739.80415437 8.28555294 2.59788704.0819386 10.40521095 1.277852 14.98811015 3.2580347 5.9569882 3.6521204 6.501549 4.1691139 9.2321606 13.9334635 1.8171546 6.4965602 1.1125436 14.2885307 1.3135822 21.0328576.4957651 16.7310813-.5679828 33.1968376-.0722177 49.9298697.206894 6.970634.772925 17.212958-4.0461457 22.256084-2.0747963 2.173324-5.773516 4.432488-8.4572836 5.786426-5.5275854 2.787863-8.36359581 3.096108-15.15206398 3.273642-.04684394 3.055139.25373803 5.913235.20494225 8.966423 11.67194933.737448 24.77459073-2.622035 30.37049013-13.478899 6.4137166 10.049184 19.7408186 16.467707 31.2839471 13.478899.0448921-2.863949-.058555-5.487935-.011711-8.349933-11.0688336 1.839717-24.5423228-5.281138-25.4011285-16.783756-.819769-10.958312-1.7585997-23.2764145-1.0754589-34.7907384.6714299-11.2431461 0-23.3310402 0-34.5858918 0-7.9265839-.7143701-11.6703974.462584-20.3324778 2.7716-10.7944347 14.5996958-15.69709416 25.0263769-14.65920526.5582237-2.90101654.9407825-5.26943219 0-8.06900094-12.0076642-.74720198-23.7986752 3.97207106-29.3125978 14.7216347-7.1397977-8.29530755-19.2118723-14.13440809-30.15774052-13.87298494z"/>
    </g>
    <path d="M320.318259 269.113122c.275208 3.521409 1.18281 6.631174.396222 10.074546-13.128015-.589178-26.989919 1.277852-43.504361.308245.13858-3.328268.273256-6.654584.407933-9.980901 14.234703.362871 28.477214.228257 42.700206-.40189" fill="#0E2215"/>
    <path d="M320.318259 269.113122l-.972012.076086c.204942 2.58887.710467 4.863641.704611 7.072082 0 .901324-.080025 1.794845-.286919 2.709826l.950542.216552.044892-.973509c-1.87571-.08584-3.761178-.119006-5.664214-.119006-8.683696 0-17.722625.710135-27.657445.710135-3.284931 0-6.669406-.078037-10.170991-.282883l-.056603.973508.975915.04097c.136629-3.328268.271305-6.656536.407933-9.982853l-.975915-.039018-.025374.975459c5.205533.132663 10.413018.198994 15.618551.198994 9.052592 0 18.105185-.200945 27.149969-.602834l-.04294-.973509-.972012.076086.972012-.076086-.04294-.975459c-9.017459.399938-18.040774.600883-27.064089.600883-5.189918 0-10.379837-.066331-15.567804-.198994l-.962252-.023411-.037085.959852c-.136628 3.326317-.271305 6.652634-.407933 9.980902l-.040988.95595.958349.056577c3.546477.208748 6.968036.286785 10.284197.286785 10.028508 0 19.083052-.712086 27.657445-.710135 1.879614 0 3.735805.033166 5.576381.117056l.813914.035116.18152-.794024c.245931-1.078858.335715-2.124551.335715-3.14293-.003903-2.497177-.526994-4.810967-.710466-7.224253l-.07417-.940343-.942734.040969.04294.975459M236.686499 164.284392h-.978161c.012138.143541.027496.477036.045416.97546h-.045416v-.97546l-.973964.081939-.089784-1.057398H243.935305l-.044892 1.018379c-.294726 6.689702-.177616 32.047747-.253738 38.5287-.148339 12.113256-.294726 24.226512-.441114 36.339768-.13858 11.736728-.142483 22.523359-.751455 35.578909-.316196 6.791149-.423547 13.065305-.423547 19.120957 0 11.31338.370848 21.8659.425499 33.573365l.001952.78427-.765118.171681c-1.637586.366772-2.478825.559913-3.318112.661361-.843191.101448-1.588791.099497-2.988254.099497h-1.016904l.040989-1.014478c.142484-3.492145.199087-6.414622.199087-9.339049 0-3.548722-.083929-7.103296-.193232-11.582606-.306437-2.536195-.417691-5.05288-.417691-7.561762 0-5.394291.511379-10.755417.718273-16.251155.175665-4.549543.306438-25.880892.72413-33.253415.306437-5.366978.407932-10.357429.407932-15.187904 0-9.657049-.409884-18.678098-.409884-28.758497 0-12.156176-.427451-33.897217-.626538-40.220146-.029277-.895472-.054651-1.504158-.068314-1.650477l.973964-.081939v.97546-.97546l.972011-.083889c.002048.025116.004095.053071.00615.083889zm5.25217 0h.97778c-.012811.291492-.024851.617651-.036168.97546h.036168v-.97546l-.975915-.04292c-.000624.014226-.001245.028533-.001865.04292z" fill="#0E2215"/>
    <path d="M273.42552 95.0872465c-14.804638 0-30.589096.8076805-43.555109 1.6153609-12.960158.8076805-23.09992 1.615361-26.60736 1.615361-.187376 0-.353281-.0019509-.50162-.0078037-12.647865-.3960366-22.935966-.5872266-32.132994-.5872266-16.407091 0-29.339923.6086867-46.010512 1.7460725.017567 2.1382074.037085 4.2764144.058555 6.4165724 25.553371-2.302084 56.585532-3.792586 86.40951-3.792586 19.069389 0 37.64106.608686 53.985693 2.005544 11.141051.952049 17.984171 1.863128 25.217656 1.863128 5.93747 0 12.136485-.61454 21.194933-2.325495.122965-2.7586.107351-2.382073.232268-5.1387211-9.001845-2.5635075-23.131149-3.4102064-38.29102-3.4102064" fill="#9A9999"/>
  </g>
</svg>
