<svg width="574" height="488" viewBox="0 0 574 488" xmlns="http://www.w3.org/2000/svg">
  <title>(GYM 107) Modern Web Design</title>
  <desc>A beginner&apos;s guide to front-end development covering HTML, CSS, and JavaScript.</desc>
  <g fill="none" fill-rule="evenodd">
    <path fill="#D73158" d="M0 0h574v488H0z"/>
    <path d="M57.6621422 378.2302941c-19.2172728 17.9515759 29.4183396 35.5711475 65.6295393 43.0086353 14.3342186 2.9441327 32.3412475 4.9989171 54.6827175 4.9989171 78.780641 0 124.704287 8.5164882 149.081979 8.5164882C437.258617 434.7543347 502 408.6883823 514 382.9999986c7.804895-16.7079288-12.944375-29.8024519-35.000009-35.9999989-40.146473-11.28100226-107.725325-6.42252559-178.852035-6.42252559-110.202238 0-194.4970005-7.17533188-242.4858138 37.65281999z" fill="#951C27"/>
    <path d="M265 420.8410721c12.82778 1.2032573 77.93113-1.391577 90.544304-6e-7 54.667891 6.0313558 91.847461 1.1796782 116.561813-7.571451 13.750823-4.8690426 29.245951-31.8692621 30.541069-33.2739252C506.851257 375.4360315 490 339.99999997 395 335.99999997S345.800012 342 305.356083 342C203.573913 342 59 356.7792481 59 379.9956971c0 21.0907174 78.7275476 28.907104 206 40.845375z" fill="#881A25"/>
    <path d="M132.9999985 402.000001s1.2290468.2856039 3.2272727.748982c8.3250247 1.9305297 30.0009118 6.9467376 31.7727308 7.2510141 11.205713 1.9243696 24.136477 1.8519375 59.150489 6.1578914 16.025275 1.9707564 34.431155 1.1011459 49.849504-.000001 8.691391-.6207215 87.310738-11.4229681 122.925931-17.1744149 56.846918-9.180128 98.074059-26.9834726 79.074059-40.3789957C465.674859 349.2098958 375.078991 337 287 337c-61.025318 0-167.5332795 21.6044763-167.5332795 21.6044763S93.9238717 364.0146286 83.2685185 372c-4.9462114 3.7068068-.7017788 9.5020858 0 12.8016522 1.8039108 8.48148 49.73148 17.1983488 49.73148 17.1983488z" fill="#6E1620"/>
    <g fill="#3C1218">
      <path d="M205.7256295 64.11826131c78.6844895-.62443414 141.9236415 2.83252355 220.6099645 2.20997024 8.024314-.06582891 23.487989 1.11532965 30.848501 4.4519145 13.386081 6.06566295 11.277315 28.52460305 11.812758 47.57924855 2.41683 85.8747414 1.32944 130.7267924 1.32944 198.6039124-124.56391 4.436868-233.383587 2.996155-355.45365162 5.021805-.9498617-78.050507-3.3886958-103.394633-3.67658824-186.8675601-.04951017-14.5331405.297061-37.7820273 2.02074825-52.2060799.97369993-8.1439754 7.94729851-13.58332341 15.83408451-14.71746133 39.2322222-5.64623885 53.1189069-3.88954761 76.6747436-4.07574936"/>
      <path d="M375.8446054 383.8023348c-78.6844894.6244342-141.9236414-2.8325235-220.6099644-2.2099702-8.024314.0658289-23.487989-1.1153297-30.848501-4.4519145-13.386082-6.065663-11.277315-28.5246031-11.812759-47.5792481-2.416829-85.874742-1.329439-130.726793-1.329439-198.603913 124.56391-4.436868 233.383587-2.996155 355.45365154-5.021805.9498617 78.050507 3.3886958 103.394633 3.67658824 186.86756.04951017 14.533141-.297061 37.7820276-2.02074825 52.2060801-.97369993 8.1439754-7.94729848 13.5833234-15.83408453 14.7174614-39.2322222 5.6462388-53.1189069 3.8895476-76.6747436 4.0757493"/>
    </g>
    <path d="M453.588005 320.114269c.260477 12.648597.556295 25.101226.887429 37.263071-45.379289 3.483391-63.069831 2.085115-79.223742 2.51841-67.914719 1.822111-117.958979 1.156085-185.8938927.586557-12.7465167-.105958-34.9423092.730358-57.3473921-3.104967-1.60639524-12.620434-1.28328032-27.882266-1.31999792-37.02877-.21112623-52.294386-.32862257-80.411275-.5397488-132.705662-.02193537-5.3240229-2.3116515-52.1239169-.20937117-62.303792-.26047744-12.6485976-.55629523-25.1012257-.8874294-37.26307114 45.37928859-3.48339117 63.06983099-2.08511519 79.22374149-2.51841045 67.9147186-1.82211065 117.9589796-1.15608474 185.8938936-.58655691 12.746516.10595867 34.942309-.73035795 57.347392 3.10496736 1.606395 12.62043404 1.28328 27.88226634 1.319998 37.02876984.211126 52.2943863.328622 80.4112753.539748 132.7056613.021936 5.324024 2.311652 52.123918.209372 62.303793z" fill="#C9C9C9"/>
    <path d="M383.172854 94.1123408c-46.803139-1e-7-94.406662 7.807167-135.025043 34.2719619-49.7092045 32.3856712-75.4693135 56.5480163-100.6478106 115.6157013-4.325853 10.146555-9.291946 55.733656-7.0582526 66.744605 3.8286703 18.873354 7.5582517 27.964425 21.0474688 41.953725 96.6839044-13.989302 199.4864234 17.001992 289.2206554-26.768602-.234075-59.455095-.464521-118.916907-.696781-178.3742406-.048993-12.0253806-.234076-24.6710649-5.43272-35.0975402-11.286412-22.6242868-36.580368-18.3456104-61.407517-18.3456104z" fill="#E2E2E2"/>
    <g fill="#3C1218">
      <path d="M158.51840318 124.03030227c4.57450655-7.92327776 9.82975623-20.29952481 9.82975623-20.29952481.43576999-1.00747196-.03548978-2.1930569-1.0368379-2.64103188l-2.22946593-.99740034c-2.01540208-.9016342-4.46690572-.03578234-5.47560986 1.93397928l-14.03612829 27.40925374c-1.00869384 1.96974139-.38769914 4.63975481 1.37950862 5.95803078l.29463284.21978596c1.77057535 1.32078813 4.09954344.84368047 5.2044128-1.07000938l6.0697315-10.51308335zM181.51840318 124.03030227c4.57450655-7.92327776 9.78274232-20.32666832 9.78274232-20.32666832.43214108-1.0095671-.0379388-2.19824268-1.04043727-2.6506866l-2.4755106-1.11723847c-2.0143288-.90909956-4.3420974.00058392-5.20621107 2.0389227 0 0-2.83922847 6.77747355-5.3393299 12.29683946-2.84895135 6.2895071-8.61071476 15.21221405-8.61071476 15.21221405-1.17298407 1.8670766-.68484577 4.44577007 1.08439256 5.75530979l.5285667.39123003c1.77187755 1.31149326 4.10190117.82685056 5.20677052-1.0868393l6.0697315-10.51308334z"/>
    </g>
    <path d="M411.99712875 105.14281455c6.45438969-1.86398689 13.39545027.09114619 17.13806007 1.14726424 1.05547766.29621134 2.41983615 2.2893108 3.12111273 2.90522823.51220191.4451877.79576106 1.0146516 1.0629317 1.57828872 1.85724493 3.90635413 3.21225638 7.99496572 4.04424535 12.20669068-1.22128635 1.270714-3.53070823-.5696345-4.83930678-1.97650988-3.08555941-3.31666674-4.75429904-5.89238408-8.31333042-8.53210996" fill="#FFF"/>
    <g>
      <g fill="#3C1218">
        <path d="M264.6229826 135.08980468c60.3247754-.47417967 108.8081244 2.15094758 169.1343064 1.67819615 6.151974-.04998882 18.007458.84695346 23.650517 3.38067258 10.262663 4.60611283 8.645942 21.66087049 9.056448 36.13049189 1.852903 65.2111317 1.019237 99.2706577 1.019237 150.8148457-95.498997 3.369247-178.9274164 2.275206-272.51446594 3.813433-.72822731-59.269603-2.59800011-78.515299-2.81871765-141.902553-.0379578-11.0361036.22774676-28.690727 1.54924032-39.6439919.74650328-6.18433137 6.09292884-10.31483627 12.13946477-11.17607225 30.0780371-4.28761262 40.7244953-2.95362522 58.7839701-3.09502217"/>
        <path d="M395.0475314 377.8498973c-60.3247754.4741796-108.8081244-2.1509476-169.1343064-1.6781962-6.151974.0499888-18.007458-.8469535-23.650517-3.3806726-10.262663-4.6061128-8.645942-21.6608704-9.056448-36.1304918-1.852903-65.2111317-1.019237-99.2706577-1.019237-150.8148457 95.498997-3.369247 178.9274164-2.275206 272.51446591-3.813433.7282273 59.269603 2.59800011 78.515299 2.81871765 141.902553.0379578 11.0361035-.22774676 28.690727-1.54924032 39.6439919-.74650328 6.1843313-6.09292884 10.3148362-12.13946484 11.1760722-30.078037 4.2876126-40.7244952 2.9536252-58.78397 3.0950222"/>
      </g>
      <path d="M456.650804 331.52879c.199699 9.605029.426493 19.061243.680362 28.296644-34.790788 2.645201-48.353537 1.583385-60.738202 1.912418-52.067951 1.383666-90.4352172.877902-142.5186511.445417-9.7723295-.080462-26.7891037.554616-43.96633395-2.357835-1.23156968-9.583642-.98384824-21.173096-1.0119984-28.118722-.16186345-39.711049-.25194397-61.062312-.41380742-100.7733616-.01681711-4.0429303-1.77226614-39.5815997-.1605179-47.3119424-.19969937-9.6050288-.426493-19.0612433-.68036253-28.29664465 34.790788-2.64520017 48.3535371-1.58338435 60.7382018-1.91241794 52.0679515-1.38366527 90.4352175-.87790185 142.5186515-.44541665 9.772329.08046236 26.789104-.55461557 43.966334 2.35783459 1.23157 9.58364215.983848 21.17309605 1.011998 28.11872205.161864 39.7110497.251944 61.0623123.413808 100.7733616.016817 4.042931 1.772266 39.5816.160518 47.311943z" fill="#C9C9C9"/>
      <path d="M401.579538 166.6304506c-66.857423 8.8695496-174.8772569 77.8695524-174.8782832 120.3695524-.0001979 8.192107-14.8800243 42.5-1.6182458 62 8.5321484 12.545594 162.778962 23.183199 230.361226-10.055096-.17629-45.148712-.349848-90.302526-.524772-135.4529389-.036898-9.1317734-.176291-18.7345899-4.091588-26.6521946-8.500226-17.1803178-25.759311-13.3254628-49.248337-10.2093229z" fill="#E2E2E2"/>
      <g fill="#3C1218">
        <path d="M233.14185082 179.61071373c-4.57450655 7.92327776-9.86587538 20.27867141-9.86587538 20.27867141-.4385578 1.00586241.02493082 2.18505435 1.02613162 2.6297573l2.04956702.9103554c2.01557093.89525534 4.3552386-.01936253 5.2326647-2.05001533 0 0 2.88493779-6.75108323 5.4142636-12.25357645 2.88225367-6.27028 8.61803943-15.20798515 8.61803943-15.20798515 1.16893878-1.86941215.68502717-4.45952186-1.08767372-5.79029685l-.11465875-.08607481c-1.76964434-1.3284805-4.09785767-.85760872-5.20272702 1.05608113l-6.0697315 10.51308335zM261.6306229 168.01828351c-2.48859602 1.16045138-4.37820435 3.69829167-4.37820435 3.69829167-.71420365.83745972-.89539231 2.31690291-.4046315 3.30455909l1.99988824 4.02477565c.98150879 1.97528653 3.21163532 2.50218932 4.97125468 1.18426455l3.12461165-2.34028061c1.76403942-1.32123523 2.48620744-4.02989196 1.6079319-6.06169593l-.94547354-2.18725957c-.87600313-2.02654696-3.21768241-2.90858899-5.20913046-1.97996151l-.76624661.35730666z"/>
      </g>
      <path d="M435.67025033 173.26461103c.820958.53823193 6.8803935 2.64031389 7.37583336 3.44387043.36242029.58193724.52450996 1.24778976.67399946 1.9039789 1.04058926 4.5489774-.97215957 12.49072928-1.86592487 10.71722303-2.1074954-4.18110996-4.520959-6.37250486-7.09336908-9.93338638-1.03635271-1.43267758-5.26771708-5.34723033-5.3919505-5.5803839-.44146817-.81366124 3.39107268-2.46596921 6.30141163-.55130208z" fill="#FFF"/>
    </g>
    <g>
      <g fill="#3C1218">
        <path d="M410.0206463 206.06097849c-41.0062646-.32197386-73.9632223 1.46051995-114.9704423 1.1395159-4.181856-.03394303-12.240719.57509186-16.076635 2.29551842-6.97613 3.12760748-5.87715 14.70799849-6.156195 24.53304999-1.259526 44.2791635-.692835 67.4060024-.692835 102.4051422 64.916233 2.28776 121.6273902 1.544893 185.24396068 2.589368.49501852-40.2447921 1.76601205-53.3128574 1.91604662-96.3535853.02580212-7.4936506-.15481275-19.4813578-1.05310892-26.91875994-.50744177-4.19923732-4.14171873-7.00390114-8.25190154-7.58869101-20.44579424-2.9113419-27.68281224-2.00554799-39.95888954-2.10155826"/>
        <path d="M321.3634817 370.8980776c41.0062646.3219739 73.9632223-1.4605199 114.9704423-1.1395159 4.181856.0339431 12.240719-.5750918 16.076635-2.2955184 6.97613-3.1276075 5.87715-14.7079984 6.156195-24.53305 1.259526-44.2791633.692835-67.4060023.692835-102.4051423-64.916233-2.28776-121.6273902-1.544893-185.24396066-2.589368-.49501853 40.244792-1.76601205 53.312858-1.91604662 96.3535854-.02580213 7.4936506.15481274 19.4813579 1.05310891 26.91876.50744178 4.1992373 4.14171874 7.0039011 8.25190154 7.588691 20.44579423 2.9113419 27.68281223 2.005548 39.95888953 2.1015582"/>
      </g>
      <path d="M286.412631 342.89613c-.135747 6.521933-.289912 12.942819-.462482 19.213771 23.649326 1.796123 32.868717 1.075137 41.287295 1.298555 35.3936202.939526 61.4740866.596106 96.8782312.302444 6.6428218-.054635 18.2101147.37659 29.88647894-1.600999.83716967-6.507411.66877897-14.376794.68791428-19.09296.11002801-26.9642926.171261-41.4620635.281289-68.4263565.01143158-2.7451995 1.20471257-26.8763948.10911338-32.1253929.1357473-6.5219332.28991214-12.94281951.46248205-19.21377108-23.64932565-1.79612357-32.86871645-1.07513752-41.28729475-1.29855539-35.3936202-.9395258-61.4740861-.5961062-96.8782311-.3024434-6.642822.05463493-18.210115-.37659082-29.886479 1.60099879-.83717 6.50741132-.668779 14.37679358-.687914 19.09295948-.110028 26.9642929-.171261 41.4620639-.281289 68.4263568-.011432 2.7451996-1.204713 26.8763952-.109114 32.1253932z" fill="#C9C9C9"/>
      <path d="M428.111526 230c-17.659072 2.2837298-35.857089 3.4892075-51.284569 16.8171674-18.8803134 16.3097779-32.2036893 43.7772229-41.7668661 73.5243546-1.6430249 5.109916-3.8452476 5.819262-1.4204293 18.314289 2.4248182 12.495027 9.5045958 14.459111 10.2730407 24.150019 45.6467957.000002 75.7679827 5.540724 109.8504117-16.502626-.088905-29.942235-.176432-59.8878535-.264648-89.8312165-.018608-6.0561131-.088905-12.4246179-2.06343-17.6755048" fill="#E2E2E2"/>
      <g fill="#3C1218">
        <path d="M311.48283041 276.90902465c-4.20513048-3.52852331-8.8201586-9.30553878-8.8201586-9.30553878-.69465493-.84186249-.64153133-2.1705734.12626633-2.97574075l1.51113974-1.58468886c1.52573995-1.59999968 3.88588631-1.5065048 5.28535775.21182671 0 0 1.79021938 2.26143685 4.20128415 5.0166148 2.74749117 3.13962004 6.69430045 5.88955853 6.69430045 5.88955853 1.75267969 1.32024506 2.13001427 3.83470974.83085945 5.63274024l-.06965035.096396c-1.29380881 1.79063152-3.71899807 2.08733023-5.40042709.67644376l-4.35897183-3.65761165z"/>
        <path d="M310.64690569 253.80669179c-4.55555799 3.82256702-9.73723643 10.10864872-9.73723643 10.10864872-.70577948.83264574-.65805597 2.150849.11424958 2.95223378l1.52001193 1.57724421c1.53469786 1.5924831 3.91969772 1.51199957 5.34003725-.18348397 0 0 2.18303685-2.66527413 4.8250626-5.61425136 3.01067907-3.3604609 7.51695758-6.56497862 7.51695758-6.56497862 1.7524921-1.32830075 2.13790612-3.85620299.84899975-5.66283296l-.06910086-.09685708c-1.28360255-1.79919554-3.69199794-2.10998607-5.3862815-.68831337l-4.9726999 4.17259065zM335.92757872 281c2.28821829 0 4.30126478-1.1234882 4.30126478-1.1234882 1.00437909-.4515196 1.7961934-1.7194125 1.76882654-2.8214574l-.06789485-2.73408c-.05481353-2.2073037-1.85472923-3.628896-4.01416068-3.1764856l-1.8640119.3905188c-2.16214621.4529792-3.96566181 2.6113998-4.02805701 4.8136296l-.0186408.6579247C331.9424165 279.2120768 333.685386 281 335.90078848 281h.02679024zM341.32519824 251.35559516c.22350717-6.40040786-1.01471212-15.21211471-1.01471212-15.21211471-.13922954-1.08851369-1.15230739-1.93735648-2.2455767-1.89658474l-2.42181755.09031782c-2.2072081.0823143-3.930626 1.93258878-3.84889405 4.1453667l.70881806 19.19024627c.08152258 2.2071085 1.9239556 4.20550516 4.11802201 4.46387737l.33953972.03998402c2.19279824.25822286 4.03298105-1.32417774 4.11010498-3.53271834l.25451565-7.2883744z"/>
        <g>
          <path d="M369.37334877 259.52374788c-6.40040787-.22350718-15.21750663 1.1691169-15.21750663 1.1691169-1.08913187.1569321-1.94477784 1.17116224-1.91033626 2.29144997l.09960295 3.2398036c.06798053 2.2112151 1.90708218 3.92508097 4.12041469 3.8274679l19.19505582-.84654571c2.20766166-.09736283 4.19330753-1.954572 4.43481309-4.14591425l.12911495-1.17154704c.24161793-2.19236233-1.3542436-4.0321918-3.5627842-4.10931573l-7.28837441-.25451564zM407.37927437 259.52386833c-6.40453205-.2236512-15.24111634 1.17853474-15.24111634 1.17853474-1.08236807.1567792-1.93263702 1.174997-1.89902625 2.27761492l.10073551 3.3046824c.06726164 2.20655417 1.90694967 3.91602762 4.12173278 3.817653l19.20763613-.85315148c2.20910846-.0981227 4.19630266-1.96422569 4.43680822-4.15246204l.13228721-1.20361408c.241273-2.19521878-1.35602278-4.03740418-3.55305649-4.11412628l-7.30600077-.25513118z"/>
        </g>
      </g>
      <path d="M435.648782 242.0696323c5.126709-.1456284 6.556868-.2746663 9.107469 1.9540015.719634.6267552 1.331779 3.1798609 1.727122 4.0499446.289675.630442.386234 1.3290897.471861 2.0166771.59757 4.7670263-4.948167 3.0858476-7.050591-.8037214-.847164-1.5650446-4.142906-3.5466971-5.414563-4.7836169-.191295-.1880266-.393522-.3797399-.49008-.630442" fill="#FFF"/>
    </g>
  </g>
</svg>
