<svg xmlns="http://www.w3.org/2000/svg" width="574" height="488" viewBox="0 0 574 488" version="1"><title>gym-006</title><desc>Created with Sketch.</desc><g stroke="none" stroke-width="1" fill="none" fill-rule="evenodd"><rect fill="#2C9959" x="0" y="0" width="574" height="488"/><g transform="translate(112.000000, 359.000000)"><path d="M4 24C4 24-9 37 12 52 33 67 100 72 179 70 240 69 318 52 318 52 318 52 336 43 338 42 346 36 350 27 350 23 350 20 347 17 338 13 329 9 323 4 255 1 187-2 98 4 75 7 52 10 30 15 17 20 4 24 4 24 4 24Z" fill="#1A6839"/><path d="M41 54C41 54 47 57 62 57 78 57 212 47 238 44 264 40 297 36 304 32 311 28 322 21 320 16 318 11 319 13 304 10 289 7 159 10 127 13 96 16 50 26 42 32 35 38 34 42 34 42L41 54Z" fill="#185B32"/><path d="M141 39C141 39 231 40 264 35 284 31 291 32 298 30 302 29 307 23 307 22 308 19 242 7 184 8 146 9 117 9 94 13 81 15 66 18 62 22 59 25 63 29 65 30 68 32 74 32 77 33 83 34 87 36 94 36 104 37 113 38 113 38" fill="#164C2A"/></g><g transform="translate(120.000000, 60.000000)"><ellipse fill="#D8D8D8" cx="166" cy="165" rx="160" ry="160"/><path d="M75 78C73 86 68 94 65 102 59 121 65 141 77 157 90 172 107 182 125 191 135 196 145 200 156 202 162 203 169 203 176 203 179 203 182 203 185 203 197 203 208 205 219 208 231 211 242 216 254 215 267 214 280 207 293 208 297 209 297 210 299 213 302 216 294 231 292 235 276 261 254 286 221 295 212 298 203 301 194 302 175 305 156 305 137 303 118 301 99 295 84 284 75 276 67 267 60 257 43 234 30 208 28 181 28 173 28 164 29 156 30 137 31 117 39 100 44 89 52 79 59 69 63 63 67 61 72 57 80 50 114 43 97 52 93 54 86 62 83 66 79 72 77 71 75 78Z" fill="#C9C9C9"/><path d="M21 79C2 115-6 164 5 210 16 256 37 286 83 312 148 345 231 327 279 291 312 267 332 217 333 169 334 125 318 86 294 58 271 28 232 0 163 0 98 0 40 39 21 79ZM139 232C135 232 133 231 130 231 83 222 57 172 80 130 84 122 88 115 86 106 84 100 86 93 87 87 88 79 93 77 99 79 108 82 117 87 126 90 129 92 133 93 136 92 157 88 178 88 199 92 203 93 208 91 212 90 221 87 229 82 238 79 244 77 249 79 249 86 250 95 250 104 250 112 250 115 250 119 251 121 263 136 264 153 263 171 261 201 243 222 214 229 209 230 203 231 200 232 202 243 204 253 205 263 206 274 205 285 205 296 205 307 209 309 219 306 221 305 223 304 225 304 287 278 328 232 315 147 310 108 291 70 263 47 232 21 182 12 139 19 80 29 44 55 25 112 7 170 10 216 47 263 58 277 72 285 80 290 97 302 104 301 118 306 127 309 131 306 131 297 131 289 131 282 131 273 127 274 123 274 120 275 101 277 88 269 79 252 75 245 69 239 64 233 62 231 58 231 55 230 56 228 58 227 59 225 68 221 75 225 81 231 85 235 88 240 92 245 99 253 107 256 118 255 127 255 133 251 134 241 135 238 137 236 139 232Z" fill="#0E2214"/><path d="M244 50C263 62 270 67 287 99 304 130 270 90 263 83 207 30 168 36 119 40L139 33C171 23 214 32 244 50L244 50Z" fill="#FFFFFF"/><path d="M106 263C102 262 100 261 96 257 91 253 99 258 101 259 113 264 120 261 129 258L126 260C120 263 112 264 106 263L106 263Z" fill="#FFFFFF"/></g></g></svg>