<svg xmlns="http://www.w3.org/2000/svg" width="574" height="488" viewBox="0 0 574 488" style="background:#764C9F">
  <title>
    gym-108
  </title>
  <g fill="none" fill-rule="evenodd">
    <path fill="#4F336A" d="M263.253 339.4c-1.793-.15-3.585-.284-5.378-.4-13.476.196-26.968.427-40.444.68-5.646.498-11.252 1.097-16.83 1.694l-81.587 8.72c-9.768 1.044-19.63 2.113-28.32 4.977-21.396 7.058-32.073 25.747-24 41.778 11.824 12.124 31.448 20.32 51.973 24.27 17.045 3.276 34.7 3.882 52.443 3.882 5.024 0 10.053-.05 15.08-.1 21.825-.217 43.932-.44 66.333-.665 12.623.502 25.653.765 38.98.765 20.248 0 39.816-.607 58.307-1.738l80.06-.804c18.028-.18 36.75-.427 53.096-4.84 16.5-4.45 30.127-14.187 28.965-25.635-.857-8.423-9.374-15.762-20.833-21.05-1.21-.947-2.57-1.882-4.075-2.803-.206-2.11-.78-4.238-1.76-6.364-15.562-6.39-33.585-10.155-51.514-10.937C396.714 343.5 346.63 339 291.502 339c-9.583 0-19.013.136-28.25.4z"/>
    <path fill="#452C5D" d="M193.452 351.817c-15.54 0-30.72 1.117-43.84 5.68-5.584 1.944-10.627 4.463-15.41 7.14-13.508 7.567-51.203 2.47-34.428 26.436 16.228 6.778 33.043 13.745 51.682 16.615 11.872 1.828 24.06 1.918 36.217 2.004 58.273.4 118.62.816 181.167 1.25 3.898.027 7.828.05 11.77.05 23.68 0 47.856-.864 68.945-7.203 21.35-6.42 38.307-20.13 37.745-34.81-6.16-2.462-12.95-4.358-19.74-5.56-21.333-3.778-43.3-2.634-64.644-3.753-11.48-.6-22.804-1.858-33.996-3.475-5.892.35-11.814.48-17.736.48-9.06 0-18.126-.306-27.107-.616-37.368-1.287-73.936-2.547-109.732-3.777-6.933-.24-13.95-.463-20.893-.463"/>
    <path fill="#3B264F" d="M396.917 358.58c6.71.404 18.388-1.427 25.465.94 10.324 3.457 39.58 10.532 39.58 10.532 9.015 37.172-105.294 24.02-111.733 24.24-228.257 7.838-223.48-12.457-223.48-12.457s16.45-23.993 37.59-20.31c18.45-6.916 222.91-3.53 232.577-2.946"/>
    <g fill="#271935">
      <path d="M157.263 115.69l-2.61.21.617-.05-.62.003.004.048.616-.05-.62.003h.56l-.542-.145-.017.145h.56l-.542-.145.257.068-.248-.095-.01.028.258.068-.248-.095-.02.037c-.066.12-.388.487-.985.872-.892.59-2.34 1.236-4.118 1.744-1.782.514-3.898.907-6.174 1.098-1.013.083-2.004.125-2.954.125-2.917.005-5.472-.403-7.086-.985-.806-.282-1.36-.614-1.587-.817l-.117-.113-.023-.03-.4.26.46-.037-.06-.222-.4.26.46-.038-.697.054h.7l-.002-.06-.698.06h.7-.557l.54.14.016-.14h-.557l.54.14-.256-.066.247.095.01-.03-.256-.066.247.095.02-.036c.067-.12.39-.486.986-.872.89-.59 2.34-1.237 4.118-1.746 1.782-.512 3.898-.905 6.174-1.096 1.015-.085 2.003-.125 2.952-.125 2.92-.006 5.474.4 7.088.983.806.283 1.36.615 1.588.818l.117.113.024.03.398-.262-.46.04.062.22.398-.26-.46.04.008.118-.01-.125 2.61-.21 2.607-.22c-.06-.72-.3-1.405-.64-1.98-.6-1.008-1.44-1.7-2.35-2.25-1.378-.812-2.995-1.34-4.84-1.712-1.847-.366-3.92-.556-6.14-.556-1.097 0-2.232.047-3.392.144-4.076.346-7.728 1.23-10.562 2.506-1.418.646-2.643 1.383-3.645 2.342-.498.48-.945 1.027-1.288 1.68-.342.648-.57 1.425-.57 2.245l.017.385c.058.715.297 1.402.637 1.975.602 1.01 1.442 1.7 2.352 2.248 1.374.815 2.992 1.342 4.84 1.715 1.844.367 3.915.555 6.136.556 1.1 0 2.234-.048 3.394-.145 4.076-.347 7.728-1.228 10.562-2.505 1.42-.647 2.643-1.385 3.645-2.342.5-.482.946-1.027 1.288-1.68.342-.65.572-1.425.57-2.245l-.015-.377v-.006l-2.607.22M159.81 140.89l-2.612.2.64-.05h-.642l.002.05.64-.05h-.642.566l-.548-.145-.018.144h.566l-.548-.145.27.07-.26-.1-.01.03.27.07-.26-.1v.002c-.012.043-.265.392-.834.778-.842.593-2.3 1.265-4.12 1.786-1.823.53-4.01.927-6.365 1.11-.937.07-1.85.106-2.734.106-2.972.007-5.58-.412-7.237-1.01-.825-.288-1.397-.63-1.635-.84l-.122-.12-.024-.032-.24.157.268-.093-.028-.063-.24.157.268-.093-.59.208.623-.048-.033-.16-.59.208.623-.048v-.01l-.738.06h.74l-.002-.06-.738.06h.74-.566l.547.146.018-.146h-.566l.547.146-.267-.07.258.098.01-.027-.268-.07.258.098c.01-.044.264-.394.833-.78.842-.59 2.302-1.262 4.122-1.784 1.822-.528 4.008-.928 6.364-1.108.937-.073 1.853-.108 2.734-.108 2.973-.005 5.582.414 7.238 1.01.825.29 1.397.63 1.635.842l.122.118.024.033.24-.156-.267.096.026.06.24-.156-.267.096.588-.21-.622.048.035.163.588-.21-.622.048 2.61-.2 2.61-.202c-.055-.73-.296-1.425-.638-2.003-.61-1.024-1.457-1.72-2.378-2.277-1.394-.825-3.04-1.362-4.917-1.742-1.878-.374-3.985-.567-6.245-.568-1.02 0-2.068.04-3.14.123-4.082.32-7.745 1.18-10.59 2.442-1.423.64-2.653 1.37-3.66 2.325-.5.48-.95 1.025-1.296 1.68-.344.65-.576 1.428-.574 2.25l.014.36v-.01c.054.73.295 1.426.64 2.006.606 1.023 1.454 1.72 2.375 2.276 1.393.824 3.037 1.36 4.916 1.74 1.876.374 3.985.568 6.245.568 1.02 0 2.07-.04 3.14-.12 4.085-.323 7.746-1.183 10.59-2.443 1.424-.64 2.652-1.37 3.66-2.326.5-.48.952-1.026 1.297-1.68.344-.65.576-1.428.574-2.25l-.01-.35-2.61.2M162.354 166.09l-2.61.182.625-.044h-.628l.002.044.625-.044h-.628.573l-.555-.147-.018.148h.573l-.555-.147.282.076-.272-.106-.01.03.282.076-.272-.106h-.002c-.007.04-.26.387-.828.77-.843.585-2.307 1.248-4.132 1.76-1.827.515-4.02.903-6.378 1.068-.858.06-1.7.09-2.51.09-3.032.005-5.696-.424-7.392-1.035-.846-.297-1.436-.648-1.68-.866l-.13-.125-.026-.034-.233.15.26-.09-.028-.06-.233.15.26-.09-.59.205.622-.045-.033-.16-.59.205.622-.045-.002-.007-.747.055h.75l-.003-.054-.747.055h.75-.572l.554.148.018-.148h-.57l.552.148-.28-.075.272.106.008-.03-.28-.076.272.106v-.002c.006-.04.26-.385.828-.768.843-.585 2.307-1.25 4.132-1.76 1.827-.516 4.02-.903 6.38-1.068.858-.06 1.697-.09 2.51-.09 3.03-.006 5.694.423 7.39 1.035.846.298 1.436.65 1.682.868l.127.123.028.038.23-.15-.256.09.026.06.23-.15-.256.09.586-.206-.62.043.034.162.586-.205-.62.043 2.61-.184 2.612-.185c-.05-.738-.292-1.442-.637-2.03-.613-1.033-1.47-1.736-2.405-2.3-1.41-.835-3.083-1.384-4.994-1.77-1.91-.382-4.056-.582-6.354-.582-.938 0-1.902.035-2.882.103-4.09.295-7.763 1.132-10.616 2.378-1.43.63-2.664 1.355-3.676 2.307-.505.48-.958 1.025-1.306 1.68-.347.65-.58 1.432-.58 2.255l.015.33v-.008c.05.738.292 1.443.636 2.03.614 1.034 1.47 1.738 2.405 2.3 1.414.837 3.084 1.384 4.994 1.773 1.91.38 4.056.58 6.355.58.936 0 1.898-.032 2.88-.102 4.092-.295 7.763-1.133 10.618-2.38 1.427-.63 2.662-1.354 3.676-2.306.504-.48.956-1.023 1.304-1.678.347-.65.58-1.432.58-2.256l-.013-.317-2.61.18M164.902 191.29l-2.614.16.58-.034h-.58v.035l.58-.034h-.58.578l-.56-.15-.018.15h.578l-.56-.15.293.08-.284-.112-.01.033.293.078-.284-.11.007.002-.007-.003.007.003-.007-.003c-.005.035-.257.38-.827.758-.846.58-2.313 1.237-4.143 1.735-1.83.508-4.028.88-6.392 1.03-.78.05-1.544.074-2.288.074-3.086.006-5.806-.434-7.544-1.06-.868-.305-1.473-.666-1.728-.892l-.134-.13-.03-.04-.224.147.25-.087-.025-.06-.224.147.25-.087-.588.203.62-.04-.03-.162-.59.203.62-.04v-.004l-.718.047h.72v-.047l-.72.047h.72-.577l.558.15.02-.15h-.577l.558.15-.292-.08.283.11.01-.03-.292-.08.283.11h-.006l.007.003v-.002l-.006-.002.007.004c.008-.035.26-.38.828-.758.844-.582 2.312-1.237 4.142-1.736 1.83-.505 4.03-.88 6.393-1.028.78-.05 1.545-.075 2.286-.075 3.086-.006 5.808.433 7.544 1.06.867.306 1.475.666 1.73.894l.134.128.03.04.22-.144-.247.085.027.058.222-.142-.25.085.59-.203-.62.04.03.163.59-.203-.62.04-.002-.01 2.614-.16 2.61-.165c-.045-.75-.288-1.463-.637-2.056-.617-1.05-1.485-1.76-2.43-2.33-1.43-.845-3.127-1.405-5.07-1.8-1.943-.388-4.126-.593-6.466-.593-.856 0-1.732.028-2.623.085-4.1.267-7.78 1.082-10.644 2.312-1.434.624-2.673 1.342-3.692 2.29-.507.478-.962 1.022-1.313 1.68-.35.65-.583 1.434-.58 2.26l.01.296.006.124-.008-.13c.047.75.287 1.464.636 2.057.62 1.048 1.486 1.76 2.432 2.33 1.43.847 3.127 1.404 5.07 1.8 1.943.388 4.127.593 6.465.593.855 0 1.73-.028 2.623-.085 4.1-.268 7.782-1.083 10.644-2.313 1.434-.624 2.675-1.34 3.694-2.29.506-.478.96-1.02 1.312-1.678.35-.652.584-1.435.583-2.26l-.01-.286v-.005l-2.61.166M167.448 216.493l-2.614.148.65-.036h-.652l.002.037.65-.036h-.652.585l-.566-.15-.018.15h.585l-.566-.15.308.08-.296-.114-.01.033.306.082-.296-.115.024.01-.023-.013v.003l.023.01-.023-.013c-.005.03-.253.373-.825.75-.844.574-2.317 1.22-4.15 1.71-1.838.495-4.04.853-6.41.99-.7.04-1.39.058-2.06.058-3.14.007-5.92-.445-7.7-1.088-.887-.313-1.512-.683-1.777-.917l-.137-.138-.033-.04-.216.138.24-.082-.024-.057-.216.14.24-.082-.588.202.622-.035-.034-.167-.588.202.622-.035-.002-.014-.817.05.818.003-.002-.052-.817.05.818.003h-.583l.563.15.02-.15h-.583l.563.15-.305-.082.295.117.01-.035-.305-.08.295.115-.025-.01.025.012v-.003l-.025-.01.025.012c.003-.032.253-.373.823-.748.848-.577 2.32-1.223 4.154-1.712 1.836-.495 4.04-.854 6.407-.99.703-.04 1.39-.06 2.06-.06 3.143-.004 5.923.446 7.702 1.09.887.313 1.51.68 1.777.918l.138.135.032.042.214-.137-.24.08.026.057.214-.137-.24.08.59-.2-.62.036.03.165.59-.202-.62.036 2.614-.15 2.612-.152c-.042-.758-.285-1.482-.635-2.08-.623-1.06-1.5-1.78-2.46-2.356-1.447-.858-3.173-1.426-5.148-1.83-1.975-.397-4.198-.607-6.577-.607-.77 0-1.56.02-2.36.066-4.106.242-7.798 1.036-10.672 2.25-1.438.615-2.684 1.328-3.708 2.273-.51.475-.968 1.02-1.323 1.676-.35.653-.586 1.438-.584 2.267l.01.273v-.012c.04.757.28 1.482.634 2.08.623 1.06 1.5 1.78 2.457 2.357 1.448.858 3.173 1.428 5.15 1.83 1.974.4 4.197.607 6.575.607.77 0 1.56-.02 2.36-.068 4.107-.242 7.8-1.035 10.672-2.25 1.44-.616 2.683-1.326 3.708-2.273.51-.476.968-1.02 1.322-1.677.35-.652.588-1.44.585-2.266l-.007-.26-2.612.15M169.037 241.752l-2.614.117.407-.02h-.407v.02l.407-.02h-.407.588l-.57-.152-.017.153h.588l-.57-.152.318.084-.305-.12-.012.036.318.084-.305-.12.04.016-.038-.02-.002.004.04.016-.038-.02c-.002.028-.25.367-.822.74-.846.57-2.324 1.208-4.163 1.686-1.84.483-4.048.83-6.423.95-.62.03-1.23.046-1.83.046-3.2.005-6.036-.457-7.858-1.118-.91-.32-1.55-.7-1.826-.943l-.145-.144-.036-.045-.207.135.232-.078-.026-.056-.207.135.232-.078-.59.2.618-.032-.03-.168-.59.2.62-.032h-.014.014-.014.014l-1.066.033h1.068l-.002-.034-1.066.034h1.068-.59l.57.153.02-.152h-.59l.57.153-.315-.084.304.12.01-.035-.315-.084.304.12-.04-.016.037.02.002-.004-.04-.016.037.02c.003-.028.25-.367.822-.737.847-.57 2.323-1.21 4.162-1.687 1.84-.485 4.048-.83 6.423-.95.62-.032 1.232-.047 1.83-.047 3.2-.007 6.036.455 7.858 1.116.91.32 1.55.7 1.825.943l.146.142.035.045.07-.047-.076.038.005.01.07-.048-.076.038.494-.24-.545.026.05.214.495-.24-.545.026v-.015l2.614-.118 2.614-.133c-.036-.77-.28-1.503-.632-2.11-.628-1.07-1.515-1.796-2.485-2.38-1.467-.87-3.22-1.45-5.23-1.862-2.008-.406-4.27-.62-6.688-.622-.687 0-1.387.018-2.097.054-4.114.215-7.817.985-10.7 2.184-1.444.608-2.694 1.314-3.723 2.257-.513.475-.976 1.02-1.33 1.678-.356.653-.593 1.442-.59 2.27l.006.233c.037.767.282 1.5.636 2.107.628 1.072 1.513 1.797 2.485 2.384 1.466.87 3.22 1.448 5.23 1.86 2.007.407 4.268.62 6.686.622.688 0 1.388-.017 2.1-.054 4.114-.214 7.815-.985 10.697-2.184 1.445-.608 2.694-1.313 3.726-2.257.512-.474.972-1.016 1.328-1.675.354-.653.592-1.442.59-2.27l-.005-.218-.002-.015-2.613.132M169.58 267.074l-2.616.115.665-.03h-.666v.03l.665-.03h-.666.594l-.575-.155-.02.156h.595l-.575-.155.194.053-.18-.095-.014.042.194.053-.18-.095c0 .028-.25.365-.825.73-.85.566-2.33 1.197-4.174 1.662-1.844.473-4.055.803-6.43.907-.542.025-1.076.037-1.6.037-3.257.004-6.152-.47-8.016-1.146-.93-.33-1.59-.718-1.875-.97l-.15-.15-.037-.048-.06.038.063-.03-.003-.008-.06.038.063-.03-.492.24.542-.025-.05-.215-.49.238.54-.024v-.04.02l-.93.048h.93v-.048l-.93.048h.93-.595l.576.155.02-.155h-.596l.576.155-.195-.052.18.095.015-.042-.195-.052.18.095c.003-.028.25-.364.825-.732.85-.565 2.33-1.195 4.174-1.66 1.846-.474 4.056-.804 6.43-.908.544-.024 1.078-.036 1.6-.036 3.257-.007 6.152.468 8.017 1.144.93.33 1.59.72 1.874.973l.152.147.037.047.06-.035-.064.03.004.006.06-.035-.064.03.492-.24-.54.025.048.214.492-.238-.54.024 2.615-.116 2.614-.116c-.032-.777-.276-1.52-.634-2.134-.63-1.082-1.526-1.816-2.51-2.41-1.487-.88-3.267-1.47-5.31-1.892-2.042-.413-4.343-.634-6.802-.636-.602 0-1.214.014-1.832.042-4.123.188-7.834.935-10.727 2.118-1.45.6-2.706 1.3-3.74 2.24-.517.474-.98 1.016-1.34 1.676-.357.653-.594 1.446-.592 2.276l.005.22v-.018c.03.776.276 1.52.632 2.133.633 1.084 1.528 1.816 2.51 2.41 1.487.88 3.267 1.472 5.31 1.892 2.043.416 4.343.636 6.802.636.602 0 1.214-.013 1.834-.04 4.122-.186 7.835-.935 10.728-2.118 1.448-.602 2.703-1.3 3.74-2.24.514-.473.978-1.016 1.338-1.675.356-.655.595-1.447.593-2.276l-.006-.2-2.614.114M170.12 292.396l-2.615.09.49-.015h-.49v.016l.49-.015h-.49.6l-.58-.156-.02.157h.6l-.58-.156.207.056-.192-.1-.016.044.208.056-.192-.1c0 .022-.248.355-.822.72-.85.56-2.338 1.18-4.186 1.637-1.848.46-4.065.778-6.444.867-.462.017-.917.026-1.368.026-3.313.005-6.267-.482-8.174-1.175-.953-.337-1.63-.736-1.925-1l-.198-.206-.427.24.48-.016-.053-.225-.427.24.48-.016v-.014l-.9.038h.9v-.038l-.9.038h.9-.6l.58.156.02-.156h-.6l.58.156-.207-.057.192.102.015-.046-.207-.057.192.102c0-.025.247-.358.82-.723.853-.56 2.34-1.182 4.186-1.637 1.85-.46 4.067-.778 6.447-.867.462-.017.918-.026 1.366-.026 3.313-.005 6.267.48 8.174 1.174.953.34 1.63.738 1.925 1l.198.21.425-.243-.478.018.053.224.425-.243-.478.018v-.01l2.616-.09 2.616-.098c-.028-.786-.272-1.538-.63-2.16-.64-1.095-1.544-1.835-2.54-2.438-1.504-.894-3.314-1.495-5.39-1.926-2.076-.422-4.416-.648-6.917-.65-.515 0-1.04.01-1.566.03-4.13.162-7.852.888-10.755 2.054-1.455.594-2.715 1.285-3.756 2.224-.52.47-.986 1.013-1.347 1.675-.36.655-.6 1.45-.597 2.28l.005.187-.002-.014c.028.785.273 1.538.632 2.16.64 1.096 1.542 1.834 2.537 2.437 1.506.893 3.315 1.496 5.394 1.925 2.074.423 4.414.65 6.914.65.515 0 1.037-.01 1.566-.03 4.13-.16 7.852-.886 10.755-2.053 1.455-.594 2.714-1.287 3.756-2.223.518-.473.986-1.015 1.347-1.675.36-.655.6-1.45.597-2.28l-.004-.167v-.008l-2.615.1M170.662 317.72l-2.616.053v.007h.604l-.585-.158-.02.158h.605l-.585-.158.22.06-.204-.11-.015.05.22.06-.204-.11c.005.022-.242.352-.817.714-.852.554-2.344 1.167-4.195 1.612-1.855.45-4.076.752-6.46.827-.382.012-.76.017-1.134.017-3.37.006-6.383-.493-8.335-1.204-.975-.347-1.67-.755-1.976-1.026l-.208-.22-.424.24.475-.015-.05-.224-.425.238.475-.013v-.01l-1.32.03h1.32v-.03l-1.32.03h1.32-.602l.583.16.02-.16h-.603l.583.16-.22-.06.204.106.016-.047-.22-.06.204.107c-.004-.02.242-.35.818-.71.852-.557 2.344-1.17 4.195-1.613 1.855-.45 4.076-.754 6.46-.827.383-.013.76-.018 1.134-.018 3.37-.007 6.38.492 8.334 1.204.974.345 1.668.753 1.975 1.026l.207.22.422-.24-.474.015.05.225.423-.24-.474.016 2.616-.08-2.616.053 2.616-.054 2.617-.082c-.024-.798-.27-1.56-.63-2.188-.645-1.107-1.56-1.854-2.568-2.465-1.523-.906-3.36-1.52-5.473-1.958-2.11-.43-4.49-.664-7.03-.664-.43 0-.862.005-1.298.02-4.137.133-7.87.836-10.78 1.988-1.46.585-2.727 1.27-3.774 2.206-.52.47-.99 1.013-1.354 1.675-.363.656-.604 1.454-.602 2.288l.004.142c.022.794.267 1.557.628 2.186.644 1.108 1.558 1.855 2.566 2.465 1.524.906 3.36 1.522 5.474 1.96 2.11.432 4.49.665 7.03.665.428 0 .86-.007 1.297-.02 4.138-.135 7.87-.838 10.782-1.99 1.46-.584 2.726-1.27 3.773-2.205.52-.47.99-1.01 1.354-1.673.362-.657.603-1.455.6-2.287V317.638l-2.618.08M171.204 343.04l-2.617.036v.014h.607l-.586-.16-.02.16h.606l-.586-.16.23.062-.213-.113-.017.05.23.062-.213-.113c.004.015-.24.345-.816.7-.854.55-2.35 1.157-4.208 1.59-1.858.44-4.087.727-6.475.786-.3.007-.6.01-.895.01-3.43.006-6.502-.506-8.498-1.234-.996-.355-1.71-.775-2.026-1.057-.162-.137-.218-.227-.218-.23l-.42.237.47-.01-.05-.226-.42.236.47-.01v-.03l-1.713.045h1.712v-.045l-1.713.045h1.712-.608l.588.16.02-.16h-.608l.588.16-.232-.064.214.113.018-.05-.232-.063.214.113c-.005-.016.24-.344.817-.7.852-.55 2.347-1.156 4.204-1.588 1.86-.44 4.087-.73 6.475-.787.3-.006.6-.01.896-.01 3.43-.007 6.502.506 8.498 1.235.994.355 1.708.774 2.026 1.055.16.14.216.23.216.23l.42-.235-.47.012.05.222.42-.235-.47.012 2.618-.066-2.617.036 2.617-.035 2.616-.063c-.018-.805-.264-1.578-.628-2.214-.648-1.12-1.57-1.875-2.59-2.493-1.546-.917-3.413-1.545-5.56-1.993-2.143-.44-4.565-.68-7.146-.68-.34 0-.682.004-1.026.013-4.146.108-7.887.787-10.81 1.923-1.463.577-2.734 1.256-3.788 2.188-.523.47-.998 1.012-1.362 1.676-.365.656-.607 1.456-.606 2.29l.002.118v-.005c.017.805.263 1.576.628 2.212.648 1.12 1.57 1.875 2.59 2.495 1.546.917 3.413 1.543 5.56 1.99 2.145.442 4.565.682 7.148.682.338 0 .68-.004 1.024-.013 4.146-.108 7.888-.79 10.81-1.923 1.463-.58 2.735-1.258 3.787-2.19.524-.47 1-1.01 1.365-1.673.363-.657.605-1.456.604-2.29l-.002-.108v-.005l-2.616.064M171.745 368.364h-2.617v.035h.612l-.59-.162-.022.16h.612l-.59-.16.24.066-.222-.12-.02.054.242.066-.222-.12c.007.014-.237.34-.815.693-.855.544-2.354 1.142-4.217 1.564-1.864.428-4.095.704-6.49.748-.22.003-.44.005-.657.005-3.487.005-6.62-.52-8.66-1.267-1.02-.364-1.75-.794-2.08-1.085-.165-.142-.226-.24-.226-.24l-.415.234.46-.01-.046-.223-.415.234.46-.01v-.03l-1.843.043h1.844v-.042l-1.843.042h1.844-.61l.59.162.02-.163h-.61l.59.162-.24-.067.223.118.017-.05-.24-.067.223.118c-.007-.01.235-.338.813-.69.855-.545 2.355-1.144 4.217-1.564 1.864-.428 4.097-.704 6.49-.748.223-.003.443-.005.66-.005 3.485-.005 6.617.52 8.66 1.267 1.016.363 1.75.794 2.075 1.084.168.142.23.24.23.24l.412-.23-.462.007.05.225.412-.232-.462.008 2.617-.046h-2.617 2.617l2.618-.048c-.013-.815-.26-1.597-.627-2.24-.652-1.13-1.584-1.894-2.62-2.523-1.562-.93-3.457-1.57-5.64-2.025-2.18-.452-4.64-.697-7.264-.697-.25 0-.5.003-.754.008-4.153.08-7.904.736-10.837 1.857-1.468.568-2.744 1.242-3.803 2.172-.527.467-1.003 1.01-1.372 1.673-.368.66-.61 1.46-.61 2.297l.003.09 1.06-.027-1.06.02v.006l1.06-.026-1.06.02c.012.814.258 1.595.625 2.238.652 1.133 1.586 1.896 2.62 2.523 1.562.932 3.46 1.572 5.642 2.03 2.18.45 4.64.694 7.264.695.247 0 .498 0 .75-.007 4.154-.08 7.907-.738 10.838-1.857 1.47-.57 2.745-1.243 3.804-2.17.527-.468 1.005-1.01 1.373-1.674.367-.658.61-1.46.608-2.297v-.084l-2.618.048"/>
      <path d="M158.088 107.866l-2.61.21.616-.047h-.618l.003.047.614-.048h-.618.56l-.543-.145-.017.144h.56l-.543-.145.257.067-.248-.093-.01.025.258.067-.248-.093-.02.033c-.065.12-.388.487-.987.873-.89.59-2.338 1.237-4.116 1.746-1.782.512-3.9.905-6.174 1.096-1.014.085-2.003.125-2.953.125-2.92.005-5.473-.403-7.087-.985-.806-.282-1.36-.613-1.588-.817l-.117-.112-.022-.03-.4.262.46-.04-.06-.22-.4.26.46-.04-.698.055h.703l-.004-.06-.7.06h.703-.56l.542.143.018-.143h-.56l.542.143-.26-.068.252.095.008-.027-.26-.068.252.095.02-.034c.065-.12.388-.486.985-.872.89-.59 2.34-1.237 4.118-1.746 1.78-.512 3.896-.905 6.173-1.096 1.014-.085 2.003-.125 2.952-.125 2.92-.004 5.474.402 7.088.984.806.283 1.36.615 1.588.82l.118.112.024.03.398-.26-.46.038.062.22.398-.258-.46.038v-.007l2.608-.21 2.607-.22c-.06-.72-.298-1.406-.64-1.98-.6-1.01-1.44-1.7-2.35-2.248-1.377-.816-2.995-1.344-4.84-1.716-1.847-.366-3.918-.555-6.14-.555-1.097 0-2.23.045-3.392.143-4.076.345-7.728 1.228-10.56 2.505-1.42.646-2.645 1.383-3.646 2.342-.5.48-.946 1.027-1.29 1.68-.342.648-.57 1.425-.57 2.245l.017.386c.06.717.298 1.403.64 1.976.6 1.01 1.44 1.7 2.35 2.25 1.376.813 2.995 1.342 4.84 1.713 1.845.366 3.916.554 6.14.555 1.097 0 2.23-.046 3.392-.144 4.076-.346 7.728-1.227 10.56-2.504 1.42-.646 2.645-1.385 3.646-2.342.5-.482.946-1.027 1.288-1.68.342-.648.572-1.425.57-2.245l-.015-.378v-.005l-2.607.22M160.634 133.066l-2.61.198.636-.047h-.638l.002.047.636-.047h-.638.567l-.55-.146-.018.147h.567l-.55-.146.27.072-.262-.1-.01.03.272.07-.262-.1c-.01.046-.264.394-.832.78-.843.592-2.302 1.264-4.122 1.786-1.82.528-4.008.927-6.363 1.108-.936.073-1.85.106-2.734.106-2.973.007-5.58-.412-7.237-1.01-.827-.288-1.4-.63-1.635-.84l-.122-.12-.026-.032-.24.157.268-.094-.028-.063-.24.157.268-.094-.59.208.623-.047-.033-.16-.59.208.623-.047v-.007l-.733.057h.735l-.002-.057-.733.057h.735-.565l.548.146.017-.147h-.565l.548.146-.27-.072.26.1.01-.03-.27-.07.26.1v-.003c.01-.043.264-.39.833-.778.843-.59 2.302-1.263 4.12-1.785 1.823-.528 4.01-.926 6.365-1.108.938-.07 1.854-.106 2.735-.106 2.974-.007 5.584.412 7.238 1.008.825.29 1.398.632 1.633.842l.124.12.025.032.24-.157-.267.096.027.06.24-.157-.267.096.588-.21-.622.05.034.16.588-.21-.622.05 5.218-.406c-.054-.728-.294-1.425-.636-2.003-.61-1.023-1.457-1.72-2.38-2.275-1.393-.826-3.038-1.362-4.916-1.74-1.877-.375-3.985-.57-6.245-.57-1.02 0-2.067.04-3.14.122-4.082.322-7.744 1.18-10.588 2.44-1.424.64-2.654 1.372-3.66 2.326-.502.48-.952 1.025-1.298 1.68-.344.65-.576 1.428-.575 2.25l.014.36v-.007c.055.728.294 1.425.638 2.003.607 1.023 1.455 1.72 2.378 2.275 1.393.826 3.038 1.362 4.915 1.74 1.88.375 3.987.57 6.246.57 1.02 0 2.068-.04 3.14-.122 4.084-.322 7.745-1.182 10.59-2.44 1.423-.64 2.65-1.372 3.66-2.326.5-.48.95-1.025 1.296-1.68.344-.65.576-1.428.574-2.25l-.014-.35-2.608.2M163.18 158.267l-2.61.18.63-.042h-.632v.043l.633-.043h-.632.572l-.555-.148-.017.148h.572l-.555-.148.28.075-.27-.106-.01.03.28.076-.27-.106c-.01.04-.26.387-.83.77-.843.585-2.307 1.25-4.132 1.76-1.827.517-4.018.903-6.377 1.068-.86.06-1.7.09-2.51.09-3.032.006-5.697-.424-7.393-1.035-.846-.298-1.436-.65-1.68-.866l-.13-.125-.025-.036-.234.15.26-.09-.026-.06-.234.15.26-.09-.59.206.623-.044-.033-.163-.59.207.623-.044-.002-.01-.747.057h.75l-.003-.056-.747.056h.75-.573l.555.146.017-.147h-.572l.555.146-.283-.076.274.106.01-.03-.283-.076.274.106c.008-.04.26-.387.83-.77.842-.585 2.306-1.25 4.132-1.76 1.826-.515 4.018-.9 6.38-1.068.857-.06 1.697-.09 2.51-.09 3.03-.006 5.693.424 7.39 1.035.846.297 1.435.648 1.68.867l.13.125.027.034.23-.15-.258.09.027.06.23-.15-.258.09.588-.206-.62.044.032.16.588-.204-.62.044 2.61-.185 2.61-.184c-.05-.74-.29-1.444-.637-2.03-.612-1.035-1.47-1.738-2.404-2.3-1.415-.837-3.085-1.384-4.995-1.772-1.91-.38-4.055-.58-6.353-.58-.94 0-1.902.034-2.883.104-4.093.293-7.764 1.13-10.617 2.376-1.43.63-2.664 1.356-3.676 2.308-.504.48-.958 1.023-1.305 1.678-.348.652-.58 1.432-.58 2.257l.013.328v-.007c.05.74.29 1.444.636 2.03.614 1.035 1.472 1.738 2.406 2.303 1.413.836 3.083 1.383 4.994 1.77 1.91.38 4.055.58 6.355.58.937 0 1.9-.032 2.88-.102 4.092-.295 7.763-1.133 10.616-2.378 1.43-.63 2.666-1.356 3.68-2.308.502-.477.956-1.023 1.303-1.678.347-.65.58-1.432.58-2.255l-.01-.318-2.613.18M165.725 183.468l-2.612.16.578-.035h-.577v.034l.578-.034h-.577.578l-.56-.15-.017.15h.578l-.56-.15.297.078-.286-.11-.01.033.297.078-.286-.11.012.005-.01-.005.01.005-.01-.005c-.008.037-.257.38-.828.758-.844.582-2.312 1.237-4.142 1.735-1.83.508-4.027.88-6.392 1.03-.78.05-1.544.074-2.287.074-3.087.005-5.807-.433-7.545-1.062-.867-.304-1.473-.664-1.73-.89l-.132-.13-.03-.04-.225.145.253-.086-.027-.06-.225.146.253-.086-.59.204.62-.04-.03-.164-.59.204.62-.04v-.005l-.725.048h.728l-.002-.047-.726.048h.728-.578l.56.15.018-.15h-.578l.56.15-.296-.08.284.112.01-.033-.294-.08.284.112-.007-.004.006.004-.007-.004.006.004c.007-.035.257-.38.827-.758.845-.58 2.312-1.237 4.143-1.735 1.83-.507 4.03-.88 6.393-1.03.78-.05 1.543-.075 2.285-.075 3.086-.005 5.807.435 7.544 1.062.867.306 1.474.665 1.73.89l.13.132.033.038.223-.144-.25.085.027.058.223-.144-.25.085.59-.204-.62.04.03.163.59-.204-.62.04-.003-.01 2.612-.158 2.613-.167c-.046-.748-.288-1.462-.637-2.056-.617-1.046-1.484-1.757-2.43-2.327-1.43-.846-3.13-1.405-5.07-1.8-1.943-.39-4.127-.594-6.465-.594-.855 0-1.73.028-2.623.085-4.1.268-7.78 1.083-10.644 2.313-1.434.624-2.675 1.342-3.692 2.292-.508.476-.963 1.022-1.314 1.677-.35.65-.583 1.434-.58 2.26l.008.298v-.007c.047.75.288 1.464.637 2.058.617 1.046 1.485 1.757 2.43 2.33 1.43.845 3.13 1.403 5.07 1.797 1.943.39 4.128.594 6.466.594.857 0 1.73-.03 2.622-.084 4.1-.27 7.78-1.084 10.646-2.315 1.433-.622 2.674-1.34 3.693-2.29.506-.476.96-1.02 1.312-1.677.35-.65.585-1.435.58-2.26l-.007-.285v-.007l-2.613.168M168.273 208.67l-2.614.147.65-.036h-.653l.002.037.65-.036h-.653.585l-.565-.15-.02.15h.585l-.565-.15.307.08-.297-.114-.01.033.307.08-.297-.114.024.01-.02-.013-.003.003.024.01-.02-.013c-.006.033-.254.374-.827.75-.844.574-2.317 1.222-4.15 1.71-1.838.495-4.04.853-6.41.99-.7.04-1.387.058-2.06.058-3.14.008-5.92-.444-7.7-1.087-.887-.313-1.51-.683-1.775-.917l-.14-.137-.033-.04-.216.136.24-.082-.025-.055-.216.136.24-.082-.588.202.62-.035-.032-.166-.588.202.62-.035v-.013l-.814.05.815.002-.002-.053-.812.05.815.002h-.585l.566.15.02-.15h-.586l.566.15-.307-.083.296.116.01-.034-.306-.083.296.116-.024-.01.02.012.003-.002-.024-.01.02.012c.007-.03.256-.372.827-.747.846-.577 2.32-1.223 4.153-1.71 1.835-.497 4.037-.856 6.407-.992.7-.04 1.39-.06 2.06-.06 3.14-.004 5.92.446 7.7 1.09.887.313 1.512.682 1.777.918l.14.136.03.04.216-.138-.24.084.025.055.215-.138-.24.084.59-.202-.62.035.03.166.59-.202-.62.035 2.613-.15 2.612-.152c-.042-.757-.284-1.48-.635-2.08-.623-1.06-1.5-1.777-2.46-2.355-1.447-.86-3.17-1.427-5.148-1.832-1.975-.395-4.196-.605-6.574-.605-.773 0-1.562.022-2.36.068-4.11.24-7.8 1.035-10.675 2.248-1.44.618-2.683 1.33-3.708 2.275-.51.476-.968 1.02-1.32 1.677-.353.653-.59 1.438-.587 2.267l.01.274v-.014c.04.757.283 1.482.632 2.083.625 1.058 1.5 1.776 2.46 2.354 1.447.86 3.173 1.427 5.15 1.83 1.973.398 4.196.606 6.574.606.772 0 1.56-.02 2.36-.068 4.11-.24 7.8-1.033 10.673-2.248 1.44-.617 2.684-1.327 3.708-2.274.51-.476.968-1.02 1.322-1.677.35-.65.59-1.438.585-2.265l-.007-.26-2.612.15M169.863 233.93l-2.614.115.41-.02-.41.003v.017l.41-.02-.41.003h.587l-.57-.155-.018.155h.587l-.57-.155.315.085-.304-.12-.01.035.314.085-.304-.12.042.018-.04-.02-.002.002.042.018-.04-.02c-.002.027-.25.365-.822.737-.846.57-2.324 1.21-4.163 1.687-1.84.483-4.048.83-6.42.95-.622.03-1.233.046-1.833.046-3.2.005-6.036-.457-7.857-1.117-.91-.32-1.55-.702-1.826-.945l-.145-.142-.035-.045-.208.133.232-.077-.024-.055-.208.133.232-.077-.59.2.62-.03-.03-.17-.59.2.62-.03h-.037l.037-.003-.037.002.037-.002-1.073.035h1.075v-.035l-1.074.035h1.075-.59l.57.153.02-.153h-.59l.57.153-.315-.086.304.12.012-.034-.316-.086.304.12-.04-.015.038.02.002-.005-.04-.015.038.02c.004-.03.252-.368.822-.738.848-.573 2.324-1.212 4.163-1.688 1.84-.485 4.05-.83 6.423-.95.622-.032 1.232-.047 1.83-.047 3.2-.005 6.036.457 7.858 1.117.91.32 1.55.7 1.825.945l.147.14.033.046.073-.047-.077.038.003.01.073-.048-.077.038.49-.24-.54.027.05.214.49-.24-.54.027v-.015l2.613-.116 2.613-.135c-.036-.768-.28-1.5-.633-2.108-.628-1.072-1.515-1.796-2.485-2.382-1.467-.87-3.22-1.45-5.23-1.86-2.007-.407-4.27-.62-6.687-.623-.687 0-1.386.018-2.097.054-4.114.216-7.817.985-10.7 2.184-1.444.608-2.693 1.314-3.725 2.257-.51.474-.973 1.018-1.33 1.677-.353.653-.59 1.442-.587 2.27l.006.233c.037.767.28 1.5.635 2.108.628 1.07 1.514 1.795 2.484 2.382 1.468.87 3.22 1.447 5.23 1.86 2.008.406 4.27.62 6.688.62.687 0 1.387-.016 2.1-.053 4.113-.213 7.814-.985 10.698-2.184 1.443-.608 2.695-1.313 3.724-2.257.513-.474.974-1.018 1.33-1.675.354-.653.59-1.443.59-2.27l-.006-.218-.002-.015-2.613.134M170.405 259.25l-2.615.115.664-.03-.664.002v.028l.664-.03-.664.002h.593l-.574-.156-.02.157h.593l-.574-.156.193.055-.18-.096-.014.04.193.055-.18-.096c-.002.027-.25.364-.826.73-.85.565-2.33 1.196-4.173 1.662-1.845.472-4.055.802-6.43.908-.543.023-1.077.035-1.6.035-3.258.005-6.153-.47-8.018-1.145-.93-.33-1.588-.718-1.872-.97l-.152-.15-.037-.048-.06.04.064-.03-.005-.01-.06.04.064-.03-.495.237.543-.025-.05-.214-.493.24.543-.025-.002-.038v.02l-.932.047h.934l-.002-.047-.932.047h.934-.594l.574.155.02-.156h-.594l.574.155-.193-.053.18.094.013-.04-.193-.053.18.094c0-.027.25-.362.823-.73.85-.565 2.33-1.196 4.174-1.662 1.846-.472 4.057-.802 6.43-.907.544-.023 1.078-.035 1.602-.035 3.255-.005 6.15.47 8.016 1.145.93.33 1.59.72 1.874.973l.15.147.038.047.06-.036-.064.03.004.007.06-.036-.064.03.493-.238-.54.025.048.213.493-.238-.54.025 2.615-.117 2.614-.116c-.032-.777-.277-1.52-.634-2.134-.634-1.082-1.53-1.815-2.51-2.41-1.488-.88-3.268-1.47-5.31-1.892-2.044-.413-4.344-.634-6.802-.636-.602 0-1.215.014-1.833.042-4.122.188-7.833.935-10.726 2.118-1.448.6-2.705 1.3-3.74 2.24-.516.474-.98 1.016-1.338 1.676-.357.654-.595 1.446-.593 2.276l.005.22v-.018c.032.777.276 1.52.632 2.134.633 1.084 1.528 1.815 2.51 2.41 1.487.88 3.267 1.47 5.312 1.893 2.042.414 4.343.634 6.802.634.602 0 1.212-.014 1.832-.04 4.12-.187 7.834-.936 10.726-2.12 1.45-.6 2.704-1.3 3.74-2.24.515-.47.98-1.015 1.34-1.674.355-.655.594-1.445.592-2.276l-.005-.2-2.615.113M170.946 284.572l-2.615.092.503-.017h-.502v.017l.503-.017h-.502.6l-.58-.157-.02.157h.6l-.58-.157.21.056-.195-.1-.015.044.21.056-.195-.1c0 .022-.247.357-.82.72-.853.56-2.34 1.182-4.186 1.637-1.852.46-4.068.778-6.448.867-.46.017-.916.026-1.366.026-3.314.005-6.268-.48-8.175-1.175-.952-.336-1.63-.735-1.924-.998l-.198-.206-.428.24.48-.016-.052-.224-.428.24.48-.016v-.016l-.913.04h.913v-.04l-.913.04h.913-.6l.58.156.02-.156h-.6l.58.156-.207-.055.192.1.016-.045-.207-.055.192.1c0-.024.248-.357.822-.722.85-.56 2.336-1.182 4.184-1.635 1.85-.462 4.068-.778 6.448-.87.46-.016.916-.025 1.367-.025 3.313-.005 6.267.48 8.174 1.175.952.338 1.63.736 1.924 1l.2.207.425-.24-.48.018.053.222.426-.24-.48.018.004.083-.003-.092 2.616-.092 2.616-.1c-.028-.784-.272-1.537-.632-2.16-.64-1.093-1.542-1.833-2.54-2.436-1.503-.892-3.312-1.495-5.39-1.924-2.075-.424-4.417-.65-6.915-.65-.517 0-1.04.01-1.566.028-4.13.162-7.853.888-10.756 2.054-1.453.594-2.713 1.286-3.755 2.224-.52.47-.987 1.015-1.348 1.675-.36.655-.6 1.45-.597 2.28l.005.187v-.014c.027.785.27 1.54.63 2.16.637 1.096 1.543 1.835 2.537 2.437 1.506.893 3.316 1.496 5.394 1.926 2.075.42 4.415.648 6.916.648.515 0 1.036-.008 1.565-.03 4.13-.16 7.853-.885 10.756-2.053 1.454-.592 2.714-1.286 3.755-2.222.52-.473.987-1.015 1.348-1.675.36-.655.6-1.45.597-2.28l-.003-.166v-.01l-2.616.1M171.487 309.895l-2.616.056v.006h.603l-.582-.158-.02.158h.603l-.582-.158.22.06-.202-.108-.017.048.22.06-.202-.108c.002.02-.244.35-.82.712-.85.554-2.343 1.167-4.195 1.612-1.854.45-4.076.754-6.46.827-.38.013-.76.02-1.133.02-3.372.004-6.385-.495-8.336-1.205-.973-.346-1.668-.756-1.975-1.027l-.21-.22-.423.24.475-.015-.05-.224-.425.24.475-.017v-.01l-1.326.03h1.326v-.03l-1.326.03h1.326-.602l.583.16.02-.16h-.603l.583.16-.22-.06.202.106.018-.048-.22-.06.202.107c0-.02.245-.352.82-.712.852-.554 2.344-1.17 4.195-1.612 1.855-.45 4.076-.754 6.46-.827.384-.013.762-.02 1.134-.02 3.37-.005 6.383.493 8.335 1.206.973.345 1.667.755 1.974 1.026l.208.22.422-.24-.473.015.052.224.422-.237-.473.014 2.617-.082-2.616.056 2.617-.055 2.617-.08c-.022-.797-.268-1.56-.63-2.19-.643-1.105-1.558-1.853-2.566-2.464-1.524-.904-3.36-1.518-5.474-1.957-2.11-.43-4.49-.664-7.03-.664-.428 0-.86.004-1.297.018-4.137.134-7.87.838-10.78 1.99-1.462.583-2.727 1.27-3.774 2.204-.52.47-.99 1.013-1.354 1.675-.364.657-.604 1.453-.603 2.287l.004.142c.024.796.268 1.56.63 2.186.643 1.11 1.555 1.856 2.564 2.465 1.525.906 3.362 1.52 5.475 1.96 2.11.43 4.49.664 7.03.664.427 0 .86-.006 1.296-.02 4.137-.134 7.87-.837 10.782-1.987 1.458-.586 2.725-1.272 3.772-2.207.522-.47.99-1.01 1.354-1.673.363-.657.604-1.454.602-2.287l-.002-.116v-.026l-2.617.08M172.03 335.217l-2.618.035v.014h.608l-.587-.16-.02.16h.607l-.587-.16.23.063-.212-.114-.017.05.23.063-.212-.114c.004.015-.24.345-.816.702-.855.55-2.348 1.155-4.207 1.588-1.86.437-4.086.728-6.475.787-.3.007-.6.01-.895.01-3.43.005-6.502-.506-8.498-1.235-.997-.355-1.71-.775-2.027-1.057-.162-.136-.218-.226-.218-.226l-.418.236.467-.012-.05-.224-.417.236.467-.012v-.03l-1.717.046h1.717v-.046l-1.717.046h1.717-.607l.588.16.02-.16h-.608l.588.16-.232-.065.215.114.017-.05-.232-.065.215.114c-.006-.016.24-.346.816-.702.853-.55 2.35-1.156 4.205-1.588 1.86-.44 4.086-.73 6.475-.787.3-.007.6-.01.895-.01 3.428-.008 6.5.505 8.497 1.235.997.354 1.71.773 2.026 1.054.162.14.218.23.218.23l.42-.235-.468.013.05.224.418-.236-.468.013 2.618-.066-2.618.035 2.618-.035 2.615-.064c-.017-.805-.263-1.578-.628-2.212-.647-1.12-1.57-1.874-2.593-2.494-1.542-.917-3.41-1.544-5.557-1.993-2.145-.44-4.565-.68-7.147-.68-.34 0-.68.004-1.025.013-4.145.108-7.886.787-10.81 1.923-1.463.576-2.733 1.256-3.787 2.19-.524.468-.998 1.008-1.363 1.672-.365.657-.607 1.456-.605 2.292v.116-.005c.02.806.265 1.577.63 2.213.647 1.12 1.57 1.875 2.592 2.495 1.543.918 3.41 1.545 5.558 1.99 2.144.443 4.564.682 7.147.682.338 0 .68-.003 1.024-.012 4.147-.107 7.888-.79 10.81-1.923 1.465-.577 2.737-1.258 3.79-2.19.522-.468.997-1.01 1.362-1.672.364-.657.607-1.458.605-2.292l-.002-.108v-.005l-2.615.064M172.57 360.54h-2.617v.035h.613l-.592-.16-.02.16h.612l-.592-.16.243.065-.225-.118-.018.052.243.066-.225-.118c.007.012-.236.34-.813.69-.856.545-2.355 1.143-4.217 1.565-1.865.427-4.1.704-6.49.747-.22.004-.44.005-.66.005-3.487.004-6.62-.52-8.66-1.267-1.018-.365-1.75-.794-2.077-1.086-.166-.143-.227-.238-.227-.24l-.416.233.464-.007-.05-.226-.414.233.464-.007-.002-.03-1.844.04h1.844v-.04l-1.844.04h1.844-.61l.59.162.02-.162h-.61l.59.162-.24-.066.222.117.017-.052-.24-.066.223.117c-.007-.012.236-.34.813-.692.856-.543 2.357-1.14 4.22-1.563 1.862-.428 4.096-.704 6.49-.747.22-.004.44-.006.657-.006 3.487-.006 6.62.52 8.66 1.266 1.017.363 1.75.794 2.077 1.084.167.144.228.242.228.242l.414-.233-.463.008.05.224.413-.233-.463.008 2.618-.047h-2.617 2.618l2.618-.048c-.012-.815-.258-1.597-.626-2.238-.653-1.133-1.587-1.895-2.62-2.524-1.563-.93-3.458-1.57-5.64-2.026-2.182-.452-4.642-.697-7.265-.697-.25 0-.502.002-.753.007-4.153.08-7.905.737-10.838 1.857-1.47.57-2.745 1.244-3.804 2.173-.527.468-1.003 1.01-1.37 1.673-.368.66-.612 1.46-.61 2.297l.002.09 1.046-.027-1.046.02v.006l1.046-.026-1.046.02c.012.814.258 1.596.624 2.238.653 1.133 1.586 1.896 2.62 2.523 1.563.932 3.46 1.57 5.64 2.028 2.182.452 4.642.697 7.264.697.25 0 .5-.002.754-.007 4.153-.08 7.906-.74 10.838-1.858 1.47-.57 2.744-1.244 3.803-2.17.527-.47 1.004-1.01 1.372-1.675.367-.658.61-1.46.608-2.297v-.083l-2.617.05"/>
    </g>
    <path fill="#4C8884" d="M242.232 338.192c-.917 0-1.826.007-2.742.017-7.358.09-14.618.56-21.812 1.194 13.474-.253 26.963-.484 40.437-.68-5.296-.343-10.584-.532-15.883-.532"/>
    <path fill="#271935" d="M174.288 227.552l2.23 150.24 230.81-3.114 2.688-317.734-252.795 34.33L174.29 227.55"/>
    <path fill="#271935" d="M164.022 227.618l4.553 153.48 238.754-6.42-40.432-326.29-83.754 21.717-75.903 12.163-39.805 7.337-3.413 138.013"/>
    <path fill="#271935" d="M165.158 216.58l2.277 172.19 32.39-1.417 105.454 2.493 67.085-3.05 53.873.745 5.33-318.66-273.04 20.996c-4.643.38-8.168 4.538-7.63 8.988l3.285 27.115 3.546 43.273 7.428 47.327"/>
    <path fill="#E2E2E2" d="M174.382 216.693l-7.86-52.178-4.693-63.983 184.978-11.485 70.653-9.24-4.516 295.943-56.746-1.27-179.68 3.312-2.136-161.1"/>
    <path fill="#C9C9C9" d="M402.325 324.6c14.33-31.992-22.254-46.762-40.226-69.914-9.895-12.355 15.963-14.155 21.993-24.84 14.163-25.09 34.62-59.538 14.163-87.64-6.086-12.284 14.292-20.225 10.195-29.03-11.888-20.335-43.153-18.553-70.178-23.676L261 94.398c36.4 14.016 74.474 7.924 84.33 40.318 8.222 19.335-24.746 35.855-31.19 68.57-6.42 32.576 31.803 58.396 18.116 86.306-17.32 37.783-60.843 43.764-60.692 86.408l75.414-.82 34.5.785c-2.077-3.58-3.415-7.273-3.415-11.148-2.004-16.048 18.16-26.083 24.262-40.216"/>
    <path fill="#B7B7B7" d="M418.283 224.386l4.88-145.044-82.743 10.216-4.39.283c26.47 5.116 57.094 3.337 68.74 23.643 4.012 8.79-15.947 16.72-9.987 28.986 20.038 28.06 0 62.46-13.872 87.51-5.905 10.67-31.232 12.467-21.54 24.803 17.6 23.12 53.436 37.866 39.398 69.813-5.976 14.112-25.726 24.132-23.763 40.156 0 3.87 1.31 7.556 3.345 11.132l36.61.852 3.323-152.35"/>
    <g fill="#271935">
      <path d="M321.986 177.132l18.902-.04 39.845-4.326c1.594-.174 2.847-2.23 2.8-4.593-.05-2.363-1.38-4.138-2.977-3.965l-39.635 4.305-18.695.037c-1.595.004-2.94 1.927-3.007 4.296-.065 2.37 1.175 4.288 2.768 4.286M323.652 152.995l42.8-2.092 26.818-4.604c2.423-.415 4.065-2.82 3.672-5.372-.396-2.55-2.68-4.283-5.103-3.866l-26.312 4.514-42.287 2.067c-2.453.12-4.35 2.31-4.235 4.894.115 2.58 2.196 4.577 4.647 4.458M318.9 130.976l47.16-6.377 37.55-2.154c1.953-.11 3.47-2.315 3.387-4.924-.085-2.606-1.74-4.63-3.693-4.518l-37.755 2.165-47.363 6.402c-1.948.264-3.367 2.582-3.168 5.18.195 2.596 1.935 4.486 3.883 4.224h-.002"/>
    </g>
    <g>
      <path fill="#271935" d="M298 162.483c0 30.98-26.81 56.284-59.197 56.515-21.465.153-39.918-10.778-49.566-27.015-4.61-7.758-7.237-16.758-7.237-26.402 0-14.58 6.85-24.795 16.667-34.896 10.275-10.57 23.913-20.806 40.136-21.556 12.06-.558 26.92.57 36.382 6.14C291.1 124.63 298 143.12 298 162.482"/>
      <g fill="#E2E2E2">
        <path d="M207.547 173.89c-2.596-5.9-4.37-12.344-3.732-18.76.64-6.416 4.012-12.796 9.687-15.848-.632 15.288 6.907 30.676 19.367 39.54 12.46 8.86 29.457 10.92 43.67 5.29-3.905 8.318-13.2 12.575-22.055 15.007-8.248 2.265-16.366 1.635-24.247-1.693-5.67-2.392-11.106-5.078-14.796-10.006-3.135-4.19-5.79-8.737-7.895-13.53"/>
        <path d="M252.937 174.692c-4.475-.644-10.175-2.534-13.797-5.245-2.236-1.674-4.454-3.428-6.158-5.643-3.637-4.725-4.534-11.015-4.45-16.98.06-4.305.72-8.95 3.718-12.04 1.033 6.163 2.134 12.506 5.45 17.8 3.938 6.29 10.715 10.45 17.892 12.305 7.178 1.854 14.753 1.582 22.08.457-3.965 2.842-15.64 10.656-24.735 9.345"/>
        <path d="M277.603 149c-5.002 4.472-10.617 7.55-18.674 5.52-.764-.192-4.397-2.228-4.94-2.653-4.57-3.582-6.712-8.098-7.41-13.867-.443-3.667.31-7.895 3.357-9.977-.292 3.22 2.24 10.242 3.02 12.24 2.614 6.71 11.34 9.078 12.71 9.224 3.973.426 8.008.26 11.936-.486"/>
      </g>
    </g>
    <g>
      <path fill="#271935" d="M261.21 235.523c-2.014-7.573 34.82-6.312 68.28-7.567 33.432-1.254 70.6-2.905 70.6-2.905 1.657-.072 2.973 1.218 2.938 2.874l-2.713 130.274c-.035 1.66-1.41 2.967-3.052 2.92 0 0-44.75-1.314-66.642-.932-21.892.383-64.214 3.21-64.214 3.21-1.648.108-2.945-1.15-2.9-2.8 0 0 3.157-104.56-2.296-125.073z"/>
      <g fill="#E2E2E2">
        <path d="M374.57 300.074c2.642-2.068 5.624-3.706 8.794-4.83-.088-1-9.712-12.444-23.975-8.012-6.052 1.88-9.835 8.208-10.002 14.488-.352 13.31 16.96 16.626 18.68 17.608 2.063 1.177 4.17 2.392 5.687 4.21 1.515 1.816 2.34 4.39 1.454 6.578-.614 1.515-1.95 2.645-3.4 3.42-6.333 3.382-12.272-.63-17.572-6.962-2.876 2.16-5.752 4.318-8.628 6.476-.666 1.013 3.565 4.076 4.455 4.903 7.944 7.407 13.023 7.943 21.647 6.425 5.87-1.034 12.104-5.048 14.637-10.398 1.632-3.452 1.143-8.5-.267-12.047-2.197-5.525-6.275-9.39-11.722-11.87-3.06-1.396-7.737-2.313-10.59-4.092-7.763-4.845-2.198-10.05-1.34-10.69 3.36-2.504 10.392.09 12.14 4.794M310.182 326.642c4.076 3.764 9.26 10.33 14.865 6.036 8.44-3.787 2.518-29.16 3.098-46.186 5.496-.102 6.123-.12 11.62-.222.796 12.724.622 25.464 1.42 38.188.362 5.742.706 9.327-3.54 15.814-3.41 5.212-8.848 5.975-14.147 5.8-10.34-.34-13.745-1.063-21.186-9.907-1.47-1.746 7.148-10.19 7.87-9.523z"/>
      </g>
    </g>
    <g fill="#271935">
      <path d="M222.6 331.93c6.484-5.44 13.844-14.544 13.844-14.544.962-1.157.896-2.98-.155-4.078l-2.803-2.927c-2.1-2.195-5.356-2.072-7.29.282 0 0-3.2 3.98-6.93 8.21-4.254 4.82-10.83 9.464-10.83 9.464-2.422 1.823-2.944 5.3-1.17 7.767l.686.954c1.775 2.467 5.103 2.88 7.424.934l7.224-6.06z"/>
      <path d="M223.417 295.554c7.01 5.88 15.223 15.746 15.223 15.746.977 1.144.917 2.952-.14 4.045l-2.82 2.914c-2.112 2.184-5.407 2.07-7.37-.255 0 0-3.787-4.57-7.865-9.09-4.648-5.15-12.082-10.492-12.082-10.492-2.41-1.827-2.936-5.318-1.177-7.795l.682-.96c1.76-2.477 5.07-2.907 7.4-.952l8.15 6.838z"/>
    </g>
  </g>
</svg>
