<svg xmlns="http://www.w3.org/2000/svg" width="574" height="488" viewBox="0 0 574 488">
  <title>GYM-700</title>
  <desc>Workshop: Improving Your Portfolio</desc>
  <g fill="none" fill-rule="evenodd">
    <path fill="#2C9959" d="M0 0h574v488H0z"/>
    <path fill="#1A6839" d="M291.502 339c55.129 0 105.212 4.499 142.246 11.829 17.926.781 35.95 4.547 51.515 10.937.98 2.127 1.554 4.255 1.76 6.368a42.149 42.149 0 0 1 4.07 2.797c11.46 5.287 19.98 12.627 20.838 21.052 1.162 11.448-12.464 21.185-28.965 25.635-16.345 4.413-35.068 4.661-53.096 4.84l-80.089.804c-18.48 1.132-38.04 1.738-58.28 1.738-13.312 0-26.33-.262-38.942-.764-22.414.223-44.533.447-66.368.665-5.028.05-10.057.099-15.082.099-17.744 0-35.398-.606-52.443-3.883-20.525-3.948-40.15-12.145-51.973-24.269-8.073-16.031 2.604-34.72 24.001-41.777 8.69-2.864 18.551-3.933 28.319-4.978 26.75-2.86 53.943-5.764 81.588-8.72 5.577-.596 11.183-1.195 16.83-1.693 13.476-.253 26.968-.484 40.444-.68 1.793.116 3.586.25 5.38.4a992.4 992.4 0 0 1 28.247-.4Z"/>
    <path fill="#185B32" d="M193.452 351.817c-15.54 0-30.72 1.117-43.84 5.681-5.584 1.943-10.627 4.462-15.41 7.14-13.508 7.566-51.203 2.469-34.428 26.435 16.228 6.778 33.043 13.745 51.682 16.615 11.872 1.828 24.06 1.918 36.217 2.004 58.273.4 118.62.816 181.167 1.249 3.898.028 7.828.05 11.77.05 23.68 0 47.856-.863 68.945-7.202 21.35-6.418 38.307-20.128 37.745-34.81-6.161-2.461-12.95-4.357-19.74-5.56-21.333-3.777-43.299-2.633-64.644-3.752-11.48-.601-22.804-1.858-33.996-3.475-5.892.349-11.814.481-17.736.481-9.061 0-18.126-.307-27.107-.617-37.368-1.287-73.936-2.547-109.732-3.777-6.933-.24-13.95-.462-20.893-.462"/>
    <path fill="#164C2A" d="M396.917 358.58c6.71.404 18.388-1.427 25.465.94 10.324 3.457 39.579 10.532 39.579 10.532 9.016 37.172-105.293 24.02-111.732 24.239-228.256 7.84-223.479-12.456-223.479-12.456s16.45-23.993 37.59-20.31c18.449-6.916 222.909-3.53 232.577-2.946"/>
    <path fill="#4C8884" d="M241.232 337.192c-.917 0-1.826.007-2.742.017-7.358.09-14.618.561-21.812 1.195 13.474-.253 26.963-.484 40.437-.68a246.09 246.09 0 0 0-15.883-.532"/>
    <path fill="#0E2215" d="m173.288 226.552 2.23 150.24 230.81-3.114 2.688-317.734-252.795 34.33 17.067 136.278"/>
    <path fill="#0E2215" d="m163.023 226.618 4.552 153.478 238.754-6.418-40.431-326.29-83.754 21.717-75.903 12.162-39.805 7.338-3.413 138.013"/>
    <path fill="#0E2215" d="m164.158 215.58 2.277 172.19 32.39-1.417 105.454 2.493 67.086-3.05 53.873.745 5.329-318.66-273.04 20.995c-4.642.379-8.167 4.538-7.628 8.988l3.284 27.115 3.546 43.274 7.43 47.327"/>
    <path fill="#E2E2E2" d="m165.523 163.515-4.694-63.983 184.979-11.485 70.653-8.242-4.517 294.945-56.745-1.272-179.681 3.314-2.136-161.099z"/>
    <path fill="#C9C9C9" d="M361.1 253.686c-9.895-12.355 15.963-14.155 21.993-24.84 14.163-25.089 34.62-59.538 14.163-87.64-6.086-12.284 14.292-20.225 10.195-29.03-11.89-20.335-43.154-18.553-70.179-23.676L260 93.398c36.4 14.016 74.474 7.924 84.33 40.318 8.222 19.335-24.746 35.855-31.191 68.571-6.419 32.575 31.804 58.395 18.117 86.305-17.319 37.783-60.843 43.764-60.692 86.408l75.414-.821 34.5.786c-2.077-3.58-3.415-7.273-3.415-11.148-2.004-16.048 18.16-26.083 24.262-40.216 14.331-31.993-22.254-46.763-40.226-69.915Z"/>
    <path fill="#B7B7B7" d="M422.162 78.342 338 88.4l-3 .25c26.47 5.115 57.124 3.527 68.769 23.833 4.013 8.791-15.946 16.721-9.986 28.986 20.038 28.061 0 62.46-13.872 87.512-5.906 10.668-31.233 12.466-21.542 24.802C375.97 276.902 403 291 397.769 323.596c-5.977 14.112-25.727 24.132-23.764 40.156 0 3.87 1.31 7.556 3.345 11.132l36.61.852 3.323-152.35 4.879-145.044Z"/>
    <path fill="#0E2215" d="M301.372 166.155c0 30.992-26.928 56.307-59.462 56.538-21.561.153-40.097-10.782-49.788-27.026a51.297 51.297 0 0 1-7.27-26.413c0-14.586 6.882-24.806 16.743-34.91 10.32-10.576 24.02-20.815 40.315-21.566 12.113-.558 27.04.572 36.545 6.142 15.985 9.368 22.917 27.864 22.917 47.235"/>
    <path fill="#B7B7B7" d="m266.638 174.172-4.703.385c-5.177.426-9.621-3.151-9.94-7.989l-.185-2.812c1.912-2.482 3.214-5.336 3.945-8.297.064-.495.546-.778.858-1.141 1.68-1.84 1.845-4.705.367-6.6-.203-.288-.55-.524-.555-.904-.171-2.57-.328-5.145-.515-7.711-.28-3.091-1.438-6.224-3.903-8.291-1.99-1.668-4.62-2.518-7.287-2.728-3.362-.27-6.828.104-10.05 1.213-2.789.953-5.343 2.78-6.83 5.257-1.319 2.155-1.794 4.66-1.743 7.08.13 2.59.33 5.181.49 7.777.098.513-.345.907-.527 1.357-1.099 2.24-.364 5.09 1.73 6.46.526.287.66.88.877 1.383 1.038 2.488 2.638 4.736 4.603 6.647l.19 2.888c.314 4.806-3.547 9.04-8.61 9.455l-4.57.376s-8.104 2.837-12.78 14.052l.28 4.314c.154 2.384 2.304 4.163 4.81 3.977l64.972-4.838c2.626-.197 4.622-2.334 4.458-4.78l-.294-4.426c-6.376-10.6-15.088-12.104-15.088-12.104"/>
    <g fill="#353535">
      <path d="m322.492 200.315 34.042-.975 21.374-3.08a3.512 3.512 0 0 0 2.988-3.977c-.28-1.918-2.074-3.249-4.005-2.97l-20.97 3.02-33.634.964c-1.951.055-3.487 1.671-3.43 3.61.057 1.938 1.685 3.464 3.635 3.408M322.436 177.615l23.015-.433 48.301-4.363c1.933-.175 3.357-1.872 3.181-3.79-.177-1.92-1.886-3.333-3.82-3.159l-48.048 4.34-22.764.429c-1.94.037-3.484 1.628-3.447 3.554.038 1.927 1.643 3.458 3.582 3.422M320.44 155.8l44.159-3.924 35.122-.972c1.828-.05 3.274-1.648 3.23-3.569-.046-1.92-1.565-3.435-3.393-3.385l-35.315.977-44.35 3.94c-1.823.163-3.18 1.846-3.027 3.76.15 1.915 1.753 3.334 3.576 3.173h-.001M349.584 124.288l20.716-2.14c1.875-.297 3.211-2.357 2.987-4.598-.226-2.242-1.93-3.818-3.805-3.519l-20.324 2.075-32.612 1.837c-1.89.039-3.415 1.904-3.406 4.167.01 2.26 1.548 4.062 3.436 4.024l33.008-1.846Z"/>
    </g>
    <path fill="#B7B7B7" d="m298.75 249.383 89.624 1.565-1.633 93.57-89.624-1.564z"/>
    <path fill="#0E2215" d="m303.96 340.332-1.1-80.705 84.566-3.182-1.738 82.962 11.84-1.348 2.445-96.14-110.081 3.683 1.543 108.44 106.197-1.343-.103-14.64z"/>
    <path fill="#0E2215" d="m291.697 255.312 94.192 91.287s5.193-2.696 9.114-3.832c1.363-.395 2.345-4.3 2.252-5.09-.174-1.484-2.6.006-2.6.006l-94.193-91.288-8.765 8.917Z"/>
    <g fill="#353535">
      <path d="m193.245 356.014 42.409-2.02 26.205.182c.934.006 1.715-1.544 1.744-3.462.028-1.92-.706-3.48-1.64-3.487l-26.251-.182-42.453 2.022c-.934.044-1.696 1.635-1.7 3.553-.003 1.919.752 3.439 1.686 3.394M191.823 334.305l56.66-3.549 21.375-.419c.84-.016 1.537-1.586 1.556-3.504.02-1.92-.645-3.46-1.484-3.446l-21.405.421-56.687 3.55c-.84.053-1.525 1.65-1.529 3.568-.004 1.919.674 3.432 1.515 3.379h-.001M192.059 310.784l45.714-1.471 37.318-1.891c.843-.043 1.533-1.633 1.542-3.551.008-1.918-.67-3.439-1.512-3.396l-37.312 1.891.013-.001-45.708 1.471c-.843.027-1.54 1.605-1.554 3.523-.016 1.92.656 3.452 1.499 3.425M191.072 289.305l56.644-3.549 21.37-.42c.84-.016 1.536-1.585 1.556-3.503.02-1.92-.645-3.46-1.484-3.446l-21.399.42-56.672 3.55c-.84.054-1.524 1.65-1.528 3.57-.004 1.918.674 3.43 1.514 3.378M191.052 261.023l37.71-2.66 23.296.077c.83.002 1.533-1.865 1.57-4.17.035-2.306-.61-4.175-1.44-4.18l-23.336-.075-37.75 2.661c-.831.059-1.517 1.974-1.53 4.279-.015 2.305.648 4.127 1.48 4.068"/>
    </g>
    <path fill="#0E2215" d="m156.263 114.69-2.609.211.616-.05-.62.002.004.048.616-.05-.62.002h.56l-.542-.145-.017.145h.56l-.543-.145.257.068-.248-.095-.009.027.257.068-.248-.095-.021.036c-.065.12-.387.487-.984.872-.892.591-2.34 1.237-4.118 1.745-1.782.514-3.898.907-6.174 1.098a36.163 36.163 0 0 1-2.954.125c-2.917.005-5.472-.403-7.086-.985-.806-.282-1.36-.614-1.587-.817l-.117-.113-.023-.03-.401.261.462-.038-.061-.222-.401.26.462-.038-.698.054h.7l-.002-.06-.698.06h.7-.557l.541.142.016-.142h-.557l.541.142-.256-.067.247.095.01-.028-.257-.067.247.095.02-.035c.066-.12.389-.486.985-.872.89-.59 2.339-1.237 4.118-1.746 1.782-.512 3.898-.905 6.174-1.096a35.391 35.391 0 0 1 2.952-.125c2.92-.006 5.474.401 7.088.983.806.283 1.36.615 1.588.818l.117.113.024.03.398-.26-.46.04.062.22.398-.26-.46.04.008.117-.009-.125 2.609-.212 2.607-.219a4.674 4.674 0 0 0-.639-1.979c-.602-1.01-1.441-1.7-2.352-2.25-1.377-.813-2.994-1.34-4.84-1.713-1.846-.366-3.918-.556-6.139-.556a40.65 40.65 0 0 0-3.392.144c-4.076.346-7.728 1.229-10.562 2.506-1.418.646-2.643 1.383-3.645 2.342a6.601 6.601 0 0 0-1.29 1.68 4.828 4.828 0 0 0-.568 2.245l.016.386c.059.715.298 1.402.638 1.975.602 1.01 1.442 1.7 2.352 2.248 1.375.815 2.993 1.342 4.84 1.715 1.845.367 3.916.555 6.137.556 1.1 0 2.234-.047 3.394-.144 4.076-.347 7.728-1.228 10.562-2.505 1.419-.647 2.643-1.385 3.645-2.342a6.556 6.556 0 0 0 1.288-1.68 4.83 4.83 0 0 0 .57-2.245l-.015-.377v-.006l-2.607.22M158.809 139.89l-2.61.2.64-.051h-.643l.002.05.64-.05h-.642.566l-.548-.144-.018.144h.566l-.548-.144.27.07-.261-.1-.01.03.271.07-.261-.1v.002c-.01.043-.264.392-.833.778-.842.593-2.301 1.265-4.121 1.786-1.822.528-4.008.926-6.364 1.109-.937.071-1.851.106-2.734.106-2.973.007-5.582-.412-7.238-1.01-.825-.288-1.397-.63-1.635-.84l-.122-.119-.024-.033-.241.157.269-.094-.028-.063-.241.157.269-.094-.59.208.623-.048-.033-.16-.59.208.623-.048v-.01l-.738.06h.74l-.002-.06-.738.06h.74-.566l.548.146.018-.146h-.566l.548.146-.267-.071.258.099.01-.028-.268-.071.258.099v-.002c.01-.043.264-.393.833-.778.84-.591 2.301-1.263 4.121-1.785 1.822-.528 4.008-.928 6.364-1.108a35.297 35.297 0 0 1 2.734-.108c2.973-.005 5.582.414 7.238 1.01.825.29 1.397.63 1.635.842l.122.118.024.033.241-.156-.267.096.026.06.241-.156-.267.096.588-.209-.623.047.035.162.588-.209-.623.047 2.61-.202 2.61-.201a4.659 4.659 0 0 0-.638-2.003c-.609-1.024-1.457-1.72-2.378-2.277-1.394-.825-3.04-1.362-4.917-1.742-1.878-.374-3.985-.567-6.245-.568-1.019 0-2.068.041-3.14.123-4.082.32-7.745 1.18-10.589 2.441-1.424.64-2.654 1.371-3.66 2.325-.501.481-.951 1.025-1.297 1.68a4.831 4.831 0 0 0-.574 2.25l.014.36v-.009c.054.73.295 1.425.639 2.005.607 1.023 1.455 1.72 2.376 2.276 1.394.825 3.038 1.362 4.917 1.741 1.876.374 3.985.568 6.245.568 1.02 0 2.068-.04 3.14-.121 4.084-.322 7.745-1.182 10.589-2.442 1.424-.639 2.652-1.37 3.66-2.326.501-.48.952-1.025 1.297-1.678.344-.65.576-1.429.574-2.252l-.012-.348-2.61.198M161.354 165.091l-2.61.18.625-.043h-.627l.002.044.625-.044h-.627.573l-.555-.147-.018.147h.573l-.555-.147.282.075-.272-.106-.01.03.282.076-.272-.106-.002.001c-.007.038-.26.386-.828.768-.843.586-2.307 1.25-4.132 1.76-1.827.516-4.019.904-6.378 1.069-.858.06-1.7.09-2.51.09-3.032.005-5.696-.424-7.392-1.035-.846-.297-1.436-.648-1.68-.866l-.13-.125-.026-.034-.233.149.26-.09-.027-.06-.233.15.26-.09-.59.206.623-.045-.033-.161-.59.206.623-.045-.002-.007-.747.054h.749l-.002-.054-.747.054h.749-.57l.552.148.018-.148h-.57l.552.148-.28-.075.272.106.008-.031-.28-.075.272.106v-.002c.006-.04.26-.385.828-.768.843-.585 2.307-1.249 4.132-1.76 1.827-.516 4.019-.903 6.38-1.068.858-.061 1.697-.09 2.51-.09 3.03-.006 5.694.423 7.39 1.035.846.297 1.436.648 1.682.867l.127.123.028.037.23-.15-.256.089.026.06.23-.149-.256.089.586-.205-.619.043.033.162.586-.205-.619.043 2.61-.184 2.61-.186a4.676 4.676 0 0 0-.636-2.029c-.613-1.034-1.471-1.737-2.405-2.3-1.411-.836-3.083-1.385-4.994-1.77-1.908-.383-4.055-.583-6.353-.583-.938 0-1.902.035-2.882.103-4.09.295-7.763 1.132-10.616 2.378-1.43.63-2.664 1.355-3.676 2.307a6.516 6.516 0 0 0-1.306 1.679 4.83 4.83 0 0 0-.579 2.255l.014.33-.002-.008c.05.738.293 1.443.637 2.03.614 1.034 1.471 1.738 2.405 2.301 1.413.836 3.083 1.383 4.993 1.772 1.91.38 4.056.579 6.355.58.937 0 1.899-.032 2.881-.102 4.092-.295 7.763-1.133 10.618-2.379 1.427-.63 2.662-1.355 3.676-2.307a6.54 6.54 0 0 0 1.304-1.678c.347-.65.58-1.432.579-2.256l-.012-.317-2.61.18M163.902 190.291l-2.614.16.58-.035h-.58v.035l.58-.035h-.58.578l-.56-.149-.018.15h.578l-.56-.15.293.078-.283-.111-.01.033.293.078-.283-.111.007.003-.007-.003.007.003-.007-.003c-.005.035-.257.379-.827.758-.845.58-2.312 1.237-4.142 1.735-1.83.508-4.028.88-6.392 1.03-.78.05-1.544.074-2.288.074-3.086.005-5.806-.435-7.544-1.062-.868-.304-1.473-.665-1.728-.891l-.134-.13-.03-.039-.225.146.251-.087-.026-.059-.225.146.251-.087-.59.203.622-.04-.032-.163-.59.203.622-.04v-.005l-.72.047h.721l-.001-.047-.72.047h.721-.577l.558.15.02-.15h-.578l.558.15-.293-.079.283.11.01-.031-.293-.079.283.11-.007-.002.007.004v-.002l-.007-.002.007.004c.007-.035.258-.38.827-.758.844-.582 2.312-1.237 4.142-1.736 1.83-.505 4.03-.879 6.393-1.028.78-.05 1.545-.075 2.286-.075 3.087-.005 5.809.434 7.545 1.062.867.305 1.475.665 1.73.893l.134.128.03.039.22-.143-.247.085.026.058.222-.143-.248.085.588-.203-.62.04.032.163.588-.203-.62.04-.001-.009 2.614-.16 2.61-.166a4.65 4.65 0 0 0-.637-2.056c-.617-1.048-1.485-1.758-2.43-2.328-1.43-.846-3.127-1.406-5.07-1.8-1.943-.39-4.126-.594-6.466-.594-.855 0-1.73.028-2.622.085-4.099.267-7.78 1.082-10.644 2.312-1.434.624-2.673 1.342-3.692 2.29a6.515 6.515 0 0 0-1.314 1.679 4.81 4.81 0 0 0-.581 2.26l.01.297.007.124-.008-.129c.047.749.287 1.463.636 2.056.618 1.047 1.485 1.758 2.431 2.33 1.43.846 3.127 1.403 5.07 1.798 1.943.389 4.127.594 6.465.594.855 0 1.731-.028 2.623-.085 4.099-.268 7.782-1.083 10.644-2.313 1.434-.624 2.675-1.341 3.694-2.29a6.547 6.547 0 0 0 1.312-1.678 4.811 4.811 0 0 0 .583-2.26l-.01-.286v-.006l-2.611.166M166.448 215.493l-2.614.148.65-.037h-.652l.002.037.65-.037h-.652.585l-.566-.15-.019.15h.585l-.566-.15.307.08-.296-.114-.01.033.306.082-.296-.115.024.009-.023-.012-.001.003.024.009-.023-.012c-.005.031-.253.373-.825.749-.844.575-2.317 1.221-4.15 1.711-1.838.495-4.04.853-6.41.989-.7.04-1.389.059-2.059.059-3.142.007-5.922-.445-7.7-1.088-.888-.313-1.513-.683-1.778-.917l-.138-.138-.033-.041-.216.139.24-.082-.024-.057-.216.139.24-.082-.588.202.622-.035-.034-.167-.588.202.622-.035-.002-.014-.817.05.819.002-.002-.052-.817.05.819.002h-.583l.563.15.02-.15h-.583l.563.15-.305-.082.295.116.01-.035-.305-.081.295.116-.025-.01.025.012v-.002l-.025-.01.025.012c.003-.031.253-.372.823-.747.847-.577 2.32-1.223 4.153-1.712 1.836-.495 4.04-.854 6.407-.99.702-.04 1.39-.059 2.06-.059 3.142-.005 5.922.445 7.701 1.09.887.312 1.511.68 1.777.917l.14.135.03.042.215-.137-.239.081.025.056.214-.137-.239.081.588-.201-.62.036.032.165.588-.201-.62.036 2.615-.15 2.612-.152a4.684 4.684 0 0 0-.635-2.081c-.623-1.059-1.501-1.778-2.459-2.355-1.448-.858-3.174-1.426-5.15-1.831-1.974-.396-4.197-.606-6.576-.606-.77 0-1.56.022-2.359.067-4.107.242-7.8 1.036-10.673 2.249-1.438.616-2.684 1.329-3.708 2.274a6.543 6.543 0 0 0-1.323 1.677 4.815 4.815 0 0 0-.584 2.267l.009.273v-.012a4.64 4.64 0 0 0 .635 2.081c.623 1.06 1.499 1.778 2.457 2.356 1.448.857 3.173 1.427 5.149 1.83 1.975.398 4.198.606 6.576.606.771 0 1.56-.02 2.361-.068 4.107-.241 7.8-1.034 10.672-2.248 1.44-.617 2.683-1.327 3.708-2.274a6.506 6.506 0 0 0 1.322-1.677c.35-.652.588-1.439.585-2.266l-.007-.26-2.612.15M168.037 240.752l-2.614.117.407-.018h-.407v.018l.407-.018h-.407.588l-.57-.153-.018.153h.588l-.57-.153.317.084-.305-.12-.012.036.317.084-.305-.12.04.016-.038-.02-.002.004.04.016-.038-.02c-.002.028-.25.367-.822.739-.846.57-2.324 1.21-4.163 1.687-1.841.483-4.048.829-6.423.949-.62.03-1.23.047-1.83.047-3.199.005-6.036-.457-7.858-1.118-.909-.32-1.55-.7-1.825-.943l-.145-.143-.035-.045-.207.134.232-.078-.025-.056-.207.134.232-.078-.59.2.62-.032-.03-.168-.59.2.62-.032h-.015l.014-.001-.014.001.014-.001-1.066.034h1.068l-.002-.034-1.066.034h1.068-.59l.571.153.02-.153h-.59l.57.153-.316-.085.304.12.012-.035-.316-.085.304.12-.039-.016.037.02.002-.004-.039-.016.037.02c.003-.028.251-.367.822-.737.848-.57 2.324-1.211 4.163-1.687 1.841-.485 4.048-.829 6.423-.95a36.424 36.424 0 0 1 1.83-.047c3.2-.006 6.036.456 7.858 1.117.909.321 1.55.7 1.825.943l.146.143.035.045.072-.047-.077.038.005.009.072-.047-.077.038.494-.241-.545.027.051.214.494-.241-.545.027v-.015l2.614-.117 2.614-.133a4.69 4.69 0 0 0-.633-2.108c-.628-1.072-1.515-1.797-2.485-2.382-1.467-.87-3.22-1.45-5.23-1.86-2.008-.407-4.27-.621-6.688-.623-.687 0-1.387.018-2.097.054-4.114.215-7.817.985-10.7 2.184-1.444.608-2.694 1.314-3.723 2.257a6.434 6.434 0 0 0-1.33 1.677 4.751 4.751 0 0 0-.59 2.27l.006.233c.036.766.28 1.5.635 2.106.628 1.072 1.513 1.797 2.485 2.384 1.465.869 3.219 1.447 5.229 1.859 2.007.407 4.268.62 6.686.622.688 0 1.388-.017 2.1-.054 4.114-.214 7.815-.985 10.697-2.184 1.445-.608 2.694-1.313 3.726-2.257a6.461 6.461 0 0 0 1.33-1.675 4.791 4.791 0 0 0 .589-2.27l-.005-.218-.002-.015-2.614.133M168.58 266.074l-2.616.115.665-.028h-.665v.028l.665-.028h-.665.594l-.575-.156-.019.156h.594l-.575-.156.194.053-.18-.095-.014.042.194.053-.18-.095c-.001.028-.25.365-.825.731-.85.565-2.331 1.196-4.174 1.661-1.844.473-4.055.803-6.43.907-.542.025-1.076.037-1.601.037-3.256.005-6.151-.47-8.015-1.145-.931-.33-1.59-.718-1.875-.971l-.15-.148-.037-.049-.061.038.064-.03-.003-.008-.061.038.064-.03-.492.239.541-.024-.049-.214-.492.238.541-.024-.001-.04v.02l-.929.05h.93l-.001-.05-.929.05h.93-.595l.576.154.02-.155h-.596l.576.155-.195-.052.181.094.014-.042-.195-.052.181.094c.002-.028.25-.364.824-.732.85-.565 2.33-1.195 4.174-1.661 1.846-.473 4.056-.803 6.431-.907a35.755 35.755 0 0 1 1.6-.036c3.256-.006 6.15.469 8.016 1.145.93.33 1.59.719 1.874.973l.152.147.037.047.059-.036-.063.03.004.006.059-.036-.063.03.492-.239-.54.024.048.214.492-.238-.54.024 2.615-.116 2.614-.116a4.667 4.667 0 0 0-.634-2.134c-.631-1.082-1.526-1.816-2.51-2.41-1.487-.88-3.267-1.471-5.31-1.892-2.042-.413-4.343-.634-6.802-.636-.602 0-1.214.014-1.832.042-4.123.188-7.834.935-10.727 2.118-1.449.601-2.705 1.3-3.74 2.24-.516.474-.98 1.016-1.338 1.676a4.769 4.769 0 0 0-.593 2.276l.005.22v-.018a4.68 4.68 0 0 0 .632 2.133c.633 1.084 1.528 1.816 2.51 2.41 1.487.881 3.267 1.472 5.31 1.892 2.043.416 4.343.636 6.802.636.602 0 1.214-.014 1.834-.042 4.121-.185 7.834-.934 10.727-2.117 1.448-.602 2.703-1.3 3.74-2.24a6.497 6.497 0 0 0 1.338-1.675 4.8 4.8 0 0 0 .593-2.276l-.005-.202-2.614.115M169.12 291.396l-2.615.09.489-.015h-.489v.015l.489-.015h-.489.599l-.58-.157-.019.157h.599l-.58-.157.208.056-.192-.101-.016.045.208.056-.192-.101c0 .023-.248.356-.822.721-.851.56-2.338 1.181-4.186 1.637-1.848.46-4.065.778-6.444.867a36.41 36.41 0 0 1-1.368.026c-3.313.005-6.267-.482-8.174-1.175-.953-.337-1.63-.736-1.925-.999l-.199-.207-.427.242.48-.017-.053-.225-.427.242.48-.017v-.014l-.9.038h.9v-.038l-.9.038h.9-.599l.58.156.019-.156h-.599l.58.156-.208-.057.192.102.015-.045-.207-.057.192.102c0-.024.247-.357.821-.722.852-.56 2.339-1.182 4.185-1.637 1.85-.46 4.067-.778 6.447-.867a36.39 36.39 0 0 1 1.366-.026c3.314-.005 6.268.481 8.175 1.174.953.34 1.63.737 1.925 1l.199.208.425-.242-.478.018.053.224.425-.242-.478.018v-.009l2.616-.09 2.615-.1a4.702 4.702 0 0 0-.631-2.159c-.639-1.094-1.543-1.835-2.54-2.438-1.503-.893-3.313-1.494-5.389-1.925-2.076-.422-4.416-.648-6.917-.65-.514 0-1.038.011-1.565.03-4.13.162-7.852.888-10.755 2.054-1.454.594-2.714 1.285-3.755 2.224a6.403 6.403 0 0 0-1.347 1.675 4.772 4.772 0 0 0-.597 2.28l.005.187-.002-.014c.028.785.273 1.538.632 2.16.639 1.096 1.542 1.834 2.537 2.437 1.506.893 3.315 1.496 5.394 1.925 2.074.423 4.414.65 6.914.65.515 0 1.037-.01 1.566-.03 4.13-.161 7.852-.886 10.755-2.053 1.454-.593 2.713-1.286 3.755-2.222a6.46 6.46 0 0 0 1.347-1.675c.36-.655.599-1.451.597-2.281l-.004-.166v-.008l-2.615.099M169.662 316.72l-2.616.053v.007h.604l-.585-.158-.019.158h.604l-.585-.158.22.059-.204-.108-.016.049.22.059-.204-.108c.004.021-.243.351-.818.713-.852.554-2.344 1.167-4.195 1.612-1.855.45-4.076.752-6.461.827-.38.012-.76.017-1.133.017-3.37.006-6.383-.493-8.335-1.204-.974-.347-1.668-.755-1.975-1.026l-.208-.22-.424.239.475-.014-.05-.224-.425.238.475-.014v-.01l-1.321.03h1.32v-.03l-1.32.03h1.32-.601l.583.159.019-.158h-.602l.583.158-.22-.06.204.107.016-.047-.22-.06.204.107c-.004-.02.242-.351.818-.711.852-.556 2.344-1.17 4.195-1.612 1.855-.45 4.076-.754 6.461-.827.382-.013.76-.018 1.133-.018 3.37-.007 6.382.492 8.335 1.204.974.346 1.668.754 1.975 1.027l.208.219.422-.24-.473.016.05.224.423-.24-.473.016 2.616-.082-2.616.054 2.616-.054 2.617-.081a4.712 4.712 0 0 0-.63-2.188c-.644-1.107-1.558-1.854-2.567-2.465-1.523-.906-3.36-1.519-5.473-1.958-2.11-.431-4.49-.664-7.03-.664-.43 0-.86.005-1.297.019-4.137.134-7.87.837-10.781 1.99-1.46.583-2.726 1.27-3.773 2.204-.52.471-.991 1.013-1.354 1.675a4.751 4.751 0 0 0-.602 2.287l.004.142c.022.794.267 1.557.628 2.186.644 1.108 1.558 1.855 2.566 2.465 1.524.905 3.361 1.52 5.474 1.958 2.11.433 4.49.666 7.03.666.428 0 .86-.007 1.297-.021 4.137-.134 7.87-.837 10.781-1.988 1.46-.585 2.726-1.272 3.773-2.206a6.354 6.354 0 0 0 1.354-1.673 4.762 4.762 0 0 0 .602-2.287l-.002-.116v-.026l-2.617.081M170.204 342.041l-2.617.035v.014h.607l-.586-.16-.021.16h.607l-.586-.16.23.062-.213-.113-.017.05.23.063-.213-.113c.004.016-.24.346-.816.702-.853.55-2.349 1.156-4.207 1.588-1.858.44-4.087.728-6.475.787-.3.007-.599.01-.895.01-3.43.006-6.502-.506-8.498-1.234-.996-.355-1.71-.775-2.026-1.057a1.046 1.046 0 0 1-.218-.23l-.42.237.47-.01-.05-.226-.42.236.47-.01-.001-.03-1.712.045h1.712v-.045l-1.712.045h1.712-.607l.588.16.019-.16h-.607l.588.16-.232-.064.214.113.018-.049-.232-.064.214.113c-.005-.016.24-.344.817-.7.853-.55 2.348-1.156 4.205-1.588 1.86-.44 4.087-.73 6.475-.787.302-.007.6-.01.897-.01 3.429-.008 6.502.505 8.498 1.234.994.355 1.708.774 2.026 1.055.16.139.216.23.216.23l.419-.235-.468.012.049.222.419-.234-.468.012 2.617-.066-2.617.035 2.617-.035 2.616-.064a4.713 4.713 0 0 0-.628-2.214c-.648-1.119-1.57-1.875-2.591-2.493-1.545-.917-3.412-1.545-5.558-1.993-2.144-.441-4.566-.68-7.147-.68-.34 0-.682.004-1.026.013-4.146.108-7.887.787-10.81 1.923-1.463.577-2.734 1.256-3.788 2.188-.523.469-.998 1.01-1.362 1.675a4.754 4.754 0 0 0-.606 2.291l.002.117v-.005c.017.806.263 1.577.628 2.213.648 1.12 1.57 1.875 2.591 2.495 1.545.917 3.412 1.543 5.558 1.991 2.146.441 4.566.681 7.149.681.338 0 .68-.003 1.024-.012 4.146-.108 7.888-.789 10.81-1.923 1.463-.579 2.735-1.258 3.787-2.19a6.423 6.423 0 0 0 1.365-1.673 4.783 4.783 0 0 0 .604-2.291l-.002-.108v-.005l-2.616.064M170.745 367.364h-2.617v.035h.612l-.591-.161-.021.161h.612l-.591-.161.24.066-.22-.12-.02.054.24.066-.22-.12c.006.014-.238.34-.816.693-.855.544-2.354 1.142-4.217 1.564-1.864.427-4.095.703-6.49.747-.22.003-.44.005-.657.005-3.486.005-6.62-.52-8.66-1.267-1.019-.364-1.75-.794-2.078-1.085a1.227 1.227 0 0 1-.227-.24l-.415.233.462-.01-.047-.223-.415.233.462-.01v-.029l-1.844.042h1.844v-.042l-1.844.042h1.844-.61l.59.162.02-.162h-.61l.59.162-.242-.066.224.118.017-.052-.24-.066.223.118c-.007-.012.235-.34.813-.692.855-.544 2.355-1.143 4.217-1.563 1.864-.428 4.097-.704 6.491-.748.222-.003.442-.005.658-.005 3.486-.005 6.618.52 8.66 1.267 1.017.363 1.75.794 2.076 1.084.168.142.229.241.229.241l.413-.232-.462.008.049.224.413-.232-.462.008 2.617-.047h-2.617 2.617l2.618-.048a4.703 4.703 0 0 0-.627-2.24c-.652-1.13-1.584-1.894-2.619-2.523-1.563-.93-3.458-1.569-5.641-2.025-2.18-.452-4.641-.697-7.264-.697-.251 0-.5.002-.754.007-4.153.08-7.904.736-10.837 1.857-1.47.568-2.745 1.242-3.804 2.172a6.354 6.354 0 0 0-1.372 1.673 4.739 4.739 0 0 0-.609 2.297l.002.089 1.061-.026-1.06.019v.007l1.06-.026-1.06.019c.011.815.257 1.596.624 2.24.652 1.132 1.586 1.895 2.62 2.522 1.562.931 3.459 1.57 5.642 2.028 2.18.45 4.641.695 7.264.696.248 0 .499-.001.752-.007 4.153-.08 7.906-.738 10.837-1.857 1.47-.57 2.745-1.244 3.804-2.172a6.36 6.36 0 0 0 1.373-1.673 4.762 4.762 0 0 0 .608-2.297v-.083l-2.618.048"/>
    <path fill="#0E2215" d="m157.088 106.866-2.609.211.615-.048h-.618l.003.048.615-.048h-.618.56l-.543-.144-.017.144h.56l-.543-.144.257.067-.248-.093-.009.026.257.067-.248-.093-.02.034c-.065.12-.388.487-.987.873-.89.59-2.338 1.237-4.116 1.746-1.781.512-3.898.905-6.173 1.096a35.36 35.36 0 0 1-2.953.125c-2.919.005-5.473-.403-7.087-.985-.806-.282-1.361-.613-1.588-.817l-.117-.113-.023-.03-.401.262.462-.04-.06-.221-.402.26.462-.04-.7.056h.704l-.004-.059-.7.06h.704-.56l.542.142.018-.143h-.56l.542.143-.26-.068.252.095.008-.027-.26-.068.252.095.02-.034c.065-.12.388-.487.985-.873.89-.59 2.34-1.237 4.118-1.746 1.781-.512 3.896-.905 6.173-1.096a35.36 35.36 0 0 1 2.952-.125c2.92-.005 5.474.401 7.088.983.806.283 1.361.615 1.588.819l.117.113.024.03.398-.26-.46.038.062.221.398-.259-.46.038v-.007l2.608-.211 2.607-.22a4.674 4.674 0 0 0-.639-1.978c-.602-1.01-1.441-1.701-2.352-2.249-1.376-.815-2.994-1.343-4.84-1.715-1.846-.366-3.917-.555-6.139-.555a40.65 40.65 0 0 0-3.392.144c-4.076.345-7.728 1.228-10.561 2.505-1.419.646-2.644 1.383-3.645 2.342a6.601 6.601 0 0 0-1.29 1.68 4.828 4.828 0 0 0-.569 2.245l.016.386c.06.716.298 1.402.639 1.975.602 1.01 1.44 1.7 2.352 2.249 1.375.814 2.994 1.343 4.84 1.714 1.844.367 3.915.555 6.138.556a40.65 40.65 0 0 0 3.393-.144c4.076-.347 7.728-1.228 10.561-2.505 1.419-.646 2.644-1.385 3.645-2.342a6.556 6.556 0 0 0 1.288-1.68 4.83 4.83 0 0 0 .57-2.245l-.015-.377v-.005l-2.607.219M159.634 132.066l-2.61.198.636-.047h-.638l.002.047.636-.047h-.638.567l-.55-.146-.017.146h.567l-.55-.146.27.071-.261-.1-.009.029.27.071-.261-.1v.001c-.01.045-.264.393-.832.78-.843.59-2.302 1.263-4.122 1.785-1.821.528-4.008.927-6.363 1.108-.937.073-1.852.106-2.735.106-2.973.007-5.581-.412-7.237-1.01-.826-.288-1.398-.63-1.634-.84l-.122-.119-.026-.033-.24.157.268-.094-.028-.063-.24.157.268-.094-.59.208.623-.048-.033-.16-.59.208.623-.048v-.007l-.733.057h.735l-.002-.057-.733.057h.735-.565l.548.146.017-.146h-.565l.548.146-.27-.071.26.099.01-.028-.27-.071.26.099v-.002c.011-.043.264-.39.833-.778.843-.59 2.302-1.263 4.121-1.785 1.822-.528 4.008-.926 6.364-1.108a36.164 36.164 0 0 1 2.734-.106c2.974-.007 5.584.412 7.238 1.008.825.29 1.398.632 1.633.842l.124.119.025.033.24-.157-.267.096.027.06.24-.156-.267.096.588-.209-.622.049.034.16.588-.209-.622.049 5.218-.405a4.666 4.666 0 0 0-.636-2.003c-.61-1.024-1.457-1.72-2.379-2.276-1.394-.826-3.04-1.362-4.917-1.741-1.877-.374-3.985-.568-6.245-.568-1.019 0-2.067.04-3.139.121-4.083.322-7.745 1.18-10.59 2.441-1.423.64-2.653 1.371-3.66 2.325-.501.481-.951 1.025-1.297 1.68a4.831 4.831 0 0 0-.574 2.25l.014.36v-.007c.056.728.295 1.425.639 2.003.607 1.024 1.455 1.72 2.378 2.276 1.393.826 3.038 1.362 4.915 1.741 1.878.374 3.986.568 6.245.568 1.02 0 2.068-.038 3.14-.121 4.084-.322 7.745-1.182 10.59-2.441 1.423-.64 2.651-1.371 3.66-2.325.5-.481.95-1.025 1.296-1.68.344-.65.576-1.428.574-2.25l-.014-.35-2.608.199M162.18 157.267l-2.61.181.631-.043h-.633l.001.043.632-.043h-.633.572l-.555-.148-.017.148h.572l-.555-.148.28.075-.271-.106-.009.031.28.075-.271-.106v.001c-.009.04-.26.386-.83.768-.842.586-2.306 1.25-4.131 1.76-1.827.518-4.018.904-6.377 1.069-.859.06-1.7.09-2.511.09-3.031.006-5.696-.424-7.392-1.035-.846-.297-1.436-.648-1.68-.865l-.13-.125-.025-.035-.234.15.26-.091-.026-.06-.234.15.26-.09-.59.207.623-.044-.033-.163-.59.207.623-.044-.002-.009-.747.056h.749l-.002-.056-.747.056h.749-.572l.555.146.017-.146h-.572l.555.146-.283-.075.274.106.009-.031-.283-.075.274.106c.007-.04.26-.387.829-.77.842-.585 2.306-1.249 4.132-1.76 1.826-.515 4.018-.901 6.379-1.068.858-.06 1.698-.09 2.51-.09 3.03-.006 5.694.424 7.39 1.035.847.297 1.436.648 1.682.867l.128.125.028.035.232-.151-.259.09.027.061.232-.151-.259.09.588-.205-.62.044.032.161.588-.205-.62.044 2.61-.185 2.61-.184a4.676 4.676 0 0 0-.637-2.03c-.612-1.035-1.47-1.738-2.404-2.301-1.414-.836-3.084-1.383-4.994-1.77-1.91-.383-4.055-.581-6.353-.583-.939 0-1.902.035-2.883.105-4.092.293-7.763 1.13-10.616 2.376-1.429.631-2.664 1.356-3.676 2.308-.504.48-.958 1.023-1.305 1.678a4.816 4.816 0 0 0-.58 2.257l.013.328v-.008c.05.74.291 1.444.636 2.03.613 1.035 1.471 1.738 2.405 2.303 1.413.836 3.083 1.383 4.994 1.77 1.909.381 4.055.58 6.355.58.937 0 1.9-.032 2.88-.102 4.092-.295 7.763-1.133 10.616-2.378 1.43-.631 2.665-1.356 3.678-2.308a6.548 6.548 0 0 0 1.304-1.678c.347-.65.581-1.432.58-2.255l-.011-.318-2.612.18M164.725 182.468l-2.612.16.578-.035h-.578v.034l.578-.034h-.578.578l-.56-.15-.018.15h.578l-.56-.15.296.078-.286-.11-.01.032.296.078-.286-.11.01.004-.01-.005.01.005-.01-.005c-.007.037-.256.379-.827.758-.844.582-2.312 1.237-4.142 1.735-1.83.508-4.027.88-6.392 1.03-.78.05-1.544.074-2.287.074-3.087.005-5.807-.433-7.545-1.062-.867-.304-1.473-.664-1.73-.891l-.132-.13-.03-.039-.225.145.252-.086-.027-.059-.225.145.252-.086-.59.204.621-.04-.031-.164-.59.204.621-.04v-.005l-.726.048h.728l-.002-.048-.726.048h.728-.578l.559.148.019-.148h-.578l.559.148-.295-.078.284.11.01-.032-.294-.078.284.11-.007-.003.007.004-.007-.004.007.004c.007-.035.257-.379.827-.758.845-.58 2.312-1.237 4.143-1.735 1.83-.506 4.029-.88 6.393-1.029.78-.05 1.544-.075 2.286-.075 3.086-.005 5.807.435 7.544 1.062.868.306 1.475.665 1.73.891l.132.13.032.04.223-.144-.25.085.027.06.223-.145-.25.085.589-.203-.62.04.032.163.588-.203-.62.04-.002-.009 2.612-.16 2.613-.166a4.665 4.665 0 0 0-.637-2.057c-.618-1.046-1.485-1.757-2.431-2.327-1.43-.846-3.129-1.405-5.07-1.8-1.943-.389-4.127-.594-6.465-.594-.855 0-1.731.028-2.623.085-4.099.268-7.78 1.083-10.644 2.313-1.434.623-2.675 1.34-3.692 2.291a6.506 6.506 0 0 0-1.314 1.677 4.812 4.812 0 0 0-.58 2.262l.008.297v-.007c.047.75.288 1.463.637 2.057.617 1.046 1.485 1.757 2.43 2.329 1.431.846 3.129 1.404 5.071 1.798 1.942.39 4.127.594 6.465.594.857 0 1.73-.028 2.622-.083 4.1-.27 7.78-1.084 10.646-2.315 1.432-.623 2.673-1.34 3.692-2.29a6.547 6.547 0 0 0 1.312-1.678 4.79 4.79 0 0 0 .581-2.26l-.008-.285v-.007l-2.613.167M167.273 207.67l-2.614.147.651-.036h-.653l.002.036.651-.036h-.653.585l-.565-.152-.02.152h.585l-.565-.152.307.082-.297-.115-.01.033.307.082-.297-.115.024.01-.022-.013-.002.003.024.01-.022-.013c-.005.033-.253.374-.826.749-.844.575-2.317 1.223-4.15 1.711-1.838.495-4.04.853-6.41.989-.7.04-1.387.059-2.059.059-3.142.007-5.92-.445-7.7-1.088-.888-.313-1.51-.683-1.776-.917l-.14-.137-.033-.04-.216.137.24-.082-.024-.055-.216.137.24-.082-.587.202.62-.035-.032-.167-.588.202.62-.035v-.014l-.814.05.815.002-.002-.052-.813.05.815.002h-.585l.566.15.019-.15h-.585l.566.15-.307-.082.296.116.01-.034-.306-.082.296.116-.024-.01.022.012.002-.002-.024-.01.022.012c.006-.031.255-.372.826-.747.846-.577 2.319-1.223 4.153-1.711 1.835-.496 4.037-.855 6.407-.99a36.24 36.24 0 0 1 2.06-.06c3.141-.005 5.92.445 7.7 1.09.887.312 1.512.68 1.777.917l.14.136.031.041.215-.139-.24.084.025.055.215-.139-.24.084.589-.202-.62.035.032.167.588-.202-.62.035 2.614-.15 2.612-.15a4.691 4.691 0 0 0-.635-2.082c-.623-1.058-1.5-1.776-2.459-2.354-1.448-.859-3.172-1.427-5.149-1.832-1.975-.396-4.196-.606-6.574-.606-.773 0-1.562.022-2.361.068-4.108.241-7.8 1.035-10.674 2.248-1.44.617-2.683 1.329-3.708 2.274a6.5 6.5 0 0 0-1.32 1.677 4.795 4.795 0 0 0-.587 2.267l.009.275v-.014c.04.757.284 1.482.633 2.083.625 1.058 1.5 1.776 2.459 2.354 1.448.859 3.174 1.427 5.15 1.83 1.974.398 4.197.606 6.575.606.772 0 1.56-.02 2.361-.068 4.108-.241 7.8-1.033 10.672-2.248 1.44-.617 2.684-1.327 3.708-2.274a6.506 6.506 0 0 0 1.322-1.677c.351-.651.589-1.438.585-2.265l-.007-.261-2.612.15M168.863 232.929l-2.614.116.41-.02-.41.003v.017l.41-.02-.41.003h.588l-.57-.155-.018.155h.588l-.57-.155.315.085-.304-.12-.01.035.314.085-.304-.12.042.018-.04-.021-.002.003.042.018-.04-.021c-.002.028-.25.366-.822.738-.846.57-2.324 1.21-4.163 1.687-1.84.483-4.048.829-6.421.949a36.44 36.44 0 0 1-1.832.047c-3.199.005-6.036-.457-7.857-1.117-.91-.32-1.55-.7-1.826-.944l-.144-.142-.035-.045-.208.133.232-.078-.024-.055-.208.133.232-.078-.59.2.62-.031-.03-.169-.59.2.62-.031h-.037l.037-.002-.037.002.037-.002-1.073.035h1.074l-.001-.035-1.073.035h1.074-.59l.571.153.02-.153h-.59l.57.153-.316-.086.304.12.012-.034-.316-.086.304.12-.04-.015.038.02.002-.005-.04-.015.038.02c.004-.029.252-.368.822-.738.848-.572 2.324-1.21 4.163-1.687 1.841-.485 4.05-.83 6.423-.95a36.424 36.424 0 0 1 1.83-.047c3.2-.005 6.036.457 7.858 1.117.909.321 1.551.7 1.825.945l.147.14.033.046.073-.047-.077.038.004.009.073-.047-.077.038.492-.241-.542.028.05.213.492-.241-.542.028v-.016l2.614-.116 2.613-.134a4.69 4.69 0 0 0-.633-2.108c-.628-1.072-1.515-1.796-2.485-2.382-1.467-.87-3.219-1.449-5.23-1.86-2.007-.407-4.269-.62-6.687-.623-.688 0-1.387.018-2.098.054-4.114.216-7.817.985-10.7 2.184-1.444.608-2.693 1.314-3.725 2.257a6.507 6.507 0 0 0-1.33 1.677 4.77 4.77 0 0 0-.587 2.27l.005.233c.037.767.281 1.5.635 2.108.627 1.07 1.513 1.795 2.483 2.382 1.468.869 3.22 1.447 5.231 1.86 2.007.406 4.268.621 6.687.621a41 41 0 0 0 2.099-.054c4.114-.213 7.815-.985 10.7-2.184 1.442-.608 2.694-1.313 3.723-2.257a6.49 6.49 0 0 0 1.33-1.675 4.797 4.797 0 0 0 .59-2.27l-.006-.218-.002-.015-2.613.134M169.405 258.25l-2.615.115.664-.03-.664.002v.028l.664-.03-.664.002h.593l-.574-.156-.02.156h.594l-.574-.156.194.054-.18-.096-.014.042.194.054-.18-.096c-.002.028-.251.365-.826.732-.85.564-2.33 1.195-4.173 1.66-1.845.473-4.055.803-6.43.91-.543.022-1.077.034-1.6.034-3.258.005-6.153-.47-8.018-1.145-.93-.33-1.588-.718-1.872-.971l-.152-.148-.037-.049-.059.039.063-.03-.004-.009-.059.039.063-.03-.494.238.543-.024-.05-.214-.493.238.543-.024-.002-.038v.02l-.932.047h.934l-.002-.047-.932.047h.934-.594l.574.155.02-.155h-.594l.574.155-.193-.052.18.094.013-.042-.193-.052.18.094c.001-.028.249-.363.823-.732.85-.564 2.331-1.195 4.174-1.66 1.846-.473 4.057-.803 6.431-.908a35.757 35.757 0 0 1 1.6-.036c3.256-.005 6.151.469 8.017 1.145.93.33 1.59.72 1.874.973l.151.147.037.047.06-.036-.064.03.004.006.06-.036-.064.03.493-.239-.541.025.048.213.493-.238-.541.025 2.615-.117 2.614-.116a4.667 4.667 0 0 0-.633-2.134c-.634-1.082-1.529-1.815-2.511-2.41-1.487-.88-3.267-1.471-5.31-1.892-2.043-.413-4.343-.634-6.801-.636-.602 0-1.215.014-1.833.042-4.123.188-7.834.935-10.727 2.118-1.448.601-2.705 1.3-3.74 2.24-.516.474-.98 1.016-1.338 1.676a4.769 4.769 0 0 0-.593 2.276l.005.221v-.02a4.68 4.68 0 0 0 .632 2.135c.633 1.084 1.528 1.815 2.51 2.41 1.487.88 3.267 1.471 5.312 1.893 2.042.414 4.343.634 6.802.634.602 0 1.212-.014 1.832-.04 4.121-.187 7.834-.936 10.726-2.12 1.45-.6 2.704-1.299 3.74-2.239a6.497 6.497 0 0 0 1.339-1.675 4.794 4.794 0 0 0 .593-2.276l-.005-.201-2.614.114M169.946 283.572l-2.615.092.502-.017h-.502v.017l.502-.017h-.502.598l-.58-.157-.018.157h.598l-.58-.157.21.056-.194-.1-.015.044.21.056-.195-.1c0 .022-.247.357-.821.72-.852.56-2.339 1.182-4.185 1.637-1.85.46-4.067.778-6.447.867-.46.017-.916.026-1.366.026-3.314.005-6.268-.481-8.175-1.175-.953-.337-1.63-.736-1.925-.999l-.198-.206-.428.241.48-.017-.052-.224-.428.241.48-.017v-.016l-.913.04h.913v-.04l-.913.04h.913-.599l.58.156.019-.156h-.599l.58.156-.208-.055.192.1.016-.045-.208-.055.192.1c0-.024.248-.357.822-.722.851-.56 2.336-1.182 4.184-1.635 1.85-.462 4.067-.778 6.447-.869.461-.017.916-.026 1.367-.026 3.313-.005 6.267.481 8.174 1.175.953.338 1.63.736 1.925.999l.199.208.426-.241-.478.019.052.222.426-.241-.478.019.003.083-.003-.092 2.615-.092 2.616-.099a4.702 4.702 0 0 0-.632-2.16c-.639-1.094-1.542-1.834-2.539-2.437-1.504-.892-3.313-1.495-5.391-1.924-2.075-.424-4.417-.65-6.915-.65a39.54 39.54 0 0 0-1.566.028c-4.13.162-7.852.888-10.755 2.054-1.453.594-2.713 1.286-3.755 2.224a6.432 6.432 0 0 0-1.347 1.675 4.772 4.772 0 0 0-.597 2.281l.005.186-.001-.014c.028.785.272 1.54.631 2.16.637 1.096 1.543 1.835 2.537 2.437 1.506.893 3.316 1.496 5.394 1.926 2.074.422 4.414.65 6.915.65.515 0 1.036-.01 1.565-.03 4.13-.162 7.852-.886 10.755-2.054 1.454-.592 2.714-1.286 3.755-2.222a6.46 6.46 0 0 0 1.347-1.675c.36-.655.599-1.45.597-2.281l-.003-.165v-.009l-2.616.099M170.487 308.895l-2.616.056v.005h.602l-.582-.158-.02.158h.602l-.582-.158.22.06-.203-.108-.017.048.22.06-.203-.108c.002.02-.244.35-.82.712-.851.554-2.343 1.167-4.195 1.612-1.854.45-4.076.754-6.461.827-.38.012-.759.018-1.132.018-3.372.005-6.385-.494-8.336-1.204-.973-.346-1.668-.756-1.975-1.027l-.208-.22-.424.24.475-.015-.05-.224-.425.24.475-.016v-.01l-1.326.03h1.326v-.03l-1.326.03h1.326-.602l.583.159.019-.158h-.602l.583.158-.22-.06.202.107.018-.047-.22-.06.202.107c-.001-.02.245-.351.82-.71.852-.555 2.344-1.17 4.195-1.613 1.855-.45 4.076-.754 6.461-.827.383-.012.761-.018 1.133-.018 3.371-.006 6.383.492 8.335 1.205.974.345 1.668.755 1.975 1.026l.208.22.422-.239-.473.014.051.224.422-.238-.473.014 2.616-.082-2.616.056 2.616-.056 2.617-.081a4.718 4.718 0 0 0-.63-2.188c-.643-1.106-1.558-1.854-2.566-2.465-1.524-.905-3.36-1.519-5.474-1.958-2.11-.431-4.491-.664-7.03-.664-.428 0-.86.005-1.297.02-4.137.133-7.869.837-10.781 1.989-1.46.583-2.726 1.27-3.773 2.204a6.39 6.39 0 0 0-1.354 1.675 4.756 4.756 0 0 0-.602 2.287l.004.142c.023.796.267 1.559.628 2.186.644 1.109 1.556 1.856 2.565 2.465 1.525.906 3.362 1.52 5.475 1.959 2.11.432 4.49.665 7.03.665.428 0 .86-.007 1.297-.02 4.137-.135 7.87-.838 10.782-1.988 1.458-.586 2.725-1.272 3.772-2.207a6.354 6.354 0 0 0 1.354-1.673 4.762 4.762 0 0 0 .602-2.287l-.002-.116v-.026l-2.617.081M171.03 334.217l-2.618.035v.014h.608l-.587-.16-.02.16h.607l-.587-.16.23.063-.212-.113-.018.05.23.063-.212-.113c.003.015-.241.345-.817.702-.855.549-2.348 1.155-4.207 1.588-1.86.437-4.086.728-6.475.787-.3.007-.599.01-.895.01-3.429.005-6.502-.506-8.498-1.235-.996-.355-1.71-.775-2.026-1.057-.162-.137-.218-.227-.218-.227l-.418.236.467-.012-.049-.224-.418.236.467-.012v-.03l-1.717.046h1.717v-.046l-1.717.046h1.717-.607l.588.16.02-.16h-.608l.588.16-.232-.065.215.115.017-.05-.232-.065.215.115c-.006-.016.239-.346.816-.702.853-.55 2.349-1.156 4.205-1.588 1.86-.44 4.087-.73 6.476-.787.301-.007.6-.01.895-.01 3.428-.008 6.501.505 8.497 1.235.997.354 1.71.773 2.026 1.054.162.14.218.23.218.231l.419-.236-.468.012.05.224.418-.236-.468.012 2.618-.066-2.618.035 2.618-.035 2.615-.064a4.7 4.7 0 0 0-.628-2.212c-.647-1.12-1.57-1.875-2.593-2.495-1.542-.917-3.41-1.544-5.557-1.993-2.145-.441-4.565-.68-7.147-.68-.339 0-.68.004-1.025.013-4.145.108-7.886.787-10.809 1.923-1.464.577-2.734 1.257-3.788 2.19-.524.469-.998 1.01-1.363 1.673a4.754 4.754 0 0 0-.605 2.292l.001.116v-.005c.018.806.264 1.577.628 2.213.648 1.12 1.57 1.875 2.593 2.495 1.543.918 3.41 1.545 5.558 1.991 2.144.442 4.564.681 7.147.681.338 0 .68-.003 1.024-.012 4.146-.107 7.887-.789 10.81-1.923 1.464-.577 2.736-1.258 3.788-2.19.523-.468.998-1.01 1.363-1.672a4.76 4.76 0 0 0 .605-2.292l-.002-.108v-.005l-2.615.064M171.57 359.54h-2.617v.035h.613l-.592-.161-.02.161h.612l-.592-.161.243.066-.225-.118-.018.052.243.066-.225-.118c.007.012-.236.339-.813.691-.855.544-2.354 1.142-4.216 1.564-1.865.427-4.099.704-6.491.747-.22.004-.44.005-.66.005-3.486.005-6.618-.52-8.66-1.266-1.017-.365-1.748-.794-2.076-1.086a1.17 1.17 0 0 1-.227-.24l-.415.233.464-.007-.049-.226-.415.233.464-.007-.002-.031-1.844.041h1.844v-.041l-1.844.041h1.844-.61l.59.162.02-.162h-.61l.59.162-.241-.066.223.118.017-.052-.24-.066.223.118c-.007-.012.236-.339.813-.692.855-.543 2.356-1.141 4.218-1.563 1.863-.428 4.097-.704 6.49-.747.222-.004.44-.006.658-.006 3.487-.005 6.619.52 8.66 1.267 1.017.363 1.749.794 2.077 1.084.167.144.228.242.228.242l.414-.233-.463.009.05.224.413-.233-.463.009 2.618-.047h-2.618 2.618l2.617-.049a4.69 4.69 0 0 0-.626-2.238c-.653-1.133-1.587-1.895-2.62-2.524-1.563-.93-3.458-1.57-5.64-2.026-2.182-.452-4.642-.697-7.265-.697-.251 0-.502.002-.753.007-4.153.08-7.905.737-10.838 1.857-1.47.57-2.745 1.243-3.804 2.172a6.354 6.354 0 0 0-1.371 1.673 4.758 4.758 0 0 0-.61 2.297l.003.089 1.046-.026-1.046.019v.007l1.046-.026-1.046.019c.012.815.258 1.597.624 2.24.653 1.132 1.586 1.895 2.621 2.522 1.562.932 3.458 1.57 5.64 2.028 2.18.452 4.64.697 7.263.697.25 0 .501-.002.754-.007 4.153-.08 7.906-.739 10.838-1.858 1.469-.57 2.744-1.244 3.803-2.171a6.354 6.354 0 0 0 1.372-1.674c.368-.658.61-1.46.609-2.297v-.083l-2.617.049"/>
  </g>
</svg>
