<svg xmlns="http://www.w3.org/2000/svg" viewBox="0 0 574 488"><rect width="574" height="488" fill="#2b2b2b"/><path d="M262.7,260V246c0-31.6,46.1-43.5,46.1-66.7,0-12-10-22.2-26.6-22.2-20.3,0-29.2,12.9-35.9,17.2-2.7,1.6-5,1.6-7.3-.3l-15.6-15.3c-2.7-2.3-2.3-6.3,0-8.6,0,0,22.6-29.2,65.1-29.2,34.8,0,64.4,23.3,64.4,55.8,0,40.2-50.4,51.8-50.4,71.7v10.9c0,4-2.3,7-6.6,7H269A6.34,6.34,0,0,1,262.7,260Zm19.6,45a28,28,0,0,1,27.6,27.6c0,14.9-12.6,27.2-27.6,27.2a27.36,27.36,0,0,1-27.2-27.2C255.1,317.7,267.4,305,282.3,305Z" fill="#fff"/></svg>