<svg xmlns="http://www.w3.org/2000/svg" width="574" height="488" viewBox="0 0 574 488" version="1.1"><title>gym-102</title><desc>Created with Sketch.</desc><g stroke="none" stroke-width="1" fill="none" fill-rule="evenodd"><rect fill="#764C9F" x="0" y="0" width="574" height="488"/><path d="M56.3 378.1C56.4 378.5 56.5 379 56.7 379.4 107.8 400.6 163.4 408.9 218.9 408.9 232 408.9 245.2 408.4 258.2 407.6 305.8 404.4 352.7 396.2 399.4 386.2 392.6 386.3 385.7 386.3 378.7 386.3 283.1 386.3 167.3 382 82.1 380.9 73.8 380.8 64.6 380.1 56.3 378.1M336 320.9L332 320.9C269 320.9 206 320.9 143 320.9 133.6 320.9 124.1 321 114.8 321.9 123.9 323.5 133.1 325.7 142.2 327.6 161 331.5 180 334.4 199.1 336.5 235 335.9 286.4 335.1 327.6 335.1 358.6 335.1 383.9 335.6 392.2 336.9 403.9 338.7 413.6 339.9 421.7 340.6 432.6 340.5 443.5 340.4 454.5 340.4 460.9 340.4 467.2 340.4 473.6 340.5 449 330.1 422.2 324.9 395.5 322.6 375.7 321 355.8 320.9 336 320.9" opacity="0.8" fill="#3C2E43"/><path d="M473.6 340.5C475.3 341.2 477 342 478.7 342.7 481 342.9 483.5 343.2 486.1 343.6 490.1 343.4 493.6 343.3 496.8 343.3 518.9 343.3 524.5 347.2 524.5 347.2 524.5 347.2 524.5 354.7 486.2 357 482 364.9 470.2 370.3 460.3 372.6 440.1 377.3 419.8 381.9 399.4 386.2 467.1 385.8 522 382.7 543.8 374 545.8 362.7 536.4 351.8 524.8 346.6 513.2 341.5 499.7 341 486.7 340.7 482.4 340.6 478 340.6 473.6 340.5M88.2 319.2C87.5 319.2 86.9 319.2 86.2 319.3 67.3 319.6 47.2 326.2 37.2 340.4 33 346.3 30.8 353.5 32.8 360.3 35.6 369.9 45 375.2 56.3 378.1 54.3 369.5 56 360.8 60 353 58.5 351.2 57.6 349.3 57.7 347.2 57.7 345 61.7 343.4 67.6 342.2 72.1 337.2 77.6 333.1 83.5 330.2 93.2 325.3 103.9 323 114.8 321.9 106 320.3 97.1 319.2 88.2 319.2" opacity="0.8" fill="#44374A"/><path d="M60 353C56 360.8 54.3 369.5 56.3 378.1 64.6 380.1 73.8 380.8 82.1 380.9 167.3 382 283.1 386.3 378.7 386.3 385.7 386.3 392.6 386.3 399.4 386.2 419.8 381.9 440.1 377.3 460.3 372.6 470.2 370.3 482 364.9 486.2 357 479.1 357.5 470.7 357.7 460.7 357.7 460.1 357.7 459.2 357.7 458.1 357.7 437.1 357.7 331.8 364.3 311.7 365.6 289.1 367 239.1 371.6 188.1 371.6 168.5 371.6 148.8 370.9 130.4 369.1 122.7 368.4 71.7 365.7 60 353M454.5 340.4C443.5 340.4 432.6 340.5 421.7 340.6 434.6 341.9 443.7 342 451.6 342 453.2 342 454.8 342 456.3 342 457.8 342 459.3 342 460.8 342 466.5 342 472 342.1 478.7 342.7 477 342 475.3 341.2 473.6 340.5 467.2 340.4 460.9 340.4 454.5 340.4M114.8 321.9C103.9 323 93.2 325.3 83.5 330.2 77.6 333.1 72.1 337.2 67.6 342.2 83.4 338.9 113.4 338.4 122.5 337.3 125.2 337 128.6 336.9 132.4 336.9 136.2 336.9 140.3 337 144.2 337.1 148.1 337.2 151.8 337.3 154.8 337.3 155.1 337.3 155.4 337.3 155.7 337.3 159.1 337.3 175.9 336.9 199.1 336.5 180 334.4 161 331.5 142.2 327.6 133.1 325.7 123.9 323.5 114.8 321.9" opacity="0.9" fill="#37293E"/><path d="M327.6 335.1C286.4 335.1 235 335.9 199.1 336.5 237.7 340.9 276.8 342 316 342 339 342 362.1 341.6 385.2 341.2 397.4 341 409.5 340.8 421.7 340.6 413.6 339.9 403.9 338.7 392.2 336.9 383.9 335.6 358.6 335.1 327.6 335.1" opacity="0.9" fill="#302137"/><path d="M478.7 342.7C481.6 344 484.4 345.4 487.2 346.9 488.4 350.6 487.9 354 486.2 357 524.5 354.7 524.5 347.2 524.5 347.2 524.5 347.2 518.9 343.3 496.8 343.3 493.6 343.3 490.1 343.4 486.1 343.6 483.5 343.2 481 342.9 478.7 342.7M67.6 342.2C61.7 343.4 57.7 345 57.7 347.2 57.6 349.3 58.5 351.2 60 353 62 349.1 64.6 345.5 67.6 342.2" opacity="0.9" fill="#34263B"/><path d="M199.1 336.5C175.9 336.9 159.1 337.3 155.7 337.3 155.4 337.3 155.1 337.3 154.8 337.3 151.8 337.3 148.1 337.2 144.2 337.1 140.3 337 136.2 336.9 132.4 336.9 128.6 336.9 125.2 337 122.5 337.3 113.4 338.4 83.4 338.9 67.6 342.2 64.6 345.5 62 349.1 60 353 71.7 365.7 122.7 368.4 130.4 369.1 148.8 370.9 168.5 371.6 188.1 371.6 239.1 371.6 289.1 367 311.7 365.6 331.8 364.3 437.1 357.7 458.1 357.7 459.2 357.7 460.1 357.7 460.7 357.7 470.7 357.7 479.1 357.5 486.2 357 487.9 354 488.4 350.6 487.2 346.9 484.4 345.4 481.6 344 478.7 342.7 472 342.1 466.5 342 460.8 342 459.3 342 457.8 342 456.3 342 454.8 342 453.2 342 451.6 342 443.7 342 434.6 341.9 421.7 340.6 409.5 340.8 397.4 341 385.2 341.2 362.1 341.6 339 342 316 342 276.8 342 237.7 340.9 199.1 336.5" fill="#2D1F35"/><path d="M214.7 80.1C292.4 79.5 354.8 82.8 432.5 82.2 440.4 82.2 455.7 83.3 462.9 86.5 476.2 92.4 474.1 114 474.6 132.4 477 215.1 475.9 258.3 475.9 323.7 352.9 328 245.5 326.6 125 328.6 124 253.4 121.6 228.9 121.4 148.5 121.3 134.5 121.7 112.1 123.4 98.2 124.3 90.4 131.2 85.1 139 84 177.7 78.6 191.4 80.3 214.7 80.1" fill="#24142C"/><path d="M217.7 100.3C201.8 100.7 184.3 99.3 139.6 102.7 141.6 174 142.3 255.9 141.7 327.3 179.7 329.3 194 328.5 220.2 327.9 276.4 326.7 332.5 329.4 388.7 328.1 408.3 327.7 451.1 328.3 459.6 325.1 461.7 315.6 459.4 270.4 459.4 265.3 459.2 215.2 459.1 188.2 458.9 138.1 458.8 129.4 459.2 114.8 457.6 102.7 435.5 99 413.6 99.8 401 99.7 334 99.2 284.7 98.5 217.7 100.3" fill="#C9C9C9"/><path d="M292 352.8C328.8 353.8 387.8 349.8 424.6 350.9 434.1 351.1 472.1 351.4 486.1 348.9 499.2 346.5 513.4 343 513.4 321.8 501.8 321.6 436.5 325 420 325.3 389.3 325.9 339.6 322.2 308.9 322.7 223.4 323.9 156.6 326.4 71.1 325 68.3 335.6 78.6 344.4 90.6 348 102.6 351.6 124.1 350.9 136.7 351 177.7 351.5 284.7 352.5 292 352.8" fill="#24142C"/><path d="M453.1 121C441.8 102.7 414.3 101.9 391.8 103.7 345.4 107.4 297.6 112.5 257.1 133.9 207.5 160.1 175.1 207.4 150 255.2 145.7 263.5 141.4 272.5 143.6 281.5 147.5 296.7 168.6 304.7 170.6 320.3 267.1 308.9 369.7 329.2 459.2 293.7 459 245.6 458.7 197.5 458.5 149.4 458.4 139.7 458.3 129.4 453.1 121" fill="#E2E2E2"/><path d="M161 203.3C162 191.6 163.7 180 166.2 168.6 169 156 170 141 180.6 133.6 189.5 127.3 204.5 126.7 215.4 125.6 224.4 124.7 245.3 120.7 259.6 118.6 260.4 118.5 260.3 117.5 259.6 117.4 211.1 111.6 161.1 118 161.1 118 153.3 116 158.2 137.1 158.4 146.9 158.8 164.4 157.5 181.8 157.9 199.2 157.9 201.2 159.2 204.1 161 203.3" fill="#FFFFFF"/><path d="M223 231.9C217.4 219.2 213.6 205.4 215 191.6 216.3 177.8 223.6 164.1 235.8 157.6 234.4 190.4 250.6 223.4 277.3 242.4 304.1 261.5 340.6 265.9 371.1 253.8 362.7 271.7 342.8 280.8 323.7 286 306 290.9 288.6 289.5 271.7 282.4 259.5 277.2 247.8 271.5 239.9 260.9 233.2 251.9 227.5 242.1 223 231.9" fill="#24142C"/><path d="M320.4 233.6C310.8 232.2 298.6 228.1 290.8 222.3 286 218.7 281.2 215 277.6 210.2 269.8 200.1 267.8 186.6 268 173.7 268.2 164.5 269.6 154.5 276 147.9 278.2 161.1 280.6 174.7 287.7 186.1 296.2 199.6 310.7 208.5 326.1 212.5 341.5 216.5 357.8 215.9 373.5 213.5 365 219.6 340 236.4 320.4 233.6" fill="#24142C"/><path d="M373.4 178.4C362.6 188 350.6 194.6 333.3 190.3 331.6 189.9 323.8 185.5 322.7 184.6 312.9 176.9 308.3 167.2 306.8 154.8 305.8 146.9 307.4 137.9 314 133.4 313.4 140.3 318.8 155.4 320.5 159.7 326.1 174.1 344.8 179.2 347.7 179.5 356.3 180.4 364.9 180 373.4 178.4" fill="#24142C"/></g></svg>