<svg height="488" viewBox="0 0 574 488" width="574" xmlns="http://www.w3.org/2000/svg"><g fill="none" fill-rule="evenodd"><path d="m0 0h574v488h-574z" fill="#5ca5a0"/><g transform="translate(56 335)"><path d="m4.6621422 43.2302941c-19.2172728 17.9515759 29.4183396 35.5711475 65.6295393 43.0086353 14.3342186 2.9441327 32.3412475 4.9989171 54.6827175 4.9989171 78.780641 0 124.704287 8.5164882 149.081979 8.5164882 110.202239 0 174.943622-26.0659524 186.943622-51.7543361 7.804895-16.7079288-12.944375-29.8024519-35.000009-35.9999989-40.146473-11.28100226-107.725325-6.42252559-178.852035-6.42252559-110.202238 0-194.4970005-7.17533188-242.4858138 37.65281999z" fill="#315a5b"/><path d="m212 85.8410721c12.82778 1.2032573 77.93113-1.391577 90.544304-.0000006 54.667891 6.0313558 91.847461 1.1796782 116.561813-7.571451 13.750823-4.8690426 29.245951-31.8692621 30.541069-33.2739252 4.204071-4.5596638-12.647186-39.99569533-107.647186-43.99569533s-49.199988 6.00000003-89.643917 6.00000003c-101.78217 0-246.356083 14.7792481-246.356083 37.9956971 0 21.0907174 78.7275476 28.907104 206 40.845375z" fill="#2c4f4f"/><path d="m79.9999985 67.000001s1.2290468.2856039 3.2272727.748982c8.3250247 1.9305297 30.0009118 6.9467376 31.7727308 7.2510141 11.205713 1.9243696 24.136477 1.8519375 59.150489 6.1578914 16.025275 1.9707564 34.431155 1.1011459 49.849504-.000001 8.691391-.6207215 87.310738-11.4229681 122.925931-17.1744149 56.846918-9.180128 98.074059-26.9834726 79.074059-40.3789957-13.325126-9.3945811-103.920994-21.6044769-191.999985-21.6044769-61.025318 0-167.5332795 21.6044763-167.5332795 21.6044763s-25.5428488 5.4101523-36.198202 13.3955237c-4.9462114 3.7068068-.7017788 9.5020858 0 12.8016522 1.8039108 8.48148 49.73148 17.1983488 49.73148 17.1983488z" fill="#274444"/></g><g transform="translate(124 76)"><path d="m326.392408 158.343756c.317599 73.11767 4.084286 147.765611-11.918381 148.728609-8.923443 5.694164-83.878217 10.579332-152.292304 10.908779-70.2506345.339193-134.074119-3.984551-148.7879807-5.976826-18.22125345-.091621-12.20682825-77.26597-12.33724308-167.664971.37743587-99.0172478-9.39907367-139.56063339 23.90734018-139.70878693 15.3490586-2.88509524 266.5801916-8.52077789 287.5386216-.51073984 16.25736 3.52644411 13.587691 84.79255917 13.889947 154.22393577z" fill="#24152c"/><g transform="translate(13 16)"><path d="m299.560694 89.3669794-2.524485 179.8196036c-.029575 2.106609-1.713582 4.24123-3.763498 4.717173 0 0-34.572568 10.072505-136.978301 10.072505-102.4057321 0-149.34116525-5.789204-149.34116525-5.789204-2.09255256-.228779-3.87326034-2.127995-3.97007336-4.223444 0 0-2.055573-38.680508-2.97817259-127.997249-.11811828-11.277606 1.89583564-132.8142045 1.89583564-132.8142045.07349909-4.47342488 3.75234078-8.25596052 8.23101186-8.44677153 0 0 108.2519687-4.73094627 144.2477187-4.70528395 38.102724.02763636 73.668488 2.3992242 115.677096 1.38654931 2.035146-.04935063 6.672087-.03553245 12.855739-.02171428 3.230695.0078961 2.712868.00499706 2.712868.00499706 4.469839.00487177 8.333266 3.62210187 8.62989 8.08959643z" fill="#e2e2e2"/><g transform="translate(204 173)"><path d="m53.9877899 90.7720806c-1.911247 2.2306464-4.1477931 1.8019892-6.3179892 2.1067039-6.7581239.9480588-13.5363295.6648655-20.3127699.476541-6.0028202-.1668248-12.0143472.6446745-17.98911856.6446745-5.97477134 0-2.72034777-5.4579288 0-5.3282987 6.71885356.3164992 21.06610776-.9377133 27.78542206-.6195305 1.9379713.0925929 3.3949055.6717192 5.3291908.392257 3.4870582-.505052 7.3496387-.6111129 10.8237956.2272735.3335928.0808083.7727004 1.4067745.6814692 2.1003793z" fill="#b7b7b7" transform="matrix(.9998477 -.01745241 .01745241 .9998477 -1.5836 .537432)"/><path d="m1.20320638 2.28500906c-2.04111086 2.85885568-1.09979737 75.06809184 0 75.35881654.66099643.1747304 23.70093172.6964603 44.91309882.0164919 14.0816479-.4513954 28.4891782-1.6558188 30.911662-3.0335776.6120455-12.2484981 2.0208233-24.5536834 1.9673405-36.8303588-.0517968-11.8896618-1.5371685-23.7525829-2.6913783-35.51137204-3.1715564-1.63727744-18.1833202-2.2714586-33.1891815-2.28479376-19.6588954-.01747015-41.01603224 1.03062546-41.91154152 2.28479376z" fill="#c9c9c9"/></g><g transform="translate(111 174)"><path d="m52.9877899 90.7720806c-1.911247 2.2306464-4.1477931 1.8019892-6.3179892 2.1067039-6.7581239.9480588-13.5363295.6648655-20.3127699.476541-6.0028202-.1668248-12.0143472.6446745-17.98911856.6446745-5.97477134 0-2.72034777-5.4579288 0-5.3282987 6.71885356.3164992 21.06610776-.9377133 27.78542206-.6195305 1.9379713.0925929 3.3949055.6717192 5.3291908.392257 3.4870582-.505052 7.3496387-.6111129 10.8237956.2272735.3335928.0808083.7727004 1.4067745.6814692 2.1003793z" fill="#b7b7b7" transform="matrix(.9998477 .01745241 -.01745241 .9998477 1.592586 -.49226)"/><path d="m1.20320638 4.04897981c-2.04111086 2.79648401-1.09979737 73.43033089 0 73.71471279.66099643.1709183 23.70093172 1.5043185 44.91309882.839185 14.0816479-.4415473 28.4891782-2.4427467 30.911662-3.7904468 1.2047968-23.5848441 1.6219518-47.3845527-.7240378-70.76345099-3.1715564-1.60155695-18.1833202-4.03585878-33.1891815-4.04890301-19.6588954-.017089-41.01603224 2.8220969-41.91154152 4.04890301z" fill="#c9c9c9"/></g><g transform="translate(16 174)"><path d="m51.6664125 89.7720806c-1.9112471 2.2306464-4.1477932 1.8019892-6.3179893 2.1067039-6.7581239.9480588-13.5363295.6648655-20.3127698.476541-6.0028203-.1668248-12.0143473.6446745-17.98911863.6446745-5.97477134 0-2.72034777-5.4579288 0-5.3282987 6.71885353.3164992 21.06610773-.9377133 27.78542203-.6195305 1.9379713.0925929 3.3949056.6717192 5.3291908.392257 3.4870582-.505052 7.3496388-.6111129 10.8237956.2272735.3335928.0808083.7727004 1.4067745.6814693 2.1003793z" fill="#b7b7b7" transform="matrix(.99939083 .0348995 -.0348995 .99939083 3.157816 -.911144)"/><path d="m1.20320638 4.08891948c-2.04111086 2.82220864-1.09979737 72.27247382 0 72.55947182.66099643.1724906 23.70093172.6875325 44.91309882.0162805 14.0816479-.4456091 28.4891782-.6345932 30.911662-1.9946908 1.2047968-23.801799 1.6219518-48.8204393-.7240378-72.41439807-3.1715564-1.61628954-18.1833202-2.24234127-33.1891815-2.25550549-19.6588954-.0172462-41.01603224 2.85075065-41.91154152 4.08884204z" fill="#c9c9c9"/></g><g transform="translate(205 95)"><path d="m53.9877899 54.7720806c-1.911247 2.2306464-4.1477931 1.8019892-6.3179892 2.1067039-6.7581239.9480588-13.5363295.6648655-20.3127699.476541-6.0028202-.1668248-12.0143472.6446745-17.98911856.6446745-5.97477134 0-2.72034777-5.4579288 0-5.3282987 6.71885356.3164992 21.06610776-.9377133 27.78542206-.6195305 1.9379713.0925929 3.3949055.6717192 5.3291908.392257 3.4870582-.505052 7.3496387-.6111129 10.8237956.2272735.3335928.0808083.7727004 1.4067745.6814692 2.1003793z" fill="#b7b7b7"/><path d="m1.20320638 1.23038949c-2.04111086 1.53938383-1.09979737 40.42128021 0 40.57782431.66099643.0940856 23.70093172.3750171 44.91309882.0088802 14.0816479-.243059 28.4891782-.8915947 30.911662-1.6334648.6120455-6.5953452 1.0208233-13.2212142.9673405-19.8317317-.0517968-6.4021256-.5371685-12.7898523-1.6913783-19.12150801-3.1715564-.88161093-18.1833202-1.22309309-33.1891815-1.23027356-19.6588954-.009407-41.01603224.55495217-41.91154152 1.23027356z" fill="#c9c9c9"/></g><g transform="translate(112 94)"><path d="m52.9877899 55.7720806c-1.911247 2.2306464-4.1477931 1.8019892-6.3179892 2.1067039-6.7581239.9480588-13.5363295.6648655-20.3127699.476541-6.0028202-.1668248-12.0143472.6446745-17.98911856.6446745-5.97477134 0-2.72034777-5.4579288 0-5.3282987 6.71885356.3164992 21.06610776-.9377133 27.78542206-.6195305 1.9379713.0925929 3.3949055.6717192 5.3291908.392257 3.4870582-.505052 7.3496387-.6111129 10.8237956.2272735.3335928.0808083.7727004 1.4067745.6814692 2.1003793z" fill="#b7b7b7"/><path d="m1.20320638 2.23219982c-2.04111086 1.5416488-1.09979737 40.48075398 0 40.63752838.66099643.094224 23.70093172.2780213 44.91309882-.0886543 14.0816479-.2434167 28.4891782-.7953589 30.911662-1.5383206 1.2047968-13.0018789 1.6219518-26.1222086-.7240378-39.01055348-3.1715564-.88290808-18.1833202-2.22489268-33.1891815-2.23208372-19.6588954-.00942084-41.01603224 1.5557687-41.91154152 2.23208372z" fill="#c9c9c9"/></g><g transform="translate(17 95)"><path d="m51.6664125 54.7720806c-1.9112471 2.2306464-4.1477932 1.8019892-6.3179893 2.1067039-6.7581239.9480588-13.5363295.6648655-20.3127698.476541-6.0028203-.1668248-12.0143473.6446745-17.98911863.6446745-5.97477134 0-2.72034777-5.4579288 0-5.3282987 6.71885353.3164992 21.06610773-.9377133 27.78542203-.6195305 1.9379713.0925929 3.3949056.6717192 5.3291908.392257 3.4870582-.505052 7.3496388-.6111129 10.8237956.2272735.3335928.0808083.7727004 1.4067745.6814693 2.1003793z" fill="#b7b7b7"/><path d="m1.20320638 2.23038949c-2.04111086 1.53938383-1.09979737 39.42128021 0 39.57782431.66099643.0940856 23.70093172.3750171 44.91309882.0088802 14.0816479-.243059 28.4891782-.8915947 30.911662-1.6334648 1.2047968-12.9827767 1.6219518-26.0838302-.7240378-38.95323971-3.1715564-.88161093-18.1833202-1.22309309-33.1891815-1.23027356-19.6588954-.009407-41.01603224 1.55495217-41.91154152 2.23027356z" fill="#c9c9c9"/></g><g transform="translate(204 15)"><path d="m53.9877899 54.7720806c-1.911247 2.2306464-4.1477931 1.8019892-6.3179892 2.1067039-6.7581239.9480588-13.5363295.6648655-20.3127699.476541-6.0028202-.1668248-12.0143472.6446745-17.98911856.6446745-5.97477134 0-2.72034777-5.4579288 0-5.3282987 6.71885356.3164992 21.06610776-.9377133 27.78542206-.6195305 1.9379713.0925929 3.3949055.6717192 5.3291908.392257 3.4870582-.505052 7.3496387-.6111129 10.8237956.2272735.3335928.0808083.7727004 1.4067745.6814692 2.1003793z" fill="#b7b7b7"/><path d="m1.20320638 1.23038949c-2.04111086 1.53938383-1.09979737 40.42128021 0 40.57782431.66099643.0940856 23.70093172.3750171 44.91309882.0088802 14.0816479-.243059 28.4891782-.8915947 30.911662-1.6334648.6120455-6.5953452 1.0208233-13.2212142.9673405-19.8317317-.0517968-6.4021256-.5371685-12.7898523-1.6913783-19.12150801-3.1715564-.88161093-18.1833202-1.22309309-33.1891815-1.23027356-19.6588954-.009407-41.01603224.55495217-41.91154152 1.23027356z" fill="#c9c9c9"/></g><path d="m1.20320638 2.23219982c-2.04111086 1.5416488-1.09979737 40.48075398 0 40.63752838.66099643.094224 23.70093172.2780213 44.91309882-.0886543 14.0816479-.2434167 28.4891782-.7953589 30.911662-1.5383206 1.2047968-13.0018789 1.6219518-26.1222086-.7240378-39.01055348-3.1715564-.88290808-18.1833202-2.22489268-33.1891815-2.23208372-19.6588954-.00942084-41.01603224 1.5557687-41.91154152 2.23208372z" fill="#c9c9c9" transform="translate(110 14)"/><g transform="translate(16 16)"><path d="m51.6664125 54.7720806c-1.9112471 2.2306464-4.1477932 1.8019892-6.3179893 2.1067039-6.7581239.9480588-13.5363295.6648655-20.3127698.476541-6.0028203-.1668248-12.0143473.6446745-17.98911863.6446745-5.97477134 0-2.72034777-5.4579288 0-5.3282987 6.71885353.3164992 21.06610773-.9377133 27.78542203-.6195305 1.9379713.0925929 3.3949056.6717192 5.3291908.392257 3.4870582-.505052 7.3496388-.6111129 10.8237956.2272735.3335928.0808083.7727004 1.4067745.6814693 2.1003793z" fill="#b7b7b7"/><path d="m1.20320638 2.23038949c-2.04111086 1.53938383-1.09979737 39.42128021 0 39.57782431.66099643.0940856 23.70093172.3750171 44.91309882.0088802 14.0816479-.243059 28.4891782-.8915947 30.911662-1.6334648 1.2047968-12.9827767 1.6219518-26.0838302-.7240378-38.95323971-3.1715564-.88161093-18.1833202-1.22309309-33.1891815-1.23027356-19.6588954-.009407-41.01603224 1.55495217-41.91154152 2.23027356z" fill="#c9c9c9"/></g></g><g transform="matrix(.64278761 .76604444 -.76604444 .64278761 176.892088 0)"><path d="m43.1725063 71.9933035c-9.2450668 17.2724821-12.8627016 41.3934345-7.4728723 63.7320185 5.3549928 22.195383 15.3110811 36.784857 37.1848198 49.620784 31.3581942 15.674746 71.0476682 6.916919 94.2836032-10.171833 15.913127-11.704723 25.379718-36.11478 26.010348-59.518822.181328-21.481175-7.237057-40.5576399-18.759894-53.9969964-11.255757-14.4958076-29.733385-28.075664-62.810179-28.130603-31.2518991 0-59.14699 19.0116187-68.4358257 38.4654519z" fill="#24152c" transform="matrix(.64278761 .76604444 -.76604444 .64278761 127.39727 -46.148622)"/><path d="m134.328743 50.2080682c11.793903 2.3362724 22.434367 7.980992 29.645498 17.6237121 6.88805 9.2101596 12.752379 20.4735067 14.708921 31.5265566 4.236085 23.9412651.111197 47.6971251-20.642088 63.8994521-2.135953 1.667468-4.119544 3.15143-6.066657 4.495515-11.064439 8.069308-24.695073 12.830986-39.437857 12.830986-37.0030784 0-67.0000001-29.996922-67.0000001-67 0-37.0030781 29.9969217-66.9999999 67.0000001-66.9999999 7.629037 0 14.96026 1.2750887 21.792183 3.6237781z" fill="#fff" transform="matrix(.80901699 -.58778525 .58778525 .80901699 -45.2706 87.839999)"/><g fill="#5ca5a0"><path d="m125.613333 74.3223048c7.041137 1.3947895 13.393652 4.7647714 17.698805 10.5216191 4.112269 5.4986028 7.613361 12.2229891 8.781445 18.8218251 2.529006 14.293292.066387 28.475895-12.323634 38.148926-1.275196.995504-2.45943 1.881451-3.621885 2.68389-6.605635 4.817498-14.743327 7.66029-23.544989 7.66029-22.0913902 0-40.0000002-17.90861-40.0000002-40 0-22.0913898 17.90861-39.9999998 40.0000002-39.9999998 4.554649 0 8.931499.7612469 13.010258 2.1634496z"/><path d="m120.632608 22.5417299c3.168511.6276552 6.027143 2.1441471 7.964462 4.7347286 1.850521 2.4743712 3.426013 5.5003451 3.951651 8.4698212 1.138052 6.4319816.029873 12.8141529-5.545636 17.167017-.573838.4479766-1.106743.8466528-1.629848 1.2077503-2.972536 2.1678739-6.634497 3.4471305-10.595245 3.4471305-9.941126 0-18.0000004-8.0588745-18.0000004-18s8.0588744-18 18.0000004-18c2.049592 0 4.019174.3425612 5.854616.9735524z" transform="matrix(-1 0 0 -1 229.555984 79.136356)"/></g></g></g></g></svg>