<svg xmlns="http://www.w3.org/2000/svg" width="574" height="488" viewBox="0 0 574 488">
  <title>GYM-700</title>
  <desc>Improving Your Portfolio Workshop</desc>
  <g fill="none" fill-rule="evenodd">
    <path fill="#2C9959" d="M0 0h574v488H0z"/>
    <path fill="#1A6839" d="M291.501636 339c55.128981 0 105.212253 4.49853331 142.246016 11.8289362 17.926114.7811265 35.951053 4.546706 51.515406 10.9368925.980511 2.1276337 1.553858 4.2552674 1.759153 6.3677775 1.50756.9185707 2.864768 1.8513992 4.071112 2.7970262 11.459757 5.2874127 19.979818 12.6276981 20.837426 21.0519752 1.162272 11.448852-12.463886 21.1850612-28.964313 25.6358501-16.345108 4.4126145-35.06886 4.6607481-53.096296 4.8394738-27.097323.2723627-53.790617.5404893-80.088848.8042206C331.300207 424.3936786 311.740957 425 291.501636 425c-13.312855 0-26.331467-.2623333-38.943126-.7635294-22.413264.2226706-44.532234.4468326-66.367646.664623-5.027787.0503208-10.057319.0989064-15.081616.0989064-17.7447212 0-35.3986942-.6055849-52.4436086-3.8833784-20.5247505-3.9475808-40.1490018-12.1446673-51.97241686-24.2685122-8.07308017-16.031516 2.60376905-34.7196239 24.00109636-41.7766837 8.6891193-2.8648158 18.5509819-3.9336992 28.3186061-4.9782898 26.7497131-2.85961021 53.942695-5.76433561 81.587672-8.71938181 5.577511-.59690893 11.182944-1.19555305 16.830261-1.69355555 13.476075-.25333925 26.967857-.4841209 40.443932-.68019854 1.793041.11588806 3.586183.24936601 5.379594.3990744C272.488432 339.1359248 281.918805 339 291.501636 339Z"/>
    <path fill="#185B32" d="M193.451609 351.8168832c-15.539916 0-30.7203866 1.1171859-43.8401518 5.68149-5.5836213 1.9424788-10.6263293 4.4617939-15.4090499 7.1392178-13.5088738 7.5666327-51.2035522 2.4689289-34.42826 26.4354344 16.2273994 6.7778264 33.042824 13.7450359 51.6816498 16.6153177 11.8721748 1.8278066 24.0601729 1.9181544 36.2167639 2.0032899 58.273812.3996155 118.620544.8166056 181.167572 1.2492328 3.898066.0277993 7.827539.0503863 11.769227.0503863 23.679789 0 47.856869-.863517 68.945509-7.2017664 21.350372-6.4181725 38.307132-20.1284592 37.74528-34.8099853-6.161177-2.461979-12.950512-4.3575465-19.739846-5.5598679-21.332923-3.7772353-43.299239-2.6339875-64.644376-3.7529109-11.479576-.6011607-22.803858-1.8573433-33.995529-3.4749174-5.892466.3492292-11.814594.4812761-17.736722.4812761-9.061171 0-18.125831-.3075302-27.106737-.6167979-37.368385-1.2874569-73.93587-2.5471145-109.732117-3.7772352-6.932415-.2397693-13.950329-.462164-20.893213-.462164"/>
    <path fill="#164C2A" d="M396.917024 358.5790725c6.710815.4048279 18.387563-1.4264536 25.464803.9417026 10.324465 3.4558054 39.57915 10.5307373 39.57915 10.5307373 9.015804 37.1729292-105.293138 24.0203667-111.731752 24.2392865-228.2566932 7.8394138-223.4792073-12.4558415-223.4792073-12.4558415S143.200762 357.84239 164.340003 361.524065c18.448634-6.9150857 222.908632-3.5287786 232.577021-2.9449925"/>
    <path fill="#4C8884" d="M241.231521 337.191732c-.916063 0-1.825147.00695-2.741209.017375-7.358166.090347-14.6186189.561199-21.812766 1.195371 13.473976-.253669 26.963656-.484751 40.437632-.681084-5.295715-.342279-10.584452-.531662-15.883657-.531662"/>
    <path fill="#0E2215" d="m173.2875739 226.552098 2.2299588 150.239793 230.8112003-3.113526 2.687118-317.73428782L156.2208864 90.2727865l17.0666875 136.2793115"/>
    <path fill="#0E2215" d="m163.0224351 226.618122 4.5523963 153.478415 238.7539016-6.418172L365.89808 47.387093l-83.754319 21.718234-75.9023522 12.162211-39.8059852 7.3372881-3.4129885 138.0132959"/>
    <path fill="#0E2215" d="m164.1583531 215.580047 2.2770705 172.189108 32.3902382-1.416029L304.27933 388.84638l67.085465-3.050978 53.873221.74537 5.328868-318.6603534-273.0390812 20.9954511c-4.6431301.378766-8.167791 4.5382422-7.6286226 8.9878739l3.2838673 27.1147807 3.5455995 43.2748847 7.4297061 47.326638"/>
    <path fill="#E2E2E2" d="m173.3817975 215.692981-7.858947-52.177622-4.6937316-63.983655L345.807513 88.0471019l70.653748-9.2415429-4.517499 295.944818-56.745296-1.27182-179.6809333 3.313334-2.1357352-161.09891"/>
    <path fill="#C9C9C9" d="M401.324504 323.601462c14.331795-31.993802-22.253919-46.763117-40.225224-69.915863-9.894194-12.354163 15.963606-14.155086 21.993827-24.838827 14.162557-25.089391 34.620771-59.538366 14.162557-87.6414766-6.085446-12.282822 14.292603-20.2242868 10.195259-29.028803C395.561501 91.8408441 364.296989 93.6226276 337.272336 88.5L260 93.3981647c36.400444 14.0158849 74.473672 7.9240645 84.330456 40.3180719 8.221409 19.3351354-24.746174 35.8549134-31.191473 68.5708244-6.418578 32.57497 31.804293 58.395171 18.117384 86.305139-17.319293 37.782858-60.84377 43.763317-60.692346 86.4078l75.414279-.821291 34.499633.786491c-2.077175-3.580968-3.415047-7.273296-3.415047-11.148328-2.004135-16.048231 18.160139-26.082944 24.261618-40.21541"/>
    <path fill="#B7B7B7" d="m422.161789 78.3416575-82.742288 10.2162572-4.388377.2832058c26.469855 5.1150785 57.092528 3.3359207 68.737868 23.6416008 4.013228 8.7915411-15.946474 16.7213026-9.985958 28.9860237 20.038221 28.061696 0 62.459903-13.871809 87.512321-5.906425 10.667996-31.233382 12.466266-21.542309 24.802223C375.971282 276.901914 403 291 397.768344 323.596117c-5.97622 14.11164-25.726535 24.131565-23.763544 40.156146 0 3.869321 1.310407 7.556208 3.344939 11.131898l36.609362.851355 3.323999-152.349067 4.878689-145.0447915Z"/>
    <path fill="#0E2215" d="M301.372357 166.154558c0 30.992789-26.928759 56.307563-59.462077 56.538645-21.561503.152896-40.0973808-10.782669-49.7884535-27.026171-4.6309159-7.761228-7.269177-16.764739-7.269177-26.412847 0-14.585966 6.8818133-24.8056983 16.7421395-34.9107582 10.320975-10.5759112 24.020041-20.8147554 40.315491-21.5653376 12.112968-.5577242 27.040431.571624 36.544801 6.1419166 15.984861 9.3683774 22.917276 27.8636254 22.917276 47.2345522"/>
    <path fill="#B7B7B7" d="m266.860342 174.374476-4.702456.385715c-5.177064.425678-9.621277-3.15175-9.94059-7.988835l-.184958-2.812945c1.91239-2.481091 3.214072-5.335736 3.945178-8.296366.06456-.495175.546148-.778381.858481-1.14151 1.680321-1.839969 1.84434-4.705038.366425-6.598868-.202406-.288418-.549637-.524713-.554872-.9052163-.170998-2.5697014-.328038-5.1446153-.51474-7.7108418-.279181-3.090939-1.437782-6.2235771-3.9033-8.291153-1.989165-1.6679603-4.620447-2.5175777-7.286626-2.7278102-3.362387-.2693061-6.827722.1042476-10.050518 1.2127462-2.788321.9538649-5.342828 2.779934-6.829467 5.2575501-1.319131 2.1544488-1.793739 4.6598643-1.743137 7.0801443.129121 2.5905509.329783 5.1811019.490312 7.7768647.097713.512551-.345487.906954-.526954 1.356956-1.0992759 2.239584-.364681 5.089016 1.729177 6.459871.526955.286681.66131.879154.877676 1.383017 1.038204 2.488041 2.638261 4.736313 4.602998 6.647517l.190192 2.887657c.314078 4.805811-3.547345 9.039998-8.6109913 9.45525l-4.5698451.375291s-8.1032304 2.83727-12.7795132 14.052566l.2809259 4.31411c.1535496 2.383794 2.3032438 4.162951 4.8088939 3.977043l64.9724128-4.838822c2.626047-.196333 4.622192-2.333407 4.458173-4.779749l-.294885-4.425307c-6.375797-10.600236-15.087992-12.104875-15.087992-12.104875"/>
    <g fill="#353535">
      <path d="m322.06070052 203.078007 33.60118608-1.5532881 21.053742-3.4175813c1.901921-.3075302 3.1913886-2.0936377 2.8825445-3.9874677-.3105889-1.89383-2.1043273-3.1795495-4.0062483-2.8702818l-20.655909 3.3515578-33.19811839 1.5341761c-1.92634934.0886104-3.41473339 1.7148717-3.32574443 3.6330261.09073385 1.916417 1.72394308 3.3984693 3.64854754 3.3098589M321.36430993 180.4398769l22.84050087-.8322427 47.8760629-5.1845768c1.91588-.2084951 3.2995712-1.9233668 3.0919302-3.8310965-.2093858-1.9077297-1.9298391-3.2855344-3.847464-3.0787768L343.70054 172.671699l-22.59098279.821818c-1.92634935.0712358-3.43043734 1.68186-3.36064207 3.6000144.07154015 1.9181544 1.69079032 3.4158438 3.61539479 3.3463455M319.00055598 158.7995351l45.10830152-4.68940105 35.9161206-1.58282489c1.8696249-.08166056 3.3205758-1.70270955 3.2409091-3.62086397-.0813617-1.91641696-1.6628304-3.40368162-3.5324553-3.32202106l-36.1127448 1.59151218-45.30323068 4.70851312c-1.86284471.19459538-3.22056865 1.89904238-3.0307246 3.80850947.188149 1.9094672 1.85267448 3.2994341 3.71551919 3.1065762h-.00169503M348.3002405 126.6466381l21.100473-2.49348424c1.90795715-.32921253 3.23396811-2.41152732 2.96412663-4.64868084-.27158602-2.23718397-2.03860432-3.78363118-3.9465972-3.45237117l-20.70134252 2.42262277-33.24498087 2.39503505c-1.92787865.07080253-3.44948778 1.96127673-3.39996829 4.22325807.05129984 2.2599644 1.65377491 4.0349763 3.57990894 3.96414328l33.64838031-2.41052292Z"/>
    </g>
    <path fill="#B7B7B7" d="m301.44290915 251.38709347 89.91433994 3.92574486-4.01298364 91.91243639-89.91433994-3.92574487z"/>
    <path fill="#0E2215" d="m304.36580465 340.90518392.99433738-81.34193331 81.90662363 1.04805986-.82378415 80.56354308 11.8923068-.00950871.8410129-92.5207732-106.52814083-1.20963065-1.20143042 106.61085135 106.67289434-.49011418.21566401-12.39033332z"/>
    <path fill="#0E2215" d="m294.21329566 257.02554707 92.22334665 92.22242459s.99181804-1.00993274 4.95671254-2.02224176c3.964895-1.0123093 4.06735151-6.50697582 4.06735151-6.50697582l-92.22334645-92.22242414-9.02406425 8.52921713Z"/>
    <g fill="#353535">
      <path d="m192.76454367 355.01993214 38.15368598-1.43014868 23.54887631.54765906c.83912636.01887178 1.57063533-1.52024932 1.63377916-3.43736789.06244484-1.91888153-.56736264-3.48815576-1.40642846-3.50876399l-23.59072308-.5473818-38.19325352 1.4305054c-.8408849.03148381-1.55555451 1.6111789-1.59590593 3.5290934-.04035141 1.9179145.60908464 3.44788821 1.44996954 3.4164045M191.89304 333.31265841l56.71249967-2.55882577 21.37962924-.04617103c.83985409-.0019649 1.56437185-1.55871543 1.61763901-3.4761789.0533278-1.91919992-.58468351-3.47137543-1.42447697-3.47114686l-21.40856038.04689928-56.74067092 2.55958047c-.84112745.03842939-1.55293997 1.62343984-1.59025239 3.54146046-.03807217 1.91799419.61382504 3.44283827 1.4549525 3.40440888l-.00075976-.00002653M192.43824347 309.79223893l45.56838817-.67922105 37.21155479-1.24399537c.84076364-.02801094 1.55613236-1.60594306 1.59800327-3.5238046.0418709-1.91786143-.605985-3.44951842-1.44674863-3.42150749l-37.20471706 1.24423416.01221663-.00131195-45.56231022.6794333c-.84021789.01238336-1.56124014 1.57794855-1.6099488 3.4955712-.04876929 1.9193591.59334395 3.46298517 1.43356185 3.4506018M191.89728291 288.32646171l56.71249967-2.5588258 21.37962924-.046171c.83985409-.00196497 1.56437185-1.55871542 1.61763901-3.47617891.0533278-1.9191999-.58468352-3.47137539-1.42447697-3.47114682l-21.40856038.04689922-56.74067093 2.55958054c-.84112744.03842938-1.55293996 1.6234398-1.59025238 3.54146044-.03807217 1.91799407.61382504 3.44283825 1.45495249 3.40440886l-.00075975-.00002653M192.57246578 260.04546393l38.27629818-1.98268635 23.6146334.4945888c.841474.01685128 1.58581831-1.8372008 1.66244513-4.14071365.07593774-2.30562584-.54484606-4.18645985-1.3862473-4.20539754l-23.65660572-.49396556-38.31598507 1.98338942c-.84358695.04365416-1.57132358 1.94633178-1.62509607 4.25064272-.0537725 2.30431098.5869705 4.1377963 1.43055745 4.09414216"/>
    </g>
    <path fill="#0E2215" d="m156.2627636 114.6892938-2.6085981.21197.6159432-.0503863-.6194329.0017375.0034897.0486488.6159432-.0503863-.6194329.0017375h.560107l-.5426582-.1442091-.0174488.1442091h.560107l-.5426582-.1442091.2564976.0677609-.2477732-.0955603-.0087244.0277994.2564976.0677609-.2477732-.0955603-.0209386.0364867c-.0645606.1198846-.3873637.4864884-.9841133.8722042-.8916345.590736-2.3398862 1.2370707-4.1179207 1.7444086-1.7815241.5142878-3.8980656.9069534-6.1733913 1.0980739-1.0137762.083398-2.004869.125097-2.9540846.125097-2.9174421.0052124-5.47194887-.4030904-7.0859644-.9851391-.80613532-.2814683-1.36100769-.6133229-1.5878423-.8166056l-.11690707-.1129348-.02268347-.0295368-.40132278.2606188.46239364-.0382241-.06107086-.2223947-.40132278.2606188.46239364-.0382241-.69795266.0538613h.69969754l-.00174488-.0590736-.69795266.0590736h.69969754-.55661724l.54091331.1424716.01570393-.1424716h-.55661724l.54091331.1424716-.2564976-.0677609.24777319.0955602.00872441-.0277993-.2564976-.0677609.24777319.0955602.0191937-.0347492c.0663055-.1198846.38910861-.4864884.98585813-.8722042.88988965-.590736 2.33814142-1.2370706 4.11792071-1.746146 1.7815242-.5125504 3.8980656-.905216 6.1733913-1.0963365 1.0155211-.0851355 2.0031241-.125097 2.9523398-.125097 2.919187-.0052124 5.4736937.4013529 7.0877092.9834016.8061354.2832058 1.3610077.6150604 1.5878423.8183431l.1169071.1129348.0244284.0295368.397833-.2606188-.4606488.0399615.0628158.2206573.397833-.2606188-.4606488.0399615.0087244.1181472-.0087244-.125097 2.6085981-.21197 2.6068532-.2189198c-.059326-.7193079-.2983748-1.4056041-.6386267-1.9789654-.6019842-1.0094636-1.4412722-1.7009721-2.3521005-2.2500091-1.3767116-.8131307-2.9942169-1.3413181-4.8403017-1.7131343-1.8460848-.3666038-3.9172593-.5559868-6.1384936-.5559868-1.0975306 0-2.2317037.0469114-3.39205.1442091-4.0760435.3457543-7.72808083 1.2283833-10.56176864 2.5054155-1.41858878.6463346-2.64349571 1.3830171-3.64505778 2.3420943-.49903615.4812761-.94572585 1.0268381-1.28946754 1.6801226-.3419968.6480721-.5705763 1.4247162-.56883142 2.2447967l.01570394.3857158c.05932597.715833.29837476 1.4021292.63862668 1.9754906.60198417 1.0094635 1.44127225 1.6992346 2.35210047 2.2482715 1.37496675.8148682 2.99247204 1.3413182 4.84030171 1.7148718 1.84433991.3666038 3.91551448.5542493 6.13674878.5559868 1.0992754 0 2.2334485-.0469114 3.3937948-.1442091 4.0760436-.3474917 7.7280809-1.2283833 10.5617687-2.5054155 1.4185888-.6463346 2.6434957-1.3847546 3.6450578-2.3420943.4990361-.4812761.9457258-1.0268381 1.2877226-1.6801226.3419968-.6480721.5723212-1.4247161.5705763-2.2447966l-.0157039-.3770286v-.0052124l-2.6068532.2189198M158.8085459 139.8893951l-2.6103429.1998077.6403715-.0503863h-.6421164l.0017449.0503863.6403715-.0503863h-.6421164.5653416l-.5478928-.1442091-.0174488.1442091h.5653416l-.5478928-.1442091.2704567.0712358-.2617323-.1007726-.0087244.0295368.2704567.0712358-.2617323-.1007726v.0017375c-.0104693.0434365-.2634771.3926657-.8323085.7783815-.8427779.5924734-2.3014989 1.2648699-4.1214105 1.7861076-1.8216564.5281874-4.0079932.9260654-6.3635834 1.1084986-.9370014.0712358-1.8513194.105985-2.7342296.105985-2.9732783.0069498-5.5818764-.4117777-7.23776906-1.0094635-.82532902-.2884182-1.3976502-.6306975-1.63495411-.84093l-.12214171-.1181472-.02442835-.0330117-.24079367.1563712.26871178-.0938227-.02791811-.0625485-.24079367.1563712.26871178-.0938227-.58977.208495.62292275-.0486488-.03315275-.1598462-.58977.208495.62292275-.0486488v-.0086873l-.73808494.0590736h.73982982l-.00174488-.0590736-.73808494.0590736h.73982982-.56534165l.54789284.1459465.01744881-.1459465h-.56534165l.54789284.1459465-.2669669-.0712358.25824249.0990351.00872441-.0277993-.2669669-.0712358.25824249.0990351v-.0017374c.01046929-.0434365.26347713-.3926657.83230855-.7783815.84103296-.590736 2.30149886-1.2631325 4.12141046-1.7843701 1.8216565-.5281875 4.0079932-.927803 6.3635834-1.1084987.9370015-.0729732 1.8530643-.1077224 2.7342296-.1077224 2.9732783-.0052124 5.5818764.4135152 7.2377691 1.0094635.825329.2901556 1.3976502.6306975 1.6349541.8426675l.1221417.1181472.0244283.0330117.2407937-.1563713-.2669669.0955602.0261732.0608111.2407937-.1563713-.2669669.0955602.5880251-.208495-.6229227.0469114.0348976.1615836.5880251-.208495-.6229227.0469114 2.6103429-.2015452 2.6085981-.2015453c-.0540913-.7297326-.294885-1.4247161-.6368818-2.0032899-.6089637-1.0233631-1.4569762-1.7200841-2.3782737-2.2760709-1.3941604-.8252929-3.0395838-1.3621676-4.9170765-1.7426711-1.8774927-.3735536-3.9853097-.5664115-6.2449314-.568149-1.0190109 0-2.0676848.041699-3.1390421.1233596-4.0830231.3196924-7.7455297 1.1797345-10.58968681 2.4411295-1.42382343.6393848-2.65396499 1.3708549-3.66076171 2.3247198-.50078103.481276-.9509605 1.0251006-1.29644707 1.6801225-.34374168.6498096-.57581094 1.4281911-.57406606 2.2500091l.01395905.3596539v-.0086873c.05409133.7297327.294885 1.4247162.63862669 2.0050274.60721881 1.0233632 1.4552313 1.7200841 2.37652881 2.2760709 1.39416044.8252929 3.03783896 1.3621677 4.9170765 1.7409337 1.8757478.373554 3.9853097.568149 6.2449314.568149 1.0190109 0 2.0676848-.039962 3.1390421-.121622 4.084768-.32143 7.7455297-1.181472 10.5896868-2.4411297 1.4238234-.6393848 2.6522201-1.3708549 3.6607617-2.3264572.5007811-.4795386.9509605-1.0251006 1.2964471-1.6783851.3437417-.6498096.5758109-1.4281911.5740661-2.2517465l-.0122142-.3474917-2.610343.1980703M161.3543283 165.091234l-2.610343.180695.6246676-.043436h-.6264125l.0017449.043436.6246676-.043436h-.6264125.5723212l-.5548724-.147684-.0174488.147684h.5723212l-.5548724-.147684.2826709.074711-.2722016-.105985-.0104693.031274.2826709.074711-.2722016-.105985-.0017448.001737c-.0069796.038224-.2599874.385716-.8288188.767957-.8427779.585524-2.3067336 1.249233-4.1318798 1.760046-1.8268911.516025-4.0184624.903478-6.3775424 1.068537-.8584818.060811-1.6995148.090348-2.5108847.090348-3.0308595.005212-5.6952938-.42394-7.3913187-1.035526-.8462676-.297105-1.4360376-.648072-1.6803211-.865254l-.1291212-.125097-.0261732-.034749-.2338142.149421.2599874-.090348-.0261732-.059073-.2338142.149421.2599874-.090348-.58977001.206758.62292271-.045174-.0331527-.161584-.58977001.206758.62292271-.045174-.0017448-.00695-.74680939.053861h.74855419l-.0017448-.053861-.74680939.053861h.74855419-.57057626l.55312746.147684.0174488-.147684h-.57057626l.55312746.147684-.2809259-.074711.2722015.105985.0087244-.031274-.2809259-.074711.2722015.105985v-.001737c.0069795-.039962.2599874-.385716.8288188-.767957.8427778-.585523 2.3067335-1.249233 4.1318798-1.760045 1.8268911-.516026 4.0184624-.903479 6.3792873-1.068538.8584818-.060811 1.6977698-.090347 2.5108847-.090347 3.0291145-.005213 5.6935488.423939 7.3895738 1.035525.8462676.297105 1.4360376.648072 1.6820659.866992l.1273764.123359.0279181.036487.2303244-.149421-.2564976.08861.0261732.060811.2303244-.149421-.2564976.08861.5862802-.20502-.619433.043436.0331528.161584.5862802-.20502-.619433.043436 2.610343-.18417 2.6103429-.185908c-.0506015-.73842-.2913952-1.442091-.6368818-2.029352-.6124534-1.033788-1.4709352-1.737459-2.4044469-2.300395-1.4116093-.835718-3.0832059-1.384755-4.9938513-1.770471-1.9089005-.382241-4.055105-.582049-6.3531141-.582049-.9387463 0-1.901921.03475-2.8825445.10251-4.0900026.295368-7.7629785 1.132824-10.61586 2.378581-1.42905807.630698-2.66443428 1.355218-3.67646564 2.307346-.5042708.477801-.95794003 1.023363-1.30517148 1.678385-.34723145.649809-.57930071 1.431666-.57930071 2.255221l.01395906.330117-.00174488-.008687c.05060156.73842.29314011 1.443828.6368818 2.031089.61419834 1.033788 1.47093523 1.737459 2.40444692 2.300396 1.41335414.835717 3.08320593 1.383017 4.99385133 1.772208 1.9089005.380503 4.0551049.578573 6.354859.580311.9370014 0 1.8984312-.033012 2.8807996-.10251 4.0917475-.295368 7.7629785-1.132823 10.6176048-2.378581 1.4273132-.630698 2.6626894-1.355218 3.6764657-2.307345.5042708-.479539.9561951-1.023364 1.3034266-1.678386.3472314-.649809.5810456-1.431666.5793007-2.255221l-.0122142-.317955-2.6103429.180696M163.9018555 190.291335l-2.6138327.159846.5793007-.034749h-.5793007v.034749l.5793007-.034749h-.5793007.5775558l-.560107-.149421-.0174488.149421h.5775558l-.560107-.149421.2931401.078185-.2826708-.111197-.0104693.033012.2931401.078185-.2826708-.111197.0069795.003475-.0069795-.003475.0069795.003475-.0069795-.003475c-.0052347.034749-.2564976.378766-.8270739.757532-.8445228.580311-2.3119682 1.23707-4.1423491 1.735721-1.8303808.507338-4.0271868.879154-6.3915015 1.030313-.7799621.048649-1.5442203.072973-2.2875398.072973-3.0866957.005213-5.8069662-.434364-7.5448683-1.061587-.8672062-.304055-1.4726801-.665447-1.7274329-.891316l-.1343558-.13031-.029663-.038224-.2250898.145947.251263-.086873-.0261732-.059074-.2250898.145947.251263-.086873-.58977.203283.6211779-.039962-.0314079-.163321-.58977.203283.6211779-.039962v-.005212l-.7188913.046911h.7206361l-.0017448-.046911-.7188913.046911h.7206361-.5775558l.5583621.149421.0191937-.149421h-.5775558l.5583621.149421-.2931401-.078185.2826709.10946.0104692-.031275-.2931401-.078185.2826709.10946-.0069796-.001738.0069796.003475v-.001737l-.0069796-.001738.0069796.003475c.0069795-.034749.2582424-.378766.8270739-.757532.8445227-.582049 2.3119682-1.23707 4.142349-1.735721 1.8303809-.505601 4.0289318-.879154 6.3932464-1.028576.7799621-.050386 1.5442203-.07471 2.285795-.07471 3.0866956-.005213 5.808711.434364 7.5448682 1.061587.8672062.305793 1.474425.665447 1.7291778.893054l.1343559.128572.0296629.038224.2216-.142472-.2477732.085136.0261732.057336.2216-.142472-.2477732.085136.5880251-.203283-.619433.039961.0314079.163322.5880251-.203283-.619433.039961-.0017448-.008687 2.6138327-.159846 2.6103429-.166796c-.0453669-.748845-.2879054-1.46294-.6368818-2.055414-.6176881-1.047687-1.4848943-1.758308-2.4306201-2.328194-1.4290581-.846143-3.1268279-1.405605-5.0706261-1.800008-1.9420533-.38919-4.1249002-.594211-6.4647865-.594211-.854992 0-1.7309226.0278-2.6225572.085136-4.098727.267569-7.7804273 1.082437-10.6437781 2.312557-1.4342927.623748-2.6731587 1.341319-3.69216954 2.289971-.50776056.477801-.96317467 1.021626-1.31389589 1.678385-.34897633.651547-.58279047 1.435141-.58104559 2.260434l.01046929.297105.00697953.12336-.00872441-.128572c.04711181.748845.28790547 1.46294.6368818 2.055414.61768811 1.047687 1.48489429 1.758308 2.43062011 2.329932 1.430803.846142 3.126828 1.403866 5.0706261 1.79827 1.9420533.38919 4.1266451.594211 6.4647866.594211.854992 0 1.7309226-.0278 2.6225571-.085136 4.098727-.267569 7.7821722-1.082437 10.6437781-2.312558 1.4342927-.623747 2.6749036-1.341318 3.6939145-2.28997.5060156-.477801.9614297-1.021626 1.312151-1.678385.3489763-.651547.5845353-1.435141.5827904-2.260434l-.0104693-.284943v-.00695l-2.6103429.166796M166.4476378 215.493174l-2.6138327.147684.6508409-.036487h-.6525858l.0017449.036487.6508409-.036487h-.6525858.5845354l-.5653417-.151159-.0191937.151159h.5845354l-.5653417-.151159.3070992.081661-.2966299-.114673-.0104693.033012.3070992.081661-.2966299-.114673.0244283.008688-.0226834-.012163-.0017449.003475.0244283.008688-.0226834-.012163c-.0052347.031275-.2530079.373554-.825329.748845-.8445228.575099-2.3172029 1.221434-4.1510735 1.711397-1.8373604.495176-4.039401.853092-6.4089503.988614-.6996976.039962-1.3889258.059074-2.0589604.059074-3.1425318.006949-5.9221283-.44479-7.7001627-1.08765-.8881448-.312742-1.5128124-.682821-1.7780344-.917378l-.1378457-.137259-.0331527-.041699-.2163653.138997.2407936-.081661-.0244283-.057336-.2163653.138997.2407936-.081661-.5880251.201545.6211779-.034749-.0331528-.166796-.5880251.201545.6211779-.034749-.0017449-.0139-.8166046.050387.8183495.001737-.0017449-.052124-.8166046.050387.8183495.001737h-.5827905l.5635968.149422.0191937-.149422h-.5827905l.5635968.149422-.3053543-.081661.294885.11641.0104693-.034749-.3053543-.081661.294885.11641-.0244284-.010425.0244284.012162v-.001737l-.0244284-.010425.0244284.012162c.0034897-.031274.2530078-.371816.8235841-.747107.8462676-.576836 2.3189477-1.223171 4.1528184-1.711397 1.8356155-.495175 4.039401-.854829 6.4072054-.990351.7014424-.039962 1.3889258-.059074 2.0589604-.059074 3.1425318-.005212 5.9221283.44479 7.7019076 1.089387.8863999.312742 1.5110675.681084 1.7762895.917378l.1395905.135522.0314079.041699.2146205-.137259-.2390488.08166.0244283.055599.2146205-.137259-.2390488.08166.5880251-.201545-.619433.036487.0314079.165058.5880251-.201545-.619433.036487 2.6138327-.151159 2.6120879-.151159c-.0418772-.757532-.2844158-1.482053-.635137-2.081476-.6229227-1.058112-1.5005982-1.77742-2.4585382-2.354256-1.4482518-.858305-3.1739397-1.426454-5.1491458-1.831282-1.975206-.39614-4.1981852-.606373-6.5764589-.606373-.7712377 0-1.5599242.022587-2.35908.067761-4.1074515.241507-7.799621 1.035525-10.6734411 2.248272-1.4377825.616797-2.683628 1.329155-3.7078735 2.274333-.5095055.476064-.9684094 1.019888-1.3226203 1.676648-.3507212.653284-.5862803 1.438615-.5845354 2.267383l.0087244.272781v-.012162c.0401323.757532.2826708 1.482052.6351369 2.081476.6229228 1.059849 1.4988534 1.77742 2.4567934 2.355994 1.4482518.856567 3.1739397 1.426453 5.1491458 1.829544 1.975206.397878 4.1981852.606373 6.5764589.606373.7712377 0 1.5599242-.02085 2.3608249-.067761 4.1074514-.241507 7.799621-1.033788 10.6716962-2.248272 1.4395274-.616798 2.683628-1.327418 3.7078735-2.274333.5112504-.476064.9684094-1.019888 1.3226203-1.676648.3507212-.651547.5880251-1.438616.5845354-2.265646l-.0069795-.260619-2.6120879.149422M168.037225 240.752348l-2.6138327.11641.4065574-.017374h-.4065574v.017374l.4065574-.017374h-.4065574.5880251l-.5705763-.152897-.0174488.152897h.5880251l-.5705763-.152897.3175685.083398-.3053543-.119884-.0122142.036486.3175685.083398-.3053543-.119884.0401323.015637-.0383874-.019112-.0017449.003475.0401323.015637-.0383874-.019112c-.0017449.027799-.2495181.366603-.8218393.73842-.8462676.569886-2.3241824 1.209271-4.1632876 1.687072-1.8408502.483014-4.0481255.828768-6.4229094.948652-.619433.031275-1.2301416.046912-1.8303809.046912-3.198368.005212-6.0355456-.456952-7.8572021-1.117186-.9090833-.319692-1.5494549-.700196-1.8251462-.94344l-.1448251-.142472-.0348977-.045174-.2076409.133785.2320693-.078186-.0244284-.055599-.2076409.133785.2320693-.078186-.58977.199808.619433-.031275-.029663-.168533-.58977.199808.619433-.031275h-.0139591l.0139591-.001737-.0139591.001737.0139591-.001737-1.0661227.034749h1.0678675l-.0017448-.034749-1.0661227.034749h1.0678675-.58977l.5705763.152897.0191937-.152897h-.58977l.5705763.152897-.3158235-.085136.3036094.119885.0122141-.034749-.3158235-.085136.3036094.119885-.0383874-.015637.0366425.019112.0017449-.003475-.0383874-.015637.0366425.019112c.0034897-.0278.2512629-.366604.8218392-.736683.8480125-.569886 2.3241824-1.211009 4.1632877-1.687072 1.8408501-.484751 4.0481254-.828768 6.4229093-.95039.6211779-.031274 1.2318865-.046912 1.8303809-.046912 3.200113-.005212 6.0355456.456952 7.8572021 1.117186.9090833.32143 1.5511998.700196 1.8251462.94344l.1465701.142472.0348976.045174.0715401-.046911-.0767747.038224.0052346.008687.0715401-.046911-.0767747.038224.4938015-.241507-.5444031.027799.0506016.213708.4938015-.241507-.5444031.027799v-.015637l2.6138327-.11641 2.6138327-.133784c-.0366425-.767957-.2809259-1.501164-.633392-2.107537-.6281574-1.072012-1.5145573-1.796533-2.4847115-2.382056-1.4674455-.870467-3.2193066-1.449041-5.2294103-1.860818-2.0083588-.406566-4.2697254-.620273-6.6881314-.622011-.6874834 0-1.3871809.017375-2.0973477.053862-4.114431.215444-7.8170699.985139-10.6996144 2.183985-1.444762.608111-2.6940972 1.313519-3.7235774 2.256959-.5129952.474326-.9753889 1.018151-1.3295998 1.676648-.3559559.653284-.5932598 1.44209-.58977 2.270858l.0052346.23282c.0366425.766219.280926 1.499427.6351369 2.1058.6281574 1.072012 1.5128124 1.796532 2.4847115 2.383793 1.4657006.868729 3.2193067 1.447303 5.2294103 1.859081 2.0066139.406565 4.2679806.620273 6.6863865.62201.6874834 0 1.387181-.017375 2.0990927-.053861 4.1144309-.213708 7.8153249-.985139 10.6978694-2.183986 1.444762-.60811 2.6940973-1.313519 3.7253223-2.256959.5129952-.474326.973644-1.016413 1.3295999-1.67491.3542109-.653284.5915148-1.442091.58977-2.270858l-.0052347-.217183-.0017449-.015637-2.6138327.133784M168.5798832 266.074072l-2.6155776.114672.6647999-.027799h-.6647999v.027799l.6647999-.027799h-.6647999.5932598l-.5740661-.156372-.0191937.156372h.5932598l-.5740661-.156372.1936819.053862-.1797228-.095561-.0139591.041699.1936819.053862-.1797228-.095561c-.0017449.0278-.251263.364867-.8253291.731471-.8497573.564674-2.3311619 1.195371-4.1737569 1.66101-1.8443399.472589-4.055105.802706-6.4298889.906954-.5426582.024324-1.076592.036486-1.6018014.036486-3.2559491.005213-6.1507078-.469114-8.0142414-1.144985-.9317668-.330117-1.5895872-.717571-1.8757478-.97124l-.1500598-.147684-.0366425-.048648-.0610709.038224.0645607-.029537-.0034898-.008687-.0610709.038224.0645607-.029537-.4920567.238032.5409133-.024325-.0488566-.213707-.4920567.238032.5409133-.024325-.0017448-.039961v.020849l-.9282771.048649h.9300219l-.0017448-.048649-.9282771.048649h.9300219-.5950046l.5758109.154634.0191937-.154634h-.5950046l.5758109.154634-.1954267-.052124.1814677.093823.013959-.041699-.1954267-.052124.1814677.093823c.0017449-.027799.2495181-.363129.8235841-.73147.8497574-.564674 2.3311619-1.195372 4.1737569-1.661011 1.8460848-.472588 4.0568499-.802706 6.4316338-.906953.5426582-.024325 1.076592-.036487 1.6000565-.036487 3.2559492-.005212 6.1507078.469114 8.0159863 1.144986.930022.330117 1.5895872.719307 1.8740029.972976l.1518047.147684.0366425.046912.059326-.036487-.0628157.029537.0034897.00695.059326-.036487-.0628157.029537.4920566-.238032-.5409133.024325.0488567.213707.4920566-.238032-.5409133.024325 2.6155776-.11641 2.6138327-.11641c-.0314078-.776644-.2756913-1.518539-.633392-2.133599-.6316472-1.082437-1.5267715-1.815645-2.5108847-2.409856-1.4866392-.880891-3.2664185-1.471627-5.3096749-1.892092-2.0415115-.413515-4.3430104-.634172-6.8015487-.63591-.6019842 0-1.2144376.0139-1.8321257.041699-4.1231554.187646-7.8345187.934753-10.7275324 2.117962-1.4482518.601161-2.7045666 1.299619-3.7392814 2.239585-.516485.474326-.9806235 1.016413-1.3383243 1.676647-.3577007.653285-.5950046 1.445566-.5932597 2.276071l.0052346.220657v-.019112c.0314079.776644.2756913 1.520277.6316472 2.1336.633392 1.084174 1.5285163 1.815644 2.5108847 2.409855 1.4866392.880891 3.2664184 1.471627 5.3096749 1.892092 2.0432564.415253 4.3430104.63591 6.8015486.63591.6019842 0 1.2144377-.013899 1.8338707-.041699 4.1214104-.185908 7.8345186-.934752 10.7275324-2.117962 1.4482518-.601161 2.7028217-1.299619 3.7392814-2.239584.5147401-.472589.9788786-1.016414 1.3383242-1.67491.3559559-.655022.5950046-1.447303.5932598-2.276071l-.0052347-.201546-2.6138327.114673M169.1207965 291.395795l-2.6155776.090348.4885669-.015637h-.4885669v.015637l.4885669-.015637h-.4885669.5984944l-.5793007-.156371-.0191937.156371h.5984944l-.5793007-.156371.2076409.055598-.191937-.100772-.0157039.045174.2076409.055598-.191937-.100772c0 .022587-.2477731.356179-.8218392.721045-.8515023.559462-2.3381414 1.181472-4.1859711 1.636686-1.8478297.460427-4.0655743.778382-6.443848.866992-.4623936.017375-.9178077.026062-1.3679872.026062-3.3135302.005212-6.2676149-.481276-8.1747705-1.174522-.9527054-.337067-1.6297195-.736683-1.9246045-.999039l-.1989165-.206758-.427496.241507.4798424-.017374-.0523464-.224133-.427496.241507.4798424-.017374v-.0139l-.898614.038224h.898614v-.038224l-.898614.038224h.898614-.5984944l.5793007.156371.0191937-.156371h-.5984944l.5793007.156371-.2076409-.057336.191937.10251.0157039-.045174-.2076409-.057336.191937.10251c0-.024324.2477732-.357916.8218393-.722783.8515022-.559461 2.3381414-1.181472 4.1842262-1.636686 1.8495745-.460426 4.0673191-.778381 6.4473377-.866992.4623936-.017374.9178077-.026061 1.3662423-.026061 3.3135303-.005213 6.2676149.481276 8.1747706 1.174522.9527054.338804 1.6297195.736682 1.9246045.999038l.1989165.208495.4257511-.241506-.4780976.017374.0523465.224132.4257511-.241506-.4780976.017374v-.008687l2.6155776-.090348 2.6155776-.099035c-.0279181-.785331-.2722015-1.537651-.6316471-2.159661-.6386267-1.094599-1.5424754-1.834757-2.5388029-2.437655-1.5040879-.893054-3.3135302-1.494214-5.3899394-1.925104-2.0764092-.422203-4.4162955-.648072-6.9167109-.64981-.5147401 0-1.0382046.010425-1.5651588.029537-4.1301349.161584-7.8519675.887842-10.7554505 2.053676-1.4534865.594211-2.713291 1.28572-3.7549854 2.223948-.5182298.470851-.9858581 1.012938-1.3470486 1.67491-.3594456.655022-.5984944 1.44904-.5967495 2.281283l.0052346.185908-.0017449-.0139c.0279181.785332.2722016 1.537651.6316472 2.159662.6386267 1.096336 1.5424754 1.834756 2.5370579 2.437654 1.5058329.893054 3.3152752 1.495952 5.3934292 1.925104 2.0746643.422203 4.4145506.64981 6.914966.64981.5147401 0 1.0364597-.010425 1.5651589-.029537 4.1301348-.161583 7.8519674-.886104 10.7554505-2.053676 1.4534864-.592473 2.713291-1.285719 3.7549853-2.22221.5182299-.472588.9858581-1.014676 1.3470487-1.67491.3594456-.655022.5984944-1.450778.5967495-2.281283l-.0034898-.165059v-.008687l-2.6155776.099035M169.6617098 316.719256l-2.6155776.053861v.00695h.6037291l-.5845354-.158109-.0191937.158109h.6037291l-.5845354-.158109.2198551.059074-.2041511-.107723-.015704.048649.2198551.059074-.2041511-.107723c.0034897.02085-.2425386.350967-.8183495.712358-.8515023.55425-2.3433761 1.167573-4.1946955 1.612362-1.8548092.450002-4.0760436.75232-6.4612968.82703-.3803842.012163-.7590235.017375-1.1324282.017375-3.3711114.005212-6.3827771-.493438-8.3352997-1.204059-.9736439-.347492-1.6681068-.755794-1.975206-1.026838l-.2076409-.21892-.4240063.238032.4746079-.0139-.0506016-.224132-.4240063.238032.4746079-.0139v-.010424l-1.3208755.031274h1.3208755v-.031274l-1.3208755.031274h1.3208755-.6019842l.5827905.158109.0191937-.158109h-.6019842l.5827905.158109-.2198551-.059074.2041511.105985.015704-.046911-.2198551-.059074.2041511.105985c-.0034897-.019112.2425386-.350967.8183495-.710621.8515023-.555986 2.3433761-1.169309 4.1946955-1.612361 1.8548092-.450002 4.0760436-.754057 6.4612968-.827031.3821291-.012162.7590235-.017374 1.1324282-.017374 3.3711113-.00695 6.3827771.491701 8.3352996 1.204059.973644.345754 1.6681069.754057 1.9752061 1.026838l.2076409.21892.4222614-.23977-.472863.015637.0506016.224133.4222614-.23977-.472863.015637 2.6155776-.08166-2.6155776.053861 2.6155776-.053861 2.6173225-.081661c-.0226835-.797493-.2687118-1.5585-.6299023-2.18746-.6438613-1.106761-1.5581793-1.853869-2.5667209-2.465454-1.5232817-.905216-3.3606421-1.518539-5.4736937-1.958116-2.109562-.43089-4.4895805-.663709-7.0301282-.663709-.4292409 0-.8602267.005212-1.2964471.019112-4.1371144.133784-7.8694163.837455-10.7816237 1.98939-1.4587211.583786-2.7255052 1.270082-3.7724342 2.204835-.5199747.470851-.9910928 1.012939-1.3540281 1.67491-.3629354.655022-.6037291 1.452516-.6019842 2.286496l.0034897.142472c.0226835.794018.2669669 1.556763.6281574 2.185723.6438614 1.108498 1.5581794 1.855606 2.566721 2.465454 1.5232816.905216 3.360642 1.520276 5.4736937 1.958116 2.1095619.432627 4.4895805.665446 7.0301282.665446.427496 0 .8602267-.00695 1.2964471-.020849 4.1371144-.133785 7.8694162-.837455 10.7816237-1.987653 1.4587211-.585524 2.7255052-1.27182 3.7724342-2.206573.5217196-.469113.9910927-1.011201 1.3540281-1.673172.3629354-.65676.6037291-1.454253.6019842-2.286496l-.0017449-.11641v-.026062l-2.6173225.081661M170.204368 342.040979l-2.6173225.034749v.0139h.6072189l-.5862803-.159846-.0209386.159846h.6072189l-.5862803-.159846.2303244.062548-.2128756-.112934-.0174488.050386.2303244.062548-.2128756-.112934c.0034898.015637-.2407936.345754-.8166046.701933-.8532471.549037-2.3486107 1.15541-4.2069097 1.588037-1.8582989.439577-4.0865128.727995-6.4752558.787069-.3001196.00695-.5984944.010425-.8951243.010425-3.4286924.005212-6.501429-.507338-8.4975736-1.235333-.9963274-.354442-1.709984-.774907-2.0258076-1.056375-.162274-.13726-.2181102-.227607-.2181102-.229345l-.4205165.236294.471118-.010424-.0506015-.22587-.4205165.236294.471118-.010424-.0017448-.029537-1.7117289.045174h1.7117289v-.045174l-1.7117289.045174h1.7117289-.6072189l.5880252.159846.0191937-.159846h-.6072189l.5880252.159846-.2320693-.064286.2146204.112935.0174489-.048649-.2320693-.064286.2146204.112935c-.0052346-.015637.2390488-.344017.8166047-.700196.8532471-.549037 2.3486107-1.15541 4.2051647-1.588037 1.8600439-.439577 4.0865129-.729733 6.4752559-.787069.3018645-.00695.6002393-.010425.8968691-.010425 3.4286925-.00695 6.5014291.505601 8.4975737 1.235333.9945825.354442 1.7082391.77317 2.0258076 1.054638.1605291.138997.2163653.229344.2163653.229344l.4187716-.234557-.4676283.012163.0488567.222394.4187716-.234557-.4676283.012163 2.6173225-.066024-2.6173225.034749 2.6173225-.034749 2.6155776-.064286c-.0174488-.804443-.2634771-1.577612-.6281574-2.213522-.6473511-1.118924-1.5703935-1.874718-2.5911492-2.493253-1.5442203-.917379-3.4112437-1.544601-5.5574481-1.992866-2.1444596-.441314-4.5663553-.679346-7.1470353-.679346-.3402519 0-.6822487.003475-1.0259904.012162-4.1458388.107723-7.8868651.787069-10.8095418 1.923367-1.4639557.576836-2.7342296 1.256183-3.7881381 2.187461-.5234645.469113-.9980723 1.011201-1.3627526 1.67491-.3646802.656759-.6072188 1.45599-.6054739 2.291708l.0017449.11641v-.005213c.0174488.806181.2634771 1.577613.6281574 2.213523.6473511 1.12066 1.5703935 1.874718 2.5911492 2.49499 1.5442203.917379 3.4112437 1.542864 5.5574481 1.991128 2.1462044.441315 4.5663553.681084 7.1487801.681084.3385071 0 .6805039-.003475 1.0242456-.012162 4.1458388-.107723 7.8886099-.788807 10.8095418-1.923367 1.4639557-.578574 2.7359745-1.25792 3.7881381-2.189198.5234645-.469114.9980723-1.011201 1.3644975-1.673173.3629353-.658497.6054739-1.457728.603729-2.291708l-.0017449-.107722v-.005213l-2.6155776.064286M170.7452813 367.36444h-2.6173224v.034749h.6124534l-.5915149-.161583-.0209385.161583h.6124534l-.5915149-.161583.2407937.066023-.2216-.119885-.0191937.053862.2407937.066023-.2216-.119885c.0069796.0139-.2373039.340542-.8148597.693246-.854992.543825-2.3538454 1.141511-4.217379 1.563713-1.8635336.427415-4.0952372.703671-6.4892148.747107-.2198551.003475-.4397102.005213-.6578204.005213-3.4862736.005212-6.620081-.5195-8.6598477-1.266608-1.0190109-.364866-1.7501163-.794018-2.078154-1.085911-.1657638-.142472-.2268346-.23977-.2268346-.23977l-.4152819.23282.4623937-.008687-.0471118-.224133-.4152819.23282.4623937-.008687v-.029537l-1.8443399.041699h1.8443399v-.041699l-1.8443399.041699h1.8443399-.6107086l.58977.161583.0209386-.161583h-.6107086l.58977.161583-.2407937-.066023.2233449.118147.0174488-.052124-.2407937-.066023.2233449.118147c-.0069796-.012162.235559-.338804.8131148-.691508.854992-.543825 2.3555902-1.143248 4.217379-1.563713 1.8635336-.427415 4.0969821-.703671 6.4909597-.747107.2216-.003475.4414551-.005213.6578204-.005213 3.4862736-.005212 6.6183361.5195 8.6598477 1.266608 1.017266.363128 1.7501163.794018 2.0764091 1.084174.1675087.142471.2285795.241507.2285795.241507l.413537-.23282-.4623936.008687.0488566.224133.413537-.23282-.4623936.008687 2.6173224-.046911h-2.6173224 2.6173224l2.6173225-.048649c-.0122142-.814868-.2582425-1.596724-.6264125-2.239584-.6525857-1.131086-1.5843525-1.89383-2.6190674-2.52279-1.5634139-.929541-3.4583554-1.568925-5.6412024-2.025877-2.1793571-.451739-4.6413852-.696721-7.2639423-.696721-.2512629 0-.500781.001737-.7537889.00695-4.1528183.079923-7.9043139.736682-10.8374599 1.857343-1.4691904.568149-2.7446989 1.242283-3.803842 2.171824-.5269543.467376-1.003307 1.009463-1.371477 1.673172-.36817.658497-.6107086 1.459466-.6089637 2.296921l.0017449.08861 1.060888-.026062-1.060888.019112v.00695l1.060888-.026062-1.060888.019112c.0122141.814868.2582425 1.596725.6246676 2.239585.6525857 1.132823 1.5860974 1.895567 2.6208123 2.52279 1.561669.931278 3.4583554 1.570662 5.6412023 2.027614 2.1793572.450002 4.6413852.694983 7.2639424.696721.2477732 0 .4990361-.001738.752044-.00695 4.1528183-.079923 7.9060587-.73842 10.8374599-1.857343 1.4691904-.569887 2.7446989-1.244021 3.803842-2.171824.5269543-.467376 1.0050519-1.009463 1.3732219-1.673172.3664251-.658497.6089637-1.461203.6072188-2.296921v-.083398l-2.6173225.048649"/>
    <path fill="#0E2215" d="m157.0880926 106.8655172-2.6085981.21197.6141984-.0486488h-.6176881l.0034897.0486488.6141984-.0486488h-.6176881.560107l-.5426582-.1442091-.0174488.1442091h.560107l-.5426582-.1442091.2564976.0677609-.2477732-.0938228-.0087244.0260619.2564976.0677609-.2477732-.0938228-.0209386.0347492c-.0645606.1198846-.3873637.4864884-.9858581.8722042-.8898897.590736-2.3381414 1.2370707-4.1161758 1.7461461-1.7815242.5125503-3.8980657.9052159-6.1733913 1.0963364-1.0137763.0851355-2.0031242.125097-2.9523398.125097-2.919187.0052124-5.47369374-.4030904-7.08770927-.9851391-.80613533-.2814683-1.36100769-.6133229-1.58784231-.8166056l-.11690707-.1129348-.02268346-.0295368-.40132278.2606188.46239364-.0399615-.06107086-.2206573-.40132278.2606188.46239364-.0399615-.69969755.0555987h.70318731l-.00348976-.0590736-.69969755.0590736h.70318731-.56010701l.54265819.1424716.01744882-.1424716h-.56010701l.54265819.1424716-.25998736-.0677609.25126295.0955602.00872441-.0277993-.25998736-.0677609.25126295.0955602.02093858-.0347492c.06456063-.1198846.38736373-.4864884.98411326-.8722042.88988964-.590736 2.3398863-1.2370706 4.11792068-1.746146 1.7815242-.5125504 3.8963208-.905216 6.1733913-1.0963365 1.0137763-.0851355 2.0031242-.125097 2.9523398-.125097 2.919187-.0052124 5.4736937.4013529 7.0877093.9834016.8061353.2832058 1.3610077.6150604 1.5878423.8183431l.116907.1129348.0244284.0295368.397833-.2588814-.4606488.0382241.0628158.2206573.397833-.2588814-.4606488.0382241v-.0069498l2.6085981-.21197 2.6068532-.2189198c-.059326-.7193079-.2983748-1.4056041-.6386267-1.9789654-.6019841-1.0094636-1.4412722-1.7009721-2.3521004-2.2482716-1.3767117-.8148682-2.994217-1.3430556-4.8403018-1.7148718-1.8460847-.3666038-3.9172593-.5559868-6.1384936-.5559868-1.0975306 0-2.2317037.0469114-3.39205.1442091-4.0760435.3457543-7.72808081 1.2283833-10.56176862 2.5054155-1.41858878.6463346-2.6434957 1.3830171-3.64505777 2.3420943-.49903616.4812761-.94572586 1.0268381-1.28946755 1.6801226-.3419968.6480721-.5705763 1.4247162-.56883142 2.2447967l.01570394.3857158c.05932597.715833.29837476 1.4021292.63862668 1.9754906.60198418 1.0094635 1.44127225 1.6992346 2.35210048 2.2482715 1.37496674.8148682 2.99421692 1.3430556 4.84030171 1.7148718 1.84433995.3666038 3.91551445.5542493 6.13849365.5559868 1.0975306 0 2.2317036-.0469114 3.3920499-.1442091 4.0760436-.3474917 7.7280809-1.2283833 10.5617687-2.5054155 1.4185888-.6463346 2.6434957-1.3847546 3.6450578-2.3420943.4990361-.4812761.9457258-1.0268381 1.2877226-1.6801226.3419969-.6480721.5723212-1.4247161.5705763-2.2447966l-.0157039-.3770286v-.0052124l-2.6068532.2189198M159.633875 132.0656185l-2.610343.1980702.6368818-.0469113h-.6386267l.0017449.0469113.6368818-.0469113h-.6386267.5670866l-.5496378-.1459466-.0174488.1459466h.5670866l-.5496378-.1459466.2704567.0712358-.2617323-.1007726-.0087244.0295368.2704567.0712358-.2617323-.1007726v.0017375c-.0104692.0451739-.2634771.3926657-.8323085.780119-.8427778.5907359-2.3014989 1.2631324-4.1214105 1.7843701-1.8216564.5281874-4.0079931.9278029-6.3635834 1.1084986-.9370014.0729733-1.8513194.105985-2.7342295.105985-2.9732784.0069498-5.5818764-.4117777-7.2377691-1.0094635-.82532906-.2884182-1.39765024-.6306975-1.63320926-.84093l-.12214172-.1181472-.02617322-.0330117-.24079367.1563712.26871177-.0938227-.0279181-.0625485-.24079367.1563712.26871177-.0938227-.58977.208495.62292275-.0486488-.03315275-.1598462-.58977.208495.62292275-.0486488v-.0069499l-.73285029.0573362h.73459518l-.00174489-.0573362-.73285029.0573362h.73459518-.56534166l.54789284.1459465.01744882-.1459465h-.56534166l.54789284.1459465-.26871178-.0712358.25998737.0990351.00872441-.0277993-.26871178-.0712358.25998737.0990351v-.0017374c.01046929-.0434365.26347713-.3909282.83230855-.7783815.84277784-.590736 2.30149894-1.2631325 4.12141044-1.7843701 1.8216565-.5281875 4.0079932-.9260655 6.3635834-1.1084987.9370015-.0712358 1.8530643-.105985 2.7342296-.105985 2.9732783-.0069498 5.5836213.4117778 7.2377691 1.0077261.825329.2901556 1.3976502.632435 1.6332092.8426675l.1238866.1181472.0244284.0330117.2407936-.1563713-.2669669.0955602.0261733.0608111.2407936-.1563713-.2669669.0955602.5880251-.208495-.6229227.0486488.0348976.1598462.5880251-.208495-.6229227.0486488 5.218941-.4048279c-.0540913-.7279952-.294885-1.4247161-.6368818-2.0032899-.6089637-1.0233631-1.4569762-1.7200841-2.3782737-2.2760709-1.3941604-.8252929-3.0395838-1.3621676-4.9170765-1.7409336-1.8774926-.3735536-3.9853097-.568149-6.2449314-.568149-1.0190109 0-2.0676848.0399615-3.1390421.1216221-4.0830231.3214299-7.7455297 1.1797345-10.58968678 2.4411295-1.42382343.6393848-2.653965 1.3708549-3.66076172 2.3247198-.50078103.481276-.9509605 1.0251006-1.29644707 1.6801225-.34374168.6498096-.57581094 1.4281911-.57406606 2.2500091l.01395905.3596539v-.0069498c.05583622.7279952.294885 1.4247161.63862669 2.0032899.60721882 1.0233632 1.4552313 1.7200841 2.3782737 2.2760709 1.39241556.8252929 3.03783896 1.3621676 4.91533159 1.7409336 1.8774927.3735537 3.9853097.568149 6.2449315.568149 1.0190109 0 2.0676847-.038224 3.1390421-.1216221 4.0847679-.3214298 7.7455296-1.1814719 10.5896867-2.4411295 1.4238235-.6393848 2.6522202-1.3708549 3.6607617-2.3247197.5007811-.4812761.9509605-1.0251007 1.2964471-1.6801226.3437417-.6498096.575811-1.4281911.5740661-2.250009l-.0139591-.3492292-2.608598.1980703M162.1796573 157.267457l-2.610343.180696.6316472-.043437h-.633392l.0017448.043437.6316472-.043437h-.633392.5723211l-.5548723-.147684-.0174488.147684h.5723211l-.5548723-.147684.2809259.074711-.2722015-.105985-.0087244.031274.2809259.074711-.2722015-.105985v.001738c-.0087244.039961-.2599874.385715-.8288188.767956-.8427778.585524-2.3067336 1.249233-4.1318798 1.760046-1.8268911.517763-4.0184624.903479-6.3775424 1.068537-.8584818.060811-1.6995148.090348-2.5108847.090348-3.0308595.005212-5.6952937-.42394-7.3913187-1.035525-.8462676-.297106-1.4360376-.648073-1.680321-.865255l-.1291213-.125097-.0261732-.034749-.2338142.149421.2599874-.090347-.0261732-.059074-.2338142.149421.2599874-.090347-.58977.206757.6229228-.043436-.0331528-.163321-.58977.206757.6229228-.043436-.0017449-.008688-.7468094.055599h.7485543l-.0017449-.055599-.7468094.055599h.7485543-.5723212l.5548723.145947.0174489-.145947h-.5723212l.5548723.145947-.2826708-.074711.2739464.105985.0087244-.031274-.2826708-.074711.2739464.105985c.0069796-.039962.2599874-.387453.8288188-.769694.8427779-.585524 2.3067336-1.249233 4.1318798-1.760046 1.8268911-.516025 4.0184624-.901741 6.3792873-1.068537.8584818-.060811 1.6977699-.090348 2.5108847-.090348 3.0291146-.005212 5.6935489.42394 7.3895738 1.035525.8462676.297106 1.4360376.648072 1.6820659.866992l.1273764.125097.0279181.034749.2320693-.151158-.2582425.090347.0261732.060811.2320693-.151158-.2582425.090347.5880251-.20502-.6211779.043437.0331528.161583.5880251-.20502-.6211779.043437 2.610343-.184171 2.6103429-.18417c-.0506015-.740158-.2913952-1.443829-.6368818-2.03109-.6124534-1.033788-1.4709352-1.737458-2.4044469-2.300395-1.4133541-.835718-3.0832059-1.383017-4.9938513-1.770471-1.9089005-.38224-4.0551049-.580311-6.3531141-.582048-.9387463 0-1.901921.034749-2.8825445.104247-4.0917475.293631-7.7629785 1.131086-10.61586 2.376844-1.429058.630697-2.66443426 1.355218-3.67646562 2.307345-.50427079.479539-.95794002 1.023363-1.30517147 1.678385-.34723145.651547-.58104559 1.431666-.57930071 2.256959l.01221417.32838v-.008688c.05060157.740158.29139523 1.443829.6368818 2.03109.61245346 1.033788 1.47093524 1.737458 2.40444692 2.302132 1.41335411.835718 3.08320591 1.383018 4.99385131 1.770471 1.9089005.380503 4.055105.580311 6.354859.580311.9370014 0 1.9001761-.033012 2.8807996-.10251 4.0917475-.295368 7.7629785-1.132823 10.61586-2.378581 1.4290581-.630697 2.6644343-1.355218 3.6782105-2.307345.5025259-.477801.9561952-1.023363 1.3034266-1.678385.3472315-.64981.5810456-1.431666.5793007-2.255222l-.0104693-.317955-2.6120878.180696M164.7254396 182.467558l-2.6120878.159847.5775558-.03475h-.5775558v.03475l.5775558-.03475h-.5775558.5775558l-.560107-.149421-.0174488.149421h.5775558l-.560107-.149421.2966299.078186-.2861606-.111198-.0104693.033012.2966299.078186-.2861606-.111198.0104693.005213-.0104693-.005213.0104693.005213-.0104693-.005213c-.0069795.036487-.2564976.378766-.8270739.757532-.8445227.582049-2.3119682 1.237071-4.1423491 1.735721-1.8303808.507338-4.0271868.879155-6.3915015 1.030313-.7799621.048649-1.5442202.072974-2.2875398.072974-3.0866957.005212-5.8069662-.432627-7.5448683-1.061588-.8672062-.304055-1.4726801-.663709-1.7291777-.891316l-.132611-.130309-.029663-.038224-.2250897.144209.2512629-.085136-.0261732-.059073-.2250897.144209.2512629-.085136-.58977.203283.6211779-.039962-.0314079-.163321-.58977.203283.6211779-.039962v-.005212l-.7258708.048649h.7276157l-.0017449-.048649-.7258708.048649h.7276157-.5775559l.5583622.147684.0191937-.147684h-.5775559l.5583622.147684-.294885-.078186.2844157.111198.0104693-.033012-.294885-.078186.2844157.111198-.0069795-.003475.0069795.003475-.0069795-.003475.0069795.003475c.0069795-.03475.2564976-.378766.8270739-.757532.8445227-.580312 2.3119682-1.237071 4.142349-1.735722 1.8303809-.5056 4.0289318-.879154 6.3932464-1.028575.7799621-.050387 1.5442203-.074711 2.285795-.074711 3.0866956-.005212 5.8069661.434365 7.5448683 1.061587.8672061.305793 1.474425.665447 1.7291777.891317l.132611.130309.0314079.039962.2233448-.14421-.2495181.085136.0261733.059074.2233448-.14421-.2495181.085136.5880252-.203283-.619433.039962.0314078.163321.5880252-.203283-.619433.039962-.0017449-.008687 2.6120878-.159847 2.6120879-.166796c-.045367-.748844-.2879055-1.46294-.6368818-2.057151-.6176881-1.04595-1.4848943-1.756571-2.4306202-2.326457-1.4308029-.846142-3.1285728-1.405604-5.0706261-1.800007-1.9420533-.389191-4.1266451-.594211-6.4647865-.594211-.854992 0-1.7309226.027799-2.6225571.085135-4.098727.267569-7.7804273 1.082437-10.6437781 2.312558-1.4342928.623748-2.6749036 1.341318-3.6921696 2.291708-.50776058.476064-.96317469 1.021626-1.3138959 1.676648-.34897633.651547-.58279048 1.43514-.58104559 2.262171l.0087244.297105v-.00695c.04711181.748845.28790548 1.462941.63688181 2.057152.6176881 1.04595 1.48489428 1.75657 2.43062018 2.328194 1.4308029.846143 3.1285728 1.403867 5.0706261 1.79827 1.9420532.389191 4.1266451.594211 6.4647865.594211.8567369 0 1.7309226-.027799 2.6225571-.083398 4.098727-.269306 7.7804273-1.084174 10.645523-2.314295 1.4325478-.623748 2.6731587-1.341318 3.6921696-2.289971.5060157-.477801.9614298-1.021625 1.312151-1.678385.3489763-.651547.5845353-1.435141.5810456-2.260434l-.0087244-.284943v-.00695l-2.6120879.166796M167.2729668 207.669397l-2.6138327.147684.6508409-.036487h-.6525858l.0017449.036487.6508409-.036487h-.6525858.5845354l-.5653417-.151159-.0191937.151159h.5845354l-.5653417-.151159.3070992.081661-.2966299-.114672-.0104693.033011.3070992.081661-.2966299-.114672.0244284.008687-.0226835-.012162-.0017449.003475.0244284.008687-.0226835-.012162c-.0052346.033012-.2530078.373553-.825329.748845-.8445227.575098-2.3172029 1.22317-4.1510735 1.711396-1.8373604.495176-4.039401.853093-6.4089503.988614-.6996975.039962-1.3871809.059074-2.0589603.059074-3.1425319.00695-5.9203835-.444789-7.7001628-1.087649-.8881448-.312743-1.5110675-.682821-1.7762895-.917378l-.1395905-.13726-.0331528-.039961-.2163653.137259.2407936-.08166-.0244283-.055599-.2163653.137259.2407936-.08166-.5880251.201545.6211779-.034749-.0331528-.166796-.5880251.201545.6211779-.034749-.0017449-.0139-.8131148.050386.8148597.001738-.0017449-.052124-.8131148.050386.8148597.001738h-.5845354l.5653417.149421.0191937-.149421h-.5845354l.5653417.149421-.3070992-.08166.2966299.116409.0104693-.034749-.3070992-.08166.2966299.116409-.0244283-.010424.0226834.012162.0017449-.001738-.0244283-.010424.0226834.012162c.0052347-.031275.2547527-.371816.8253291-.747108.8462676-.576836 2.3189477-1.22317 4.1528183-1.711396 1.8356155-.495176 4.0376561-.85483 6.4072054-.990352.7014425-.039961 1.3889258-.059073 2.0607053-.059073 3.1407869-.005213 5.9203834.444789 7.7001627 1.089386.8863999.312743 1.5110675.681084 1.7762895.917378l.1395906.135522.0314078.041699.2146205-.138997-.2390488.083399.0244283.055598.2146205-.138997-.2390488.083399.5880251-.201546-.619433.034749.0314079.166797.5880251-.201546-.619433.034749 2.6138327-.149421 2.6120879-.151159c-.0418772-.757532-.2844157-1.480315-.6351369-2.081475-.6229228-1.058113-1.5005983-1.775683-2.4585383-2.354257-1.4482518-.858305-3.1721948-1.426454-5.1491458-1.831281-1.975206-.396141-4.1964403-.606374-6.574714-.606374-.7729826 0-1.5616691.022587-2.3608249.067761-4.1074514.241507-7.799621 1.035526-10.6734411 2.248272-1.4395274.616798-2.683628 1.329156-3.7078735 2.274333-.5095055.476064-.9684093 1.019889-1.3208754 1.676648-.3524661.653285-.5880251 1.438616-.5862803 2.267384l.0087244.274518v-.0139c.0401323.757532.2844157 1.482053.6333921 2.083213.6246676 1.058113 1.5005982 1.775683 2.4585382 2.354257 1.4482518.858305 3.1739398 1.426454 5.1508907 1.829544 1.9734611.397878 4.1964404.606373 6.5747141.606373.7712376 0 1.5599242-.020849 2.3608248-.067761 4.1074515-.241507 7.799621-1.033788 10.6716962-2.248271 1.4395274-.616798 2.683628-1.327419 3.7078736-2.274334.5112503-.476063.9684093-1.019888 1.3226203-1.676647.3507212-.651547.5880251-1.438616.5845353-2.265647l-.0069795-.260618-2.6120879.149421M168.862554 232.928572l-2.6138327.11641.4100472-.019112-.4100472.001737v.017375l.4100472-.019112-.4100472.001737h.5880251l-.5688314-.154634-.0191937.154634h.5880251l-.5688314-.154634.3140787.085136-.3036094-.119885-.0104693.034749.3140787.085136-.3036094-.119885.0418772.017375-.0401323-.02085-.0017449.003475.0418772.017375-.0401323-.02085c-.0017449.027799-.2495181.366604-.8218393.73842-.8462676.569886-2.3241823 1.209271-4.1632876 1.687072-1.8408502.483014-4.0481255.828768-6.4211645.948653-.6211779.031274-1.2318864.046911-1.8321257.046911-3.1983681.005213-6.0355457-.456951-7.8572021-1.117186-.9090834-.319692-1.5494549-.700196-1.8251462-.94344l-.1448252-.142471-.0348977-.045174-.2076409.133784.2320693-.078186-.0244284-.055598-.2076409.133784.2320693-.078186-.58977.199808.619433-.031274-.029663-.168534-.58977.199808.619433-.031274h-.0366425l.0366425-.001738-.0366425.001738.0366425-.001738-1.0731022.03475h1.0748471l-.0017449-.03475-1.0731022.03475h1.0748471-.58977l.5705763.152896.0191937-.152896h-.58977l.5705763.152896-.3158236-.085136.3036094.119885.0122142-.034749-.3158236-.085136.3036094.119885-.0401323-.015637.0383874.02085.0017449-.005213-.0401323-.015637.0383874.02085c.0034898-.029537.251263-.368342.8218393-.73842.8480125-.571624 2.3241823-1.211009 4.1632876-1.687073 1.8408501-.484751 4.0498703-.830505 6.4229094-.95039.6211778-.031274 1.2318864-.046911 1.8303808-.046911 3.1983681-.005213 6.0355457.456951 7.8572021 1.117186.9090834.32143 1.5511998.700196 1.8251462.945177l.1465701.140734.0331527.045174.0732851-.046911-.0767748.038224.0034897.008687.0732851-.046911-.0767748.038224.4920566-.241507-.5426582.0278.0506016.213707.4920566-.241507-.5426582.0278v-.015637l2.6138327-.11641 2.6138327-.133784c-.0366425-.767957-.2809259-1.501165-.633392-2.107538-.6281574-1.072012-1.5145573-1.796532-2.4847115-2.382056-1.4674454-.870467-3.2193066-1.44904-5.2294103-1.860818-2.0083588-.406565-4.2697254-.620273-6.6881314-.62201-.6874833 0-1.3871809.017374-2.0973477.053861-4.114431.215445-7.8170698.985139-10.6996143 2.183986-1.444762.60811-2.6940973 1.313518-3.7253224 2.256958-.5112503.474327-.9736439 1.018151-1.3295998 1.676648-.354211.653285-.5915149 1.442091-.5880251 2.270859l.0052346.232819c.0366426.766219.280926 1.499427.635137 2.107537.6264125 1.070275 1.5128124 1.794795 2.4829666 2.382056 1.4674454.86873 3.2193066 1.447303 5.2311552 1.859081 2.0066139.406566 4.2679805.62201 6.6863865.62201.6874833 0 1.3871809-.017374 2.0990926-.053861 4.1144309-.213707 7.8153249-.985139 10.6996143-2.183985 1.4430171-.608111 2.6940973-1.313519 3.7235775-2.256959.5129952-.474326.9736439-1.018151 1.3295998-1.67491.354211-.653285.5915149-1.443829.58977-2.270859l-.0052347-.217182-.0017449-.015637-2.6138327.133784M169.4052122 258.250295l-2.6155776.114672.6647999-.029536-.6647999.001737v.027799l.6647999-.029536-.6647999.001737h.5932598l-.5740661-.156371-.0191937.156371h.5932598l-.5740661-.156371.1936819.053861-.1797228-.09556-.0139591.041699.1936819.053861-.1797228-.09556c-.0017449.027799-.251263.364866-.825329.73147-.8497574.564674-2.3311619 1.195372-4.173757 1.66101-1.8443399.472589-4.0551049.802706-6.4298889.908691-.5426582.022587-1.0765919.03475-1.6000564.03475-3.2576941.005212-6.1524528-.469114-8.0177313-1.144986-.9300219-.330117-1.5878423-.71757-1.872258-.971239l-.1518047-.147684-.0366425-.048649-.059326.038224.0628158-.029537-.0034898-.008687-.059326.038224.0628158-.029537-.4938015.238032.5426582-.024324-.0488567-.213708-.4938015.238032.5426582-.024324-.0017449-.038224v.020849l-.9317668.046912h.9335117l-.0017449-.046912-.9317668.046912h.9335117-.5932598l.5740661.154633.0191937-.154633h-.5932598l.5740661.154633-.1936819-.052123.1797228.093822.0139591-.041699-.1936819-.052123.1797228.093822c.0017449-.027799.2495181-.363129.8235842-.73147.8497573-.564674 2.3311618-1.195371 4.1737569-1.66101 1.8460848-.472589 4.0568498-.802706 6.4316338-.906954.5426581-.024324 1.0765919-.036486 1.6000564-.036486 3.2559492-.005213 6.1507079.469113 8.0159864 1.144985.9300219.330117 1.5895871.719308 1.8740029.972977l.1518047.147684.0366425.046911.0593259-.036486-.0628157.029536.0034898.00695.0593259-.036486-.0628157.029536.4920566-.238032-.5409133.024325.0488567.213707.4920566-.238032-.5409133.024325 2.6155776-.11641 2.6138327-.11641c-.0314078-.776644-.2756913-1.518538-.633392-2.133599-.633392-1.082437-1.5285163-1.815644-2.5108847-2.409855-1.4866392-.880892-3.2664185-1.471628-5.3096749-1.892093-2.0432564-.413515-4.3430104-.634172-6.8015487-.63591-.6019841 0-1.2144376.0139-1.8321257.041699-4.1231554.187646-7.8345186.934753-10.7275324 2.117963-1.4482518.60116-2.7045666 1.299619-3.7392814 2.239584-.516485.474326-.9806235 1.016413-1.3383242 1.676648-.3577008.653284-.5950047 1.445565-.5932598 2.276071l.0052346.220657v-.019112c.0314079.776644.2756913 1.520276.6316472 2.133599.633392 1.084174 1.5285163 1.815644 2.5108847 2.409855 1.4866392.880892 3.2664185 1.471628 5.3114198 1.89383 2.0415115.413515 4.3430104.634173 6.8015487.634173.6019841 0 1.2126927-.0139 1.8321257-.039962 4.1214105-.187645 7.8345186-.93649 10.7257875-2.119699 1.4499967-.601161 2.7045666-1.29962 3.7410263-2.239585.5147401-.472589.9788786-1.016413 1.3383242-1.67491.3559559-.655022.5950047-1.445566.5932598-2.276071l-.0052347-.201545-2.6138327.114672M169.9461255 283.572019l-2.6155776.092085.502526-.017375h-.502526v.017375l.502526-.017375h-.502526.5984944l-.5793007-.156371-.0191937.156371h.5984944l-.5793007-.156371.2093858.055599-.1936818-.100773-.015704.045174.2093858.055599-.1936818-.100773c0 .022587-.2477732.357917-.8218393.721045-.8515022.559462-2.3381414 1.181472-4.1842262 1.636686-1.8513194.460427-4.0673191.778382-6.4473377.866992-.4606488.017375-.9160629.026062-1.3662424.026062-3.3135302.005213-6.2676149-.481276-8.1747705-1.174522-.9527054-.337067-1.6297195-.736682-1.9246045-.999039l-.1989165-.206757-.427496.241507.4798425-.017375-.0523465-.224132-.427496.241507.4798425-.017375v-.015637l-.9125731.039961h.9125731v-.039961l-.9125731.039961h.9125731-.5984944l.5793007.156372.0191937-.156372h-.5984944l.5793007.156372-.2076409-.055599.1919369.100773.015704-.045174-.2076409-.055599.1919369.100773c0-.024325.2477732-.357917.8218393-.722783.8515022-.559462 2.3363965-1.181472 4.1842262-1.634949 1.8495746-.462164 4.0673191-.778381 6.4473377-.868729.4606488-.017375.9160629-.026062 1.3662424-.026062 3.3135302-.005212 6.2676149.481276 8.1747705 1.174522.9527054.338804 1.6297195.736683 1.9246045.999039l.1989165.208495.4257511-.241507-.4780976.019112.0523465.222395.4257511-.241507-.4780976.019112.0034898.083398-.0034898-.092085 2.6155776-.092085 2.6155776-.099036c-.0279181-.785331-.2722015-1.537651-.6316471-2.159661-.6386267-1.094599-1.5424754-1.834756-2.5388028-2.437654-1.504088-.891317-3.3135303-1.494215-5.3916843-1.923367-2.0746643-.42394-4.4162955-.64981-6.914966-.64981-.516485-.001737-1.0382046.008688-1.5651589.0278-4.1301349.161583-7.8519674.887841-10.7554505 2.053676-1.4534864.594211-2.713291 1.285719-3.7549853 2.223947-.5182299.470851-.9858582 1.014676-1.3470487 1.67491-.3594456.655022-.5984944 1.449041-.5967495 2.281283l.0052346.185909-.0017448-.0139c.0279181.785331.2722015 1.539388.6316471 2.159661.6368818 1.096336 1.5424754 1.834756 2.537058 2.437655 1.5058328.893053 3.3152751 1.495952 5.3934291 1.925104 2.0746643.422202 4.4145506.649809 6.914966.649809.5147401 0 1.0364598-.008687 1.5651589-.029536 4.1301349-.161584 7.8519674-.886104 10.7554505-2.053677 1.4534864-.592473 2.713291-1.285719 3.7549853-2.222209.5182299-.472589.9858582-1.014676 1.3470487-1.67491.3594456-.655022.5984944-1.450779.5967495-2.281284l-.0034898-.165058v-.008688l-2.6155776.099036M170.4870388 308.895479l-2.6155776.055599v.005212h.6019842l-.5827905-.158108-.0191937.158108h.6019842l-.5827905-.158108.2198551.059073-.2024062-.107722-.0174489.048649.2198551.059073-.2024062-.107722c.0017448.020849-.2442835.350966-.8200944.712358-.8515023.554249-2.3433761 1.167572-4.1946955 1.612362-1.8548092.450001-4.0760436.754057-6.4612968.82703-.3803842.012162-.7590235.017374-1.1324282.017374-3.3711113.005213-6.384522-.493438-8.3352996-1.204058-.973644-.345755-1.6681069-.755795-1.9752061-1.026839l-.2076409-.218919-.4240062.239769.4746078-.015637-.0506016-.224132-.4240062.239769.4746078-.015637v-.010425l-1.3261101.031274h1.3261101v-.031274l-1.3261101.031274h1.3261101-.6019842l.5827905.158109.0191937-.158109h-.6019842l.5827905.158109-.2198551-.059074.2024063.105985.0174488-.046911-.2198551-.059074.2024063.105985c-.0017449-.019112.2442834-.350966.8200943-.71062.8515023-.554249 2.3433761-1.16931 4.1946955-1.612362 1.8548092-.450002 4.0760436-.754057 6.4612968-.82703.3821291-.012162.7607684-.017375 1.1324282-.017375 3.3711114-.00695 6.3827771.491701 8.3352997 1.204059.9736439.345754 1.6681068.755795 1.975206 1.026838l.2076409.21892.4222614-.238032-.472863.0139.0506016.224132.4222614-.238032-.472863.0139 2.6155776-.081661-2.6155776.055599 2.6155776-.055599 2.6173225-.08166c-.0226834-.795756-.2687117-1.558501-.6299022-2.187461-.6438614-1.106761-1.5581794-1.853868-2.566721-2.465454-1.5232816-.905216-3.360642-1.518539-5.4736937-1.958116-2.1095619-.430889-4.4913254-.663709-7.0301282-.663709-.427496 0-.8602267.005212-1.2964471.019112-4.1371144.133784-7.8694162.837455-10.7816237 1.98939-1.460466.583786-2.7255052 1.270083-3.7724342 2.204835-.5217196.470852-.9910927 1.012939-1.3540281 1.674911-.3629354.656759-.6037291 1.452515-.6019842 2.286495l.0034898.142472c.0226834.795756.2669669 1.5585.6281574 2.185723.6438613 1.108499 1.5564344 1.855606 2.564976 2.465454 1.5250266.905216 3.3623869 1.520276 5.4754386 1.958116 2.109562.432627 4.4895805.665447 7.0301282.665447.427496 0 .8602267-.00695 1.2964471-.02085 4.1371144-.133784 7.8694163-.837455 10.7816237-1.987653 1.4587211-.585523 2.7255052-1.271819 3.7724342-2.206572.5217196-.469114.9910928-1.011201 1.3540281-1.673173.3629354-.656759.6037291-1.454253.6019842-2.286496l-.0017449-.116409v-.026062l-2.6173225.08166M171.029697 334.217203l-2.6173224.034749v.013899h.6072188l-.5862803-.159846-.0209385.159846h.6072188l-.5862803-.159846.2303244.062549-.2128755-.112935-.0174489.050386.2303244.062549-.2128755-.112935c.0034897.015637-.2407937.345754-.8166047.701933-.854992.549037-2.3486107 1.15541-4.2069096 1.588038-1.8600439.437839-4.0865129.727995-6.4752558.787068-.3001197.00695-.5984945.010425-.8951243.010425-3.4286925.005212-6.5014291-.5056-8.4975737-1.235333-.9963274-.354442-1.709984-.774907-2.0258076-1.056375-.162274-.137259-.2181102-.227607-.2181102-.227607l-.4187716.236294.4676283-.012162-.0488567-.224132-.4187716.236294.4676283-.012162v-.029537l-1.7169636.045174h1.7169636v-.045174l-1.7169636.045174h1.7169636-.6072188l.5880251.159846.0191937-.159846h-.6072188l.5880251.159846-.2320693-.064286.2146205.114673.0174488-.050387-.2320693-.064286.2146205.114673c-.0052347-.015637.2390487-.345755.8166046-.701934.8532471-.549037 2.3486107-1.15541 4.2051648-1.588037 1.8600438-.439577 4.0865128-.729732 6.4752558-.787069.3018645-.006949.6002393-.010424.8951243-.010424 3.4286924-.00695 6.501429.5056 8.4975736 1.235333.9963275.354441 1.7099841.773169 2.0258076 1.054637.162274.138997.2181102.229345.2181102.231082l.4187716-.236294-.4676282.012162.0488566.224132.4187716-.236294-.4676282.012162 2.6173224-.066023-2.6173224.034749 2.6173224-.034749 2.6155776-.064286c-.0174488-.804444-.2634771-1.577613-.6281574-2.211785-.647351-1.120661-1.5703934-1.874718-2.5928941-2.494991-1.5424754-.917378-3.4094987-1.544601-5.5574481-1.992865-2.1444595-.441315-4.5646104-.679347-7.1470352-.679347-.3385071 0-.6805039.003475-1.0242456.012163-4.1458388.107722-7.886865.787068-10.8095418 1.923366-1.4639557.576837-2.7342296 1.256183-3.7881381 2.189198-.5234645.469114-.9980723 1.009464-1.3627526 1.673173-.3646802.65676-.6072188 1.455991-.6054739 2.291708l.0017449.11641v-.005212c.0174488.80618.2634771 1.577612.6281574 2.213522.6473511 1.120661 1.5703935 1.874718 2.5928941 2.494991 1.5424754.917378 3.4094988 1.544601 5.5574481 1.991127 2.1444596.441315 4.5646104.681084 7.1470353.681084.338507 0 .6805038-.003475 1.0242455-.012162 4.1458388-.107722 7.8868651-.788806 10.8095418-1.923367 1.4639558-.576836 2.7359745-1.25792 3.7881381-2.189198.5234645-.469114.9980723-1.011201 1.3627526-1.673172.3646803-.65676.6072188-1.457728.6054739-2.291709l-.0017449-.107722v-.005212l-2.6155776.064286M171.5706104 359.540663h-2.6173225v.03475h.6124534l-.5915148-.161584-.0209386.161584h.6124534l-.5915148-.161584.2425385.066023-.2250897-.118147-.0174488.052124.2425385.066023-.2250897-.118147c.0069795.012162-.2355591.338805-.8131149.691509-.854992.543824-2.3538453 1.14151-4.2156341 1.563713-1.8652784.427414-4.098727.70367-6.4909597.747107a41.73370982 41.73370982 0 0 1-.6595653.005212c-3.4862735.005213-6.6183361-.5195-8.6598476-1.266607-1.017266-.364867-1.7483715-.794019-2.0764092-1.085912-.1657638-.142472-.2268346-.238032-.2268346-.239769l-.4152819.232819.4641386-.00695-.0488567-.225869-.4152819.232819.4641386-.00695-.0017449-.031274-1.8443399.041699h1.8443399v-.041699l-1.8443399.041699h1.8443399-.6107086l.58977.161584.0209386-.161584h-.6107086l.58977.161584-.2407937-.066024.2233449.118148.0174488-.052124-.2407937-.066024.2233449.118148c-.0069795-.012163.235559-.338805.8131148-.691509.854992-.543825 2.3555903-1.14151 4.217379-1.563713 1.8635336-.427415 4.0969821-.703671 6.4909598-.747107.2215999-.003475.4397101-.005212.6578203-.005212 3.4862736-.005213 6.6183362.5195 8.6598477 1.266607 1.017266.363129 1.7483714.794019 2.0764092 1.084174.1675086.144209.2285795.241507.2285795.241507l.4135369-.232819-.4623936.008687.0488567.224132.4135369-.232819-.4623936.008687 2.6173225-.046912h-2.6173225 2.6173225l2.6173224-.048648c-.0122141-.814869-.2582424-1.596725-.6264125-2.237847-.6525857-1.132823-1.5860974-1.895568-2.6190673-2.524528-1.563414-.92954-3.4583555-1.568925-5.6412024-2.025877-2.1811021-.451739-4.6413852-.696721-7.2639424-.696721-.2512629 0-.5025259.001738-.7537888.00695-4.1528184.079923-7.9043139.736683-10.83746 1.857344-1.4691903.569886-2.7446988 1.242283-3.803842 2.171823-.5269543.467376-1.003307 1.009464-1.371477 1.673173-.3664251.658497-.6107086 1.459465-.6089637 2.29692l.0017449.088611 1.046929-.026062-1.046929.019112v.00695l1.046929-.026062-1.046929.019112c.0122142.814868.2582425 1.596724.6246676 2.239584.6525858 1.132823 1.5860975 1.895567 2.6208123 2.52279 1.5616691.931278 3.4583554 1.570663 5.6394575 2.027614 2.1811021.45174 4.6413852.696721 7.2639423.696721.2495181 0 .5007811-.001737.7537889-.006949 4.1528183-.079924 7.9060588-.73842 10.83746-1.857344 1.4691903-.569886 2.7446988-1.24402 3.803842-2.171823.5269542-.467377 1.0033069-1.009464 1.3714769-1.673173.3681701-.658497.6107086-1.461203.6089637-2.29692v-.083398l-2.6173224.048648"/>
  </g>
</svg>
