<svg width="574" height="488" viewBox="0 0 574 488" xmlns="http://www.w3.org/2000/svg">
  <title>(GYM 014) Working With Atomic Design and Pattern Lab</title>
  <desc>An in-depth look at building successful UI design systems from the author of Atomic Design.</desc>
  <g fill="none" fill-rule="evenodd">
    <path fill="#5CA5A0" d="M0 0h574v488H0z"/>
    <path d="M60.6621422 378.2302941c-19.2172728 17.9515759 29.4183396 35.5711475 65.6295393 43.0086353 14.3342186 2.9441327 32.3412475 4.9989171 54.6827175 4.9989171 78.780641 0 124.704287 8.5164882 149.081979 8.5164882C440.258617 434.7543347 505 408.6883823 517 382.9999986c7.804895-16.7079288-12.944375-29.8024519-35.000009-35.9999989-40.146473-11.28100226-107.725325-6.42252559-178.852035-6.42252559-110.202238 0-194.4970005-7.17533188-242.4858138 37.65281999z" fill="#315A5B"/>
    <path d="M268 420.8410721c12.82778 1.2032573 77.93113-1.391577 90.544304-6e-7 54.667891 6.0313558 91.847461 1.1796782 116.561813-7.571451 13.750823-4.8690426 29.245951-31.8692621 30.541069-33.2739252C509.851257 375.4360315 493 339.99999997 398 335.99999997S348.800012 342 308.356083 342C206.573913 342 62 356.7792481 62 379.9956971c0 21.0907174 78.7275476 28.907104 206 40.845375z" fill="#2C4F4F"/>
    <path d="M135.9999985 402.000001s1.2290468.2856039 3.2272727.748982c8.3250247 1.9305297 30.0009118 6.9467376 31.7727308 7.2510141 11.205713 1.9243696 24.136477 1.8519375 59.150489 6.1578914 16.025275 1.9707564 34.431155 1.1011459 49.849504-.000001 8.691391-.6207215 87.310738-11.4229681 122.925931-17.1744149 56.846918-9.180128 98.074059-26.9834726 79.074059-40.3789957C468.674859 349.2098958 378.078991 337 290 337c-61.025318 0-167.5332795 21.6044763-167.5332795 21.6044763S96.9238717 364.0146286 86.2685185 372c-4.9462114 3.7068068-.7017788 9.5020858 0 12.8016522 1.8039108 8.48148 49.73148 17.1983488 49.73148 17.1983488z" fill="#274444"/>
    <g>
      <path d="M450.392408 234.343756c.317599 73.11767 4.084286 147.765611-11.918381 148.728609-8.923443 5.694164-83.878217 10.579332-152.292304 10.908779-70.2506345.339193-134.074119-3.984551-148.7879807-5.976826-18.22125345-.091621-12.20682825-77.26597-12.33724308-167.664971.37743587-99.0172478-9.39907367-139.56063339 23.90734018-139.70878693 15.3490586-2.88509524 266.5801916-8.52077789 287.5386216-.51073984 16.25736 3.52644411 13.587691 84.79255917 13.889947 154.22393577z" fill="#24152C"/>
      <path d="M436.560694 181.3669794l-2.524485 179.8196036c-.029575 2.106609-1.713582 4.24123-3.763498 4.717173 0 0-34.572568 10.072505-136.978301 10.072505-102.4057321 0-149.34116525-5.789204-149.34116525-5.789204-2.09255256-.228779-3.87326034-2.127995-3.97007336-4.223444 0 0-2.055573-38.680508-2.97817259-127.997249-.11811828-11.277606 1.89583564-132.8142045 1.89583564-132.8142045.07349909-4.47342488 3.75234078-8.25596052 8.23101186-8.44677153 0 0 108.2519687-4.73094627 144.2477187-4.70528395 38.102724.02763636 73.668488 2.3992242 115.677096 1.38654931 2.035146-.04935063 6.672087-.03553245 12.855739-.02171428 3.230695.0078961 2.712868.00499706 2.712868.00499706 4.469839.00487177 8.333266 3.62210187 8.62989 8.08959643l5.305536 79.90744686z" fill="#E2E2E2"/>
      <path d="M394.9801587 355.35347065c-1.87202576 2.26366253-4.11571232 1.87410372-6.28025989 2.21664716-6.7405487 1.06585993-13.52266434.90100576-20.30135938.83097514-6.00481743-.06203574-12.00126623.85425558-17.9751276.95852972-5.97386136.10427413-2.81518744-5.40962092-.09299164-5.32748718 6.72335392.19919083 21.04653394-1.30522475 27.7703779-1.10435862 1.93929212.05875654 3.40611157.61236762 5.33522498.29919005 3.47771273-.56583263 7.33785392-.7392887 10.82611355.03833761.3349523.074974.79713431 1.39307476.71802208 2.08816612z" fill="#B7B7B7"/>
      <path d="M342.20320638 267.28500906c-2.04111086 2.85885568-1.09979737 75.06809184 0 75.35881654.66099643.1747304 23.70093172.6964603 44.91309882.0164919 14.0816479-.4513954 28.4891782-1.6558188 30.911662-3.0335776.6120455-12.2484981 2.0208233-24.5536834 1.9673405-36.8303588-.0517968-11.8896618-1.5371685-23.7525829-2.6913783-35.51137204-3.1715564-1.63727744-18.1833202-2.2714586-33.1891815-2.28479376-19.6588954-.01747015-41.01603224 1.03062546-41.91154152 2.28479376z" fill="#C9C9C9"/>
      <path d="M300.98811419 357.19075997c-1.94988606 2.1969508-4.17861042 1.72932578-6.353794 1.99611893-6.7736405.82996888-13.54587135.4285227-20.31799295.1219617-5.99899445-.27156305-12.02376848.43489704-17.99762985.3306229-5.97386136-.10427413-2.62467946-5.50457414.09299163-5.32748717 6.71230658.43371116 21.07926465-.5699162 27.7920025-.13451366 1.93606017.12640106 3.38266533.73086616 5.32153332.48520446 3.49534147-.44411752 7.3591847-.48275095 10.81818061.41614016.3321317.086618.74803111 1.42004573.64470874 2.11195268z" fill="#B7B7B7"/>
      <path d="M249.20320638 270.04897981c-2.04111086 2.79648401-1.09979737 73.43033089 0 73.71471279.66099643.1709183 23.70093172 1.5043185 44.91309882.839185 14.0816479-.4415473 28.4891782-2.4427467 30.911662-3.7904468 1.2047968-23.5848441 1.6219518-47.3845527-.7240378-70.76345099-3.1715564-1.60155695-18.1833202-4.03585878-33.1891815-4.048903-19.6588954-.017089-41.01603224 2.82209689-41.91154152 4.048903z" fill="#C9C9C9"/>
      <g>
        <path d="M204.65975406 356.60938122c-1.98793126 2.162586-4.208155 1.65613558-6.38766346 1.8849259-6.7870938.71162615-13.551287.1920494-20.31702685-.23265473-5.99334144-.37621858-12.0295273.2249871-18.00065896.0164706-5.97113167-.20851652-2.52821164-5.54954275.18595494-5.32505285 6.70371493.550791 21.08600055-.20194551 27.7901172.35054415 1.9335593.16017072 3.36939486.7897905 5.31225484.57800412 3.50256004-.38304776 7.36648913-.35424193 10.8092703.60488007.33056942.0924013.72313397 1.43288439.60775199 2.12288274z" fill="#B7B7B7"/>
        <path d="M154.20320638 270.08891948c-2.04111086 2.82220864-1.09979737 72.27247382 0 72.55947182.66099643.1724906 23.70093172.6875325 44.91309882.0162805 14.0816479-.4456091 28.4891782-.6345932 30.911662-1.9946908 1.2047968-23.801799 1.6219518-48.8204393-.7240378-72.41439807-3.1715564-1.61628954-18.1833202-2.24234127-33.1891815-2.2555055-19.6588954-.0172462-41.01603224 2.85075066-41.91154152 4.08884205z" fill="#C9C9C9"/>
      </g>
      <g>
        <path d="M395.9877899 241.7720806c-1.911247 2.2306464-4.1477931 1.8019892-6.3179892 2.1067039-6.7581239.9480588-13.5363295.6648655-20.3127699.476541C363.3542106 244.1885007 357.3426836 245 351.36791224 245c-5.97477134 0-2.72034777-5.4579288 0-5.3282987 6.71885356.3164992 21.06610776-.9377133 27.78542206-.6195305 1.9379713.0925929 3.3949055.6717192 5.3291908.392257 3.4870582-.505052 7.3496387-.6111129 10.8237956.2272735.3335928.0808083.7727004 1.4067745.6814692 2.1003793z" fill="#B7B7B7"/>
        <path d="M343.20320638 188.23038949c-2.04111086 1.53938383-1.09979737 40.42128021 0 40.57782431.66099643.0940856 23.70093172.3750171 44.91309882.0088802 14.0816479-.243059 28.4891782-.8915947 30.911662-1.6334648.6120455-6.5953452 1.0208233-13.2212142.9673405-19.8317317-.0517968-6.4021256-.5371685-12.7898523-1.6913783-19.12150801-3.1715564-.88161093-18.1833202-1.22309309-33.1891815-1.23027356-19.6588954-.009407-41.01603224.55495217-41.91154152 1.23027356z" fill="#C9C9C9"/>
        <path d="M301.9877899 241.7720806c-1.911247 2.2306464-4.1477931 1.8019892-6.3179892 2.1067039-6.7581239.9480588-13.5363295.6648655-20.3127699.476541C269.3542106 244.1885007 263.3426836 245 257.36791224 245c-5.97477134 0-2.72034777-5.4579288 0-5.3282987 6.71885356.3164992 21.06610776-.9377133 27.78542206-.6195305 1.9379713.0925929 3.3949055.6717192 5.3291908.392257 3.4870582-.505052 7.3496387-.6111129 10.8237956.2272735.3335928.0808083.7727004 1.4067745.6814692 2.1003793z" fill="#B7B7B7"/>
        <path d="M250.20320638 188.23219982c-2.04111086 1.5416488-1.09979737 40.48075398 0 40.63752838.66099643.094224 23.70093172.2780213 44.91309882-.0886543 14.0816479-.2434167 28.4891782-.7953589 30.911662-1.5383206 1.2047968-13.0018789 1.6219518-26.1222086-.7240378-39.01055348-3.1715564-.88290808-18.1833202-2.22489268-33.1891815-2.23208372-19.6588954-.00942084-41.01603224 1.5557687-41.91154152 2.23208372z" fill="#C9C9C9"/>
        <g>
          <path d="M205.6664125 241.7720806c-1.9112471 2.2306464-4.1477932 1.8019892-6.3179893 2.1067039-6.7581239.9480588-13.5363295.6648655-20.3127698.476541C173.0328331 244.1885007 167.0213061 245 161.04653477 245c-5.97477134 0-2.72034777-5.4579288 0-5.3282987 6.71885353.3164992 21.06610773-.9377133 27.78542203-.6195305 1.9379713.0925929 3.3949056.6717192 5.3291908.392257 3.4870582-.505052 7.3496388-.6111129 10.8237956.2272735.3335928.0808083.7727004 1.4067745.6814693 2.1003793z" fill="#B7B7B7"/>
          <path d="M155.20320638 189.23038949c-2.04111086 1.53938383-1.09979737 39.42128021 0 39.57782431.66099643.0940856 23.70093172.3750171 44.91309882.0088802 14.0816479-.243059 28.4891782-.8915947 30.911662-1.6334648 1.2047968-12.9827767 1.6219518-26.0838302-.7240378-38.95323971-3.1715564-.88161093-18.1833202-1.22309309-33.1891815-1.23027356-19.6588954-.009407-41.01603224 1.55495217-41.91154152 2.23027356z" fill="#C9C9C9"/>
        </g>
      </g>
      <g>
        <path d="M394.9877899 161.7720806c-1.911247 2.2306464-4.1477931 1.8019892-6.3179892 2.1067039-6.7581239.9480588-13.5363295.6648655-20.3127699.476541C362.3542106 164.1885007 356.3426836 165 350.36791224 165c-5.97477134 0-2.72034777-5.4579288 0-5.3282987 6.71885356.3164992 21.06610776-.9377133 27.78542206-.6195305 1.9379713.0925929 3.3949055.6717192 5.3291908.392257 3.4870582-.505052 7.3496387-.6111129 10.8237956.2272735.3335928.0808083.7727004 1.4067745.6814692 2.1003793z" fill="#B7B7B7"/>
        <path d="M342.20320638 108.23038949c-2.04111086 1.53938383-1.09979737 40.42128021 0 40.57782431.66099643.0940856 23.70093172.3750171 44.91309882.0088802 14.0816479-.243059 28.4891782-.8915947 30.911662-1.6334648.6120455-6.5953452 1.0208233-13.2212142.9673405-19.8317317-.0517968-6.4021256-.5371685-12.7898523-1.6913783-19.12150801-3.1715564-.88161093-18.1833202-1.22309309-33.1891815-1.23027356-19.6588954-.009407-41.01603224.55495217-41.91154152 1.23027356zM248.20320638 108.23219982c-2.04111086 1.5416488-1.09979737 40.48075398 0 40.63752838.66099643.094224 23.70093172.2780213 44.91309882-.0886543 14.0816479-.2434167 28.4891782-.7953589 30.911662-1.5383206 1.2047968-13.0018789 1.6219518-26.1222086-.7240378-39.01055348-3.1715564-.88290808-18.1833202-2.22489268-33.1891815-2.23208372-19.6588954-.00942084-41.01603224 1.5557687-41.91154152 2.23208372z" fill="#C9C9C9"/>
        <g>
          <path d="M204.6664125 162.7720806c-1.9112471 2.2306464-4.1477932 1.8019892-6.3179893 2.1067039-6.7581239.9480588-13.5363295.6648655-20.3127698.476541C172.0328331 165.1885007 166.0213061 166 160.04653477 166c-5.97477134 0-2.72034777-5.4579288 0-5.3282987 6.71885353.3164992 21.06610773-.9377133 27.78542203-.6195305 1.9379713.0925929 3.3949056.6717192 5.3291908.392257 3.4870582-.505052 7.3496388-.6111129 10.8237956.2272735.3335928.0808083.7727004 1.4067745.6814693 2.1003793z" fill="#B7B7B7"/>
          <path d="M154.20320638 110.23038949c-2.04111086 1.53938383-1.09979737 39.42128021 0 39.57782431.66099643.0940856 23.70093172.3750171 44.91309882.0088802 14.0816479-.243059 28.4891782-.8915947 30.911662-1.6334648 1.2047968-12.9827767 1.6219518-26.0838302-.7240378-38.95323971-3.1715564-.88161093-18.1833202-1.22309309-33.1891815-1.23027356-19.6588954-.009407-41.01603224 1.55495217-41.91154152 2.23027356z" fill="#C9C9C9"/>
        </g>
      </g>
      <g>
        <path d="M339.73698019 173.94332096c-15.40468529-12.1039485-38.53099053-19.85518273-61.46613528-18.42629145-22.78807 1.41945062-38.8847537 8.69084799-55.32400899 28.00334012-20.88190467 28.15990169-19.14913357 68.7671841-6.35487588 94.61754367 8.76361645 17.70387467 31.15897356 31.2654088 54.09794783 35.95052735 21.1233404 3.90874011 41.19817997-.08434958 56.4342821-9.09840903 16.2301254-8.56758619 32.8122797-24.40638018 38.61010905-56.9711233 5.42683533-30.77711253-8.45202246-61.54974726-25.99731883-74.07558736z" fill="#24152C"/>
        <path d="M322.69553837 178.99691c10.87837823 5.12007849 19.8371937 13.17128701 24.50133817 24.2721076 4.45530621 10.6029486 7.4205893 22.95043575 6.64503885 34.14849318-1.68166106 24.25490892-11.43108494 46.30721763-35.48760634 57.00759222-2.4759031 1.10120328-4.75957586 2.06121117-6.97401488 2.89432184-12.68792016 5.152885-27.06562024 6.475572-41.37048055 2.90896975-35.90392883-8.95185487-57.75290153-45.31465225-48.80104675-81.21858069 8.9518548-35.90392854 45.3146519-57.7529014 81.21858074-48.80104653 7.402422 1.84563109 14.20740446 4.85642757 20.26819076 8.78814262z" fill="#FFF"/>
        <path d="M324.70059387 219.9988526c3.45748488 6.29037728 4.9592469 13.32286871 3.31654472 20.32123761-1.56885856 6.68461457-4.46957876 13.68895884-8.77375049 18.82541312-9.32368319 11.12488199-21.77112839 18.35480787-37.14525201 15.0812056-1.5822805-.33695917-3.02216622-.67465929-4.38408183-1.04935363-7.9364379-1.96358196-15.3449505-6.37010423-21.00254978-13.1125685-14.2000719-16.9229867-11.99271334-42.15321048 4.9302732-56.35328226 16.9229864-14.20007164 42.1532102-11.99271308 56.3532821 4.93027362 2.92767194 3.48906356 5.15790793 7.33124525 6.7055341 11.35707444zM327.55268606 195.81847157c-1.55586783-2.83066923-2.23166087-5.9952906-1.49244495-9.14455674.70598633-3.00807647 2.01131009-6.1600319 3.94818716-8.47143641 4.19565804-5.00619649 9.79700863-8.25966276 16.71536409-6.78654218.71202594.1516316 1.35997436.3035964 1.9728365.47220907 3.57139707.8836122 6.90522763 2.86654679 9.45114737 5.90065579 6.39003262 7.61534433 5.3967212 18.96894495-2.21862274 25.35897725-7.61534395 6.3900323-18.96894459 5.39672102-25.3589772-2.2186233-1.31745235-1.57007857-2.32105815-3.29906-3.01749023-5.11068348z" fill="#5CA5A0"/>
      </g>
    </g>
  </g>
</svg>
