<svg xmlns="http://www.w3.org/2000/svg" width="574" height="488" viewBox="0 0 574 488" version="1"><title>gym-001</title><desc>Created with Sketch.</desc><g stroke="none" stroke-width="1" fill="none" fill-rule="evenodd"><rect fill="#2C9959" x="0" y="0" width="574" height="488"/><g transform="translate(94.000000, 346.000000)"><path d="M285 4C297 6 322 20 321 23 338 26 328 30 313 34 312 34 312 34 312 35 305 39 296 41 288 43 219 56 149 65 79 68 75 68 71 68 66 68 58 68 49 68 41 65 41 55 47 55 68 43 73 40 74 37 79 35 79 33 89 35 93 35 102 31 93 29 102 27 108 26 114 28 120 27 114 24 107 7 102 3 72 4 43 9 16 20 12 22 8 23 4 25 -4 38 4 55 18 64 32 74 50 77 68 79 95 82 123 84 151 84 221 84 290 73 355 53 369 48 385 39 380 27 376 19 366 16 356 14 335 9 313 4 291 0 289 1 287 2 285 4Z" fill="#1A6839"/><path d="M61 31C55 33 50 35 44 38 23 50 38 58 37 68 46 70 55 71 64 71 68 71 73 71 77 71 150 68 223 59 294 45 303 44 311 42 319 37 319 37 319 37 320 36 305 40 285 43 278 43 260 44 212 47 167 47 149 47 132 47 118 45 111 45 61 43 61 31 61 31 61 31 61 31M117 16C111 16 105 18 99 19 89 21 79 24 69 28 82 26 105 25 112 24 114 24 117 24 120 24 123 24 126 24 129 24 132 24 135 24 137 24 137 24 138 24 138 24 138 24 138 24 139 24 132 22 125 19 118 16 118 16 118 16 117 16M291 6C279 13 265 19 251 23 258 23 266 23 272 23 297 23 317 23 323 24 325 24 327 25 329 25 330 22 330 19 329 16 317 11 304 8 291 6" fill="#185B32"/><path d="M281 22C274 22 266 22 259 22 239 29 217 33 196 33 178 33 159 30 142 24 141 24 141 24 140 24 140 24 140 24 140 24 137 24 134 24 131 24 128 23 124 23 121 23 118 23 115 23 113 24 106 25 75 23 67 26 63 28 62 29 62 29 62 29 60 31 60 31 60 44 104 47 117 48 118 48 119 48 120 48 135 49 152 50 170 50 218 50 269 47 287 45 295 45 315 42 331 38 335 34 338 30 340 24 338 24 336 24 334 23 327 22 307 22 281 22" fill="#164C2A"/></g><g transform="translate(121.000000, 59.000000)"><path d="M162 1C98 1 41 40 22 79 3 115-5 164 6 209 17 255 38 284 83 310 147 342 229 325 277 290 309 266 329 216 330 168 331 125 315 86 292 58 268 29 230 1 162 1" fill="#0E2214"/><path d="M143 19C100 25 57 55 37 91 17 127 18 145 19 189 30 264 76 291 96 299 150 321 214 320 262 280 291 256 312 230 316 172 316 134 304 103 287 79 254 32 199 10 143 19" fill="#DCDBDB"/><path d="M160 15L160 29 165 29 165 15 160 15" fill="#0E2214"/><path d="M318 165L301 165 301 170 318 170 318 165" fill="#0E2214"/><path d="M165 316L165 300 160 300 160 316 165 316" fill="#0E2214"/><path d="M15 170L34 170 34 165 15 165 15 170" fill="#0E2214"/><path d="M85 71C81 77 78 76 77 83 75 91 70 99 67 107 61 124 67 144 79 159 91 174 108 184 125 193 135 197 144 202 155 203 161 204 168 204 174 204 177 204 180 204 183 204 195 205 206 206 217 209 228 213 239 217 250 216 263 215 275 208 288 210 291 210 292 211 294 214 297 217 289 232 287 236 272 260 250 285 219 294 210 296 201 299 192 301 174 303 155 303 137 301 118 299 100 294 86 283 76 275 68 266 62 257 46 235 33 209 31 183 31 175 31 167 32 159 33 140 34 121 42 104 47 93 54 84 61 74 65 69 69 67 74 62 81 56 91 49 100 45 114 39 129 33 144 34 126 39 115 49 98 58 94 60 87 68 85 71" fill="#C9C9C9"/><path d="M119 52C168 29 254 56 271 95 291 141 298 193 258 241 292 199 266 125 249 96 212 35 147 52 100 61L119 52" fill="#FFFFFF"/><path d="M157 69C158 80 158 90 158 101 158 104 158 107 158 111 158 117 158 122 158 128 158 142 158 156 161 170L167 169C164 156 164 142 164 128 164 123 164 117 164 111 164 107 164 104 164 101 163 90 163 80 163 69L157 69" fill="#0E2214"/><path d="M113 163C103 163 92 163 82 163 84 165 86 167 88 169 96 169 105 169 113 169 128 169 142 169 157 169 158 169 159 168 159 167 159 166 158 165 157 164 142 163 128 163 113 163" fill="#B3B6B3"/><path d="M82 163C75 163 67 164 60 164L60 169C69 169 79 169 88 169 86 167 84 165 82 163" fill="#A4A8A5"/><path d="M172 164C170 165 169 166 167 168 168 168 169 169 170 169 201 170 233 171 265 172L265 167C234 165 203 164 172 164" fill="#B3B6B3"/><path d="M227 99C208 121 187 142 165 162 166 162 166 163 166 164 168 164 170 164 172 164 193 144 213 124 231 102L227 99" fill="#B3B6B3"/><path d="M165 162C165 162 164 163 164 163 164 163 164 164 164 164 165 164 165 164 166 164 166 163 166 162 165 162" fill="#0E2214"/><path d="M166 164C166 165 166 166 166 167 167 167 167 168 167 168 169 166 170 165 172 164 170 164 168 164 166 164" fill="#929893"/><path d="M164 164C165 165 165 166 166 167 166 167 166 167 166 167 166 166 166 165 166 164 165 164 165 164 164 164" fill="#0E2214"/><path d="M157 169C151 174 146 180 140 185 136 188 132 191 129 195 131 195 132 196 134 197 137 194 140 192 143 189 149 184 155 179 161 173L161 170C161 170 161 170 161 169 160 169 158 169 157 169" fill="#B3B6B3"/><path d="M129 195C114 208 100 221 87 236L91 240C104 224 119 211 134 197 132 196 131 195 129 195" fill="#A4A8A5"/><path d="M159 167C159 168 158 169 157 169 158 169 160 169 161 169 160 169 160 168 159 167" fill="#929893"/><path d="M95 99C107 113 119 125 132 137 138 142 143 148 149 153 154 158 158 164 161 171L166 168C163 161 158 155 153 149 147 143 142 138 136 133 123 121 111 109 100 96L95 99" fill="#0E2214"/><path d="M166 169C166 169 166 169 165 169L167 169 167 174C174 179 180 185 186 192 190 196 193 201 197 205 200 206 202 206 205 207 205 207 205 207 205 207 200 201 196 194 190 188 184 181 177 175 170 169 168 169 167 169 166 169" fill="#B3B6B3"/><path d="M197 205C198 207 199 208 200 210 211 223 223 234 236 244L239 239C226 230 215 219 205 207 202 206 200 206 197 205" fill="#A4A8A5"/><path d="M167 168C167 168 167 168 167 168 167 169 167 169 167 169L166 169C166 169 166 169 166 169 167 169 168 169 170 169 169 169 168 168 167 168" fill="#929893"/><path d="M167 168C166 169 166 169 166 169L167 169C167 169 167 169 167 168" fill="#0E2214"/><path d="M164 169L164 169 164 169 165 169C166 169 166 169 166 169 165 169 165 169 164 169" fill="#929893"/><path d="M164 169L164 169 164 169C164 169 164 169 164 169" fill="#0E2214"/><path d="M166 169L164 169C165 169 165 169 166 169 166 169 166 169 166 169M166 167C166 168 166 168 167 168 167 168 167 168 167 168 167 168 167 167 166 167" fill="#78807A"/><path d="M166 167C166 167 166 168 166 168L164 169C164 169 164 169 164 169L166 169C166 169 166 169 167 168 166 168 166 168 166 167 166 167 166 167 166 167" fill="#0E2214"/><path d="M164 166L162 169 164 169 164 169 166 168C166 168 166 167 166 167 165 167 165 166 164 166" fill="#0E2214"/><path d="M163 172C162 172 162 173 161 173L161 204C163 204 165 204 167 204L167 174C165 173 164 173 163 172" fill="#B3B6B3"/><path d="M161 204L161 263 167 263 167 204C165 204 163 204 161 204" fill="#A4A8A5"/><path d="M161 170L161 173C162 173 162 172 163 172 162 171 162 171 161 171L161 171 161 171C161 170 161 170 161 170" fill="#929893"/><path d="M162 169L161 169 161 170C161 170 161 170 161 171L161 171 162 169" fill="#0E2214"/><path d="M167 169L165 169C165 170 164 171 163 172 164 173 165 173 167 174L167 169" fill="#929893"/><path d="M165 169L164 169 161 171 161 171C162 171 162 171 163 172 164 171 165 170 165 169" fill="#78807A"/><path d="M164 169L162 169 161 171 164 169" fill="#0E2214"/></g></g></svg>