<svg xmlns="http://www.w3.org/2000/svg" width="574" height="488" viewBox="0 0 574 488" version="1.1"><title>gym-007</title><desc>Created with Sketch.</desc><g stroke="none" stroke-width="1" fill="none" fill-rule="evenodd"><rect fill="#D73158" x="0" y="0" width="574" height="488"/><g transform="translate(129.000000, 310.000000)"><path d="M5 55C-28 100 116.3 121 171.7 121 247.5 121 324 61.7 324 33 324 4.4 247.5 17.2 171.7 17.2 96 17.2 38 10 5 55Z" fill="#951C27"/><path d="M208.2 108C275.8 71 324 64.7 324 35.1 324 29.3 236.1 0 177 0 103.5 0 6 28.2 6 57.8 6 87.4 140.6 145 208.2 108Z" fill="#881A25"/><path d="M60 80C60 80 91.1 89.5 120.1 95.8 131.2 98.2 142.8 99.3 153.5 98 160.2 97.2 166.2 96.3 171.6 95.3 202.8 89.7 215.3 82 240 75 279.4 63.9 303.5 44.3 291 36 288 34 271.1 12 210 12 148.9 12 16 12 21 53 22.3 63.3 60 80 60 80Z" fill="#6E1620"/></g><g transform="translate(135.000000, 61.000000)"><path d="M28.2 300.5C28.2 300.5 28 298.8 27.7 296.6 27.7 296.6 16 197.9 9.9 117.2 8.6 99.3 1 8.6 1 8.6 0.8 6.4 2.5 4.5 4.7 4.4 4.7 4.4 32.3 2.7 67 1.6 100.4 0.6 141 0.5 145.2 0.4 193.8-0.5 194.9 0.4 239.1 0.4 249.1 0.4 276.7 0.4 292.8 1.6 300.3 2.2 301.3 3.2 301.3 3.2 303.3 4 304.8 6.4 304.6 8.6L272.9 296.6C272.7 298.8 270.7 301.1 268.6 301.7 268.6 301.7 253.3 306.2 234.2 311.4 212.2 317.4 155.7 334 155.7 334 155.7 334 108.8 324.1 83 317.4" fill="#3C1218"/><path d="M42.7 287.4C42.7 287.4 42.5 285.6 42.3 283.4 42.3 283.4 37.2 235.1 33 182 30.6 151.9 26 130.4 24 104 22.9 89.2 18.3 24 18.3 24 18.1 21.8 17.3 19.5 19.5 19.1 19.5 19.1 4 18.9 73 16 83.4 15.6 139.5 16.2 147.3 16 190.7 15.2 215.6 16 255 16 268.1 16 285 17.7 285 17.7 287.2 17.9 288.8 19.8 288.5 22L281.4 73.8C281.4 73.8 266.8 190 263.4 221.4 259.2 260.1 259.3 283.4 259.3 283.4 259.3 285.6 257.5 288 255.4 288.6 255.4 288.6 243.9 292.5 226.8 297.2 207.2 302.6 156.7 317.7 156.7 317.7 156.7 317.7 114.8 308.7 91.7 302.6" fill="#B7B7B7"/><path d="M150.8 300.7C150.8 300.7 190.3 293 208.1 287.5 219.9 283.9 239.8 273.5 239.8 273.5 239.8 273.5 248.7 223.1 255 172 255.2 170.4 254.8 148 255 145.9 259.1 110.8 269.2 36 269.2 36 269.4 34.9 268.6 34 267.5 34 267.5 34 246 34 199 32 152 30 135 34 135 34" fill="#C9C9C9"/><g transform="translate(55.000000, 53.000000)"><g transform="translate(5.000000, 90.000000)"><path d="M175.8 60.7C182.9 56.1 179.4 28.2 179.4 28.2 179.2 26 177.5 23.3 175.5 22.3 175.5 22.3 173.3 20.1 165 20 126.4 19.7 75.3 19 10 22.3 7.7 22.4 4.4 23.3 4.4 23.3 2.3 23.8 0.5 26 0.5 28.3 0.5 28.3-0.9 65 10.1 65.6 10.3 65.6 11.7 65.5 13.3 65.3 15.6 65.2 18.4 65 19 65.2 20.5 65.8-0.5 66.4 25 65.6 44.1 65 66.5 64.7 85.6 65.5 110.5 66.5 135.2 65.7 156.9 65.4 163.8 65.3 172.1 63 175.8 60.7Z" fill="#FFFFFF"/><path d="M53.1 1C32.4 1 2.5 1.9 2.5 1.9 1.3 2 0.5 2.9 0.5 4L0.5 9C0.5 10.1 1.4 10.9 2.4 10.9 2.4 10.9 25.2 9.5 38.9 8.9 54.4 8.2 83.5 8.8 83.5 8.8 85.7 8.9 87.9 7.2 88.4 5L88.7 3.9C89.2 1.7 87.9 0.1 85.7 0.2 85.7 0.2 73.9 1 53.1 1Z" fill="#3C1218"/></g><path d="M188.8 63C192.6 60.6 193.9 55 193.9 41 193.9 27 192.3 26 192.3 26 191.5 23.9 189 22.1 186.8 22 186.8 22 168.5 20.5 160 20.4 120.3 20.1 79.5 19 12.4 22.3 10 22.4 5.3 23.5 5.3 23.5 3.1 23.9 1.2 26.1 1 28.3 1 28.3-3.3 64.8 8 65.4 8.2 65.4 1.6 66.4 27.7 65.6 47.4 65 70.4 64.7 90 65.5 115.6 66.5 141 65.7 163.2 65.4 170.4 65.3 185 65.3 188.8 63Z" fill="#FFFFFF"/><path d="M57.6 0C36.6 0 3.3 1.9 3.3 1.9 2.2 2 1.4 2.9 1.5 4 1.5 4 1.4 7.8 3.3 11 17.4 10.2 29.2 9.5 43.1 8.9 58.9 8.2 88.4 8.8 88.4 8.8 90.6 8.9 92.8 7.2 93.4 5L93.7 3.9C94.2 1.7 92.9 0 90.6 0 90.6 0 78.6 0 57.6 0Z" fill="#3C1218"/></g><path d="M116.1 264.4C114.5 266 114.6 268.5 116.3 269.9L151.2 299.7C152 300.4 153.3 300.3 154 299.5L198.1 248.1C199.5 246.4 199.3 243.9 197.7 242.4L190.2 235.9C188.5 234.5 186 234.6 184.6 236.3L152 273.6C151.3 274.5 150.1 274.6 149.2 273.8L136.8 263 129.4 256.3C127.8 254.8 125.2 254.9 123.7 256.5L116.1 264.4Z" fill="#711D2A"/></g></g></svg>