<svg xmlns="http://www.w3.org/2000/svg" width="574" height="488" viewBox="0 0 574 488">
  <title>
    gym-104
  </title>
  <g fill="none" fill-rule="evenodd">
    <path fill="#764C9F" d="M0 0h574v488H0z"/>
    <path fill="#403247" d="M475.5 376.222c2.593 1.54 5.025 3.298 7.25 5.316 3.767 3.416 6.463 7.828 7.957 12.52l.684.173c-.006.622-.048 1.228-.124 1.82 2.544 10.485-.84 21.846-11.548 26.426l-35.25 6.09c15.156-.445 30.116-2.423 44.78-6.966 11.77-3.646 24.81-11.543 24.33-23.37-.587-14.5-19.735-20.113-34.817-21.673-1.082-.11-2.177-.223-3.26-.335m-276.42-14.075c-25.632 0-51.255.362-76.877 1.087-14.196.403-29.1 1.11-41.225 8.188-12.126 7.076-19.996 22.76-13.19 34.687 6.563 11.51 22.374 14.046 36.023 15.284 32.39 2.937 64.944 5.875 97.425 5.875 5.007 0 10.01-.07 15.01-.22-14.693-4.013-29.507-7.288-44.85-7.862-12.115-.45-24.625.765-36.075-2.765-3.846-1.185-7.532-3.157-10.607-5.645-59.067-5.73-54.465-13.68-54.465-13.68s25.108-21.76 50.358-21.76c2.344 0 4.685.186 7.01.595 4.345-1.12 14.717-1.774 29.067-2.08 29.693-5.08 59.688-8.86 89.807-11.293-15.8-.275-31.608-.413-47.41-.413" opacity=".8"/>
    <path fill="#44374A" d="M327.2 359.293c-26.937 0-53.872 1.1-80.71 3.267 76.502 1.334 152.933 5.89 229.01 13.662-12.09-7.166-27.7-9.536-42.446-11.162-35.107-3.87-70.48-5.767-105.853-5.767" opacity=".8"/>
    <path fill="#3A2C42" d="M246.49 362.56c-30.12 2.434-60.114 6.214-89.807 11.293 6.924-.15 14.78-.216 23.337-.218 82.81 0 231.39 6.33 239.87 7.02 1.678.137 3.654.173 5.796.173 1.213 0 2.48-.012 3.776-.023 1.292-.01 2.612-.023 3.938-.023 5.837 0 11.782.222 15.815 1.638 9.938 3.49 36.863 10.448 41.492 11.637-1.494-4.69-4.19-9.103-7.956-12.52-2.225-2.017-4.657-3.776-7.25-5.315-76.077-7.772-152.508-12.328-229.01-13.662"/>
    <path fill="#44374A" d="M313.99 418.916c-2.844 0-5.688.047-8.525.147-21.178.742-42.107 4.466-63.2 6.42-8.664.802-17.337 1.305-26.02 1.566 18.48 5.044 36.768 11.256 55.672 14.73 13.91 2.557 27.97 3.607 42.09 3.607 32.42 0 65.155-5.534 97.18-11.07 11.093-1.915 22.187-3.832 33.28-5.75-2.328.07-4.66.1-6.998.1-20.267 0-40.853-2.437-61.513-4.875-20.664-2.438-41.398-4.876-61.968-4.876" opacity=".8"/>
    <path fill="#3A2C42" d="M491.266 396.05c-2.432 18.957-39.818 23.318-75.004 23.318-14.987 0-29.574-.79-40.893-1.582-11.323-.79-19.376-1.58-21.284-1.583l-.064.002c-20.267.224-39.093.328-56.573.328-85.947 0-139.45-2.525-172.737-5.755 3.075 2.488 6.76 4.46 10.607 5.645 11.45 3.53 23.96 2.315 36.075 2.765 15.343.574 30.157 3.85 44.85 7.86 8.683-.26 17.356-.763 26.02-1.566 21.093-1.953 42.022-5.677 63.2-6.42 2.837-.1 5.68-.146 8.524-.146 20.57 0 41.303 2.438 61.967 4.876 20.66 2.438 41.246 4.876 61.512 4.876 2.337 0 4.67-.032 6.997-.1 11.75-2.032 23.5-4.06 35.25-6.092 10.708-4.58 14.093-15.94 11.55-26.426" opacity=".85"/>
    <path fill="#322339" d="M490.707 394.057c.21.66.396 1.323.56 1.993.075-.592.117-1.198.124-1.82l-.683-.173m-334.024-20.204c-14.35.306-24.722.96-29.067 2.08-2.325-.41-4.666-.596-7.01-.596-25.25 0-50.358 21.76-50.358 21.76s-4.602 7.95 54.465 13.68c-6.083-4.92-9.767-11.857-7.517-18.698 3.39-10.298 17.232-14.243 29.106-16.397 3.457-.628 6.914-1.238 10.38-1.83" opacity=".85"/>
    <path fill="#2F2037" d="M180.02 373.635c-8.557.002-16.413.068-23.337.218-3.467.592-6.924 1.202-10.38 1.83-11.875 2.154-25.716 6.1-29.107 16.396-2.25 6.84 1.434 13.777 7.517 18.698 33.287 3.23 86.79 5.755 172.736 5.755 17.48 0 36.305-.104 56.572-.328l.064-.002c1.908.002 9.96.792 21.283 1.583 11.318.79 25.905 1.582 40.892 1.582 35.186 0 72.572-4.36 75.004-23.318-.163-.67-.348-1.333-.56-1.993-4.628-1.19-31.553-8.147-41.49-11.637-4.034-1.416-9.98-1.638-15.816-1.638-1.326 0-2.646.012-3.938.023-1.296.01-2.563.023-3.776.023-2.142 0-4.118-.036-5.795-.173-8.48-.69-157.06-7.02-239.87-7.02"/>
    <path fill="#24152C" d="M114.167 63.37c.913 62.647.68 125.312-.7 187.95-1.005 45.64-1.59 99.466-.96 145.112 100.934-.263 199.416 1.927 300.35 1.662 10.933-.026 21.036.477 31.966.35 1.065-71.964-1.97-130.713.603-196.077 1.817-46.22-2.29-94.228-2.292-140.486-43.03-2.062-86.2-1.225-129.116 2.507-17.654 1.534-115.01-2.994-123.543-1.885-25.167 3.277-51.016 2.962-76.308.867"/>
    <path fill="#C9C9C9" d="M130.177 78.48c-.928 111.457-.375 215.755.83 302.414 99.858-1.213 198.276 4.196 298.133 2.983.466-34.825 2.48-56.042 2.006-78.075-1.43-66.454-.413-132.91-1.845-199.365-.204-9.424 1.594-20.43.262-29.757-99.984-.31-199.4 2.108-299.385 1.8"/>
    <path fill="#E2E2E2" d="M426.613 319.666c-.413 10.98-.862 22.137-4.626 32.56-3.765 10.423-11.38 20.2-22.413 24.37-7.973 3.017-16.885 2.86-25.502 2.66-58.677-1.37-117.352-2.738-176.027-4.11-6.113-.14-12.706-.44-17.483-3.955-6.788-4.998-7.148-14.224-6.926-22.23.294-10.574 3.72-16.803 2.05-27.27-3.812-23.915 2.873-49.115 18.226-68.713 5.96-7.604 13.334-14.715 15.93-23.792 2.733-9.58-.298-20.1 3.265-29.45 2.812-7.362 9.3-12.93 15.56-18.187 15.47-12.995 30.984-26.02 47.916-37.363 14.68-9.843 26.864-30.332 44.126-33.303 27.03-4.65 58.988-1.036 86.536-1.522 5.282-.093 11.14.01 15.006 3.327 4.96 4.265 4.21 11.55 3.207 17.733-9.814 60.442 1.153 189.246 1.153 189.246"/>
    <path fill="#24152C" d="M219.304 318.384c10.27 9.906 23.252 27.096 37.8 16.262 21.782-9.402 7.752-75.21 9.997-119.156 14.082-.017 15.69-.032 29.768-.05 1.474 32.9.458 65.8 1.936 98.7.667 14.85 1.387 24.123-9.777 40.69-8.968 13.306-22.926 15.032-36.49 14.34-26.466-1.34-35.154-3.364-53.814-26.544-3.684-4.575 18.762-25.995 20.58-24.242zM385.387 252.664c6.86-5.222 14.572-9.318 22.74-12.082-.18-2.584-24.316-32.578-61.04-21.773-15.582 4.58-25.554 20.756-26.263 36.97-1.496 34.363 42.69 43.71 47.057 46.324 5.228 3.132 10.572 6.365 14.374 11.126 3.8 4.762 5.793 11.448 3.43 17.06-1.638 3.886-5.11 6.743-8.862 8.677-16.365 8.452-31.397-2.177-44.686-18.77-7.464 5.446-14.924 10.892-22.388 16.336-1.75 2.587 8.95 10.69 11.19 12.866 20.014 19.488 32.998 21.102 55.15 17.57 15.083-2.406 31.227-12.493 37.952-26.197 4.336-8.843 3.31-21.904-.142-31.13-5.38-14.37-15.652-24.533-29.488-31.19-7.777-3.74-19.715-6.32-26.94-11.045-19.666-12.866-5.182-26.06-2.956-27.67 8.718-6.32 26.61.697 30.873 12.926"/>
    <path fill="#FFF" d="M203.565 103.62c-7.954-4.28-18.04-.206-26.614-3-4.566-1.487-8.65-4.904-13.447-4.838-6.344.09-11.043 6.413-12.272 12.688-1.23 6.275-.058 12.754-.272 19.143-.555 16.496-10.292 32.625-6.437 48.665 1.695.045 3.392.095 5.086.14 1.462-12.23 7.786-23.8 17.256-31.588 7.51-6.17 16.776-9.964 23.924-16.55 6.933-6.386 11.54-15.278 12.78-24.66"/>
  </g>
</svg>
