<svg width="574" height="488" viewBox="0 0 574 488" xmlns="http://www.w3.org/2000/svg" xmlns:xlink="http://www.w3.org/1999/xlink">
  <title>(GYM 005) Introducing Sketch for UX and UI</title>
  <desc>Learn how to use Sketch tools and features in order to build an interactive prototype for a mobile website.</desc>
  <g fill="none" fill-rule="evenodd">
    <path fill="#5CA5A0" d="M0 0h574v488H0z"/>
    <path fill="#315A5B" d="M430 391c-9 16-32 25-39 26-38 3-75 7-113 10-16 2-32 3-49 4-9 1-19 2-29 2-6 0-13 0-20-1-15-3-30-10-39-21-6-15 2-33 18-41 7-3 14-4 22-6 19-3 32-11 62-11 29 0 59-4 59-4 12 1 34 2 52 0 37-4 70 6 70 6 12 6 12 25 6 36z"/>
    <path fill="#274444" d="M369 364h5c3 0 7-1 9 1 6 3 22 9 22 9 4 28-37 27-54 26-4-1-6-1-7-1-138 15-136-6-136-6s10-25 24-21c11-8 132-8 137-8"/>
    <path fill="#2E5354" d="M381 355h-9c-9 1-16 4-25 6 7 1 13 1 19 1h22c6 0 12 0 18 2 3 0 5 1 8 2 0-1 0-2-1-3-9-5-21-8-32-8"/>
    <path fill="#2C4F4F" d="M370 364h8c2 0 4 0 5 1 6 3 22 9 22 9 4 22-23 26-42 26h-12c-3 0-6-1-7-1-36 4-63 6-82 6-55 0-54-12-54-12s9-22 21-22c1 0 2 0 3 1 10-7 97-8 127-8h11m-23-3h-1c-11 2-22 2-33 2h-76c-16 0-33 1-46 8-5 2-8 5-12 8-10 8-38 5-25 29 12 6 24 12 38 14 4 1 8 1 12 1h14c41-3 82-6 123-8 17-1 35-3 51-11 14-7 25-23 22-38-3-1-5-2-8-2-6-2-12-2-18-2h-22c-6 0-12 0-19-1"/>
    <path fill="#274444" d="M378 364h-8-1-10c-30 0-117 1-127 8-1-1-2-1-3-1-12 0-21 22-21 22s-1 12 54 12c19 0 46-2 82-6 1 0 4 1 7 1h12c19 0 46-4 42-26 0 0-16-6-22-9-1-1-3-1-5-1"/>
    <g>
      <path fill="#1F2935" d="M235 63c29-1 81-1 111-2 6 0 3 0 10 2 5 1 31 15 63 33 7 4 39 46 42 52s-4 13-8 19c-50 78-108 146-163 218-78-80-96-122-151-191-5-6-28-37-28-37 16-17 49-62 54-65 40-18 54-31 70-29"/>
      <path fill="#B7B7B7" d="M130 159c12 17 36 48 49 65 36 49 70 96 110 141 65-77 94-120 159-213-21-29-31-43-49-53-19-10-42-18-51-22-61 2-61 2-107 3-9 0-39 19-53 20 0 0-18 23-21 27-11 11-26 20-37 32"/>
      <path fill="#DCDBDB" d="M394 104c6-6-31-28-56-28-13-1-27-2-40-2-10 0-47 1-57 2-24 4-15 3-61 24 8 7 34 20 43 27 32-1 52 0 84-1 25-1 45 5 68-4 3-1 17-16 19-18"/>
      <path fill="#FFF" d="M338 209c17 0 34 0 50-5-1-25-10-39-23-61-2-2-8-14-10-16-4-3-9-3-14-4-37-1-74-2-110-1-13 29-22 53-35 81 49 1 93 5 142 6"/>
      <path fill="#DCDBDB" d="M200 205c-2 5 10 16 13 22 18 32 36 65 54 98 7 14 13 26 23 38 10-26 28-47 43-71 20-30 35-56 55-87-61-2-119-4-188 0"/>
      <path fill="#C9C9C9" d="M176 103c-10 10-40 48-45 55 21 19 42 30 64 46 12-24 22-49 32-75-15-9-29-18-44-27-1-1-2-2-3-2-2 0-3 2-4 3M429 166l16-16c0-1 1 1 1 0s-27-34-39-44c-3-3-4-5-8-7-6-1-3 3-8 6-11 5-16 11-40 21 8 24 18 53 31 74 1 2 3 5 6 5 2 0 4-2 5-3 12-13 24-23 36-36"/>
      <path fill="#FFF" d="M251 85c-15-1-31 1-44 8-1 1-2 2-3 4 7 0 13 5 20 6 3 1 7 0 11 0 28-4 102-10 105-11 0-4-22-11-28-9-19 4-41 5-61 2"/>
      <path fill="#DCDBDB" d="M386 176c1 2 1 4 1 7 8 0 15-5 21-9 9-6 18-14 17-23-7 13-46-5-50-5-4 11 1 23 11 30"/>
    </g>
  </g>
</svg>
