<svg xmlns="http://www.w3.org/2000/svg" width="574" height="488" viewBox="0 0 574 488" version="1"><title>gym-100</title><desc>Created with Sketch.</desc><g stroke="none" stroke-width="1" fill="none" fill-rule="evenodd"><rect fill="#D73158" x="0" y="0" width="574" height="488"/><path d="M58 384C58 385 58 385 58 385 110 407 166 415 222 415 235 415 248 415 262 414 310 411 357 402 404 392 397 392 390 392 383 392 287 392 170 388 84 387 75 387 66 386 58 384M358 331L354 331C285 331 216 331 147 331 137 331 127 331 117 332 127 334 137 336 147 338 167 342 188 345 209 347 248 346 304 346 349 346 383 346 410 346 419 347 432 349 443 350 451 351 463 351 475 351 487 351 494 351 501 351 508 351 481 341 452 335 423 333 401 331 380 331 358 331" fill="#951C27"/><path d="M472 346C474 347 475 348 477 349 479 349 482 349 484 349 488 349 492 349 495 349 517 349 523 353 523 353 523 353 523 361 485 363 480 371 469 376 459 379 439 383 419 388 398 392 466 392 520 389 542 380 544 369 534 358 523 352 511 347 498 347 485 346 481 346 476 346 472 346M91 326C90 326 89 326 89 326 70 326 50 333 40 347 36 353 34 360 36 367 39 377 48 382 59 385 57 376 59 368 63 360 61 358 60 356 60 354 60 352 64 350 70 349 75 344 80 340 86 337 96 332 106 330 117 328 108 327 100 326 91 326" fill="#951C27"/><path d="M62 359C58 367 56 376 58 384 67 386 76 387 84 387 170 388 287 392 383 392 390 392 397 392 404 392 424 388 445 383 465 379 475 376 487 371 491 363 484 363 476 364 466 364 465 364 464 364 463 364 442 364 336 370 316 372 293 373 242 378 191 378 171 378 151 377 133 375 125 374 74 372 62 359M459 346C448 346 437 346 426 346 439 348 448 348 456 348 458 348 460 348 461 348 463 348 464 348 466 348 471 348 477 348 484 349 482 348 480 347 479 346 472 346 466 346 459 346M117 328C106 329 96 331 86 336 80 339 74 343 70 348 86 345 116 344 125 343 128 343 131 343 135 343 139 343 143 343 147 343 151 343 155 343 158 343 158 343 158 343 158 343 162 343 179 343 202 342 183 340 164 337 145 333 136 331 126 329 117 328" fill="#881A25"/><path d="M332 341C291 341 239 342 202 342 241 346 281 347 320 347 344 347 367 347 390 347 403 346 415 346 427 346 419 345 409 344 397 342 389 341 364 341 332 341" fill="#751721"/><path d="M476 348C479 350 482 351 485 353 486 357 486 361 484 364 523 362 523 353 523 353 523 353 517 349 495 349 492 349 488 349 484 349 481 349 479 349 476 348M67 348C62 350 58 351 58 353 58 356 58 357 60 359 62 355 64 352 67 348" fill="#751721"/><path d="M200 341C176 341 159 342 156 342 156 342 155 342 155 342 152 342 148 342 144 341 140 341 136 341 132 341 129 341 125 341 122 342 113 343 83 343 67 347 64 351 61 355 59 359 71 374 123 377 130 377 149 379 169 380 189 380 240 380 291 375 313 373 334 372 440 365 461 365 462 365 463 365 464 365 474 365 482 364 490 364 491 360 492 357 491 352 488 351 485 349 482 348 475 347 470 347 464 347 462 347 461 347 459 347 458 347 456 347 455 347 447 347 437 347 424 345 412 346 400 346 388 346 364 347 341 347 318 347 278 347 239 346 200 341" fill="#6E161F"/><path d="M205 73C284 73 347 76 425 75 433 75 449 76 456 80 470 85 467 107 468 126 470 209 469 252 469 318 345 322 237 321 115 323 114 247 111 223 111 142 111 128 111 105 113 91 114 83 121 78 129 77 168 72 182 73 205 73" fill="#3C1218"/><path d="M209 94C193 94 175 93 130 96 132 169 133 251 132 323 171 326 185 325 212 324 268 323 325 326 382 324 402 324 445 325 454 321 456 312 453 266 453 261 453 210 453 183 453 132 453 123 453 109 452 96 429 93 407 93 394 93 327 93 277 92 209 94" fill="#C9C9C9"/><path d="M283 348C320 349 380 345 417 346 426 346 465 347 479 344 492 342 506 338 506 316 495 316 429 320 412 320 381 321 331 317 300 317 214 319 146 321 60 320 57 331 67 340 80 343 92 347 113 346 126 346 167 347 275 348 283 348" fill="#3C1218"/><path d="M447 115C436 96 408 95 385 97 338 101 290 106 249 128 199 154 166 202 141 250 136 258 132 267 134 276 138 292 160 300 162 315 259 304 363 324 454 289 453 240 453 192 453 143 453 133 453 123 447 115" fill="#E2E2E2"/><path d="M151 197C152 185 154 173 157 162 159 149 160 134 171 127 180 120 195 120 206 119 215 118 236 113 251 111 252 111 252 110 251 110 202 104 151 111 151 111 143 109 148 130 149 140 149 158 148 175 148 193 148 195 149 198 151 197" fill="#FFFFFF"/><path d="M216 186L216 185C216 184 216 183 217 182L278 146C280 145 282 146 282 149L282 163C282 164 282 166 281 166L248 185 281 204C282 204 282 205 282 206L282 221C282 224 280 225 278 224L217 189C216 188 216 187 216 186" fill="#3C1218"/><path d="M293 227L304 216C305 215 306 215 308 216 308 216 318 224 327 224 334 224 342 218 342 210 342 203 334 196 321 196L312 196C310 196 308 195 308 193L308 179C308 177 310 176 312 176L321 176C333 176 340 170 340 162 340 155 333 149 326 149 318 149 313 153 311 156 310 158 308 158 306 156L296 146C294 145 295 143 296 142 296 142 310 127 329 127 349 127 366 139 366 158 366 171 356 181 348 185L348 185C356 189 369 199 369 214 369 233 353 247 329 247 307 247 296 236 292 232 291 230 292 228 293 227" fill="#3C1218"/><path d="M234 267C238 267 241 268 244 271 245 271 245 272 244 272L241 276C241 276 240 276 240 276 238 274 236 273 234 273 229 273 225 277 225 282 225 287 229 291 234 291 236 291 238 291 240 289 240 289 241 289 241 289L245 293C245 293 245 294 244 294 241 297 238 298 234 298 225 298 217 291 217 283 217 274 225 267 234 267" fill="#3C1218"/><path d="M263 267C272 267 279 274 279 283 279 291 272 298 263 298 254 298 247 291 247 283 247 274 254 267 263 267L263 267ZM263 291C268 291 272 287 272 283 272 278 268 274 263 274 258 274 254 278 254 283 254 287 258 291 263 291L263 291Z" fill="#3C1218"/><path d="M284 267C284 267 285 267 285 267L296 267C305 267 312 274 312 282 312 291 305 298 296 298L285 298C285 298 284 298 284 298L284 267 284 267ZM295 292C301 292 304 288 304 282 304 277 301 273 295 273L291 273 291 292 295 292 295 292Z" fill="#3C1218"/><path d="M317 267C317 267 318 267 318 267L337 267C338 267 338 267 338 267L338 272C338 273 338 273 337 273L324 273 324 279 335 279C335 279 336 279 336 280L336 285C336 285 335 286 335 286L324 286 324 292 337 292C338 292 338 292 338 293L338 298C338 298 338 298 337 298L318 298C318 298 317 298 317 298L317 267" fill="#3C1218"/><path d="M349 267C349 267 349 267 350 267L354 267C355 267 355 267 355 268L346 298C346 298 345 298 345 298L341 298C340 298 340 298 340 297L349 267" fill="#3C1218"/><path d="M357 287C357 287 357 287 357 287L366 282 357 277C357 277 357 276 357 276L357 272C357 271 357 271 358 271L374 281C374 281 375 281 375 282L375 282C375 282 374 282 374 283L358 292C357 292 357 292 357 291L357 287" fill="#3C1218"/></g></svg>