<svg xmlns="http://www.w3.org/2000/svg" width="574" height="488" viewBox="0 0 574 488" version="1.1"><title>gym-105</title><desc>Created with Sketch.</desc><g stroke="none" stroke-width="1" fill="none" fill-rule="evenodd"><rect fill="#2C9959" x="0" y="0" width="574" height="488"/><path d="M141.6 402C131.3 402 121 402 110.7 402 116.1 402.6 117.2 401.7 123.7 402 120.7 402.2 126.8 407 137.2 410.8 151.9 416.3 184.8 422.7 250.1 422.7 255.3 422.7 260.8 422.6 266.5 422.5 344.5 421.4 365.2 411.3 410.9 407 386.2 405.8 361.1 402.3 336.5 398.6 271.6 401.4 206.6 402 141.6 402ZM522.2 362.7C528.2 368.4 531.5 377.2 528.2 384.6 505.8 397.4 481.5 403.8 456.2 406.2 457 406.2 457.9 406.2 458.8 406.2 490.8 406.2 538 402.2 538.7 373.8 538.8 366.2 531.6 363.5 522.2 362.7" fill="#196336"/><path d="M45.2 354.9C42.5 360 43.1 365.8 45.8 370.9 46.6 370.5 50.3 368 51.2 367.6 50.8 362.6 50.6 359.1 63.9 359.1 66.5 359.1 69.6 359.4 73.1 359.8 81 358.1 87.4 357.5 93.4 357.4 93.2 353.2 92.9 348.5 92.6 343.4 76.4 345.2 60.6 348.8 45.2 354.9Z" fill="#175830"/><path d="M94.8 355.4C88.7 355.5 82.1 356.2 74.1 358.2 70.5 357.6 67.4 357.4 64.8 357.4 51.2 357.4 48.6 363.7 49 369.4 52 368.1 55.1 367.1 58 366.4 70.3 363.4 82.6 360.6 94.9 357.9 94.9 357.1 94.8 356.2 94.8 355.4" fill="#16502C"/><path d="M434.5 406.6C434.2 406.6 433.9 406.6 433.6 406.6 426.4 406.9 419.8 407.4 413.7 408 419.8 408.3 425.9 408.5 431.9 408.5 441 408.5 450.1 408.1 459 407.2 453.6 407.2 448.8 407 444.8 406.9 440.1 406.7 436.5 406.6 434.5 406.6M499.6 354.1C499.5 357.3 498.8 360.5 498.1 363.6 498.5 363.6 498.9 363.6 499.4 363.6 501.9 363.6 504.6 363.5 507.4 363.5 510.2 363.4 513 363.3 515.7 363.3 518.9 363.3 522 363.4 524.9 363.7 523.9 362.7 522.9 361.9 521.8 361.1 515.3 356.8 507.5 355.1 499.6 354.1" fill="#175830"/><path d="M514.7 362.3C511.9 362.3 509.1 362.4 506.3 362.5 503.6 362.5 500.8 362.6 498.3 362.6 497.8 362.6 497.4 362.6 497 362.6 496.2 366 495.3 369.5 494.6 372.9 488.8 373 482.9 373 477 373 462.2 388.3 437.3 393.5 416.1 395.1 389.9 397 363.6 398.6 337.3 399.7 362.1 403.5 387.3 407.1 412.1 408.3 418.3 407.7 424.9 407.3 432.1 406.9 432.4 406.9 432.7 406.9 433.1 406.9 435.1 406.9 438.7 407.1 443.4 407.2 447.4 407.4 452.3 407.5 457.6 407.5 483 405 507.5 398.4 530 385.3 533.3 377.6 530 368.5 524 362.7 521.1 362.4 517.9 362.3 514.7 362.3" fill="#16502C"/><path d="M48.6 368.9C42.6 371.9 37.7 376.5 37.2 383.6 36.3 397.7 53.3 402.7 65.9 402.7 83 402.8 100.1 402.9 117.2 402.9 63.5 397.1 54.7 378.1 53.9 376 51.8 373.9 50 371.5 48.6 368.9" fill="#1A6839"/><path d="M51.6 376.8C52.4 378.9 61 397.3 113.7 403 124 403 134.3 403 144.6 403 209.5 403 274.5 402.4 339.3 399.6 329.6 398.2 320 396.7 310.5 395.3 255.5 387.5 200 383.5 144.4 383.5 126.2 383.5 107.9 383.9 89.7 384.8 86.3 385 82.8 385.1 79.3 385.1 71.7 385.1 64.2 384.3 57.5 381 55.3 379.9 53.3 378.5 51.6 376.8" fill="#185B32"/><path d="M49.4 368.8C48.1 369.2 46.7 369.7 45.4 370.2 47.4 373.3 50.2 376.3 53.4 378.8 53.3 378.6 53.3 378.5 53.3 378.5 53.3 378.5 49.9 373.9 49.4 368.8" fill="#16532D"/><path d="M93.7 357.6C81.7 360.1 69.7 362.7 57.8 365.5 54.9 366.1 51.9 367 48.9 368.3 49.3 372.5 51.5 376.4 51.5 376.4 51.5 376.4 51.5 376.5 51.6 376.6 53.4 378.4 55.4 379.9 57.6 381 64.3 384.6 72 385.4 79.6 385.4 83.1 385.4 86.7 385.2 90.1 385.1 108.5 384.2 127 383.7 145.5 383.7 201.6 383.7 257.8 387.9 313.3 396.1 323 397.6 332.7 399.1 342.5 400.6 368.9 399.4 395.4 397.9 421.7 395.9 443.1 394.3 468.1 389 482.9 373.4 354.7 374.3 223.2 375.2 95.3 376.1 94.9 374.7 94.4 368.1 93.7 357.6" fill="#164C2A"/><path d="M496.6 65.1C359.8 67.7 109 65.5 86.1 73 83.2 172.1 92.5 368.3 94.8 376.2 227.2 375.3 363.4 374.5 495.8 373.6 497.1 367 499.4 360.5 499.6 353.8 503.5 260.1 495.7 160.9 496.6 65.1" fill="#0E2214"/><path d="M115 84.2C145.9 81.9 174.2 82.5 201.6 83.1 230.7 83.8 258.9 84.5 288.6 81.6 299 80.6 311 79.4 318.7 87.8 321.1 90.4 323 93.9 326.2 94.9 328.1 95.6 330.1 95.2 332.1 94.9 341 93.3 350.1 93.4 359.1 93.5 364.2 93.6 369.3 93.6 374.4 93.4 392.1 92.6 410.3 92.9 428.5 93.2 446.6 93.6 464.8 93.9 482.5 93 482.9 96.5 481.9 102.3 483.4 105.4 457.9 111.6 397.1 110.4 359.2 109.3 342.7 108.8 330.5 108.3 327.7 108.4 260.5 111.3 202.1 115.2 126.1 113.2 124.9 113.2 123.5 113.2 122 113.3 116.3 113.4 109.1 113.5 105.5 110.2 100.9 106 103.1 92.3 107.4 87.7 109.4 85.5 112.2 84.4 115 84.2" fill="#DCDBDB"/><path d="M196.8 125.6C177.8 126.1 156.9 124.7 103.5 128.1 105.9 202.4 106.7 287.5 106 361.7 151.4 363.9 168.6 365.1 199.8 362.5 283.3 355.5 333.8 364 400.9 362.7 424.3 362.2 475.4 362.8 485.5 359.5 488.1 349.6 485.7 302.6 485.3 297.3 480.4 226.4 484.9 217.1 484.7 165 484.6 155.9 485 140.7 483.1 128.1 456.8 124.3 416.6 128.5 401.5 128.4 321.6 127.8 276.7 123.8 196.8 125.6" fill="#DCDBDB"/><path d="M116.1 133.3C118.3 162.8 141.7 186.6 167.5 199.9 193.4 213.2 222.3 218.7 249.5 228.9 332.5 260.3 396.5 335.3 482.6 356.7 481.4 283 476.2 209.3 466.9 136.2 350 131.3 233 130.4 116.1 133.3" fill="#C9C9C9"/><path d="M269.4 179.5C269.4 179.2 269.3 178.9 269.3 178.6 269.6 178.5 270 178.5 270.3 178.6 270.3 178.5 270.3 178.5 270.3 178.5L269.3 178.6 269.3 179.5C269.3 179.5 269.4 179.5 269.4 179.5ZM299.5 192.4C299.5 192.4 299.5 192.4 299.5 192.4L299.3 190.7C292.1 182.4 281.1 177.6 270 177.6 269.8 177.6 269.5 177.6 269.3 177.6L268.3 177.6 268.3 178.6C268.5 180.6 268.5 181.9 268.5 183.2 268.6 184.5 268.8 185.7 269.2 187.1L269.4 187.8 270.1 187.8C272.5 187.9 280.2 189 284.6 190.9L285.1 190.1 284.6 190.9C286.1 191.8 287.2 192.5 288.1 193.2 289.4 194.2 290.1 195.1 290.9 196.7 291.7 198.3 292.4 200.6 293.4 204.3 294.5 208.2 294.7 212.8 294.7 217.3 294.7 218.8 294.6 220.3 294.6 221.8 294.6 222.9 294.6 224 294.7 225.1 294.8 228.4 294.8 231.7 294.8 235 294.8 245 294.5 255 294.5 265.1 294.5 268.4 294.5 271.7 294.6 275 294.7 276.9 294.7 278.9 294.7 281 294.7 284 294.6 287 294 289.8 293.4 292.5 292.4 294.9 290.8 296.6 288.9 298.6 285.3 300.9 282.6 302.2 279.9 303.5 277.9 304.3 275.8 304.7 273.6 305.1 271.3 305.3 267.9 305.3L267 305.4 266.9 306.3C266.9 306.5 266.9 306.8 266.9 307 266.9 309.6 267.2 312.1 267.2 314.6 267.2 314.8 267.2 315 267.2 315.3L267.1 316.2 268.1 316.3C269.1 316.3 270.1 316.4 271.2 316.4 276.7 316.4 282.4 315.4 287.4 313.2 292.4 311 295.8 308.7 298.5 303.5L298.5 301.8 298.5 303.5C304 312.1 313.6 317 323.9 317 325.9 317 328 316.7 330 316.2L330.7 316 330.8 315.3C330.8 314.8 330.8 314.2 330.8 313.7 330.8 312 330.7 310.3 330.7 308.6 330.7 308 330.7 307.5 330.7 306.9L330.8 305.8 329.6 306C328.5 306.2 327.4 306.2 326.2 306.2 321.3 306.2 316.2 304.6 312.3 301.8 308.4 298.9 305.7 294.9 305.3 290.1 304.7 281.8 304 272.7 304 263.8 304 261 304.1 258.2 304.3 255.4 304.5 251.6 304.6 247.8 304.6 243.9 304.6 236.1 304.3 228.2 304.3 220.8 304.3 216.4 304.1 213.3 304.1 210 304.1 207.3 304.2 204.4 304.7 200.6 305.9 196 308.9 192.5 312.7 190.2 316.6 187.8 321.4 186.6 326 186.6 326.9 186.6 327.8 186.7 328.7 186.7L329.6 186.8 329.7 186C330.1 184.3 330.3 182.8 330.3 181.2 330.3 180 330.2 178.7 329.7 177.4L329.5 176.8 328.8 176.7C328 176.7 327.2 176.7 326.3 176.7 320.6 176.7 315 177.9 310.2 180.4 305.4 182.9 302 185.5 299.3 190.7L299.5 192.4Z" fill="#0E2214"/><path d="M320.3 269.1C320.6 272.6 321.5 275.7 320.7 279.2 307.6 278.6 293.7 280.5 277.2 279.5 277.3 276.2 277.5 272.8 277.6 269.5 291.9 269.9 306.1 269.7 320.3 269.1" fill="#0E2214"/><path d="M320.3 269.1L319.3 269.2C319.6 271.8 320.1 274.1 320.1 276.3 320.1 277.2 320 278.1 319.8 279L320.7 279.2 320.8 278.2C318.9 278.1 317 278.1 315.1 278.1 306.4 278.1 297.4 278.8 287.4 278.8 284.2 278.8 280.8 278.7 277.3 278.5L277.2 279.5 278.2 279.5C278.3 276.2 278.5 272.9 278.6 269.6L277.6 269.5 277.6 270.5C282.8 270.6 288 270.7 293.2 270.7 302.3 270.7 311.3 270.5 320.4 270.1L320.3 269.1 319.3 269.2 320.3 269.1 320.3 268.1C311.3 268.5 302.2 268.7 293.2 268.7 288 268.7 282.8 268.7 277.6 268.5L276.7 268.5 276.6 269.5C276.5 272.8 276.4 276.1 276.2 279.5L276.2 280.4 277.2 280.5C280.7 280.7 284.1 280.8 287.4 280.8 297.5 280.8 306.5 280 315.1 280 317 280 318.8 280.1 320.7 280.2L321.5 280.2 321.7 279.4C321.9 278.3 322 277.3 322 276.3 322 273.8 321.5 271.5 321.3 269L321.2 268.1 320.3 268.1 320.3 269.1" fill="#0E2214"/><path d="M236.7 164.3L235.7 164.3C235.7 164.4 235.7 164.8 235.8 165.3L235.7 165.3 235.7 164.3 234.7 164.4 234.6 163.3 235.7 163.3 242.9 163.3 243.9 163.3 243.9 164.3C243.6 171 243.7 196.4 243.6 202.9 243.5 215 243.3 227.1 243.2 239.2 243.1 250.9 243.1 261.7 242.4 274.8 242.1 281.6 242 287.8 242 293.9 242 305.2 242.4 315.8 242.4 327.5L242.4 328.3 241.7 328.4C240 328.8 239.2 329 238.4 329.1 237.5 329.2 236.8 329.2 235.4 329.2L234.4 329.2 234.4 328.2C234.5 324.7 234.6 321.8 234.6 318.8 234.6 315.3 234.5 311.7 234.4 307.2 234.1 304.7 234 302.2 234 299.7 234 294.3 234.5 288.9 234.7 283.4 234.9 278.9 235 257.6 235.4 250.2 235.7 244.8 235.8 239.8 235.8 235 235.8 225.3 235.4 216.3 235.4 206.2 235.4 194.1 235 172.3 234.8 166 234.8 165.1 234.7 164.5 234.7 164.4L235.7 164.3 235.7 165.3 235.7 164.3 236.7 164.2C236.7 164.2 236.7 164.3 236.7 164.3ZM241.9 164.3L242.9 164.3C242.9 164.6 242.9 164.9 242.9 165.3L242.9 165.3 242.9 164.3 241.9 164.2C241.9 164.3 241.9 164.3 241.9 164.3Z" fill="#0E2214"/><path d="M273.4 95.1C258.6 95.1 242.8 95.9 229.9 96.7 216.9 97.5 206.8 98.3 203.3 98.3 203.1 98.3 202.9 98.3 202.8 98.3 190.1 97.9 179.8 97.7 170.6 97.7 154.2 97.7 141.3 98.3 124.6 99.5 124.6 101.6 124.7 103.7 124.7 105.9 150.2 103.6 181.3 102.1 211.1 102.1 230.2 102.1 248.7 102.7 265.1 104.1 276.2 105.1 283.1 106 290.3 106 296.2 106 302.4 105.3 311.5 103.6 311.6 100.9 311.6 101.3 311.7 98.5 302.7 95.9 288.6 95.1 273.4 95.1" fill="#9A9999"/></g></svg>