<svg xmlns="http://www.w3.org/2000/svg" width="574" height="488" viewBox="0 0 574 488"><title>gym-107</title><desc>Created with Sketch.</desc><path fill="#d73158" d="M0 0h574v488H0z"/><path fill="#951c27" d="M57.66 378.23c-19.22 18 29.42 35.57 65.63 43 14.33 2.94 32.34 5 54.68 5 78.78 0 124.71 8.52 149.08 8.52C437.26 434.75 502 408.69 514 383c7.8-16.71-12.94-29.8-35-36-40.15-11.28-107.73-6.42-178.85-6.42-110.2 0-194.5-7.17-242.49 37.65z"/><path fill="#881a25" d="M265 420.84c12.83 1.2 77.93-1.39 90.54 0 54.67 6 91.85 1.18 116.56-7.57 13.75-4.87 29.25-31.87 30.54-33.27 4.21-4.56-12.65-40-107.65-44s-49.2 6-89.64 6C203.57 342 59 356.78 59 380c0 21.09 78.73 28.91 206 40.85z"/><path fill="#6e1620" d="M133 402l3.23.75c8.32 1.93 30 6.95 31.77 7.25 11.21 1.92 24.14 1.85 59.15 6.16 16 2 34.43 1.1 49.85 0 8.69-.62 87.31-11.42 122.93-17.17C456.77 389.8 498 372 479 358.6c-13.33-9.39-103.92-21.6-192-21.6-61 0-167.53 21.6-167.53 21.6S93.92 364 83.27 372c-4.95 3.71-.7 9.5 0 12.8C85.07 393.28 133 402 133 402z"/><g fill="#3c1218"><path d="M205.73 64.12c78.68-.62 141.92 2.83 220.61 2.21 8-.07 23.49 1.12 30.85 4.45 13.39 6.07 11.28 28.53 11.81 47.58 2.42 85.87 1.33 130.73 1.33 198.6-124.57 4.44-233.38 3-355.45 5-.95-78.05-3.39-103.39-3.68-186.87-.05-14.53.3-37.78 2-52.21 1-8.14 7.95-13.58 15.83-14.72 39.23-5.65 53.12-3.89 76.68-4.08"/><path d="M375.85 383.8c-78.68.63-141.92-2.83-220.61-2.21-8 .07-23.49-1.11-30.85-4.45-13.39-6.07-11.28-28.52-11.81-47.58-2.42-85.87-1.33-130.73-1.33-198.6 124.57-4.44 233.38-3 355.46-5 1 78.05 3.39 103.39 3.68 186.87 0 14.53-.3 37.78-2 52.21-1 8.14-7.95 13.58-15.83 14.72-39.23 5.65-53.12 3.89-76.68 4.08"/></g><path fill="#c9c9c9" d="M129.94 125.34c-.26-12.65-.55-25.1-.89-37.26 45.38-3.48 63.07-2.08 79.22-2.52 67.91-1.82 118-1.16 185.89-.59 12.75.11 34.94-.73 57.35 3.11 1.61 12.62 1.28 27.88 1.32 37 .21 52.29.33 80.41.54 132.7 0 5.33 2.31 52.12.21 62.3.26 12.65.56 25.1.89 37.26-45.38 3.48-63.07 2.08-79.22 2.52-67.92 1.82-118 1.15-185.89.58-12.75-.11-34.94.73-57.35-3.11-1.61-12.62-1.28-27.88-1.32-37-.21-52.3-.33-80.41-.54-132.71 0-5.32-2.31-52.12-.21-62.3z"/><path fill="#e2e2e2" d="M383.17 94.11c-46.8 0-94.41 7.81-135 34.27-49.73 32.39-75.49 56.55-100.67 115.62-4.33 10.15-9.29 55.73-7.06 66.74 3.83 18.87 7.56 28 21 42 96.68-14 199.49 17 289.22-26.77l-.7-178.37c0-12-.23-24.67-5.43-35.1-11.24-22.67-36.53-18.39-61.36-18.39z"/><path fill="#3c1218" d="M158.52 124c4.57-7.92 9.83-20.3 9.83-20.3a2 2 0 0 0-1-2.64l-2.23-1a4.27 4.27 0 0 0-5.48 1.93l-14 27.41a4.9 4.9 0 0 0 1.38 6l.29.22a3.47 3.47 0 0 0 5.21-1.07l6-10.55zm23 0a224.57 224.57 0 0 0 9.78-20.33 2 2 0 0 0-1-2.65l-2.48-1.12a3.89 3.89 0 0 0-5.21 2s-2.84 6.78-5.34 12.29a150.71 150.71 0 0 1-8.61 15.21 4.38 4.38 0 0 0 1.08 5.76l.53.39a3.48 3.48 0 0 0 5.21-1.09l6.04-10.46z"/><path fill="#fff" d="M412 105.14c6.45-1.86 13.4.09 17.14 1.15 1.06.3 2.42 2.29 3.12 2.9a4.5 4.5 0 0 1 1.06 1.58 51.83 51.83 0 0 1 4 12.21c-1.22 1.27-3.53-.57-4.84-2-3.08-3.32-4.75-5.89-8.31-8.53"/><g fill="#3c1218"><path d="M264.62 135.09c60.33-.47 108.81 2.15 169.13 1.68 6.15-.05 18 .85 23.65 3.38 10.26 4.61 8.65 21.66 9.06 36.13 1.85 65.21 1 99.27 1 150.82-95.5 3.37-178.93 2.27-272.52 3.81-.73-59.27-2.6-78.51-2.82-141.9 0-11 .23-28.69 1.55-39.64.75-6.18 6.09-10.31 12.14-11.18 30.08-4.29 40.72-3 58.78-3.1"/><path d="M395 377.85c-60.33.47-108.81-2.15-169.13-1.68-6.15 0-18-.85-23.65-3.38-10.26-4.61-8.65-21.66-9.06-36.13-1.85-65.21-1-99.27-1-150.82 95.5-3.37 178.93-2.28 272.52-3.81.73 59.27 2.6 78.52 2.82 141.9 0 11-.23 28.69-1.55 39.64-.75 6.18-6.09 10.31-12.14 11.17-30.08 4.29-40.73 3-58.78 3.1"/></g><path fill="#c9c9c9" d="M208.52 183.62c-.2-9.6-.43-19.06-.68-28.29 34.79-2.65 48.35-1.58 60.74-1.91 52.07-1.42 90.42-.89 142.52-.42 9.77.08 26.79-.55 44 2.36 1.23 9.58 1 21.17 1 28.12.16 39.71.25 61.06.41 100.77 0 4 1.77 39.58.16 47.31.2 9.6.43 19.06.68 28.3-34.79 2.65-48.35 1.58-60.74 1.91-52.07 1.38-90.43.88-142.52.45-9.77-.08-26.79.55-44-2.36-1.23-9.58-1-21.17-1-28.12-.16-39.71-.25-61.06-.41-100.77 0-4-1.77-39.58-.16-47.31z"/><path fill="#e2e2e2" d="M401.58 166.63C334.72 175.5 226.7 244.5 226.7 287c0 8.19-14.88 42.5-1.62 62 8.53 12.55 162.78 23.18 230.36-10.05l-.52-135.45c0-9.13-.18-18.74-4.09-26.65-8.5-17.18-25.76-13.33-49.25-10.21z"/><path fill="#3c1218" d="M233.14 179.61c-4.57 7.92-9.87 20.28-9.87 20.28a2 2 0 0 0 1 2.63l2.05.91a3.94 3.94 0 0 0 5.23-2.05s2.88-6.75 5.41-12.25a159 159 0 0 1 8.62-15.21 4.43 4.43 0 0 0-1.09-5.79l-.12-.09a3.46 3.46 0 0 0-5.2 1.06l-6.07 10.51zM261.63 168a13.56 13.56 0 0 0-4.38 3.7 3.27 3.27 0 0 0-.4 3.3l2 4a3.21 3.21 0 0 0 5 1.18l3.13-2.34a5.3 5.3 0 0 0 1.61-6.06l-.94-2.19a3.87 3.87 0 0 0-5.21-2l-.77.36z"/><path fill="#fff" d="M435.67 173.26c.82.54 6.88 2.64 7.38 3.44a6 6 0 0 1 .67 1.9c1 4.55-1 12.49-1.87 10.72-2.11-4.18-4.52-6.37-7.09-9.93-1-1.43-5.27-5.35-5.39-5.58-.44-.81 3.39-2.47 6.3-.55z"/><g><g fill="#3c1218"><path d="M410 206.06c-41-.32-74 1.46-115 1.14-4.18 0-12.24.58-16.08 2.3-7 3.13-5.88 14.71-6.16 24.53-1.26 44.28-.69 67.41-.69 102.4C337 338.72 393.75 338 457.37 339c.5-40.24 1.77-53.31 1.92-96.35 0-7.49-.15-19.48-1.05-26.92-.51-4.2-4.14-7-8.25-7.59-20.45-2.91-27.68-2-40-2.1"/><path d="M321.36 370.9c41 .32 74-1.46 115-1.14 4.18 0 12.24-.58 16.08-2.3 7-3.13 5.88-14.71 6.16-24.53 1.26-44.28.69-67.41.69-102.4-64.95-2.29-121.66-1.53-185.29-2.6-.49 40.24-1.77 53.31-1.92 96.35 0 7.49.15 19.48 1.05 26.92.51 4.2 4.14 7 8.25 7.59 20.45 2.91 27.68 2 40 2.1"/></g><path fill="#c9c9c9" d="M455.08 242.46c.14-6.52.29-12.94.46-19.21-23.65-1.79-32.87-1.07-41.29-1.3-35.39-.94-61.47-.6-96.88-.3-6.64.05-18.21-.38-29.89 1.6-.84 6.51-.67 14.38-.69 19.09l-.28 68.43c0 2.75-1.21 26.88-.11 32.13-.14 6.52-.29 12.94-.46 19.21 23.65 1.8 32.87 1.08 41.29 1.3 35.39.94 61.48.6 96.88.3 6.64-.05 18.21.38 29.89-1.6.84-6.51.67-14.38.69-19.09l.28-68.43c0-2.74 1.21-26.88.11-32.12z"/><path fill="#e2e2e2" d="M428.11 230c-17.66 2.28-35.86 3.49-51.29 16.82-18.88 16.31-32.2 43.78-41.77 73.53-1.64 5.11-3.85 5.82-1.42 18.31s9.5 14.46 10.27 24.15c45.65 0 75.77 5.54 109.85-16.5q-.13-44.91-.27-89.83c0-6.06-.09-12.43-2.06-17.68"/><g fill="#3c1218"><path d="M311.48 276.91a79 79 0 0 1-8.82-9.31 2.29 2.29 0 0 1 .13-3l1.51-1.6a3.43 3.43 0 0 1 5.29.21s1.79 2.26 4.2 5a43 43 0 0 0 6.69 5.89 4.08 4.08 0 0 1 .83 5.63l-.07.1a3.67 3.67 0 0 1-5.4.68l-4.36-3.66z"/><path d="M310.65 253.81a94 94 0 0 0-9.74 10.11 2.25 2.25 0 0 0 .11 3l1.52 1.58a3.51 3.51 0 0 0 5.34-.18s2.18-2.66 4.83-5.61a53.61 53.61 0 0 1 7.52-6.57 4.13 4.13 0 0 0 .85-5.66l-.07-.1a3.63 3.63 0 0 0-5.39-.69l-5 4.17zM335.93 281a9.94 9.94 0 0 0 4.3-1.12 3.26 3.26 0 0 0 1.77-2.82l-.07-2.73a3.21 3.21 0 0 0-4-3.18l-1.86.39a5.32 5.32 0 0 0-4 4.82v.66a3.87 3.87 0 0 0 3.9 4zm5.4-29.64a107.73 107.73 0 0 0-1-15.21 2.23 2.23 0 0 0-2.24-1.9l-2.42.09a4 4 0 0 0-3.85 4.15l.71 19.19a4.82 4.82 0 0 0 4.12 4.46h.34a3.62 3.62 0 0 0 4.11-3.53l.26-7.29zM369.37 259.52a98.27 98.27 0 0 0-15.22 1.17 2.28 2.28 0 0 0-1.91 2.29l.1 3.24a3.94 3.94 0 0 0 4.12 3.83l19.2-.85a4.82 4.82 0 0 0 4.43-4.15l.13-1.17a3.65 3.65 0 0 0-3.56-4.11l-7.29-.25zm38 0a98.22 98.22 0 0 0-15.24 1.18 2.28 2.28 0 0 0-1.9 2.28l.1 3.3a3.93 3.93 0 0 0 4.12 3.82l19.21-.85a4.83 4.83 0 0 0 4.44-4.15l.13-1.2a3.65 3.65 0 0 0-3.55-4.11l-7.31-.26z"/></g><path fill="#fff" d="M435.65 242.07c5.13-.15 6.56-.27 9.11 2 .72.63 1.33 3.18 1.73 4.05a6.77 6.77 0 0 1 .47 2c.6 4.77-4.95 3.09-7-.8-.85-1.57-4.14-3.55-5.42-4.78a1.93 1.93 0 0 1-.49-.63"/></g></svg>
