<svg xmlns="http://www.w3.org/2000/svg" width="16" height="16" viewBox="0 0 16 16" role="img">
  <title>Gymnasium</title>
  <desc>Aquent Gymnasium orange "A" favicon.</desc>
  <g fill="none" fill-rule="evenodd">
    <path fill="#222" d="M0 0h16v16H0z"/>
    <g fill="#ff5F14" fill-rule="nonzero">
      <path d="m7.0299026 10.16636831.30773665 2.61432609 2.55240404-.324537-.30773666-2.59629629-2.55240403.3065072z"/>
      <path d="M14.6340567 14.0443814 9.56212377 1.27100515l-.01831023-.05420103L9.45226241 1H7.6212397l-.12817159.27100516-.05493068.16260309L2.18310227 14.5321907 2 15.001933h2.45357042S7.96913402 5.96842784 8.5001306 4.57726804c.32958409.83108248.78733976 2.00543815.78733976 2.00543815 2.74653404 7.08226801 3.02118744 7.75074741 3.05780794 7.84108251 0-.0180671-.0183102-.0361341-.0183102-.0361341l.0732409.1806701.0549306.1626031.1098614.2890722h2.4535704l-.2380329-.6142784-.1464818-.3613402Z"/>
    </g>
  </g>
</svg>
