<svg width="574" height="488" xmlns="http://www.w3.org/2000/svg">
  <title>
    gym-012
  </title>
  <desc>
    Created with Sketch.
  </desc>
  <g fill="none" fill-rule="evenodd">
    <path fill="#764C9F" d="M0 0h574v488H0z"/>
    <path d="M166.3010974 420.8976116c-2.6749035-.7774551-5.3424985-1.5772652-8.0100936-2.4019141-9.16191-2.8266579-19.84106035-8.0030684-22.45749604-21.5153875-1.73649475-8.9767503 5.43565039-8.1560153 12.74523164-14.3232888 16.0950365-7.895547 60.0209144-17.7659853 126.3365966-17.7659853 13.487068 0 28.013402.1366135 43.650625.4297116 1.521625 0 7.735295-1.0357788 16.471851-2.0740416 8.733633-1.0382628 19.988692-2.0765255 31.552168-2.0765255 27.14954 0 66.140893-3.3892389 68.017711 21.4868413-.125706.8792943-10.413736 10.8607565-10.575985 11.7276314-3.572384 1.559878-24.889087 12.6449033-37.708278 16.8644386-12.819192 4.2195353-37.976285 11.8554492-37.976285 11.8554492s-24.232045 8.89351628-79.984718 9.78367809c-55.7526738.8901618-80.2373242 0-102.0613276-11.99060739z" fill="#44374A" opacity=".8"/>
    <path d="M210.82109 416.7573368c-2.0434278-.6258181-28.0046911-3.9710312-30.0034539-14.8478682-1.3265531-7.2258987 17.1088203-18.5817932 20.9295996-19.8728785 21.6898363-4.0259068 35.3419943-11.6857593 86.0022553-11.6857593 10.303119 0 45.299849.835758 51.97393.0000011 6.671848-.835757-19.453896-3.5181565.000008-3.5181565 20.740234 0 50.430903 3.5181579 54.291029 15.2039154 3.860125 11.6857574-27.968643 19.1750806-28.092589 19.8728776-1.69164.7783266-23.701767 8.6949866-78.172378 15.0778015-54.470612 6.3828149-72.8471285-.0719791-76.928401-.2299331z" fill="#37293E" opacity=".85"/>
    <path d="M231.07769686 407.67902165c-1.35886028-.42592032-2.71452765-.86556353-4.0707225-1.32031213-4.65775994-1.55842817-10.12681875-4.51923031-11.7267817-12.69066893-1.0620617-5.42862896 6.44493438-10.9488341 8.920784-12.01187799 14.14207636-3.53907435 26.91406999-8.77785272 60.1933438-9.93999057 6.76823046-.23635182 14.06089821-.40783692 21.91436734-.50362609.76359955-.02666548 3.85981557-.7654473 8.22204311-1.54995165 4.36075944-.78445318 9.9868496-1.61309258 15.78976147-1.81573473 13.62448427-.47577747 28.22212394 2.49896969 29.6922502 17.59404993-.04441043.53693099-.09783349 1.06812722-.1608455 1.59814588-1.75960792 1.01121733-11.99128606 6.9279995-15.7420865 9.8477966-1.5222179 1.18441216-17.24733005 4.85541563-17.7167859 4.8718094-.8296163.02897083-54.20841658 4.65879826-86.27297281 5.77851724-3.31338313.11419356-6.35715575.1675514-9.042355.14184304z" fill="#2F2037" opacity=".85"/>
    <g>
      <path d="M357.226585 351.352616c-17.851437 10.499898-35.720892 22.077169-54.824588 30.242759-9.319865 3.981791-23.801917 4.596791-32.432589.071825-37.684866-19.742861-74.4733316-41.2993-110.6221544-63.744572-7.35138679-4.565368-14.6757464-15.675778-14.94601798-23.993995-1.46397101-44.787296-1.45946649-89.67335-.01351357-134.4606451.26576704-8.2957724 7.52706329-19.3792476 14.84241385-23.9311487 36.1533274-22.4811841 72.9372884-44.0914917 110.6266591-63.86577607 8.653195-4.54292299 23.810926-4.51598866 32.46412.03591244C339.965241 91.4992162 376.86632 112.885071 412.717844 135.7478248c8.099138 5.1624125 14.288357 18.1896482 15.441516 28.2675752 2.360371 20.654139.70721 41.761672.70721 62.685155 5.229755 86.652216-17.387471 92.743862-71.639985 124.652061z" stroke="#24152C" stroke-width="15.36" fill="#E2E2E2"/>
      <path d="M226.016408 195.085195c-32.7630864-25.081336-55.9445793-42.4776647-61.804701-38.001825-5.8601216 4.4758398-1.7374812 116.741574-1.7374815 132.609401-3e-7 15.867826 49.2389861 37.931768 49.2389861 37.931768L284.299606 366l74.975431-38.375455s32.665704-11.327368 44.778934-30.739294c12.11323-19.411927 15.183572-42.321984 4.056709-47.521742-11.126863-5.199758-59.089778 6.607551-123.811074-17.880007-21.810909-8.252243-41.6300574-23.649721-58.283198-36.398307z" fill="#C9C9C9"/>
      <g fill="#24152C">
        <path d="M207.8270067 248.5900057c8.7604475 8.4866999 19.8350364 23.2155763 32.2444583 13.9325893 18.5826205-8.0553104 6.6143722-64.4376165 8.5293566-102.09015069 12.0118809-.01459589 13.3822663-.02757002 25.3925312-.0421659 1.257264 28.18790959.3910769 56.37581909 1.651573 84.56372869.5688392 12.7227518 1.182927 20.6677819-8.3402822 34.8614749-7.6502413 11.401013-19.5570809 12.880064-31.1277881 12.288119-22.5774234-1.149832-29.9884937-2.883499-45.90629629-22.743642-3.14316-3.919808 16.00506769-22.2717083 17.55644749-20.7699533zM349.505146 192.2823008c5.853226-4.4744516 12.43043-7.9839525 19.398711-10.3517304-.153522-2.2137102-20.74324-27.91220941-52.071415-18.65517082-13.291769 3.92629474-21.798501 17.78428262-22.402893 31.67632752-1.276656 29.4415345 36.417023 37.4498135 40.141951 39.6894719 4.458601 2.6840222 9.017395 5.453998 12.260748 9.5327388 3.241737 4.0803624 4.941791 9.8084389 2.926613 14.6169742-1.397858 3.329485-4.360023 5.776729-7.559744 7.434174-13.960802 7.241184-26.783925-1.865031-38.120309-16.0830505-6.367121 4.6674417-12.73101 9.3332616-19.0981314 13.9974595-1.493203 2.216954 7.6340814 9.158111 9.5458334 11.023142 17.073257 16.697699 28.149462 18.081065 47.047207 15.054851 12.86514-2.061265 26.636867-10.703654 32.37374-22.445238 3.699071-7.576889 2.824804-18.7670722-.121202-26.6715582-4.587882-12.3108234-13.351562-21.0197052-25.154976-26.7234552-6.633764-3.204609-16.817926-5.4150756-22.979812-9.4630028-16.777526-11.0231414-4.421433-22.3268483-2.522608-23.7069709 7.436926-5.4150757 22.698625.5968097 26.336287 11.0750379"/>
      </g>
    </g>
    <g fill="#FFF">
      <path d="M396.987461 152.5028846c2.057211-.4620639 3.896842-1.523165 6.057298-1.5025896 2.85757.0276298 4.973657 1.9916955 5.527423 3.9404766.55462 1.9487811.026451 3.9610519.12287 5.9451051.051409 1.0535154.2777 2.1022083.589676 3.1468302 1.205172 4.035395 3.68903 8.010038 2.309704 11.9672461-.762815.0141088-6.548896-3.1507533-10.814346-5.5692406-3.382326-1.9164484-6.804636-7.292127-10.023989-9.3379063-3.122934-1.9828774-5.198064-4.7446795-5.756097-7.6587392 3.582842-1.3285808 8.125602-.0634897 11.987461-.9311823zM303.2012594 95.82746402c-1.89975293-2.27993384-9.75143305-5.19267398-12.11623145-7.14643492-3.12815103-2.58381892-6.86516208-2.80423707-8.89178743-1.6121584-2.02755342 1.19129991-2.9238464 3.42607923-4.47883004 5.06626747-4.01643526 4.23438889-12.44765437 4.59505271-14.20009752 10.51886353.81934273.70845217 5.5005693 2.9076715 11.9074066 4.6938316 5.07939777 1.41749382 16.6555826.18294767 21.65225367 1.33905676 4.84583021 1.12290511 13.2379237-.47094326 17.6494445-5.72838902-2.9257372-4.4270271-7.95610006-2.8508234-11.52215832-7.13103702z"/>
    </g>
  </g>
</svg>
