<svg xmlns="http://www.w3.org/2000/svg" width="574" height="488">
  <title>
    gym-109
  </title>
  <g fill="none" fill-rule="evenodd">
    <path fill="#D73158" d="M0 0h574v488H0z"/>
    <path fill="#951C27" d="M76.04057046 384.134895c-17.87228236 15.8367521 27.35939044 31.3806124 61.03621814 37.941911 13.3309864 2.5972928 30.0777283 4.4100089 50.8555494 4.4100089C261.19923 426.4868149 303.908744 434 326.580275 434c102.489335 0 162.699558-22.9951971 173.859695-45.6573057 7.258641-14.7396155-12.038417-26.2915103-32.550407-31.75894196-37.336676-9.95201966-100.185777-5.66590624-166.334427-5.66590624-102.489335 0-180.8844232-6.33002654-225.51456554 33.2170489z"/>
    <path fill="#881A25" d="M210.5 416.8568923c55.5 4.3023143 187 5.6611063 222.5-5.6611062 7.421838-2.3670881 23.280362-7.7695192 33-13.6810068 4.934037-3.0008834 8.138372-8.579064 8.507473-8.9220797 3.558369-3.3068823-10.704706-29.00675632-91.113669-31.90774414-80.408962-2.90098783-41.643368 4.35148174-75.875519 4.35148174C221.368825 361.0364372 99 371.7550419 99 388.5927009c0 15.2959786 56 23.9618772 111.5 28.2641914z"/>
    <path fill="#6E1620" d="M180.248758 407.6936282s.878801.1919857 2.307586.5034729c5.952615 1.2977207 21.451452 4.6696641 22.71835 4.8742017 8.012384 1.2935798 17.258225 1.2448903 42.294178 4.139394 11.458499 1.3247616 24.619194.740201 35.643725-7e-7 6.214576-.4172549 62.429507-7.6786294 87.89532-11.5448074 40.647063-6.1709707 70.125569-18.1385508 56.540062-27.1431507C418.120158 372.2076098 353.341695 364 290.362868 364c-43.634731 0-119.790765 14.5227376-119.790765 14.5227376s-18.2638183 3.6367565-25.8826801 9.0046003c-3.5366731 2.4917513-.5017906 6.3873938 0 8.6053942 1.2898443 5.7013327 35.5593351 11.5608961 35.5593351 11.5608961z"/>
    <g>
      <path fill="#3C1218" d="M377.300782 64.31610683c-78.670563-.57592372-147.663831 2.64692213-226.338932 2.05936359-8.0213124-.06399153-23.4877456 1.05295144-30.8466646 4.20017094-13.37944016 5.73015014-11.26976241 26.92879674-11.80965843 44.91623244-2.41365283 81.0772612-1.32932383 123.4280152-1.32932383 187.5068002.56258073 12.757583-.2404579 27.958479 21.19205326 28.482046 44.4211932 1.09949 91.3694626 4.107092 139.6969626 1.972102 35.574157-1.570701 58.57645.139618 88.611002-1.087856 22.820816-.942421 77.286797 2.833079 95.997143-2.065181 17.508057-4.578303 10.952177-34.398353 13.665268-77.359935.948221-73.683331 2.009865-44.910415-.077128-121.6188001-.372029-13.7290906-.299438-35.6781834-2.018939-49.2909257-.970905-7.6906177-7.948721-12.8273919-15.833925-13.89779558-39.226396-5.32874872-47.352058-3.63006463-70.907858-3.8162218"/>
      <path fill="#DCDBDB" d="M448.488888 93.1126183l.000003 213.7850027c0 4.076258-3.255709 7.406206-7.330931 7.498097-31.798719.717018-55.955209.890164-72.469469.519439-57.055134-1.295797-114.100029 1.46857-171.1551628.186063-12.3461739-.280142-33.9792296-1.194342-64.8991672-2.742597l1e-7-.000002c-3.9996686-.200276-7.1363995-3.507507-7.1248893-7.51217.0930236-32.365023.1459065-50.160181.1586488-53.385476.2098933-50.715501.3276383-77.973754.5375316-128.6759653.0237592-5.1387899.3615252-14.8650964 1.0132978-29.1789195l-.0000048-2e-7c.1740198-3.8217139 3.1966098-6.8999356 7.0145147-7.1436191 25.9765369-1.6579914 42.8940523-2.5217387 50.7525463-2.591242 68.0617318-.5448993 137.9209438-1.7676 205.9570788 0 24.403511.6340108 41.229947 1.2186498 50.479308 1.7539168v2e-7c3.967184.2295837 7.066695 3.5136516 7.066695 7.4874724z"/>
      <path fill="#C9C9C9" d="M183.2234264 291.284887c16.9980239 15.198824 43.4602596 14.986791 56.6600796 14.72386 8.79988-.175286 23.594456-3.500029 44.383729-9.974227 44.679926.990215 90.639463 3.365031 137.878613 7.124448 5.873161-26.097732 8.354313-86.774784 10.323788-144.5666596.435102-12.7675547-1.571856-30.0009213-6.020874-51.7000999l-.000009.000002c-.32364-1.5784843-1.619475-2.7737655-3.218909-2.9691276-90.323507-11.0325236-154.023859-10.4332342-191.101055 1.7978682-6.682903 2.2045702-12.907839 9.4767691-18.831567 13.3227989-17.0050848 11.040692-27.9687135 22.6056245-41.3111112 33.75-11.1359662 9.3014307-23.3005193 19.432399-31.2925541 35.977596-7.9920348 16.545197 1.1390298 41.997418 15.1441644 74.015748 5.1938407 11.87408 10.3876813 13.29897 27.3857053 28.497793z"/>
      <path fill="#FFF" d="M141.6104509 127.4683381c-.2890911-12.6487167-.5452478-16.1772323 3.8789443-22.4701262 1.2441897-1.775495 6.312433-3.2857896 8.039661-4.2611881 1.2515084-.714693 2.638414-.9529239 4.0033632-1.1641854 9.4631604-1.4743351 19.0287834-1.9463022 28.5578126-1.4069113 2.0272973 2.8407921-3.2568495 6.1445614-7.0333311 7.8391479-8.903275 3.9959876-13.8031867 9.3731671-21.5244815 14.5603096-3.1068148 2.0901398-8.6361401 6.6242682-11.091585 9.7617253-.3732569.471967-.7538326.9709036-1.2515085 1.2091346-1.7382061.8495407-3.5276436-1.7710001-3.578875-4.0679064z"/>
      <g>
        <path fill="#3C1218" d="M392.34921329 198.51077568c-45.42700874-32.27704932-86.69152465-58.54786221-132.11671742-90.83310896-4.62975842-3.29387123-14.03099014-8.96766083-19.50432282-10.2387659-9.95430806-2.30660045-16.83623355 10.12713628-24.02761166 19.7307486-32.40315123 43.29577585-47.96825124 66.86412526-72.470972 101.85763708-4.5518714 7.19550035-10.8304047 15.17046946 1.40523562 24.1640611 25.35420074 18.64802293 51.44506212 39.3647768 80.3026446 57.83351217 21.24190032 13.59542414 33.93458364 23.87487974 51.8309801 35.40709207 13.6017497 8.75705941 43.76100102 32.94748417 56.49037363 37.87423887 11.909418 4.61301361 19.50820138-14.33530131 37.51025853-36.69439611 28.72553773-39.8533212 18.33922729-23.70906415 46.46036691-66.44752838 5.03392483-7.64862456 13.46903307-19.6055613 17.67662112-27.7381031 2.37742085-4.59431906.29288532-10.2344888-3.87306246-14.02266456-20.7228071-18.84706644-26.08713261-21.22073402-39.68379415-30.89272288"/>
        <path fill="#DCDBDB" d="M418.76651126 247.32005652c-37.07607654 50.92271237-64.08829088 88.73073798-81.03664253 113.42407788-22.69759803-14.2742565-30.67690933-20.46388635-45.5899801-31.37761849-31.93261098-23.38101008-65.36332372-44.6101289-97.30085721-67.98410785-6.66900699-4.8828411-18.03347782-13.51908723-34.09341242-25.90873837l-.00000303.00000398c-3.1800149-2.45326447-3.86299657-6.97621381-1.5491571-10.25907102 11.1076232-15.75940776 17.2373809-24.4542654 18.38927225-26.08457113 18.9046913-26.7449148 29.06826975-41.11764325 47.96803798-67.85552719 1.74645216-2.46801972 5.05139626-6.84666354 9.9148326-13.13593152l.00000348.0000027c2.34573354-3.03344091 6.6018473-3.80888576 9.866695-1.79766743 14.36776105 8.85085795 23.70947195 14.76088354 28.02513278 17.73007684 38.86718403 26.78551797 67.591924 46.38540007 105.58799693 74.38404362 5.4987022 4.05420744 18.24451962 13.53336359 38.23745144 28.43746787l-.0000024.00000344c3.2944884 2.45593786 3.99929589 7.10560674 1.58063233 10.42755667z"/>
        <path fill="#C9C9C9" d="M191.28776412 207.27846417s-6.6998135 11.5868451 1.12619672 26.3722395c10.00271222 18.8977567 36.41053957 42.85569911 52.14847982 52.75004747 28.03604661 17.63600885 60.145291 30.41872855 81.84213047 55.5532576 27.43797077-25.20628453 73.76157128-92.533041 73.76157128-92.533041s-71.45731211-74.5092075-109.44384404-85.67631289c-17.49592226-5.14337047-35.89149088 13.04856607-50.34181592 17.08920783-29.748524 8.31836832-49.09271833 26.44460149-49.09271833 26.44460149z"/>
        <path fill="#FFF" d="M229.79030347 146.78583507c5.46517511-8.18309028 6.88192536-10.54136596 12.40734432-12.64747434 1.5564604-.59597188 5.34397178.62206058 6.84025846.74363933 1.08771709.08303292 2.04606036.5278738 2.978883.9804524 6.4715484 3.1315584 12.5588747 6.94582164 18.17253717 11.38869734-.02182152 2.68202797-4.74207222 2.51377316-7.81818714 1.9688495 0 0-12.1180673-.83237327-19.17581525-.84911462-2.841158-.0048306-8.80454396 1.37162954-11.7127477 2.31427172-.43986723.1401303-.8962623.29429502-1.30829483.23198491-1.44688428-.2064877-1.37718772-2.64586647-.38397803-4.13130624z"/>
      </g>
      <g>
        <path fill="#3C1218" d="M230.61084087 228.5889082c-.0275519-4.3866552.4533541-12.8448609 1.80840694-16.86926966 2.46714796-7.31688135 11.59434309-6.16315133 19.33893339-6.45840696 34.9082651-1.3199664 53.1426176-.72697397 80.7320948-.72697397 5.492848.30766133 12.037678-.13150042 12.263103 11.58940409.473392 24.2928401 1.768331 49.967675.849099 76.3967764-.676274 19.4546179.060114 32.0339959-.468382 48.4591419-.405764 12.480133 1.219798 42.266217-.889175 52.498438-1.971214 9.574718-14.8104021 5.989471-33.30775 7.473193-31.7247676.518558-19.3364287 1.099145-52.3636501-.04218-5.9111362-.203453-15.36144-.163755-21.22248189-1.104107-3.31123818-.530964-5.52290483-4.346957-5.98377308-8.659178-2.29432236-21.451935-1.5629445-25.895656-1.6430955-38.777734-.24796715-43.022965 1.13964704-80.753658.88667044-123.7791038z"/>
        <path fill="#DCDBDB" d="M250.7033043 389.360059l75.2654707-.938302c4.059976-.050613 7.342432-3.322937 7.405597-7.382738.237165-15.243308.287381-26.956953.15065-35.140933-.512798-30.338369.58117-60.671294.073632-91.0096632-.10293-6.0951417-.422154-16.447005-.957673-31.0555899h.000002c-.148236-4.0437916-3.4776024-7.2409032-7.5240796-7.2251962-10.0145488.0388731-15.5822784.0612848-16.7031889.0672351-20.0701118.1116081-30.8572709.1742176-50.9221232.2858258-1.4970499.0093003-3.9779283.109084-7.4426352.2993512l-1e-7-.0000029c-3.842668.2110232-6.902018 3.2962503-7.0806684 7.1405594-.558929 12.0273713-.8510639 19.96598-.8764047 23.8158262-.215638 36.1909932-.4733517 62.8517365.2261569 99.0291195.0992685 5.076844.3638965 16.674521.7938841 34.793031h6e-7c.0974917 4.108032 3.4825101 7.3727 7.5913798 7.321477z"/>
        <path fill="#C9C9C9" d="M304.8424205 245.6698378c15.5144637 12.5924155 19.4945372 38.2323941 18.6021989 60.8546062-.5688056 14.494283-.8310385 35.884698-.7866988 64.171245h-.0000058c.0030497 1.945535-1.482274 3.570291-3.4202766 3.74135l-53.6610871 4.736428c-1.8971861.167456-3.6185863-1.113798-4.0026756-2.979229-9.1793355-44.581855-11.5351545-75.2198988-7.0674573-91.9141303 3.1615658-11.8136721 16.9835186-14.9816109 23.2817646-21.4889272 12.9660421-13.3964499 20.9673311-22.059764 27.0542377-17.1213427z"/>
        <path fill="#FFF" d="M269.1056219 229.5340474c.4247704-1.0139536-.8855-2.0577921-2.0339532-2.0876771-6.3243583-.1686365-8.0886161-.3180612-11.2350631 2.2627175-.8877475.7257774-1.6428948 3.6822526-2.130594 4.6898023-.3573465.7300466-.476462 1.5390748-.5820927 2.3352952-.7371676 5.5201769-.9731511 11.1001236-.7034557 16.658724 1.4203961 1.1825901 3.0722807-1.8998289 3.919574-4.1027765 1.9979938-5.1935771 3.6913912-4.275863 6.2849625-8.7799516 1.0450699-1.8123087 4.3073264-8.8137443 5.8760549-10.2460872.2359835-.2177332.4854518-.4397356.6045673-.7300466"/>
      </g>
    </g>
  </g>
</svg>
