<svg xmlns="http://www.w3.org/2000/svg" width="574" height="488" viewBox="0 0 574 488" xmlns:xlink="http://www.w3.org/1999/xlink"><title>gym-010</title><defs><path id="a" d="M.567.368H260.03v170.717H.568V.368z"/></defs><g fill="none" fill-rule="evenodd"><path fill="#D73158" d="M0 0h574v488H0z"/><path fill="#951C27" d="M115.966 384.392s-12.96 12.433 7.974 27.735 87.72 20.084 167.468 18.17C352.432 428.836 430 412.128 430 412.128s18.122-8.718 20-10.127c8-6 12-14.782 12-18.608 0-3.825-3-6.392-12-10.392-9-4-15-9-83-12s-157.332 3.308-180.26 6.178c-22.926 2.87-44.857 7.65-57.816 12.432l-12.958 4.782z"/><path fill="#881A25" d="M153.353 414.134s5.253 2.866 21.01 2.866c15.757 0 149.166-9.554 175.428-13.375 26.263-3.822 58.827-7.643 66.18-11.464 7.354-3.82 17.858-11.464 15.757-16.24-2.1-4.777-1.05-2.867-15.757-5.733-14.706-2.866-144.964 0-176.478 2.866-31.514 2.866-77.735 13.375-85.088 19.108-7.354 5.733-8.404 9.554-8.404 9.554l7.353 12.42z"/><path fill="#6E1620" d="M253.337 399.215s90.108 1.094 122.43-4.377c19.922-3.372 27.646-2.616 34.233-4.838 4.1-1.383 8.624-6.74 9-8 .98-3.283-65.18-15.094-122.967-14-37.602.712-66.667 1.32-90.033 5-12.543 1.975-28.116 5.116-32 9-3 3 1.464 6.93 3 8 3.318 2.312 8.64 1.932 12 2.838 6.166 1.662 10.434 2.845 17 3.282 10.325.69 18.933 2 18.933 2"/><path fill="#3C1218" d="M142.793 141.095c-19.24 35.516-26.77 85.115-15.552 131.05 11.146 45.638 31.867 75.637 77.39 102.03 65.266 32.232 147.87 14.224 196.23-20.915 33.118-24.067 52.82-74.26 54.133-122.385.378-44.17-15.062-83.397-39.044-111.03C392.522 90.036 354.066 62.112 285.225 62c-65.043 0-123.1 39.093-142.433 79.095z"/><g><g transform="translate(163.77 77.313)"><mask id="b" fill="#fff"><use xlink:href="#a"/></mask><path fill="#919191" d="M124.776.394s88.403-3.94 135.255 84.032H117.26s-26.964-.878-49.95 31.515c-6.628 13.57-13.7 27.576-5.744 55.145-11.492-19.254-61-104.603-61-104.603S35.49 3.894 124.777.394" mask="url(#b)"/></g><path fill="#B5B5B5" d="M158.523 301.656s-47.63-73.85 5.903-158.003c12.37 21.23 71.36 122.447 71.36 122.447s12.708 23.56 52.53 27.086c15.177-1.096 30.967-2.03 51.11-22.635C328.32 290.033 278.41 375.15 278.41 375.15s-80.2 0-119.887-73.492"/><path fill="#DCDBDB" d="M278.063 375.01s85.652-145.1 68.827-181.006c-8.553-12.472-17.264-25.54-45.357-32.51 22.593-.22 121.985.016 121.985.016s37.27 61.244-4.318 139.555c0 0-40.767 77.768-141.137 73.945z"/><path fill="#ACACAC" d="M298.317 292.752s22.27-1.707 40.93-21.814c-14.736 20.243-18.365 36.048-27.76 52.397-9.396 16.348-33.424 52.396-33.424 52.396l20.254-82.978z"/><g><path fill="#C9C9C9" d="M340.824 185.517s-26.977-18.105-53.798-24.007c26.01-1.774 69.02-1.466 87.83-1.615 18.81-.15 48.662 1.615 48.662 1.615s-30.224 9.41-43.235 13.187c-13.01 3.778-24.905 6.595-39.46 10.82z"/><path fill="#848484" d="M223.728 245.42c-3.965-6.8-14.497-20.208-23.544-35.69-9.047-15.48-35.844-65.936-35.844-65.936 13.99 13.703 27.282 25.095 41.272 38.798 13.99 13.703 13.557 14.907 19.987 21.206 0 0-6.297 12.822-3.91 31.136l2.038 10.486z"/></g></g><g><path fill="#FFF" d="M358.544 212.96c2.168 9.645 1.625 15.036.657 24.788-.912 9.203-5.236 22.553-10.206 30.376-3.242 5.103-7.5 9.45-12.388 13.114-8.203 6.152-18.18 11.382-28.108 14.042-20.388 5.463-36.394 1.502-53.762-6.92-19.34-9.375-29.93-23.484-34.56-44.198-2.327-10.404-2.014-18.796-1.843-26.723.18-8.27 1.38-15.034 6.985-24.05 9.7-15.6 19.152-24.488 36.374-31.724 11.49-4.827 24.454-6.472 36.64-5.316 7.936.752 15.543 2.117 22.197 6.54 16.167 7.414 31.327 32.474 31.327 32.474 5.3 8.613 6.314 15.934 6.687 17.596z"/><path fill="#3C1218" d="M319.21 174.552c-12.954-6.934-31.044-9.647-47.798-5.605-16.647 4.016-27.59 11.483-37.216 27.89-11.756 23.517-8.453 49.795 4.364 67.22 8.778 11.936 30.35 22.526 47.904 23 16.11.135 30.418-3.43 40.498-12.07 10.872-8.443 24.057-22.12 24.098-46.93 0-23.437-17.26-46.54-31.85-53.505z"/><path fill="#711D2A" d="M247.824 256.4c-3.773-8.148 6.53.71 8.384 2.224C270.968 270.672 279 272.028 279 272.028c-4.37 1.22-2.608 1.37-9.52 0-6.91-1.372-6.984-2.572-10.682-4.556 0 0-7.2-2.922-10.974-11.07zM327.176 195.755c3.773 7.243-6.53-.63-8.384-1.976C304.032 183.07 296 181.863 296 181.863c4.37-1.083 2.608-1.22 9.52 0 6.91 1.22 6.984 2.286 10.682 4.05 0 0 7.2 2.597 10.974 9.84z"/><path fill="#FFF" d="M296.576 221.686c1.022-2.874 1.603-6.016 1.687-9.103.057-6.69-2.273-12.634-5.893-16.82-3.536-4.516-9.34-8.746-19.732-8.763-3.59 0-7.04.792-10.114 2.093l15.072 15.073c.784.784.79 2.048 0 2.838l-9.85 9.85c-.783.784-2.054.782-2.837 0l-15.056-15.056c-1.917 5.02-2.478 11.223-1.063 17.037 1.683 6.914 4.81 11.46 11.683 15.457 6.753 3.348 14.737 3.118 21.442.928l31.347 31.347c.78.78 2.05.78 2.83 0L327.36 255.3c.783-.782.783-2.05 0-2.83l-30.782-30.784z"/><path fill="#CCC" d="M269.414 215.187l-1.667 1.667c-.784.784-2.055.782-2.838 0l-15.056-15.056c-1.917 5.02-2.478 11.223-1.063 17.037 1.683 6.914 4.81 11.46 11.683 15.457 6.753 3.348 14.737 3.118 21.442.928l31.347 31.347c.78.78 2.05.78 2.83 0l10.97-10.97C317.182 252.055 297.69 243.38 290 228c-1.798-3.596-12.278-7.715-20.586-12.813z"/></g></g></svg>