<svg xmlns="http://www.w3.org/2000/svg" width="574" height="488" viewBox="0 0 574 488"><title>gym-010</title><desc>Created with Sketch.</desc><g fill="none" fill-rule="evenodd"><path fill="#D73158" d="M0 0h574v488H0z"/><path fill="#951C27" d="M115.966 384.392s-12.96 12.433 7.974 27.735 87.72 20.084 167.468 18.17C352.432 428.836 430 412.128 430 412.128s18.122-8.718 20-10.127c8-6 12-14.782 12-18.608 0-3.825-3-6.392-12-10.392-9-4-15-9-83-12s-157.332 3.308-180.26 6.178c-22.926 2.87-44.857 7.65-57.816 12.432l-12.958 4.782z"/><path fill="#881A25" d="M153.353 414.134s5.253 2.866 21.01 2.866c15.757 0 149.166-9.554 175.428-13.375 26.263-3.822 58.827-7.643 66.18-11.464 7.354-3.82 17.858-11.464 15.757-16.24-2.1-4.777-1.05-2.867-15.757-5.733-14.706-2.866-144.964 0-176.478 2.866-31.514 2.866-77.735 13.375-85.088 19.108-7.354 5.733-8.404 9.554-8.404 9.554l7.353 12.42z"/><path fill="#6E1620" d="M253.337 399.215s90.108 1.094 122.43-4.377c19.922-3.372 27.646-2.616 34.233-4.838 4.1-1.383 8.624-6.74 9-8 .98-3.283-65.18-15.094-122.967-14-37.602.712-66.667 1.32-90.033 5-12.543 1.975-28.116 5.116-32 9-3 3 1.464 6.93 3 8 3.318 2.312 8.64 1.932 12 2.838 6.166 1.662 10.434 2.845 17 3.282 10.325.69 18.933 2 18.933 2"/><g><path fill="#3C1218" d="M141.793 140.095c-19.24 35.516-26.77 85.115-15.552 131.05 11.146 45.638 31.867 75.637 77.39 102.03 65.266 32.232 147.87 14.224 196.23-20.915 33.118-24.067 52.82-74.26 54.133-122.385.378-44.17-15.062-83.397-39.044-111.03C391.522 89.036 353.066 61.112 284.225 61c-65.043 0-123.1 39.093-142.433 79.095z"/><path fill="#DCDBDB" d="M199.706 104.984c-4.36 2.977-8.8 6.265-13.582 9.96-46.462 35.894-55.697 88.524-46.213 141.564 4.38 24.487 17.51 49.44 32.93 69.845 16.145 21.363 39.967 33.868 66.372 39.044 15.295 5.204 31.708 8.028 48.788 8.028 82.843 0 150-66.456 150-148.434 0-81.976-67.157-148.433-150-148.433-33.006 0-63.523 10.55-88.294 28.427z"/><path fill="#C9C9C9" d="M243.082 260.14c9.777 4.76 19.942 9.12 30.78 10.78 6.613 1.014 13.32 1.003 20.03.99 3.05-.006 6.102-.012 9.144.08 11.606.345 23.163 2.11 34.3 5.23 11.35 3.184 22.68 7.827 34.48 7.065 13.295-.86 25.818-8.555 39.046-7.027 3.653.423 3.846 1.67 6.236 4.34 3.044 3.398-4.962 18.587-7.47 22.68C394.063 329.654 366.772 364.378 308 373c-18.84 2.764-38.577.942-52.79-1.28-14.21-2.22-37.82-7.845-52.797-19.114-9.837-7.4-20.303-18.268-27.413-28.106-16.434-22.737-26.862-47.253-28.732-74.81-.553-8.145-.127-16.316.343-24.465 1.1-19.19 2.53-38.81 10.496-56.463 5.01-11.106 12.437-21.035 19.81-30.87 4.112-5.487 48.206 113.502 66.166 122.248z"/><path fill="#FFF" d="M400.89 154.934c11.723 28.932-13.05-7.397-18.815-12.772C336.207 99.387 304 99.452 304 99.452c13.583-4.328 8.105-4.87 29.585 0s21.707 9.13 33.2 16.174c0 0 22.38 10.377 34.104 39.308z"/></g><g><path fill="#3C1218" d="M325 139c-26.808-23.562-52.287-50.037-52.287-50.037s3.666 36.848-53.798 62.205c-57.465 25.357-59.055 79.925-59.055 99.276 0 16.657 16.93 74.846 75.074 98.81-19.846-11.328-32.148-29.485-32.148-53.73 0-6.104 1.465-18.924 3.97-24.12 8.25-17.117 5.05-14.024 13.46-22.127 12.32-11.867 31.584-20.31 51.403-20.148-8.393-9.614-13.447-22.016-13.447-35.553 0-30.545 25.728-55.306 57.465-55.306 3.188 0 6.315.25 9.36.73zM371 178.71c17.453 18.685 34.535 43.618 37.41 62.394 2.588 16.898.926 21.842-1.384 31.362-4.512 18.594-13.847 32.03-13.847 32.03s-24.687 37.994-73.157 50.824c21.568-11.53 36.56-36.515 32.31-59.793-2.214-12.128-3.5-23.09-9.54-32.222-3.677-5.555-8.293-10.492-13.635-14.767 13.324-1.007 24.02-4.928 32.616-20.133 11.33-20.04 11.33-23.37 11.33-34.826 0-5.152-.733-10.138-2.102-14.87z"/><path fill="#3C1218" d="M278.944 338.17c24.472 0 44.31-19.093 44.31-42.645 0-6.404 0-12.432-4.902-21.617-4.043-7.575-7.584-11.018-15.198-15.447-6.628-3.853-15.124-5.843-24.21-5.843-11.833 0-20.396 2.95-27.897 9.184-9.498 7.896-16.413 20.565-16.413 33.725 0 23.552 19.838 42.645 44.31 42.645zM283.098 200.61c0 2.207 1.097 5.406 2.45 7.145l5.17 6.644c1.352 1.738 4.095 3.86 6.133 4.706 0 0 12.773 5.788 20.173 5.788 20.87 0 33.925-14.618 33.925-32.65 0-18.032-15.19-32.65-33.925-32.65-7.184 0-18.37 4.86-23.856 10.778-8.82 9.52-10.07 21.872-10.07 21.872v8.365z"/><path fill="#711D2A" d="M206.502 188.95c21.983-18.144-46.28-.207-23.58 57.18 0 0 1.596-39.036 23.58-57.18z"/></g></g></svg>
