<svg width="574" height="488" viewBox="0 0 574 488" xmlns="http://www.w3.org/2000/svg" xmlns:xlink="http://www.w3.org/1999/xlink">
  <title>(GYM 006) Information Design and Visualization Fundamentals</title>
  <desc>Learn the design and visual principles needed to create effective information graphics and data visualizations.</desc>
  <g fill="none" fill-rule="evenodd">
    <path fill="#2C9959" d="M0 0h574v488H0z"/>
    <path fill="#1A6839" d="M250.4 343.2c-47.2 0-95.1 13.6-140.8 27-9.9 2.9-21.2 6.9-24.3 15-4.8 12.5 13.1 21.5 28.1 25.2 56.7 14.2 116.5 21.3 176.8 21.3 43.8 0 87.9-3.8 131.3-11.4 18.6-3.2 38-7.5 52.5-18 14.4-10.5 22-29 11.9-41.5-29.1-11.3-61.7-17.2-94.7-17.2-11.5 0-23.2.7-34.7 2.2-12.4 1.6-24.9 4-37.3 4h-.8c-13.4-.1-26.3-3.1-39.5-4.8-9.5-1.3-19-1.8-28.5-1.8z"/>
    <path fill="#185B32" d="M422.8 367.5v.3c1.2 12-50.7 17.1-57.7 18.1-53.1 7.3-139.2 6.7-164.5 6.8h-.1c-7.9 0-28-1.8-43.1-4.4.3.2.7.4 1.1.7 7.6 4.4 16.5 5.8 25.2 6.9 67.9 9.2 136.3 13.8 204.8 13.8 6.7 0 13.5 0 20.2-.1 13.7-.2 27.7-.6 40.6-5.3-1.2-10.5 14-18.8-9-30.1-5.8-2.4-11.6-4.7-17.5-6.7m-177.5-18.9c-33.9 0-67.8 6.3-99.2 18.8-.4 3.3.2 6.6 1.5 9.6 1.6-.4 3.4-.8 5.5-1.2 21.2-3.9 180.3-9.8 190.5-10.3 6.4-.3 17.4-1.5 24.6-1.5h2.1c1.2.1 2.9.1 4.9.1 2.2 0 4.8 0 7.6-.1h8.9c8.1 0 16.6.1 22.7.8-10.3-3.1-20.7-5.5-31.3-7.2-7.8-1.3-15.7-2.3-23.7-2.3-4.2 0-8.5.3-12.7.9-6.5 1-13 2.7-19.6 2.8h-.4c-7 0-13.8-1.8-20.5-3.4-20-4.7-40.5-7-60.9-7"/>
    <path fill="#17522E" d="M147.6 376.6c-17.5 4.4-6.8 8.6 9.8 11.7-4.2-2.9-7.8-7-9.8-11.7M414.4 364c2.8.8 5.6 1.8 8.4 2.8-.5-1.4-3.7-2.3-8.4-2.8"/>
    <path fill="#164C2A" d="M370.6 363c-7.3 0-18.5 1.2-25 1.6-10.3.5-171.5 6.6-193 10.8-2.1.4-4 .8-5.6 1.2 2 4.7 5.6 8.9 9.9 11.8 15.4 2.8 35.7 4.6 43.8 4.6h.1c25.6-.1 112.8.5 166.7-7.1 7.1-1 59.7-6.4 58.5-19 0 0 0-.1-.1-.2-2.8-1-5.6-2-8.5-2.8-6.2-.8-14.8-.9-22.9-.9h-9.1c-2.9.1-5.5.1-7.7.1-2 0-3.7 0-5-.1h-2.1"/>
    <g>
      <path fill="#0E2214" d="M148.7 144.7c-7.6 15.9-16.9 39.5-19.4 56.8-1.4 9.5-9.6 41.9 8.9 98.7 11.3 22.4 26.2 38.4 35.2 47.8 18.3 18.9 35.5 24 60.5 30.2 17.9 4.4 35.1 6.7 53.7 6.7 19.3 0 38.6-4.2 56.7-10.2 12-3.9 33.3-13.9 45.8-25.1 11.5-10.4 25-21.8 33.6-36.4 8.1-14.1 14.6-27.5 18.8-42.8 8.4-30 5.6-58.5-3.4-87-6-18.8-14.7-37.6-22-51.1-7-12.8-38.6-44.2-51.6-50.6-44.2-21.8-90.8-27.3-137.2-9.2-39.4 15.3-60.7 33.1-79.6 72.2"/>
      <path fill="#DCDBDB" d="M223.1 94.6c-6.1 3.1-13.4 6.7-18.4 11.5-4 3.7-15.7 13.8-20.6 18.8-24.1 15.7-30.9 53.9-34.5 64.6-1.8 5.2-5.5 32.3-5.5 37.7 0 16.4-.4 24.2 2.6 40.2 1.7 9 4.4 13.7 10.7 26.2 6.4 13 9.1 16.9 16.7 24.8 10.2 12.4 9.8 11.2 20.3 16.2 11.9 5.6 21.8 6.3 32.5 13.4 8.7 5.8 16.5 15.2 28.2 17.2 10.8 2 25.9 1.4 37 1.4 22.4-.1 37.8.1 62.4-13.1 10-5.5 28.8-18.7 36.9-27.2 23.3-24.7 30.6-49.8 34.2-61.9 6.1-20.4 5-57.5 1.6-67-2.1-10.7-5.7-23.9-14.6-37.9-3.7-5.9-8.7-13.7-16-22.6-5-6.2-14.4-17.9-26.4-29.1-13.5-12.5-22.7-15.9-32.8-20-14.4-5.8-40.2-7.8-49.3-8.2-9.5-.5-23.8 2.1-33 4.4-15.7 3.8-23.4 6.3-32 10.6"/>
      <path fill="#C9C9C9" d="M250.8 272c13.7 6.7 34 37.3 65.4 24 11.1-4.6 54.5-41 66.5-41.8 13.5-.9 25.9-49.5 24-80.3-2.5-40.2 36.6 46.7 13.4 103.7-9.5 23-16.6 30.6-19.2 34.8-15.8 25.8-32.7 37.5-59.8 49.1-8.6 3.7-18.3 5.9-27.6 7.2-19.2 2.6-38.7 2.6-57.9.6-19.3-2-41.5-13.4-56.7-24.8-10-7.6-16.8-16.6-24.8-26.1-21.5-25.6-27.4-45.3-29.3-73.3-.5-8.3-.1-16.6.4-24.9 1.1-19.5 3.8-24.3 8.3-43.4 3.9-16.4 15-35.4 22.5-45.5 4.2-5.5 16.1-14.4 21.4-19 7.7-6.7 16.2-13.7 25.7-17.7 14.8-6.2 24.1 1.2 40.2 2.3C288.1 109.4 146.4 229 250.8 272"/>
      <path fill="#C9C9C9" d="M298.4 320.9c1.3-47.2.7-84.8-1.5-127.4-9.2.1-20.7-1.8-30.2-1.3-2.1 41.5-1.4 87.1 1 128.7 14 6.4 18-3.3 30.7 0M265.6 142.2c4.4-1.1 12.7-.6 17.3-.8 5.9-.3 10.5-1.7 16.2-.1.2 4.9.5 9.8 0 14.6-.3 3.1 2 12.4-.8 14.3-2.6 1.9-11.5.7-14.8.6-6.1-.4-13.1.6-19.1-.1.7-3.8.3-7.5.8-11.4.6-5.4.4-17.1.4-17.1"/>
      <path fill="#0E2214" d="M304.9 321.1c1.2-47.3.7-84.9-1.5-127.5-9.3.2-20.7-1.8-30.3-1.3-2.1 41.5-1.3 87.1 1.1 128.8 13.9 6.3 17.9-3.3 30.7 0M272.1 142.4c4.4-1.1 12.7-.7 17.2-.9 5.9-.3 10.6-1.7 16.2-.1.3 4.9.5 9.8 0 14.6-.3 3.1 2 12.4-.7 14.3-2.7 2-11.6.7-14.8.6-6.2-.3-13.1.6-19.1-.1.6-3.8.3-7.5.7-11.4.6-5.4.5-17 .5-17"/>
      <path fill="#FFF" d="M337 348.8c-108.4 37.5-148.1-61.4-136-46.6 47.2 57.7 106.3 46 156 36.8l-20 9.8"/>
    </g>
  </g>
</svg>
