<svg xmlns="http://www.w3.org/2000/svg" width="574" height="488" viewBox="0 0 574 488" version="1"><title>gym-103</title><desc>Created with Sketch.</desc><g fill="none" fill-rule="evenodd"><path fill="#5CA5A0" d="M0 0h574v488H0z"/><path fill="#315A5B" d="M252 423c-23 0-45 1-67 1h-15c-18 0-35-1-52-4-21-4-40-12-52-24-8-16 2-35 24-42 8-3 18-4 28-5 27-3 54-6 82-9 5 0 11-1 16-1 14-1 27-1 41-1h34c55 0 105 4 142 12 18 1 36 4 51 11 1 2 2 4 2 6 2 1 3 2 4 3 12 5 20 13 21 21 1 11-13 21-29 26-16 4-35 4-53 4-27 1-54 1-80 1-19 1-38 2-58 2-14 0-27 0-39-1z"/><path fill="#2C4F4F" d="M192 351c-15 0-30 1-43 5-6 2-11 5-16 8-13 7-51 2-34 26 16 7 33 14 51 17 12 2 25 2 37 2 58 0 118 1 181 1h12c23 0 47-1 69-7 21-7 38-20 37-35-6-2-13-4-19-6-22-3-44-2-65-3-12-1-23-2-34-4-6 1-12 1-18 1-9 0-18-1-27-1-37-1-74-2-110-4h-21"/><path fill="#274444" d="M396 358c7 0 18-2 25 1 11 3 40 10 40 10 9 37-105 24-112 24-228 8-223-12-223-12s16-24 37-20c19-7 223-4 233-3"/><g><path fill="#4C8884" d="M241 337h-3c-7 0-14 1-21 1h40c-5-1-10-1-16-1"/><path fill="#1F2935" d="M173 227l3 150 230-3 3-318-253 34 17 137"/><path fill="#1F2935" d="M163 227l5 153 238-6-40-327-84 22-76 12-40 8-3 138"/><path fill="#1F2935" d="M164 216l2 172 33-2 105 3 67-3 54 1 6-319-273 21c-5 0-9 4-8 9l3 27 4 43 7 48"/><path fill="#E2E2E2" d="M173 216l-7-52-5-64 185-12 70-9-4 296-57-2-179 4-3-161"/><path fill="#C9C9C9" d="M401 324c15-32-22-47-40-70-10-13 16-14 22-25 14-25 35-60 14-88-6-12 15-20 10-29-11-20-43-18-70-23l-77 4c36 14 74 8 84 41 9 19-24 36-31 68-6 33 32 59 18 87-17 37-61 43-60 86l75-1 34 1c-2-4-3-7-3-11-2-16 18-26 24-40"/><path fill="#B7B7B7" d="M417 223l5-145-83 11h-4c27 5 57 3 69 23 4 9-16 17-10 29 20 29 0 63-14 88-6 11-31 12-22 25 18 23 54 38 40 70-6 14-26 24-24 40 0 4 1 7 3 11l37 1 3-153"/><path fill="#1F2935" d="M301 166c0 31-27 56-59 57-22 0-40-11-50-27-5-8-7-17-7-27 0-14 7-25 17-35s24-20 40-21c12-1 27 0 36 6 16 9 23 28 23 47"/><path fill="#E2E2E2" d="M267 174l-5 1c-5 0-9-3-10-8v-3c2-3 3-5 4-8 0-1 1-1 1-1 2-2 2-5 0-7v-1c-1-3-1-5-1-8s-1-6-4-8c-2-2-4-3-7-3s-7 0-10 1-5 3-7 6c-1 2-2 4-2 7 0 2 1 5 1 8l-1 1c-1 2 0 5 2 6 1 1 1 1 1 2 1 2 3 5 4 6l1 3c0 5-4 9-9 10h-4s-9 3-13 14v5c0 2 2 4 5 4l65-5c2-1 4-3 4-5v-5c-6-10-15-12-15-12"/><path fill="#1F2935" d="M239 153v-1c0-3 5-5 5-8 0-1-2-2-3-2-3 1-4 3-5 2l-2-2v-1s2-3 8-4c4 0 8 2 8 6 0 5-6 6-5 10l-1 1h-4c-1 0-1 0-1-1zm3 4c2 0 4 2 4 3 0 2-1 4-3 4s-4-1-4-3 1-4 3-4z"/><path fill="#353535" d="M318 125l46-5 37-1c2-1 4-2 3-4 0-2-1-3-3-3l-37 1-47 5c-2 0-3 2-3 4s2 3 4 3M322 148l33-1 21-4c2 0 4-2 3-4 0-2-2-3-4-3l-20 4-34 1c-2 0-3 2-3 4s2 3 4 3M322 171h23l48-6c2 0 3-1 3-3s-2-4-4-3l-48 5h-22c-2 1-4 2-4 4s2 4 4 3"/><path fill="#1F2935" d="M246 290v-3l-48 2-1-43 44-1 1 45h4v-3 3h3l-1-52-58 1 2 57 58-3-1-3h-3M317 285v-3l-49 2-2-42 47-3v46h4v-3 3h3l-1-53-60 3 3 56 58-3v-3h-3M393 282v-3l-53 1-1-42 50-2 1 46h3v-3 3h4l-1-53-64 2 2 56 63-1v-4h-4"/><path fill="#1F2935" d="M191 245l53 48 4-5-52-48M260 241l55 47 4-6-54-46M333 237l58 48 5-5-59-48"/><path fill="#353535" d="M194 317l130-5 49-1c2 0 4-1 4-3s-2-3-4-3h-49l-130 5c-2 0-3 2-3 3 0 2 2 4 3 4M196 339l87-3h54c2 0 4-1 4-3s-2-4-4-4h-54l-87 3c-2 0-4 2-4 4s2 3 4 3M199 360l105-2 85-3c2 0 3-1 3-3s-1-4-3-4l-86 3-104 2c-2 0-3 2-3 4s1 3 3 3"/><path fill="#1F2935" d="M156 115h-2s-1 0-1 1c-1 0-3 1-4 1-2 1-4 1-7 1-1 1-2 1-3 1-2 0-5-1-7-1 0-1-1-1-1-1h-1 1-1 1-1 1-1 1-1 1-1 1-1 1-1 1l1-1c1 0 2-1 4-2 2 0 4 0 6-1h3c3 0 5 1 7 1 1 0 1 1 2 1h2l3-1s0-1-1-2c0-1-1-1-2-2s-3-1-5-1c-2-1-4-1-6-1h-3c-5 0-8 1-11 3-1 0-3 1-4 2 0 0-1 1-1 2 0 0-1 1-1 2 1 1 1 2 1 2l2 2c2 1 3 2 5 2 2 1 4 1 6 1h4c4-1 8-2 10-3s3-1 4-2 1-1 1-2c1-1 1-1 1-2v-1l-3 1M159 140h-3 1-1 1-1 1-1 1-1l-1 1s-2 1-4 1c-2 1-4 1-6 2h-3c-3 0-5-1-7-1-1-1-1-1-2-1h-1 1-1 1l1-1c1 0 2-1 4-1 2-1 4-1 7-2h2c3 0 6 1 7 1 1 1 2 1 2 1h1-1 1-1 1-1 1-1 5v-2l-3-3c-1 0-3-1-5-1-1-1-4-1-6-1h-3c-4 1-8 1-10 3-2 0-3 1-4 2-1 0-1 1-1 2-1 0-1 1-1 2s0 2 1 2c0 1 1 2 2 3 1 0 3 1 5 1 2 1 4 1 6 1h3c4-1 8-1 11-3 1 0 3-1 4-2 0-1 1-1 1-2v-2h-2M161 165h-2l-1 1c-1 0-2 1-4 2-2 0-4 0-7 1h-2c-3 0-6-1-7-1-1-1-2-1-2-1h-1 1-1 1-1 1-1 1-1 1-1 1-1 1-1 1-1 1-1 1l1-1s2-1 4-1c2-1 4-1 6-1 1-1 2-1 3-1 3 0 5 1 7 1 1 1 1 1 2 1h5c0-1 0-2-1-2 0-1-1-2-2-2-1-1-3-2-5-2-2-1-4-1-6-1h-3c-4 1-8 1-11 3-1 0-3 1-4 2 0 0-1 1-1 2v4l3 3c1 0 3 1 5 1 1 1 4 1 6 1h3c4 0 8-1 10-3 2 0 3-1 4-2 1 0 1-1 1-2 1 0 1-1 1-2h-3M164 190h-3 1-1 1-1 1-1 1-1 1-1 1-1s0 1-1 1c0 1-2 1-4 2-1 0-4 1-6 1h-2c-3 0-6-1-8-1-1-1-1-1-2-1 0 0 1 0 1-1 1 0 2-1 4-1 2-1 4-1 7-1h2c3 0 6 0 7 1 1 0 2 0 2 1h1-1 1-1l1-1h-1v1l1-1h-1 6c-1-1-1-1-1-2-1-1-2-2-3-2-1-1-3-2-5-2s-4-1-6-1h-3c-4 1-7 2-10 3-2 0-3 1-4 2s-1 1-1 2c-1 0-1 1-1 2s0 2 1 2c0 1 1 2 2 3 2 0 3 1 5 1 2 1 4 1 7 1h2c4 0 8-1 11-2 1-1 3-2 4-3l1-1c0-1 1-2 1-3h-3M166 215l-2 1v-1 1-1 1-1 1-1s0 1-1 1c-1 1-2 1-4 2-2 0-4 1-7 1h-2c-3 0-6-1-7-1s-2-1-2-1h-1 1-1 1-1 1-1 1-1 1-1 1l1-1s2-1 4-1c2-1 4-1 6-1h2c3 0 6 0 8 1 1 0 1 0 2 1l2-1h3s0-1-1-2c0-1-1-2-2-2-1-1-3-2-5-2s-4-1-7-1c-1 0-1 0-2 1-4 0-8 1-11 2-1 0-2 1-3 2l-2 2v4l3 3c1 1 3 1 5 2h9c4 0 8-1 10-2s3-2 4-2c1-1 1-1 1-2 1-1 1-2 1-2v-1h-3M168 241h-3 1-1 1-1 1-1 1-1 1-1 1-1c-1 1-3 2-5 2-1 1-4 1-6 1h-2c-3 0-6 0-8-1-1 0-1-1-1-1h-2 1-1 2c1-1 3-2 4-2 2-1 4-1 7-1h2c3 0 6 0 7 1 1 0 2 1 2 1h1-1 1-1 1-1 1-1 6c0-1-1-2-1-2-1-2-1-2-2-3-2-1-4-1-6-2h-8c-5 0-8 1-11 2-2 0-3 1-4 2 0 1-1 1-1 2-1 0-1 1-1 2s0 2 1 2c0 1 1 2 2 3 2 1 4 1 6 2h8c4 0 8-1 11-2 1-1 3-1 4-2 0-1 1-1 1-2s1-1 1-2h-3M169 266h-3 1-1 1-1 1-1 1-1l-1 1c-1 0-2 1-4 1-2 1-4 1-6 1h-2c-3 0-6 0-8-1-1 0-2-1-2-1h-1 1-1 1-1 1-1 1-1 1-1 2c1-1 2-1 4-2 2 0 4-1 6-1h2c3 0 6 1 8 1 1 1 2 1 2 1h1-1 1-1 5v-2l-3-3c-1 0-3-1-5-1-2-1-5-1-7-1h-2c-4 0-8 1-11 2-1 1-2 1-3 2l-2 2v5c1 1 2 1 3 2s3 1 5 2c2 0 5 1 7 1 1 0 1-1 2-1 4 0 8 0 11-2 1 0 2-1 3-2 1 0 1-1 2-2v-2h-2M169 291h-2l-1 1c-1 1-3 1-4 2h-7c0 1-1 1-1 1-4 0-7-1-8-2-1 0-2 0-2-1h-1v1-1 1-1 1-1 1l1-1c1-1 3-1 4-2 2 0 5-1 7-1h1c4 0 7 1 8 2 1 0 2 0 2 1h1v-1 1-1h5s-1-1-1-2c-1-1-1-2-2-2-2-1-4-2-6-2-2-1-4-1-7-1h-1c-4 0-8 1-11 2-2 1-3 1-4 2 0 1-1 1-1 2-1 1-1 2-1 2v1s1 1 1 2c1 1 1 2 2 2 2 1 4 2 6 2 2 1 4 1 7 1h1c4 0 8-1 11-2 1-1 3-2 4-3l1-1c1-1 1-2 1-3h-3M170 317h-3 1-1 1-1-1c-1 1-2 1-4 2-2 0-4 1-6 1h-2c-3 0-6-1-8-1-1-1-2-1-2-1v-1 1-1 1h-1 1-1 1-1 1-1 1s0-1 1-1c1-1 2-1 4-2h8c3 0 6 0 8 1 1 0 2 1 2 1h1-1 1-1 3-3 5v-3c-1-1-2-1-3-2s-3-2-5-2c-3 0-5-1-7-1h-2c-4 1-8 1-10 2s-3 2-4 3c-1 0-1 1-2 1v5c1 1 2 2 3 2 1 1 3 2 5 2 3 1 5 1 7 1h2c4 0 8-1 11-2 1-1 2-1 3-2l2-2v-2h-2M170 342h-2s-1 0-1 1c-1 0-3 1-4 1-2 1-4 1-7 1h-1c-3 0-6-1-8-1-1-1-2-1-2-1l-1-1v1h1l-1-1v1h1-2 2-2 2-1 1-1 1-1 1-1 1c-1 0 0 0 0-1 1 0 3-1 5-1 1-1 4-1 6-1h1c3 0 6 0 8 1 1 0 2 1 2 1h3-2 5c0-1 0-2-1-2 0-1-1-2-2-3-2-1-4-1-6-2h-7-1c-4 0-8 0-11 2-1 0-3 1-4 2l-1 1c0 1-1 2-1 3s1 1 1 2l3 3c1 0 3 1 5 1 2 1 5 1 7 1h1c4 0 8-1 11-2 2 0 3-1 4-2 0 0 1-1 1-2 1 0 1-1 1-2h-3M171 367h-3 1-1 1-1s0 1-1 1-2 1-4 1c-2 1-4 1-6 1h-1c-3 0-7 0-9-1-1 0-1-1-2-1h-2 2-2 2-1 1-1 1l1-1c1 0 2-1 4-1 2-1 4-1 7-1 4 0 7 1 9 1 1 1 2 1 2 1v1l1-1h-1v1l1-1h-1 3-3 5v-2c-1-1-2-2-3-2-1-1-3-2-6-2-2-1-4-1-7-1h-1c-4 0-7 1-10 2-2 0-3 1-4 2-1 0-1 1-2 2v2h1-1 1-1v2l3 3c2 1 4 1 6 2h8c4 0 8 0 11-1l3-3c1 0 1-1 2-1v-3h-2"/><path fill="#1F2935" d="M157 107h-3 1-1 1-1 1-1 1-1 1-1 1-1l-1 1-4 2c-1 0-4 0-6 1h-3c-3 0-5-1-7-1l-1-1h-1 1-1 1-1 1-1c1 0 1 0 1-1 1 0 3-1 5-1 1-1 3-1 6-2h3c3 0 5 1 7 1l1 1h1-1 1-1 6c0-1-1-2-1-2-1-1-1-2-2-3-2 0-3-1-5-1-2-1-4-1-6-1h-4c-4 1-7 2-10 3-2 0-3 1-4 2 0 1-1 1-1 2-1 0-1 1-1 2s1 2 1 2c1 1 1 2 2 3 2 0 3 1 5 1 2 1 4 1 6 1h4c4-1 7-1 10-3 2 0 3-1 4-2 0-1 1-1 1-2 0 0 1-1 1-2h-3M160 132h-3 1-1 1-1 1-1 1-1l-1 1c-1 0-2 1-4 2-2 0-4 1-6 1h-3c-3 0-6-1-7-1s-2-1-2-1h-1 1-1 1-1 1-1 1-1 1-1 1l1-1c1 0 2-1 4-1 2-1 4-1 6-1 1 0 2-1 3-1 3 0 6 1 7 1 1 1 2 1 2 1h1-1 1-1 5v-2c-1-1-2-2-3-2-1-1-3-2-5-2-2-1-4-1-6-1h-3c-4 1-8 2-11 3-1 0-2 1-3 2l-2 2v4l3 3c1 1 3 1 5 1 2 1 4 1 6 1h3c4 0 8-1 11-3 1 0 2-1 3-2 1 0 1-1 2-2v-2h-2M162 157h-2l-1 1c-1 1-3 1-4 2-2 0-4 1-7 1h-2c-3 0-6-1-8-1l-1-1h-1 1-1 1-1 1-1 1-1 1-1 1-1 1-1 1-1 1-1 1c1-1 3-2 5-2 1-1 4-1 6-1h2c3 0 6 0 8 1 1 0 1 0 1 1h1v-1 1-1h5c0-1-1-1-1-2s-1-2-2-2c-2-1-3-2-5-2s-4-1-7-1c-1 0-2 0-2 1-5 0-8 1-11 2-2 1-3 1-4 2 0 1-1 1-1 2s-1 1-1 2 1 2 1 2c1 2 1 2 2 3 2 1 3 1 5 2h10c4 0 7-1 10-2 2-1 3-2 4-3l1-1c1-1 1-2 1-3h-3M165 182l-3 1h1-1 1-1 1l-1-1v1h1l-1-1v1-1 1-1s0 1-1 1c-1 1-2 1-4 2-2 0-4 1-6 1h-3c-3 0-5 0-7-1-1 0-2-1-2-1h-1 1-1 1-1 1-1 2c1-1 2-2 4-2 2-1 4-1 6-1h3c3 0 6 0 7 1 1 0 2 0 2 1h1-1 1-1l3-1h2v-2c-1-1-2-2-3-2-1-1-3-1-5-2h-9c-4 0-8 1-11 2-1 1-2 1-3 2l-2 2v2c0 1 0 2 1 2 0 2 1 2 2 3s3 1 5 2h9c4 0 8-1 11-2 1-1 2-2 3-2l2-2v-3h-2M167 208h-2-1c-1 1-2 2-4 2-2 1-4 1-7 1h-2c-3 0-6 0-7-1-1 0-2-1-2-1h-1 1-1 1-1 1-1 1-1 1-1 1-1 1-1 1-1 1-1 1c1-1 3-2 5-2 1-1 4-1 6-1h2c3 0 6 0 8 1 1 0 1 1 2 1h5c0-1 0-2-1-3 0-1-1-1-2-2-2-1-3-1-5-2h-9c-4 0-8 1-11 2-1 1-3 1-4 2 0 1-1 1-1 2s-1 1-1 2 1 2 1 3c1 1 2 1 3 2s3 1 5 2h9c4 0 7-1 10-2 2-1 3-1 4-2 0-1 1-1 1-2 1-1 1-1 1-2h-3M169 233h-3 1-1 1-1 1-1 1-1 1-1 1-1l-1 1s-2 1-4 1c-2 1-4 1-6 1h-2c-3 0-6 0-8-1-1 0-1-1-2-1h-1 1-1 2c1-1 2-1 4-2 2 0 4-1 7-1h1c4 0 6 0 8 1 1 0 2 1 2 1h1-1 1-1 5v-2l-3-3c-1-1-3-1-5-2h-7-2c-4 0-7 1-10 2-2 1-3 1-4 2s-1 1-1 2c-1 1-1 1-1 2s0 2 1 3c0 1 1 1 2 2 2 1 3 1 5 2h9c4 0 8-1 11-2 1 0 3-1 4-2 0-1 1-1 1-2v-2h-2M169 258h-2s0 1-1 1-2 1-4 2h-7-1c-3 0-6 0-8-1-1 0-2 0-2-1h-1 1-1 1-1 1-1 1-1l1 1v-1h-1l1 1s0-1 1-1c0-1 2-1 4-2 2 0 4-1 6-1h2c3 0 6 1 8 1 1 1 1 1 2 1v1-1 1-1h5c0-1 0-1-1-2 0-1-1-2-2-2-2-1-3-2-5-2-2-1-5-1-7-1h-2c-4 0-8 1-11 2-1 1-3 2-4 2 0 1-1 1-1 2v5c1 1 2 2 3 2 1 1 3 2 5 2s4 1 7 1h2c4-1 7-1 10-2 2-1 3-2 4-3 1 0 1-1 1-1 1-1 1-2 1-3h-3M170 284h-3 1-1 1-1 1l-1-1v1h1l-1-1 1 1-1-1 1 1-1-1v1c-1 1-3 1-5 2-1 0-4 1-6 1h-1c-4 0-7-1-9-1-1-1-1-1-2-1v-1 1-1 1h-1 1-1 1l1-1c1-1 2-1 4-2h8c3 0 6 0 8 1 1 0 2 0 2 1h1-1 1-1 3l3-1s-1-1-1-2c-1-1-2-2-3-2-1-1-3-2-5-2s-4-1-7-1h-1c-5 0-8 1-11 2-2 1-3 2-4 3-1 0-1 1-1 1-1 1-1 2-1 3s0 1 1 2c0 1 1 2 2 2 2 1 4 2 6 2 2 1 4 1 7 1h1c4 0 8-1 11-2 1-1 3-1 4-2 0-1 1-1 1-2s1-2 1-2v-1l-3 1M170 309h-2-1c-1 1-2 2-4 2-2 1-4 1-7 1h-1c-3 0-6-1-8-1-1-1-2-1-2-1v-1l-1 1h1v-1l-1 1h1-1 1-1 1-1 1-1 1l1-1s2-1 4-1c2-1 4-1 6-1h1c4 0 7 0 9 1 1 0 1 1 2 1h2-2 5c0-1 0-2-1-2 0-1-1-2-2-3-2-1-3-1-6-2h-7-1c-4 0-8 0-11 2-1 0-2 1-3 2-1 0-1 1-2 1v5l3 3c1 0 3 1 5 1 2 1 5 1 7 1h2c4 0 7-1 10-2 2 0 3-1 4-2l2-2v-2h-3M171 334h-3 1-1 1-1 1-1 1-1v1c-1 0-3 1-5 1-1 1-4 1-6 1h-1c-3 0-6 0-8-1-1 0-2-1-2-1h-2 1-1 1s1 0 1-1c1 0 2-1 4-1 2-1 4-1 7-1h1c3 0 6 0 8 1 1 1 2 1 2 1v1l1-1h-1v1l1-1h-1 3-3 6c0-1-1-1-1-2l-3-3c-1 0-3-1-5-2h-8c-4 0-8 1-11 2-2 0-3 1-4 2 0 0-1 1-1 2-1 0-1 1-1 2s0 2 1 2c0 1 1 2 2 3 2 1 4 1 6 2h8c4 0 8 0 11-2 1 0 3-1 4-2l1-1c0-1 1-2 1-3h-3M172 360h-3 1l-1-1v1h1l-1-1s0 1-1 1c-1 1-2 1-4 2h-7c-4 0-7 0-9-1-1 0-2-1-2-1h-1 1-1 1-2 2-2 2-1 1-1 2c1-1 2-2 4-2s4-1 6-1h1c4 0 7 1 9 1l2 2h3-3 3l2-1v-2c-1-1-2-2-3-2-2-1-4-2-6-2-2-1-4-1-7-1h-1c-4 0-8 1-11 2-1 0-2 1-3 2l-2 2v2h1-1 1-1v2l3 3c1 1 3 1 6 2 2 0 4 1 7 1h1c4-1 7-1 10-2 2-1 3-2 4-2l2-2v-3l-2 1"/></g></g></svg>
