<svg xmlns="http://www.w3.org/2000/svg" width="574" height="488" viewBox="0 0 574 488" role="img">
  <title>(GYM 018) Design Systems for Designers</title>
  <desc>Learn how to incorporate pattern libraries and design systems into your workflow.</desc>
  <g fill="none" fill-rule="evenodd">
    <path fill="#5CA5A0" d="M0 0h574v488H0z"/>
    <path fill="#315A5B" d="M60.6621422 378.2302941c-19.2172728 17.9515759 29.4183396 35.5711475 65.6295393 43.0086353 14.3342186 2.9441327 32.3412475 4.9989171 54.6827175 4.9989171 78.780641 0 124.704287 8.5164882 149.081979 8.5164882C440.258617 434.7543347 505 408.6883823 517 382.9999986c7.804895-16.7079288-12.944375-29.8024519-35.000009-35.9999989-40.146473-11.28100226-107.725325-6.42252559-178.852035-6.42252559-110.202238 0-194.4970005-7.17533188-242.4858138 37.65281999z"/>
    <path fill="#2C4F4F" d="M268 420.8410721c12.82778 1.2032573 77.93113-1.391577 90.544304-6e-7 54.667891 6.0313558 91.847461 1.1796782 116.561813-7.571451 13.750823-4.8690426 29.245951-31.8692621 30.541069-33.2739252C509.851257 375.4360315 493 339.99999997 398 335.99999997S348.800012 342 308.356083 342C206.573913 342 62 356.7792481 62 379.9956971c0 21.0907174 78.7275476 28.907104 206 40.845375z"/>
    <path fill="#274444" d="M135.9999985 402.000001s1.2290468.2856039 3.2272727.748982c8.3250247 1.9305297 30.0009118 6.9467376 31.7727308 7.2510141 11.205713 1.9243696 24.136477 1.8519375 59.150489 6.1578914 16.025275 1.9707564 34.431155 1.1011459 49.849504-.000001 8.691391-.6207215 87.310738-11.4229681 122.925931-17.1744149 56.846918-9.180128 98.074059-26.9834726 79.074059-40.3789957C468.674859 349.2098958 378.078991 337 290 337c-61.025318 0-167.5332795 21.6044763-167.5332795 21.6044763S96.9238717 364.0146286 86.2685185 372c-4.9462114 3.7068068-.7017788 9.5020858 0 12.8016522 1.8039108 8.48148 49.73148 17.1983488 49.73148 17.1983488z"/>
    <g>
      <path fill="#1F2935" d="M450.392408 234.343756c.317599 73.11767 4.084286 147.765611-11.918381 148.728609-8.923443 5.694164-83.878217 10.579332-152.292304 10.908779-70.2506345.339193-134.074119-3.984551-148.7879807-5.976826-18.22125345-.091621-12.20682825-77.26597-12.33724308-167.664971.37743587-99.0172478-9.39907367-139.56063339 23.90734018-139.70878693 15.3490586-2.88509524 266.5801916-8.52077789 287.5386216-.51073984 16.25736 3.52644411 13.587691 84.79255917 13.889947 154.22393577z"/>
      <path fill="#FFF" d="M436.560694 181.366979l-2.524485 179.819604c-.029575 2.106609-1.713582 4.24123-3.763498 4.717173 0 0-34.572568 10.072505-136.978301 10.072505-102.4057321 0-149.3411652-5.789204-149.3411652-5.789204-2.0925526-.228779-3.8732604-2.127995-3.9700734-4.223444 0 0-2.055573-38.680508-2.9781726-127.997249-.1181183-11.277606 1.8958356-132.8142045 1.8958356-132.8142045.0734991-4.4734249 3.7523408-8.2559605 8.2310119-8.4467715 0 0 108.2519687-4.7309463 144.2477187-4.705284 38.102724.0276364 73.668488 2.3992242 115.677096 1.3865493 2.035146-.0493506 6.672087-.0355324 12.855739-.0217142 3.230695.0078961 2.712868.004997 2.712868.004997 4.469839.0048718 8.333266 3.6221019 8.62989 8.0895964l5.305536 79.9074465z"/>
      <path fill="#DCDBDB" d="M260.24785084 359.80195117c-4.09384025-6.21227317-1.7627439-163.83645817.44311118-164.46820117 1.32575542-.379688 41.51657498-2.251531 84.06165428-.773965 28.2434517.980879 66.3886267-.588939 71.2473837 2.404921.65912 14.290831 2.522486 54.977313 1.863366 72.1411764-1.789828 46.6081597.456728 48.5959117-2.965162 86.36512174-6.361166 3.55779228-39.83674 6.4271223-69.9338796 6.45609952-39.4296943.0379625-82.92035754.60014634-84.71647356-2.12515249z"/>
      <path fill="#1F2935" d="M391.993966 349.3289461c-.9548645 1.8633934-2.07331 1.5037278-3.1583238 1.7571141-3.3788.7883572-6.7680708.5475218-10.1564258.3859867-3.00152955-.1430938-6.00707116.5315696-8.99451776.5279385-2.9874466-.0036311-1.36210648-4.5638323-.00185961-4.4538238 3.35960574.2686391 10.53294147-.771014 13.89277817-.5009674.9690377.0785744 1.6977218.5635405 2.6647866.331119 1.7433885-.4200442 3.6746811-.5063511 5.4120876.1965515.166828.0677489.386849 1.1763658.3414746 1.7560814z"/>
      <path fill="#C9C9C9" d="M367.41211134 310.93743961c-1.08519165 1.17286387-.58472616 30.79716589 0 30.91643759.35143011.0716842 12.60100756.2857273 23.87882056.0067659 7.4867501-.1851879 15.1467611-.6793103 16.4347162-1.2445447.3254045-5.0250248 1.0744054-10.073306 1.0459704-15.1098908-.0275387-4.87781-.8172621-9.74464936-1.4309176-14.56876799-1.6862124-.67170356-9.6674745-.93188045-17.6455984-.93735128-10.4519896-.00716724-21.80687826.4228207-22.28299116.93735128z"/>
      <path fill="#5CA5A0" d="M345.03744243 349.70971638c-.98859975 1.8373845-2.1003384 1.46315098-3.18979645 1.69863868-3.39262647.73262409-6.77701036.44233363-10.1619204.2308614-2.9984779-.18732999-6.01583493.4379236-9.00276754.38939605-2.98693263-.04852755-1.27892686-4.55577572.07911597-4.42600244 3.35421782.31747423 10.54537988-.60781992 13.89980312-.2889436.96746382.09265349 1.68722142.58554366 2.65836691.36911622 1.7507639-.39120413 3.6833361-.44793244 5.40770247.27669857.16557125.06983365.3654035 1.1748267.30949592 1.75023512z"/>
      <path fill="#C9C9C9" d="M319.68828436 311.64451756c-1.0990597 1.13580884-.59219859 29.82417154 0 29.93967504.35592116.0694195 12.76204014.610988 24.18397624.34084 7.5824258-.1793371 15.3403268-.9921363 16.6447411-1.5395128.6487368-9.5791266.8733587-19.2455218-.3898665-28.74100224-1.7077611-.65048201-9.7910185-1.63918837-17.8710977-1.64448637-10.5855591-.0069408-22.08555584 1.14621167-22.56775314 1.64448637z"/>
      <g>
        <path fill="#B7B7B7" d="M296.1640317 350.10870496c-1.0211167 1.8153319-2.12606719 1.4241824-3.21957151 1.64114792-3.40521478.67494708-6.78401588.33041854-10.16474328.06444493-2.99477267-.23560928-6.02285775.33843226-9.00855248.24136529-2.98569473-.09706708-1.19783233-4.56190934.15773422-4.41041506 3.34815587.37113274 10.55485113-.43393415 13.9031874-.06140046.96569621.10812688 1.676607.61115904 2.65147513.41126337 1.7574933-.36139752 3.69083016-.38643569 5.40210655.36396702.1643098.07230738.34448664 1.1769888.27836397 1.749627z"/>
        <path fill="#C9C9C9" d="M270.64788036 311.69929121c-1.0990597 1.17286593-.59219859 30.03531379 0 30.15458569.35592116.0716844 12.76204014.2857278 24.18397624.0067659 7.5824258-.1851882 15.3403268-.263727 16.6447411-.8289624.6487368-9.8916567.8733587-20.2890137-.3898665-30.09429529-1.7077611-.67170474-9.7910185-.93188208-17.8710977-.93735293-10.5855591-.00716725-22.08555584 1.18472754-22.56775314 1.69925903z"/>
      </g>
      <g>
        <path fill="#B7B7B7" d="M392.03095726 297.3286967c-.92219837 1.87977427-2.04675046 1.53968302-3.1271769 1.81196683-3.36452666.84720532-6.75748432.66555763-10.14814243.56318198-3.00356979-.0906881-5.99687913.63632649-8.9839341.68483407-2.98705497.04850759-1.44154888-4.53936517-.07958926-4.4531129 3.36378245.20996488 10.51788114-.95472175 13.88191918-.74335362.97026142.0616504 1.70729837.53382534 2.67015956.28456163 1.7357921-.45040654 3.66528429-.570406 5.41469351.10206762.16798498.06482703.4073206 1.16943518.37207044 1.74985439z"/>
        <path fill="#C9C9C9" d="M367.41211134 258.93743961c-1.08519165 1.17286387-.58472616 30.79716589 0 30.91643759.35143011.0716842 12.60100756.2857273 23.87882056.0067659 7.4867501-.1851879 15.1467611-.6793103 16.4347162-1.2445447.3254045-5.0250248 1.0744054-10.073306 1.0459704-15.1098908-.0275387-4.87781-.8172621-9.74464936-1.4309176-14.56876799-1.6862124-.67170356-9.6674745-.93188045-17.6455984-.93735128-10.4519896-.00716724-21.80687826.4228207-22.28299116.93735128z"/>
        <path fill="#B7B7B7" d="M345.60203113 298.70971637c-.98859985 1.8373845-2.1003385 1.46315099-3.18979645 1.69863869-3.39262657.73262408-6.77701046.44233363-10.1619205.2308614-2.99847783-.18733-6.0158349.4379236-9.0027675.38939604-2.98693263-.04852755-1.27892686-4.55577572.07911597-4.42600244 3.35421782.31747423 10.54537994-.60781991 13.89980308-.28894359.96746382.09265348 1.68722152.58554366 2.65836691.36911622 1.7507639-.39120414 3.6833361-.44793245 5.40770247.27669856.16557125.06983365.3654035 1.1748267.30949602 1.75023512z"/>
        <path fill="#C9C9C9" d="M319.68828436 259.64451756c-1.0990597 1.13580884-.59219859 29.82417154 0 29.93967504.35592116.0694195 12.76204014.610988 24.18397624.34084 7.5824258-.1793371 15.3403268-.9921363 16.6447411-1.5395128.6487368-9.5791266.8733587-19.2455218-.3898665-28.74100224-1.7077611-.65048201-9.7910185-1.63918837-17.8710977-1.64448637-10.5855591-.0069408-22.08555584 1.14621167-22.56775314 1.64448637z"/>
        <g>
          <path fill="#B7B7B7" d="M296.164032 299.10870497c-1.0211166 1.8153319-2.12606709 1.4241824-3.21957151 1.64114792-3.40521478.67494708-6.78401588.33041854-10.16474318.06444494-2.99477276-.2356093-6.02285784.33843225-9.00855257.24136528-2.98569473-.09706707-1.19783232-4.56190934.15773422-4.41041506 3.34815588.37113274 10.55485112-.43393415 13.9031874-.06140046.9656962.10812688 1.676607.61115904 2.65147512.41126338 1.7574934-.36139752 3.69083016-.3864357 5.40210655.36396701.1643098.07230738.34448664 1.1769888.27836397 1.749627z"/>
          <path fill="#C9C9C9" d="M270.92978836 259.69929121c-1.0990597 1.17286593-.59219859 30.03531379 0 30.15458569.35592116.0716844 12.76204014.2857278 24.18397624.0067659 7.5824258-.1851882 15.3403268-.263727 16.6447411-.8289624.6487368-9.8916567.8733587-20.2890137-.3898665-30.09429529-1.7077611-.67170474-9.7910185-.93188208-17.8710977-.93735293-10.5855591-.00716725-22.08555584 1.18472754-22.56775314 1.69925903z"/>
        </g>
      </g>
      <g>
        <path fill="#5CA5A0" d="M394.84149126 245.3286967c-.92219837 1.87977427-2.04675056 1.53968302-3.1271769 1.81196683-3.36452666.84720532-6.75748442.66555763-10.14814253.56318198-3.00356969-.0906881-5.99687907.63632649-8.98393404.68483407-2.98705497.04850759-1.44154888-4.53936517-.07958926-4.4531129 3.36378246.20996488 10.51788118-.95472175 13.88191912-.74335361.97026152.06165039 1.70729847.53382533 2.67015966.28456162 1.7357921-.45040654 3.66528429-.570406 5.41469351.10206762.16798498.06482703.4073205 1.16943519.37207044 1.74985439z"/>
        <path fill="#C9C9C9" d="M366.63970534 206.93743961c-1.08519165 1.17286387-.58472616 30.79716589 0 30.91643759.35143011.0716842 12.60100756.2857273 23.87882056.0067659 7.4867501-.1851879 15.1467611-.6793103 16.4347162-1.2445447.3254045-5.0250248 1.0744054-10.073306 1.0459704-15.1098908-.0275387-4.87781-.8172621-9.74464936-1.4309176-14.56876799-1.6862124-.67170356-9.6674745-.93188045-17.6455984-.93735128-10.4519896-.00716724-21.80687826.4228207-22.28299115.93735128z"/>
        <path fill="#B7B7B7" d="M346.60203113 247.70971637c-.98859985 1.8373845-2.1003385 1.46315099-3.18979645 1.69863869-3.39262657.73262408-6.77701046.44233363-10.1619205.2308614-2.99847783-.18733-6.0158349.4379236-9.0027675.38939604-2.98693263-.04852755-1.27892686-4.55577572.07911597-4.42600244 3.35421782.31747423 10.54537994-.60781991 13.89980308-.28894359.96746382.09265348 1.68722152.58554366 2.65836691.36911622 1.7507639-.39120414 3.6833361-.44793245 5.40770247.27669856.16557125.06983365.3654035 1.1748267.30949602 1.75023512z"/>
        <path fill="#C9C9C9" d="M320.68828436 207.64451756c-1.0990597 1.13580884-.59219859 29.82417154 0 29.93967504.35592116.0694195 12.76204014.610988 24.18397624.34084 7.5824258-.1793371 15.3403268-.9921363 16.6447411-1.5395128.6487368-9.5791266.8733587-19.2455218-.3898665-28.74100224-1.7077611-.65048201-9.7910185-1.63918837-17.8710977-1.64448637-10.5855591-.0069408-22.08555584 1.14621167-22.56775314 1.64448637z"/>
        <g>
          <path fill="#B7B7B7" d="M297.164032 248.10870497c-1.0211166 1.8153319-2.12606709 1.4241824-3.21957151 1.64114792-3.40521478.67494708-6.78401588.33041854-10.16474318.06444494-2.99477276-.2356093-6.02285784.33843225-9.00855257.24136528-2.98569473-.09706707-1.19783232-4.56190934.15773422-4.41041506 3.34815588.37113274 10.55485112-.43393415 13.9031874-.06140046.9656962.10812688 1.676607.61115904 2.65147512.41126338 1.7574934-.36139752 3.69083016-.3864357 5.40210655.36396701.1643098.07230738.34448664 1.1769888.27836397 1.749627z"/>
          <path fill="#C9C9C9" d="M271.92978836 207.69929121c-1.0990597 1.17286593-.59219859 30.03531379 0 30.15458569.35592116.0716844 12.76204014.2857278 24.18397624.0067659 7.5824258-.1851882 15.3403268-.263727 16.6447411-.8289624.6487368-9.8916567.8733587-20.2890137-.3898665-30.09429529-1.7077611-.67170474-9.7910185-.93188208-17.8710977-.93735293-10.5855591-.00716725-22.08555584 1.18472754-22.56775314 1.69925903z"/>
        </g>
      </g>
      <g>
        <path fill="#DCDBDB" d="M155.54818129 111.53089248c.2623684 1.9085633-1.27645084 41.73960162-1.45661985 58.32121622-.45472949 41.8504203.84996704 86.5549513 2.46130675 86.9584603 1.35214955.338604 42.34311811 2.007903 85.73521661.690217 28.8057442-.874742 66.5866102-.200086 71.5420982-2.869995.672242-12.744485-.823147-35.396605-1.495389-50.7032455-1.825461-41.5649041 3.987312-60.1061478.497296-93.7885245-6.487809-3.17281987-39.631746-1.86965984-70.3280822-1.89550156-40.2146902-.03385476-87.40775947-.00015201-86.95582651 3.28737304z"/>
        <path fill="#C9C9C9" d="M249.22154081 211.01360001c-4.1145479-.14368318-9.06697335.50919064-9.06697335.50919064-1.09157874.12441667-1.93817899 1.12775546-1.89181081 2.22037496l.00246614.05811145c.07019053 1.65397036 1.46906281 2.95162433 3.13060036 2.89819411l11.46477928-.36867408c1.6587922-.05334195 3.1681613-1.42770081 3.37155898-3.07205069l-.12168355.98373972c.20326844-1.64330479-.9660766-3.02205526-2.6238616-3.0799464l-4.26507545-.14893971z"/>
        <path fill="#5CA5A0" d="M222.86553207 210.93132639c-5.4860639-.19157758-12.72458848.45043623-12.72458848.45043623-1.0973848.08612155-1.92544874 1.05922769-1.85094042 2.15282987l.00396283.0581637c.11278816 1.6554579 1.55659903 2.97662197 3.2002858 2.95128112l17.28997473-.26656085c1.65468088-.02551034 3.20005877-1.37593338 3.45205573-3.01858614l-.15075832.98272441c.25183683-1.64160874-.88215755-3.01912475-2.55192136-3.07743419l-6.66807051-.23285415z"/>
        <path fill="#1F2935" d="M192.86553207 210.93132639c-5.48606387-.19157758-12.7245885.45043623-12.7245885.45043623-1.09738477.08612155-1.92544869 1.0592277-1.85094037 2.15282987l.00396276.0581637c.11278816 1.6554579 1.55659906 2.97662197 3.20028586 2.95128112l17.2899747-.26656085c1.6546809-.02551034 3.20005878-1.37593338 3.45205574-3.01858614l-.15075832.98272441c.25183683-1.64160874-.88215755-3.01912475-2.55192136-3.07743419l-6.66807051-.23285415z"/>
        <g>
          <path fill="#B7B7B7" d="M174.15916019 231.61863097c4.1145479.14368318 9.06697325-.50919064 9.06697325-.50919064 1.09157874-.12441667 1.93817909-1.12775546 1.89181091-2.22037496l-.00246614-.05811145c-.07019063-1.65397036-1.46906291-2.95162434-3.13060036-2.89819411l-11.46477928.36867408c-1.6587922.05334195-3.1681614 1.4277008-3.37155908 3.07205069l.12168365-.98373972c-.20326844 1.64330479.9660766 3.02205526 2.6238616 3.0799464l4.26507545.14893971zM196.16098769 231.61863095c4.1145479.14368319 9.06697335-.50919063 9.06697335-.50919063 1.09157874-.12441668 1.93817899-1.12775547 1.89181081-2.22037497l-.00246614-.05811145c-.07019053-1.65397036-1.46906291-2.95162433-3.13060036-2.8981941l-11.46477928.36867407c-1.6587922.05334195-3.1681614 1.42770081-3.37155908 3.07205069l.12168365-.98373972c-.20326844 1.64330479.9660766 3.02205527 2.6238616 3.0799464l4.26507545.14893971z"/>
          <path fill="#1F2935" d="M220.16098769 231.61863095c4.1145479.14368319 9.06697335-.50919063 9.06697335-.50919063 1.09157874-.12441668 1.93817899-1.12775547 1.89181081-2.22037497l-.00246614-.05811145c-.07019053-1.65397036-1.46906291-2.95162433-3.13060036-2.8981941l-11.46477928.36867407c-1.6587922.05334195-3.1681614 1.42770081-3.37155908 3.07205069l.12168365-.98373972c-.20326844 1.64330479.9660766 3.02205527 2.6238616 3.0799464l4.26507545.14893971z"/>
          <path fill="#5CA5A0" d="M245.15916019 231.61863097c4.1145479.14368318 9.0669733-.50919064 9.0669733-.50919064 1.09157872-.12441667 1.93817904-1.12775546 1.89181084-2.22037496l-.00246611-.05811145c-.0701906-1.65397036-1.4690629-2.95162434-3.13060037-2.89819411l-11.46477928.36867408c-1.6587922.05334195-3.1681614 1.4277008-3.37155908 3.07205069l.12168365-.98373972c-.20326844 1.64330479.9660766 3.02205526 2.6238616 3.0799464l4.26507545.14893971z"/>
        </g>
        <g>
          <path fill="#5CA5A0" d="M185.0698537 246.51393246c4.1145479.14368319 9.06697336-.50919063 9.06697336-.50919063 1.09157874-.12441668 1.93817898-1.12775547 1.8918108-2.22037497l-.00246613-.05811145c-.07019053-1.65397036-1.46906291-2.95162433-3.13060037-2.8981941l-11.46477927.36867407c-1.6587922.05334195-3.1681614 1.42770081-3.37155908 3.07205069l.12168364-.98373972c-.20326843 1.64330479.9660766 3.02205527 2.62386161 3.0799464l4.26507545.14893971zM211.42768993 246.49150761c5.4860639.19157758 12.72458848-.45043623 12.72458848-.45043623 1.0973848-.08612155 1.92544874-1.05922769 1.85094042-2.15282987l-.00396283-.0581637c-.11278816-1.6554579-1.55659903-2.97662197-3.2002858-2.95128112l-17.28997473.26656085c-1.65468088.02551034-3.20005877 1.37593338-3.45205573 3.01858614l.15075832-.98272441c-.25183683 1.64160874.88215755 3.01912475 2.55192136 3.07743419l6.66807051.23285415z"/>
          <path fill="#1F2935" d="M241.42768993 246.49150761c5.48606387.19157758 12.7245885-.45043623 12.7245885-.45043623 1.09738477-.08612155 1.92544869-1.0592277 1.85094037-2.15282987l-.00396276-.0581637c-.11278816-1.6554579-1.55659906-2.97662197-3.20028586-2.95128112l-17.2899747.26656085c-1.6546809.02551034-3.20005878 1.37593338-3.45205574 3.01858614l.15075832-.98272441c-.25183683 1.64160874.88215755 3.01912475 2.55192136 3.07743419l6.66807051.23285415z"/>
        </g>
        <g>
          <path fill="#C9C9C9" d="M248.22154 166.01359813c-4.114548-.14368318-9.06697335.50919064-9.06697335.50919064-1.09157873.12441667-1.93817908 1.12775547-1.8918108 2.22037497l.00246604.05811144c.07019062 1.65397037 1.4690629 2.95162434 3.13060036 2.8981941l11.46477927-.36867407c1.6587923-.05334194 3.1681614-1.4277008 3.37155909-3.0720507l-.12168355.98373974c.20326844-1.6433048-.9660767-3.02205527-2.6238616-3.0799464l-4.26507545-.14893972z"/>
          <path fill="#5CA5A0" d="M221.8655313 165.93132448c-5.4860639-.19157758-12.72458858.45043622-12.72458858.45043622-1.0973847.08612156-1.92544864 1.0592277-1.85094032 2.15282988l.00396273.0581637c.11278816 1.6554579 1.55659913 2.97662197 3.2002859 2.95128112l17.28997473-.26656085c1.65468088-.02551034 3.20005877-1.37593338 3.45205573-3.01858614l-.15075832.98272442c.25183683-1.64160876-.88215755-3.01912476-2.55192136-3.0774342l-6.66807051-.23285415z"/>
          <path fill="#1F2935" d="M191.8655313 165.93132448c-5.48606388-.19157758-12.72458854.45043622-12.72458854.45043622-1.09738475.08612156-1.92544867 1.0592277-1.85094036 2.15282988l.00396276.0581637c.11278816 1.6554579 1.55659906 2.97662197 3.20028586 2.95128112l17.28997474-.26656085c1.65468088-.02551034 3.20005877-1.37593338 3.45205573-3.01858614l-.15075832.98272442c.25183683-1.64160876-.88215755-3.01912476-2.55192136-3.0774342l-6.66807051-.23285415z"/>
          <g>
            <path fill="#5CA5A0" d="M173.06802619 186.61862997c4.1145479.14368318 9.06697325-.50919064 9.06697325-.50919064 1.09157874-.12441667 1.93817909-1.12775546 1.89181091-2.22037496l-.00246614-.05811145c-.07019063-1.65397036-1.46906291-2.95162434-3.13060036-2.89819411l-11.46477928.36867408c-1.6587922.05334195-3.1681614 1.4277008-3.37155908 3.07205069l.12168365-.98373972c-.20326844 1.64330479.9660766 3.02205526 2.6238616 3.0799464l4.26507545.14893971z"/>
            <path fill="#B7B7B7" d="M195.06985369 186.61862995c4.1145479.14368319 9.06697335-.50919063 9.06697335-.50919063 1.09157874-.12441668 1.93817899-1.12775547 1.89181081-2.22037497l-.00246614-.05811145c-.07019053-1.65397036-1.46906291-2.95162433-3.13060036-2.8981941l-11.46477928.36867407c-1.6587922.05334195-3.1681614 1.42770081-3.37155908 3.07205069l.12168365-.98373972c-.20326844 1.64330479.9660766 3.02205527 2.6238616 3.0799464l4.26507545.14893971z"/>
            <path fill="#1F2935" d="M219.06985369 186.61862995c4.1145479.14368319 9.06697335-.50919063 9.06697335-.50919063 1.09157874-.12441668 1.93817899-1.12775547 1.89181081-2.22037497l-.00246614-.05811145c-.07019053-1.65397036-1.46906291-2.95162433-3.13060036-2.8981941l-11.46477928.36867407c-1.6587922.05334195-3.1681614 1.42770081-3.37155908 3.07205069l.12168365-.98373972c-.20326844 1.64330479.9660766 3.02205527 2.6238616 3.0799464l4.26507545.14893971z"/>
            <path fill="#5CA5A0" d="M244.06802619 186.61862997c4.1145479.14368318 9.0669733-.50919064 9.0669733-.50919064 1.09157872-.12441667 1.93817904-1.12775546 1.89181084-2.22037496l-.00246611-.05811145c-.0701906-1.65397036-1.4690629-2.95162434-3.13060037-2.89819411l-11.46477928.36867408c-1.6587922.05334195-3.1681614 1.4277008-3.37155908 3.07205069l.12168365-.98373972c-.20326844 1.64330479.9660766 3.02205526 2.6238616 3.0799464l4.26507545.14893971z"/>
          </g>
          <g>
            <path fill="#B7B7B7" d="M181.26645818 201.3478642c4.1145479.14368319 9.06697325-.50919064 9.06697325-.50919064 1.09157874-.12441666 1.93817909-1.12775545 1.89181091-2.22037496l-.00246614-.05811145c-.07019062-1.65397035-1.4690629-2.95162434-3.13060036-2.8981941l-11.46477927.36867407c-1.6587922.05334196-3.1681614 1.42770082-3.37155909 3.0720507l.12168355-.98373974c-.20326834 1.6433048.9660767 3.02205528 2.6238617 3.0799464l4.26507545.14893972z"/>
            <path fill="#5CA5A0" d="M207.6242943 201.32543935c5.48606391.19157758 12.72458858-.45043622 12.72458858-.45043622 1.0973848-.08612156 1.92544865-1.0592277 1.85094032-2.15282988l-.00396273-.05816371c-.11278816-1.6554579-1.55659903-2.97662196-3.2002858-2.95128112l-17.28997472.26656086c-1.65468099.02551035-3.20005878 1.3759334-3.45205584 3.01858614l.15075833-.98272442c-.25183684 1.64160876.88215765 3.01912476 2.55192135 3.0774342 0 0 1.18200672.04127657 6.66807052.23285415z"/>
            <path fill="#1F2935" d="M237.72793693 201.90260861c5.48606387.19157758 12.7245885-.45043623 12.7245885-.45043623 1.09738477-.08612155 1.92544869-1.0592277 1.85094037-2.15282987l-.00396276-.0581637c-.11278816-1.6554579-1.55659906-2.97662197-3.20028586-2.95128112l-17.2899747.26656085c-1.6546809.02551034-3.20005878 1.37593338-3.45205574 3.01858614l.15075832-.98272441c-.25183683 1.64160874.88215755 3.01912475 2.55192136 3.07743419l6.66807051.23285415z"/>
          </g>
        </g>
        <g>
          <path fill="#B7B7B7" d="M174.357592 156.49992987c4.114548.14368318 9.06697335-.50919064 9.06697335-.50919064 1.09157873-.12441667 1.93817908-1.12775547 1.8918108-2.22037497l-.00246604-.05811144c-.07019062-1.65397037-1.4690629-2.95162434-3.13060036-2.8981941l-11.46477927.36867407c-1.6587923.05334194-3.1681614 1.4277008-3.37155909 3.0720507l.12168355-.98373974c-.20326844 1.6433048.9660767 3.02205527 2.6238616 3.0799464l4.26507545.14893972z"/>
          <path fill="#5CA5A0" d="M200.7136007 156.58220352c5.4860639.19157758 12.72458858-.45043622 12.72458858-.45043622 1.0973847-.08612156 1.92544864-1.0592277 1.85094032-2.15282988l-.00396273-.0581637c-.11278816-1.6554579-1.55659913-2.97662197-3.2002859-2.95128112l-17.28997473.26656085c-1.65468088.02551034-3.20005877 1.37593338-3.45205573 3.01858614l.15075832-.98272442c-.25183683 1.64160876.88215755 3.01912476 2.55192136 3.0774342l6.66807051.23285415z"/>
          <path fill="#1F2935" d="M230.7136007 156.58220352c5.48606388.19157758 12.72458854-.45043622 12.72458854-.45043622 1.09738475-.08612156 1.92544867-1.0592277 1.85094036-2.15282988l-.00396276-.0581637c-.11278816-1.6554579-1.55659906-2.97662197-3.20028586-2.95128112l-17.28997474.26656085c-1.65468088.02551034-3.20005877 1.37593338-3.45205573 3.01858614l.15075832-.98272442c-.25183683 1.64160876.88215755 3.01912476 2.55192136 3.0774342l6.66807051.23285415z"/>
          <g>
            <path fill="#5CA5A0" d="M253.32883781 135.38137003c-4.1145479-.14368318-9.06697325.50919064-9.06697325.50919064-1.09157874.12441667-1.93817909 1.12775546-1.89181091 2.22037496l.00246614.05811145c.07019063 1.65397036 1.46906291 2.95162434 3.13060036 2.89819411l11.46477928-.36867408c1.6587922-.05334195 3.1681614-1.4277008 3.37155908-3.07205069l-.12168365.98373972c.20326844-1.64330479-.9660766-3.02205526-2.6238616-3.0799464l-4.26507545-.14893971z"/>
            <path fill="#B7B7B7" d="M231.32701031 135.38137005c-4.1145479-.14368319-9.06697335.50919063-9.06697335.50919063-1.09157874.12441668-1.93817899 1.12775547-1.89181081 2.22037497l.00246614.05811145c.07019053 1.65397036 1.46906291 2.95162433 3.13060036 2.8981941l11.46477928-.36867407c1.6587922-.05334195 3.1681614-1.42770081 3.37155908-3.07205069l-.12168365.98373972c.20326844-1.64330479-.9660766-3.02205527-2.6238616-3.0799464l-4.26507545-.14893971z"/>
            <path fill="#1F2935" d="M207.32701031 135.38137005c-4.1145479-.14368319-9.06697335.50919063-9.06697335.50919063-1.09157874.12441668-1.93817899 1.12775547-1.89181081 2.22037497l.00246614.05811145c.07019053 1.65397036 1.46906291 2.95162433 3.13060036 2.8981941l11.46477928-.36867407c1.6587922-.05334195 3.1681614-1.42770081 3.37155908-3.07205069l-.12168365.98373972c.20326844-1.64330479-.9660766-3.02205527-2.6238616-3.0799464l-4.26507545-.14893971z"/>
            <path fill="#5CA5A0" d="M182.32883781 135.38137003c-4.1145479-.14368318-9.0669733.50919064-9.0669733.50919064-1.09157872.12441667-1.93817904 1.12775546-1.89181084 2.22037496l.00246611.05811145c.0701906 1.65397036 1.4690629 2.95162434 3.13060037 2.89819411l11.46477928-.36867408c1.6587922-.05334195 3.1681614-1.4277008 3.37155908-3.07205069l-.12168365.98373972c.20326844-1.64330479-.9660766-3.02205526-2.6238616-3.0799464l-4.26507545-.14893971z"/>
          </g>
          <g>
            <path fill="#B7B7B7" d="M238.3270103 120.48606854c-4.1145479-.14368319-9.06697336.50919063-9.06697336.50919063-1.09157874.12441668-1.93817898 1.12775547-1.8918108 2.22037497l.00246613.05811145c.07019053 1.65397036 1.46906291 2.95162433 3.13060037 2.8981941l11.46477927-.36867407c1.6587922-.05334195 3.1681614-1.42770081 3.37155908-3.07205069l-.12168364.98373972c.20326843-1.64330479-.9660766-3.02205527-2.62386161-3.0799464l-4.26507545-.14893971z"/>
            <path fill="#5CA5A0" d="M211.96917407 120.50849339c-5.4860639-.19157758-12.72458848.45043623-12.72458848.45043623-1.0973848.08612155-1.92544874 1.05922769-1.85094042 2.15282987l.00396283.0581637c.11278816 1.6554579 1.55659903 2.97662197 3.2002858 2.95128112l17.28997473-.26656085c1.65468088-.02551034 3.20005877-1.37593338 3.45205573-3.01858614l-.15075832.98272441c.25183683-1.64160874-.88215755-3.01912475-2.55192136-3.07743419l-6.66807051-.23285415z"/>
            <path fill="#1F2935" d="M181.96917407 120.50849339c-5.48606387-.19157758-12.7245885.45043623-12.7245885.45043623-1.09738477.08612155-1.92544869 1.0592277-1.85094037 2.15282987l.00396276.0581637c.11278816 1.6554579 1.55659906 2.97662197 3.20028586 2.95128112l17.2899747-.26656085c1.6546809-.02551034 3.20005878-1.37593338 3.45205574-3.01858614l-.15075832.98272441c.25183683-1.64160874-.88215755-3.01912475-2.55192136-3.07743419l-6.66807051-.23285415z"/>
          </g>
        </g>
      </g>
      <g>
        <path fill="#1F2935" d="M334.2322754 153.2391225c-20.0392519-10.86283555-48.0239868-15.11351033-73.9408484-8.78052968-25.750721 6.29204828-42.677191 17.99032508-57.569224 43.69168908-18.185585 36.8454787-13.075846 78.0128081 6.750244 105.3147351 13.579629 18.697721 46.95073 35.288141 74.1037175 36.029123 24.9221086.213058 47.0543119-5.37015 62.646434-18.909336 16.8177996-13.225371 37.21366209-34.654363 37.2774015-73.5191747 0-36.7205824-26.6977047-72.9122433-49.2677246-83.8265068z"/>
        <path fill="#315A5B" d="M225.1328611 287.421283c-5.1873782-10.593326 8.977657.921824 11.5278019 2.889922C256.9545221 305.973179 268 307.735892 268 307.735892c-6.0096628 1.584892-3.586158 1.78315-13.0894767 0-9.5033187-1.78315-9.6038668-3.343181-14.6887795-5.921944 0 0-9.9015044-3.799339-15.0888827-14.392665zM344.867139 178.9188153c5.187378 9.7784547-8.977657-.8509141-11.527802-2.6676199C313.045478 161.7939887 302 160.1668691 302 160.1668691c6.009663-1.4629778 3.586158-1.6459847 13.089477 0 9.503318 1.6459847 9.603866 3.0860135 14.688779 5.46641 0 0 9.901505 3.5070814 15.088883 13.2855362z"/>
        <path fill="#FFF" d="M235.92673576 216.54328105l56.95002245 55.14481594 46.9678788 16.33812237-6.99107113-43.92966266-63.02172378-62.27664565c-6.88960124-1.19135717-14.20360352 2.1145268-21.94200664 9.91765179-7.73840322 7.80312498-11.7261031 16.07169778-11.9630997 24.80571821z"/>
        <path fill="#5CA5A0" d="M235.92673576 216.54328105l56.87168476 55.09123583 5.05785903-11.04870628 16.56429903-1.39324557 3.13451047-13.40378932 15.29847683-1.69221901-62.91536673-62.89997019zM321.78447288 273.9194798c3.27250557-3.41389991 8.07744492-6.36606426 14.41481904-8.85649307l3.64534508 22.96323263-22.96890934-7.9874904c-.00000862-.66559964 1.63623986-2.70534942 4.90874522-6.11924915z"/>
        <path fill="#DCDBDB" d="M225.9491763 206.61700512l9.97755946 9.92627593 35.01011995-34.34828231-10.48589444-10.48332836c-5.7169948 2.76616069-11.23473732 6.79481059-16.55322765 12.08594967-9.97216936 9.92088591-15.95502179 17.5273475-17.94855732 22.81938507z"/>
      </g>
    </g>
  </g>
</svg>
