<svg xmlns="http://www.w3.org/2000/svg" width="574" height="488" viewBox="0 0 574 488" version="1.1"><title>gym-101</title><desc>Created with Sketch.</desc><g fill="none" fill-rule="evenodd"><path fill="#D73158" d="M0 0h574v488H0z"/><path fill="#7D1822" d="M258.4 433.8c-3.4 0-6.9.1-10.4.2-18.6.7-37.6 3.1-56.7 5.5 30 4.3 59.5 8.9 68.9 10.5 4.2.7 8.9 1 14 1 19 0 44.3-4.2 73.3-8.1-29.7-4.7-59.4-9.1-89.1-9.1"/><path fill="#951C27" d="M57.2 395.4c-13.2 3.2-26 14.3-24.9 27.9 28.1 18 60 23.1 93.4 23.1 21.5 0 43.5-2.1 65.6-4.2-31.3-3.4-63.2-6.6-73.8-6.6-1.1 0-2 .1-2.6.2-66.7 0-75.5-15-75.5-15-5.2-9.8-2.1-15.4 19.1-15.9-.3-.9-.5-1.8-.6-2.7-.3-2.6-.5-4.8-.7-6.8m457.7-.2c-.1 3.2-.2 6.5-.4 9.5 6.8 2.2 11.4 5.5 11.5 10.3.4 22.5-31.5 27.1-59.2 27.1-18.8 0-35.7-2.1-39.5-2.1-28.3 0-55.4 2.3-79.8 4.8 2.7.3 5.3.6 8 1 32.3 3.9 64.6 7.9 96.7 7.9 17.7 0 35.3-1.2 52.8-4.3 18.2-3.1 40.7-15.8 35.5-33.6-2.5-8.7-11.2-14-19.4-17.8-2.1-1-4.1-1.9-6.2-2.8m-285.1-23.4c-17.2.3-34.4 1.6-51.3 5.3-10.4 2.2-20.7 5.4-31 8.4v7.3c17.7-3.7 35.7-6.7 53.7-9 .1.3.2.6.3.8 1.4-.6 2.9-1 4.4-1.4 7.8-2.2 14.6-6.6 21.9-10.3.7-.3 1.4-.7 2-1.1"/><path fill="#751721" d="M514.5 404.7c-.2 3.1-.4 5.9-.7 8.4-.7 5.1-5.6 8.5-11.1 9.2-17.3 2.2-26 2.6-34.2 2.6-2 0-4-.1-6.1-.1h-23c-22.4 0-43.9-.3-65.3-.7-18.5-.3-37.1-.6-56.2-.7-17.4.5-34.7.8-52.1.8-57.9 0-115.7-2.9-173.3-8.8-.7-1.8-.4-3.5.4-5-3.1-.1-7.3-.3-13.6-.5-4.7-.1-12.1-.1-16.7-.9-1.9-.3-3.3-1.9-4.1-4.1-21.2.5-24.3 6.1-19.1 15.9 0 0 8.8 15 75.5 15 .6-.1 1.5-.2 2.6-.2 10.6 0 42.5 3.2 73.8 6.6 19.1-1.8 38.1-3.7 56.7-4.2 3.5-.1 7-.2 10.4-.2 29.7 0 59.4 3.4 89.1 7 24.4-2.5 51.5-4.8 79.8-4.8 3.8 0 20.7 2.1 39.5 2.1 27.7 0 59.6-4.6 59.2-27.1-.1-4.8-4.7-8.1-11.5-10.3"/><path fill="#3C1218" d="M287 321.1c-16.4.3-28.3 1.1-44.6-.6.5 19.3 4.2 43-14.6 52.4-7.3 3.7-14.1 8.1-21.9 10.3-3.1.9-6.4 1.8-8.5 4.3-2.1 2.4-1.9 7.1 1.1 8.2.6.2 1.3.3 1.9.4 39.5 4 79.4 3.9 118.9-.2 3.6-.4 7.4-.8 10.4-2.8 3.1-1.9 6.8-4.2 5.7-7.7-1.3-3.9-21.1-7.6-24.9-9.1-21.8-8.4-24.1-27.8-23.5-55.2"/><path fill="#711D2A" d="M264.5 360.7c-2.4 2.7-4.6 4.5-5.8 5.8-3 3.1-11.3 5.5-11.8 9.8-1 1.2 1.6 1.6 6 1.6 3.3 0 7.5-.2 11.9-.5-.1-5.8-.2-11.4-.3-16.7"/><path fill="#3C1218" d="M174.7 35.5c39.8-.3 77.1.4 114.4 1.1 37.3.7 74.7 1.3 114.4 1 8.1 0 23.8 1.1 31.2 4.4 13.5 5.8 11.4 27.6 11.9 46.1 2.5 83.3 1.4 126.8 1.4 192.6-1.7 32.5 2.1 47.3-36.2 51.4-23 2.5-102.9 2.4-140.4 1-23-.8-92.2-1.1-108.1-1-70.7.7-81 10.4-80.6-46.4-1-75.7.2-102.5 2.3-181.3.4-14.1.3-36.7 2-50.7 1-7.9 8.1-13.2 16.1-14.3 31.3-4.3 43-4.1 58.2-3.9 4.1 0 8.4.1 13.4 0"/><path fill="#DCDBDB" d="M181.4 55c-16.3.4-34.1-1-79.8 2.5 2.1 74.7 2.8 160.5 2.2 235.2 38.8 2.2 53.4 1.4 80.2.8 57.3-1.4 114.6 1.5 172 .2 20-.5 63.7.1 72.4-3.3 2.2-9.9-.2-57.2-.2-62.6-.2-52.5-.3-80.7-.5-133.2-.1-9.1.3-24.4-1.4-37.1-22.5-3.9-44.9-3-57.7-3.1-68.4-.6-118.8-1.3-187.2.6"/><path fill="#751721" d="M201.2 383.8c-18 2.3-36 5.3-53.7 9-.1 3.2-.2 6.1-.5 8.4 8-1.8 17.5-4.5 29.1-8.1 3.7-1.2 10.6-1.9 19.9-2.3.1-1.2.6-2.4 1.4-3.3 1.1-1.3 2.5-2.2 4.1-2.9-.1-.2-.2-.5-.3-.8"/><path fill="#65141E" d="M196 390.8c-9.3.4-16.2 1.1-19.9 2.3-11.6 3.6-21.1 6.3-29.1 8.1-.1 1.1-.2 2-.4 2.8-1.5 7.6-11.6 4.8-26.2 6-14.3.2-17.2.4-22 .4h-5.5c-.8 1.5-1.1 3.2-.4 5 57.6 5.9 115.4 8.8 173.3 8.8 17.4 0 34.7-.3 52.1-.8H294.6c-5.7 0-16.1-.7-21.1-2.8-7.3-2.9-8-12.1-8.2-21.6h-6.4c-19.5 0-39-1-58.5-2.9-.6-.1-1.3-.2-1.9-.4-1.9-.7-2.7-2.8-2.5-4.9"/><path fill="#49131A" d="M264.9 378.5c-15.6 2.6-31.1 5.8-46.5 9.8-2.3.6-4.9 1-7.5 1-4.2 0-8-1.2-9.4-4.7-1.6.7-3 1.6-4.1 2.9-.8.9-1.3 2.1-1.4 3.3-.2 2.1.6 4.2 2.5 4.9.6.2 1.3.3 1.9.4 19.5 1.9 39 2.9 58.5 2.9h6.4c0-2.7 0-5.4-.1-8-.1-4.3-.2-8.5-.3-12.5"/><path fill="#C9C9C9" d="M316.2 99.3c-11.3 2.3-22.9 2.2-34.3 2.9-29.1 1.9-19.3 19.5-47.6 26.3-7.7 1.9-41.3 33.1-47.2 38.4-7.7 6.8-45.5 21.6-54.7 39-9.3 17.4-15.9 37.8-10.6 56.8 102-.1 189.3-13.8 284.2-8.2 4.5-57.4 2.4-115.2-6.4-172.1-27.5-9-55.1 11.2-83.4 16.9"/><path fill="#3C1218" d="M453.2 424.8c-27.5.2-53.3-.3-79.1-.7-25.8-.4-51.6-.9-79.1-.7-5.6.1-16.4-.7-21.5-2.8-9.4-3.7-7.9-17.8-8.3-29.6-1.7-53.6-.9-81.6-.9-124 .4-8.4-.2-18.5 14.8-18.8 31-.7 63.8-2.7 97.6-1.3 13.1.5 23.8.5 34 .4 9.2 0 18-.1 27.9.3 5.6.2 14 .1 23-.1 16.7-.3 35.6-.6 44.1 1.5 12.2 3 7.6 22.7 9.5 51.1.7 48.7 1.4 29.7 0 80.4-.3 9.1-.2 23.6-1.4 32.6-.7 5.1-5.6 8.5-11.1 9.2-21.6 2.7-29.7 2.6-40.3 2.5h-9.2"/><path fill="#DCDBDB" d="M441.5 412c10.7-.3 22.4.6 52.6-1.7-1.4-47.8-1.8-102.6-1.4-150.4-25.6-1.4-35.3-.9-52.9-.5-37.8.9-75.6-.9-113.4-.1-13.2.3-42.1-.1-47.8 2.1-1.4 6.3.1 36.6.1 40 .2 33.6.3 51.6.4 85.2 0 5.9-.2 15.6.9 23.7 14.8 2.5 29.6 2 38 2 45.2.4 78.4.8 123.5-.3"/><path fill="#711D2A" d="M503.3 327.9c-.7 0-1.4.1-1.9.4-3.5 1.6-4.2 4.6-2.8 8 1.7.8 3.7 1.6 5.6 1.6.9 0 1.8-.2 2.5-.8 2.2-1.8 2.8-5.2 1.1-7.4-.2-.3-.4-.6-.8-.8-.8-.6-2.3-1-3.7-1"/><path fill="#FFF" d="M122.5 168.3c.9-11.7 2.7-23.3 5.2-34.7 2.7-12.6 3.7-27.7 14.2-35.2 8.9-6.3 23.8-6.8 34.6-7.9 8.9-.9 29.7-5 43.8-7 .8-.1.8-1.2 0-1.3-48.1-5.7-97.7.7-97.7.7-7.8-2-2.9 19.1-2.7 29 .4 17.4-.9 34.9-.5 52.3 0 2.1 1.3 5 3.1 4.1"/><path fill="#C9C9C9" d="M298.1 298.5c-1.5.1-18.2 85.9 21.2 97.3 8.6 2.5 58.7-.4 67.6-1 33.9-2 54.6-5.6 88.3-1 0-4 .1-8 .1-11.9 23.3-49.1-81.8-52.8-87.8-61.4-7.1-10.1-31.1-20.8-32.9-33.3-2.5-16.7-47.2-16.4-55.8-14.4-3.1 6.6-.1 25.7-.7 25.7"/><path fill="#3C1218" d="M56.6 371.4c-.2-34.2.9-64.2.7-98.4 0-3.5.3-10.2 1.4-13.4 2-5.8 9.1-4.9 15.2-5.1 27.5-1.1 41.8-.6 63.5-.6 4.3.2 9.4-.1 9.6 9.2.4 19.3 1.4 39.7.7 60.7-.5 15.5 0 25.5-.4 38.5-.3 9.9 1 33.6-.7 41.7-1.5 7.6-11.6 4.8-26.2 6-24.9.4-15.2.8-41.1-.1-4.7-.1-12.1-.1-16.7-.9-2.6-.4-4.4-3.4-4.7-6.8-1.8-17.1-1.2-20.6-1.3-30.8"/><path fill="#DCDBDB" d="M68.4 359.6c.2 6.2-.2 13 .8 30.5 21.4-.7 45.9-1 67.3-.8.6-14.8.4-20.5.2-30.7-.4-22 .5-44 .1-65.9-.2-7.7 0-24.5-.9-27.8-2.9-.8-16.4.1-18 .1-15 .1-23.1.1-38.1.2-2.6 0-7-.1-10.6.5-1.1 8.7-.9 17.2-.9 22.1-.2 26.3-.4 45.6.1 71.8"/><path fill="#C9C9C9" d="M72.8 275.2c14 5.6 30.9 2 43.4 10.9 12.5 9 15.7 27.4 15 43.5-.8 16.2-4.2 32.6-.7 48.4-15.9 3.9-32.4 5.2-48.6 3.8-3.9-35.5-7-71-9.1-106.6"/><path fill="#FFF" d="M480.6 278.1c1.5.1 3.4.6 3 1.4-8.2 2.7-17.8 3.2-27 3.6-54.5 2.1-109.3-1-163.7 1.3-12.1-3.8 20.5-5.8 32.1-5.6 28.7.3 57.9-1.8 86.6-1.4 8.3.1 14.5.8 22.8.5 14.9-.6 31.4-.7 46.2.2M87.9 273.2c.4-.9-.7-1.9-1.7-1.9-5.6-.2-7.1-.3-9.9 2.1-.8.6-1.4 3.4-1.8 4.3-.4.7-.5 1.4-.6 2.1-.6 5.1-.8 10.3-.6 15.4 1.3 1.1 2.7-1.7 3.5-3.8 1.7-4.8 2.5-8.3 4.8-12.4.9-1.7 4.4-3.8 5.8-5.1.2-.2.4-.4.5-.7"/><path fill="#711D2A" d="M269.8 41.9c-.5 0-.9.1-1.3.2-2.3 1.1-2.7 3.1-1.8 5.4 1.1.5 2.5 1.1 3.7 1.1.6 0 1.2-.2 1.7-.6 1.4-1.2 1.8-3.4.7-4.9-.1-.2-.3-.4-.5-.6-.6-.4-1.6-.6-2.5-.6M104 405.3c-1.4 0-2.8-.5-3.8-1.6-1.6-1.7-.3-4.4.7-6.5 1.1-.5 2.2-.7 3.2-.7 1.6 0 2.8.6 3.7 2.3.6 1.1.2 4.2-.5 5.2-.2.2-.5.4-.7.6-.8.5-1.7.7-2.6.7m-.4-9c-.7 0-1.4.1-1.9.3-3.5 1.6-4.2 4.6-2.9 8 1.8.8 3.8 1.7 5.6 1.7 1 0 1.8-.3 2.6-.9 2.1-1.8 2.7-5.1 1.1-7.4-.2-.3-.5-.6-.8-.8-.8-.6-2.3-.9-3.7-.9"/><path fill="#962536" d="M104.1 396.5c-1 0-2.1.2-3.2.7-1 2.1-2.3 4.8-.7 6.5 1 1.1 2.4 1.6 3.8 1.6.9 0 1.8-.2 2.6-.7.2-.2.5-.4.7-.6.7-1 1.1-4.1.5-5.2-.9-1.7-2.1-2.3-3.7-2.3"/><path fill="#3C1218" d="M265.7 164c-5.1 11.6-8.3 20.5-13.7 32-1.1.3-2.7.2-3.1-.6-1.2-1.8-2.2-5.1-2.8-8.3-.4-2.1-2-8.9-2.7-11.3-1.1-3.2-2.4-6.4-3.2-9.7-2-8.2-4-16.3-5.9-24.5 4.2.9 8.3-.5 10.6.8 1.5.8 1.4 3.9 1.8 5.4 1.8 5.8 3.9 13.4 5.7 19.2 3.9-7.9 8.5-17.3 12.6-25.3.2-.4 1.6 0 3.3 0 6.8 11 6.3 16.4 13 27.1 2.3-8.6 4.7-18.4 6.4-27.1h12.9c-4.6 12.9-13.4 47.3-15.5 54.4-.8-.2-3.8.7-4.6.5-5.6-10.8-9.1-21.7-14.8-32.6M344.3 148c-9.7-7.9-23.6-7.8-36-6.4-.7.1-.5 2.1-.4 2.9.4 17.1-1.1 34.1-.6 51.1 7.6-.2 15.2 1.3 22.7-.1 13.3-2.3 25.1-15.1 24.5-28.7-.3-7.3-4.5-14.2-10.2-18.8zm-4.1 25.5c-1.4 4.1-4.8 7.2-8.7 9.2-3.8 1.9-8.1.7-12.4 1.4-.1-11.1-.1-20.1 0-31.2 6.5-1.5 12.9-.6 18.1 3.6 1.4 1.1 3.1 5 3.5 6.7.2.7.2 1.4.2 2.1.1 2.8.1 5.6-.7 8.2zM221.1 181.2c-1.3-2.6-1.1-3.6-3.8-7.6 5.7-1 8.9-5.1 10.9-9.8.9-1.9 1.1-8.5.6-10-3.4-9.3-11.3-11.4-14.2-11.9-2.2-.5-4.6-.4-6.9-.3-6.9.2-13.9.4-20.8.7.1 17.8.3 35.6.4 53.4 3.9 0 8.7-.5 12.6-.5 1.1-7 .8-12.4.7-20.2 1.2-.3 3.6.3 5-.1 2.4 5.1 3.5 5.7 5.2 9.8 1.3 3.3 3.6 7.2 5 10.5 5.3 0 9.1-.4 13.3 0-2.4-5-5.6-9.1-8-14zm-5.9-18.5c-2.3 2.2-5.8 2.1-9 1.9-2-.1-4.7.2-6.7.1-.7-3.7-.2-8.1.2-11.8 2.3-.6 7-.6 8.4-.6 1.8 0 3.7.1 5.3.8 1.7.9 3 2.5 3.4 4.4.3 1.9-.3 3.9-1.6 5.2z"/><path fill="#43131A" d="M391.7 334.4c-3.9 8.7-6.3 15.4-10.4 24-.7.3-1.9.2-2.3-.4-.8-1.4-1.6-3.9-2.1-6.3-.3-1.5-1.5-6.7-2-8.4-.8-2.5-1.8-4.9-2.4-7.4-1.5-6.1-3-12.2-4.5-18.4 3.2.7 6.3-.4 8 .6 1.1.6 1 2.9 1.4 4.1 1.3 4.4 2.9 10 4.2 14.4 3-5.9 6.5-13 9.5-19 .2-.3 1.3 0 2.5 0 5.2 8.3 4.8 12.3 9.8 20.4 1.8-6.5 3.5-13.9 4.8-20.4h9.7c-3.4 9.7-10 35.6-11.7 40.9-.5-.1-2.8.5-3.4.4-4.2-8.2-6.9-16.4-11.1-24.5M450.8 322.3c-7.3-6-17.7-5.9-27.1-4.8-.5.1-.3 1.6-.3 2.2.4 12.8-.8 25.6-.4 38.5 5.7-.2 11.4.9 17.1-.1 10-1.8 18.9-11.4 18.4-21.6-.2-5.5-3.4-10.7-7.7-14.2zm-3.1 19.2c-1 3.1-3.6 5.5-6.5 6.9-2.9 1.5-6.1.6-9.3 1.1-.1-8.3-.1-15.2-.1-23.5 5-1.1 9.8-.4 13.7 2.7 1 .9 2.3 3.8 2.6 5.1.2.5.2 1 .2 1.6 0 2 0 4.1-.6 6.1zM358.1 347.3c-.9-1.9-.8-2.7-2.8-5.7 4.3-.7 6.6-3.9 8.2-7.4.6-1.4.8-6.4.4-7.5-2.6-7-8.5-8.6-10.7-9-1.7-.3-3.4-.3-5.2-.2-5.2.2-10.4.3-15.7.5.2 13.4.3 26.8.4 40.2 2.9.1 6.5-.4 9.4-.4.9-5.2.6-9.3.6-15.1.9-.3 2.6.2 3.7-.1 1.9 3.8 2.7 4.3 3.9 7.3 1 2.5 2.8 5.5 3.8 7.9 4 0 6.9-.2 10.1 0-1.9-3.7-4.3-6.8-6.1-10.5zm-4.5-13.9c-1.7 1.6-4.3 1.6-6.7 1.4-1.5-.1-3.5.2-5.1.1-.5-2.8-.1-6.1.2-8.9 1.7-.4 5.3-.4 6.3-.4 1.4 0 2.8 0 4 .6 1.3.6 2.3 1.9 2.5 3.3.3 1.4-.2 2.9-1.2 3.9z"/><path fill="#3C1218" d="M101.9 335.5c-1.8 4.1-3 7.4-4.9 11.5-.4.1-.9 0-1.1-.2-.4-.7-.8-1.9-1-3-.2-.8-.7-3.2-1-4-.4-1.2-.8-2.4-1.1-3.5-.7-3-1.4-5.9-2.1-8.8 1.5.3 2.9-.2 3.8.3.5.2.5 1.3.6 1.9.6 2.1 1.4 4.8 2 6.9 1.4-2.8 3.1-6.2 4.6-9.1 0-.1.5 0 1.1 0 2.5 4 2.3 5.9 4.7 9.7.9-3.1 1.7-6.6 2.3-9.7h4.6c-1.6 4.6-4.8 17-5.5 19.5-.3 0-1.4.3-1.7.2-2-3.9-3.3-7.8-5.3-11.7M130.1 329.8c-3.5-2.9-8.4-2.8-12.9-2.3-.3 0-.2.7-.2 1 .2 6.1-.3 12.2-.2 18.3 2.7 0 5.5.5 8.2 0 4.8-.8 9-5.4 8.8-10.3-.1-2.6-1.7-5.1-3.7-6.7zm-1.5 9.1c-.5 1.5-1.7 2.6-3.1 3.3-1.4.7-2.9.3-4.4.5-.1-4-.1-7.2 0-11.2 2.3-.5 4.6-.2 6.5 1.3.5.4 1 1.8 1.2 2.4.1.3.1.5.1.8 0 1 0 2-.3 2.9zM85.9 341.7c-.4-.9-.4-1.3-1.3-2.7 2-.4 3.2-1.9 3.9-3.6.3-.6.4-3 .2-3.5-1.2-3.4-4.1-4.1-5.1-4.3-.8-.2-1.6-.2-2.5-.1-2.5 0-4.9.1-7.4.2 0 6.4.1 12.8.1 19.2 1.4 0 3.1-.2 4.5-.2.4-2.5.3-4.5.3-7.2.4-.2 1.3.1 1.8-.1.8 1.9 1.2 2.1 1.8 3.5.5 1.2 1.3 2.6 1.8 3.8 1.9 0 3.3-.1 4.8 0-.9-1.8-2-3.3-2.9-5zm-2.1-6.7c-.8.8-2.1.8-3.2.7-.7 0-1.7.1-2.4.1-.3-1.4-.1-2.9.1-4.3.8-.2 2.5-.2 3-.2.6 0 1.3 0 1.9.3.6.3 1.1.9 1.2 1.6.1.6-.1 1.4-.6 1.8z"/></g></svg>
