<svg xmlns="http://www.w3.org/2000/svg" width="574" height="488" viewBox="0 0 574 488">
  <title>
    gym-002
  </title>
  <g fill="none" fill-rule="evenodd">
    <path fill="#764C9F" d="M0 0h574v488H0z"/>
    <path fill="#44374A" d="M166.3 420.898c-2.674-.778-5.34-1.578-8.01-2.402-9.16-2.827-19.84-8.003-22.456-21.516-1.737-8.976 5.435-8.156 12.745-14.323 16.094-7.896 60.02-17.766 126.335-17.766 13.487 0 28.014.138 43.65.43 1.523 0 7.736-1.035 16.473-2.073 8.733-1.04 19.99-2.077 31.552-2.077 27.15 0 66.14-3.39 68.018 21.487-.126.88-10.414 10.86-10.576 11.728-3.573 1.56-24.89 12.645-37.71 16.864-12.818 4.22-37.975 11.855-37.975 11.855s-24.232 8.893-79.985 9.783c-55.752.89-80.237 0-102.06-11.99z" opacity=".8"/>
    <path fill="#37293E" d="M210.82 416.757c-2.042-.625-28.004-3.97-30.002-14.848-1.327-7.226 17.108-18.582 20.93-19.873 21.69-4.026 35.34-11.686 86-11.686 10.305 0 45.3.837 51.975 0 6.672-.835-19.453-3.517 0-3.517 20.74 0 50.43 3.518 54.29 15.204 3.862 11.685-27.967 19.175-28.09 19.872-1.693.778-23.703 8.694-78.174 15.077-54.47 6.383-72.848-.072-76.93-.23z" opacity=".85"/>
    <path fill="#2F2037" d="M231.078 407.68c-1.36-.427-2.715-.867-4.07-1.32-4.66-1.56-10.128-4.52-11.728-12.692-1.062-5.43 6.445-10.95 8.92-12.012 14.143-3.54 26.915-8.778 60.194-9.94 6.77-.236 14.06-.408 21.915-.503.762-.027 3.86-.766 8.22-1.55 4.36-.785 9.988-1.613 15.79-1.816 13.625-.476 28.223 2.5 29.693 17.594-.045.538-.098 1.07-.16 1.6-1.76 1.01-11.992 6.927-15.743 9.847-1.522 1.184-17.248 4.855-17.717 4.872-.83.028-54.208 4.657-86.273 5.777-3.313.114-6.357.168-9.042.142z" opacity=".85"/>
    <g>
      <path fill="#E2E2E2" stroke="#24152C" stroke-width="15.36" d="M357.227 351.353c-17.852 10.5-35.72 22.077-54.825 30.242-9.32 3.982-23.802 4.597-32.433.072-37.685-19.743-74.474-41.3-110.623-63.744-7.35-4.566-14.675-15.676-14.946-23.994-1.463-44.79-1.458-89.675-.012-134.462.265-8.296 7.527-19.38 14.842-23.93 36.153-22.482 72.937-44.093 110.627-63.867 8.653-4.542 23.81-4.515 32.464.037 37.645 19.792 74.546 41.178 110.398 64.04 8.1 5.163 14.288 18.19 15.44 28.268 2.362 20.655.71 41.762.71 62.686 5.228 86.653-17.39 92.744-71.64 124.653z"/>
      <path fill="#C9C9C9" d="M226.016 195.085c-32.763-25.08-55.944-42.477-61.804-38.002-5.86 4.476-1.738 116.742-1.738 132.61 0 15.868 49.24 37.932 49.24 37.932L284.3 366l74.975-38.375s32.666-11.328 44.78-30.74c12.112-19.412 15.183-42.322 4.056-47.52-11.126-5.2-59.09 6.606-123.81-17.88-21.81-8.254-41.63-23.65-58.284-36.4z"/>
      <g fill="#24152C">
        <path d="M207.827 248.59c8.76 8.487 19.835 23.216 32.244 13.933 18.584-8.056 6.616-64.438 8.53-102.09 12.013-.015 13.383-.028 25.393-.043 1.258 28.188.39 56.376 1.652 84.564.57 12.723 1.183 20.668-8.34 34.86-7.65 11.402-19.557 12.882-31.128 12.29-22.578-1.15-29.99-2.884-45.906-22.744-3.143-3.92 16.006-22.272 17.557-20.77zM349.505 192.282c5.853-4.474 12.43-7.984 19.4-10.35-.155-2.215-20.744-27.914-52.073-18.657-13.29 3.927-21.798 17.785-22.402 31.677-1.277 29.44 36.417 37.45 40.14 39.69 4.46 2.683 9.02 5.453 12.262 9.532 3.242 4.08 4.942 9.808 2.927 14.617-1.4 3.33-4.36 5.778-7.56 7.435-13.962 7.24-26.785-1.865-38.12-16.083-6.368 4.667-12.732 9.333-19.1 13.997-1.493 2.216 7.635 9.158 9.547 11.023 17.073 16.697 28.15 18.08 47.047 15.054 12.865-2.06 26.637-10.703 32.373-22.445 3.7-7.577 2.825-18.767-.12-26.67-4.59-12.312-13.352-21.02-25.156-26.725-6.632-3.204-16.817-5.415-22.98-9.463-16.776-11.023-4.42-22.327-2.52-23.707 7.436-5.415 22.697.597 26.335 11.075"/>
      </g>
    </g>
    <g fill="#FFF">
      <path d="M396.987 152.503c2.058-.462 3.897-1.523 6.058-1.503 2.857.028 4.973 1.992 5.527 3.94.555 1.95.027 3.962.123 5.946.05 1.053.278 2.102.59 3.147 1.205 4.035 3.69 8.01 2.31 11.967-.763.014-6.55-3.15-10.815-5.57-3.382-1.916-6.805-7.29-10.024-9.337-3.123-1.983-5.198-4.745-5.756-7.66 3.583-1.328 8.126-.062 11.987-.93zM303.2 95.827c-1.898-2.28-9.75-5.192-12.115-7.146-3.128-2.583-6.865-2.803-8.892-1.61-2.027 1.19-2.924 3.425-4.48 5.065-4.015 4.235-12.446 4.595-14.2 10.52.82.707 5.502 2.907 11.91 4.693 5.078 1.417 16.654.183 21.65 1.34 4.847 1.122 13.24-.472 17.65-5.73-2.925-4.427-7.956-2.85-11.522-7.13z"/>
    </g>
  </g>
</svg>
