<svg xmlns="http://www.w3.org/2000/svg" width="574" height="488" viewBox="0 0 574 488" version="1"><title>gym-000</title><desc>Created with Sketch.</desc><g stroke="none" stroke-width="1" fill="none" fill-rule="evenodd"><rect fill="#F89720" x="0" y="0" width="574" height="488"/><path d="M540 333C531 345 509 359 498 367 488 375 433 400 306 404 303 404 298 404 293 404 249 404 138 398 114 395 89 391 53 366 38 351 37 349 36 347 35 345 32 351 32 358 37 368 52 382 88 408 113 411 137 414 249 421 292 421 298 421 302 421 305 420 432 416 488 391 497 384 511 373 544 353 543 340 543 338 541 336 540 333" fill="#AA6107"/><path d="M464 291C474 294 483 298 492 301 498 301 504 301 510 300 501 298 492 296 485 295 479 294 472 292 464 291M344 282C310 282 279 283 240 285 231 285 222 286 214 288 245 288 277 288 308 288L309 288C327 288 345 287 363 285 367 284 371 283 375 282 364 282 354 282 344 282" fill="#C6791A"/><path d="M103 304C102 304 100 305 98 305 87 307 74 309 64 313 39 322 30 329 35 345 39 341 45 337 54 333 49 313 85 316 99 307 100 306 102 305 103 304M510 300C504 301 498 301 492 301 505 306 517 310 523 313 524 316 523 318 522 322 530 325 536 329 540 333 542 330 544 327 544 324 543 313 527 306 510 300" fill="#975606"/><path d="M522 322C512 345 442 385 283 385 133 385 78 350 58 343 56 339 54 336 54 333 45 337 39 341 35 345 36 347 37 349 38 351 53 366 89 391 114 395 138 398 249 404 293 404 298 404 303 404 306 404 433 400 488 375 498 367 509 359 531 345 540 333 536 329 530 325 522 322" fill="#884E06"/><path d="M190 288C165 288 139 288 117 297 113 299 109 301 105 303 108 303 110 303 112 303 140 299 168 294 196 290 202 289 208 288 214 288 206 288 198 288 190 288L190 288M406 277C405 277 404 277 403 278 393 279 384 281 375 282 383 283 392 283 401 283 417 283 443 287 464 291 441 284 418 277 406 277" fill="#AD6916"/><path d="M112 303C110 303 108 303 105 303 104 303 104 304 103 304 106 304 109 303 112 303" fill="#844B06"/><path d="M375 282C371 283 367 284 363 285 345 287 327 288 309 288L308 288C277 288 245 288 214 288 208 288 202 289 196 290 168 294 140 299 112 303 116 303 119 303 122 303 193 301 264 299 335 299 338 299 341 299 345 299 356 299 368 299 380 299 386 299 392 299 398 299 399 299 399 299 400 299 400 299 401 299 401 299 414 300 428 300 441 300 452 301 463 301 475 301 480 301 486 301 492 301 483 298 474 294 464 291 443 287 417 283 401 283 392 283 383 283 375 282" fill="#8A5412"/><path d="M401 299C423 300 463 308 484 311 495 313 510 316 522 322 523 318 524 316 523 313 517 310 505 306 492 301 486 301 480 301 475 301 463 301 452 301 441 300 428 300 414 300 401 299M380 299C386 299 392 299 398 299 392 299 386 299 380 299M335 299C264 299 193 301 122 303 119 303 116 303 112 303 109 303 106 304 103 304 102 305 100 306 99 307 85 316 49 313 54 333 57 332 60 330 63 329 74 325 86 323 98 321 130 316 162 312 195 307 209 304 224 302 239 301 278 300 310 299 343 299L345 299C341 299 338 299 335 299" fill="#693C04"/><path d="M398 299C399 299 400 299 401 299 401 299 400 299 400 299 399 299 399 299 398 299M345 299C356 299 368 299 380 299 368 299 356 299 345 299" fill="#7C4C10"/><path d="M343 299C310 299 278 300 239 301 224 302 209 304 195 307 162 312 130 316 98 321 86 323 74 325 63 329 60 330 57 332 54 333 54 336 56 339 58 343 78 350 133 385 283 385 442 385 512 345 522 322 510 316 495 313 484 311 463 308 423 300 401 299 400 299 399 299 398 299 392 299 386 299 380 299 368 299 356 299 345 299L343 299" fill="#5F3604"/><path d="M506 313C506 313 502 291 495 258 488 229 475 198 467 171 459 145 458 122 453 122L448 74C448 70 444 68 440 68 418 69 396 73 376 74 331 75 295 73 288 73 283 73 251 71 217 70 191 70 166 70 137 68 132 68 129 71 128 75L123 122C119 122 117 138 110 159 105 177 96 199 90 222 87 236 87 253 84 265 77 296 69 316 69 316 66 323 76 330 76 330 84 335 98 340 105 344 124 353 135 360 151 365 176 372 192 371 209 372 227 373 235 376 248 376 261 376 268 355 268 355L277 332C281 321 283 319 288 319 295 319 296 321 300 332L309 355C309 355 316 376 333 377 333 377 344 378 363 376 380 375 389 373 415 364 428 360 456 354 471 347 480 342 490 337 500 330 500 330 510 319 506 313" fill="#382207"/><path d="M343 359C337 359 333 358 333 358L332 358 332 358C325 358 321 346 320 346L320 346 320 346 312 324C307 313 304 304 289 303L288 302 287 303C273 304 270 313 265 323L256 346 256 347C256 347 252 358 245 358L244 358 244 358C244 358 240 359 233 359 210 359 151 355 91 316 91 316 90 315 90 315 105 239 126 155 135 137L141 136 146 86C186 89 236 91 287 91L288 91C291 91 358 91 431 86L436 136 441 137C449 152 467 219 487 315 487 315 486 316 485 316 426 355 366 359 343 359L343 359" fill="#C9C9C9"/><path d="M112 305C98 266 114 214 146 175 164 153 144 124 149 96 150 93 151 90 152 87 150 87 148 87 146 86L141 136 135 137C126 155 105 239 90 315 90 315 91 316 91 316 114 331 136 340 157 347 143 331 119 320 112 305" fill="#C9C9C9"/><path d="M428 253C427 236 412 229 403 214 390 192 408 168 397 148 383 124 364 105 341 90 311 91 290 91 288 91L287 91C238 91 191 89 152 87 151 90 150 93 149 96 144 124 164 153 146 175 114 214 98 266 112 305 119 320 143 331 157 347 190 357 219 359 233 359 240 359 244 358 244 358L244 358 245 358C252 358 256 347 256 347L256 346 265 323C270 313 273 304 287 303L288 302 289 303C304 304 307 313 312 324L320 346 320 346 320 346C321 346 325 358 332 358L332 358 333 358C333 358 337 359 343 359L343 359C346 359 350 359 354 359 349 320 396 301 425 275 432 271 428 260 428 253" fill="#DCDBDB"/><path d="M460 266C449 209 423 162 415 105 415 98 409 93 403 88 380 89 359 90 341 90 364 105 383 124 397 148 408 168 390 192 403 214 412 229 427 236 428 253 428 260 432 271 425 275 396 301 349 320 354 359 374 358 405 353 440 339 441 333 443 328 447 323 460 307 465 286 460 266" fill="#B7B7B7"/><path d="M487 315C467 219 449 152 441 137L436 136 431 86C421 87 412 87 403 88 409 93 415 98 415 105 423 162 449 209 460 266 465 286 460 307 447 323 443 328 441 333 440 339 455 334 470 326 485 316 486 316 487 315 487 315" fill="#878787"/><path d="M234 160C250 160 267 167 280 178 281 179 282 181 280 183L265 198C264 199 262 199 260 198 253 192 245 189 236 189 216 189 199 207 199 227 199 247 216 264 236 264 242 264 247 263 253 261L253 250 241 250C239 250 237 249 237 247L237 229C237 226 239 225 241 225L278 225C280 225 282 227 282 229L282 279C282 280 281 281 280 282 280 282 261 294 234 294 197 294 167 264 167 227 167 190 197 160 234 160" fill="#382207"/><path d="M311 274L320 259C321 256 325 257 326 258 327 258 340 268 353 268 360 268 365 263 365 257 365 249 359 243 346 238 330 232 310 219 310 197 310 178 325 160 353 160 373 160 387 170 393 174 395 175 395 178 394 180L385 194C383 196 380 198 378 197 377 196 363 185 352 185 345 185 340 190 340 195 340 202 346 207 360 213 375 219 398 230 398 255 398 275 381 294 354 294 330 294 316 284 312 280 310 278 310 277 311 274" fill="#382207"/><path d="M147 128C196 128 240 138 289 137 337 137 385 132 433 131 428 135 382 137 365 138 279 145 161 133 147 128" fill="#24142C"/><path d="M116 255C120 243 126 231 131 219 142 194 147 167 147 140 146 169 134 197 123 225 112 252 102 281 104 310 107 292 109 273 116 255" fill="#24142C"/><path d="M126 223C126 256 126 290 127 323 122 295 120 266 121 238" fill="#24142C"/></g></svg>