<svg xmlns="http://www.w3.org/2000/svg" width="122" height="144" viewBox="0 0 122 144" role="img">
  <title>Vitamin Talent</title>
  <desc>Vitamin Talent logo in black.</desc>
  <path fill="#1A1919" fill-rule="nonzero" d="M117.566356 63.0847818l-6.6538 1.7423553-.995905-3.7583036 2.352645-.6335838-1.529941-5.7022537c-.808271-3.0383221-2.352645-4.247891-4.633123-3.6287069-1.27014.3455911-2.121711 1.0799723-2.569147 2.2319427-.447435 1.1375709-.418568 2.6495321.086601 4.5214841l1.226839 4.5790825 2.352646-.6335838.995905 3.7583036-8.5301432 2.2895413-.995905-3.7583036 2.3382122-.6335837-2.6268803-9.8349478-4.6042564 1.2383683-.995905-3.7295044 8.4291087-2.2751416.63507 2.3615394c.534036-2.0591471 1.876343-3.3695135 4.012487-3.9454988.591769-.1583959 1.169106-.2735929 1.746442-.2735929-.793837-.8927771-1.630975-1.7999539-2.482546-2.6639317L61.001839 0 16.8789179 44.3220631C8.06010704 53.1778359 2.71974695 64.32315.78567059 75.8572541l3.81041909-.9791748.99590499 3.7295043-2.09284382.5615856 5.00839177 6.9406219.95260477-8.5533806-2.09284382.5615856-.99590499-3.7295043 8.24147462-2.2175431.995905 3.7295043-2.0928438.5615856-1.7608755 15.047614-3.36298353.9071768L.15060074 81.2859149C-1.01850512 97.8166908 4.62495649 114.894653 16.8789179 127.220737c13.1055323 13.175662 33.6298352 18.575523 52.8262647 16.257183l-.0288668-.0288-9.5693479-35.927078-22.415079 6.033445-5.2537597-19.7130942 64.4307229-17.3515549 5.2537599 19.7130943-22.4150793 6.0334448 9.5404812 35.797482.0144334.043199c5.9321297-2.692731 11.3302237-6.321438 15.8478797-10.857321 16.872651-16.948366 21.260406-42.7093049 12.456029-64.1359552zM90.0851514 46.1508162l1.0247718 3.8303017-3.8392859 1.0223738-1.0103384-3.8159021 3.8248525-1.0367734zM20.689337 64.8415367l1.0247718 3.8159021-3.8392859 1.0367734-1.0247718-3.8159021 3.8392859-1.0367734zm-.1299007 24.3065765l-1.0103384-3.7583036 2.3382118-.6191841-2.6124465-9.8493474-2.2804781.6191842-.9959049-3.7295044 6.119764-1.6415579 3.6227848 13.5644521 2.3526451-.6335838.995905 3.7583036-8.5301428 2.2895413zm10.3343185-2.7791287l-3.6372182-13.5932513-2.7567805.7343811-.995905-3.7295043 2.7567805-.7487808-1.4144738-5.3134637 3.9258864-1.051173 1.4144737 5.3134637 5.7877957-1.5551601s-.9381714.77758-1.7031419 2.3039409c-.5917696 1.1951693-.6495032 2.3327401-.6495032 2.3327401l-2.4392456.662383 2.6124464 9.8349478 2.4392456-.6479834s.4041354.5903848 1.3856069 1.4543627c1.2124061 1.0655726 2.6990469 1.4687623 2.6990469 1.4687623l-9.4250139 2.534335zm20.8707046-5.6302556l-.5196026-1.9727494c-.6495033 1.0511731-1.3423067 1.8575524-2.0784104 2.4623369-.7361037.6047844-1.6454083 1.0367734-2.7279137 1.3391656-1.2990065.3455911-2.525846.4319889-3.7238187.2879926-1.1979726-.1583959-2.2949115-.5327863-3.3052499-1.1231712-.995905-.5903848-1.8763427-1.3679649-2.6124464-2.3471398-.7361037-.9791748-1.2701397-2.1167457-1.6309748-3.4415117-.3464018-1.2959667-.4474356-2.5487346-.3031015-3.7727032.1299006-1.2239686.4907357-2.3327402 1.0536386-3.3407143.5629028-1.0079742 1.3423067-1.871952 2.3093449-2.6207328.9670382-.7343811 2.1072772-1.2815671 3.4207171-1.6415579 1.1691059-.3167919 2.2227445-.4031896 3.1753493-.273593.9526047.1295967 1.9340763.5327864 2.9299813 1.2239686l-.5629028-2.102346 6.1486308-1.6559575.995905 3.7295043-2.2804781.6191841 2.6268798 9.8493473 2.381512-.6479833.995905 3.7583036-6.2929649 1.6703571zm28.3039085-7.6174046l-.995905-3.7583036 2.3382117-.6335837-1.7175753-6.4222353c-.67837-2.5487346-2.0206768-3.5567087-4.0269201-3.0095228-1.0969389.3023923-1.8619094.9215764-2.2660447 1.8863516-.4185688.9647753-.4041354 2.2319428.0144334 3.8015025l1.4722074 5.5150585 2.3815119-.6479833.995905 3.7583036-8.4579757 2.2751416-.995905-3.7583036 2.3382117-.6335837-1.7031419-6.4366349c-.67837-2.5487347-2.0206768-3.5567088-4.0269202-3.0095228-1.1113722.2879926-1.8619093.9215763-2.2660446 1.8863516-.4185688.9647752-.4041354 2.2319427.0144334 3.8015025l1.4722073 5.5150585 2.3382118-.6335838.9959049 3.7583036-8.5301427 2.2895413-.995905-3.7583036 2.3526451-.6335837-2.6268798-9.8493474-2.2804781.6191841-.995905-3.7295043 6.119764-1.6415579.6062031 2.2895413c.2453678-1.0223738.6928034-1.8431527 1.3278733-2.4767365.6350698-.6191841 1.5010742-1.0943719 2.6124464-1.3823645 1.1113722-.3023923 2.136144-.3167919 3.0454486-.0287993.923738.273593 1.7897423.8495782 2.6268798 1.7135561.5051692-1.2527679 1.0969389-2.2175432 1.7753089-2.9231251.6783701-.6911822 1.5588078-1.1807697 2.6268798-1.4831619 1.9052096-.5039871 3.5361844-.2879926 4.907358.662383 1.3711735.9503756 2.3815119 2.649532 3.0454486 5.0830696l1.7464421 6.5230327 2.3815119-.6479834 1.0103384 3.7583036-8.6600434 2.3615394zm9.8724495-2.649532l-.995905-3.7583036 2.3526451-.6335838-2.6268798-9.8493473-4.979525 1.324766s-.2453679-.662383-1.2990065-1.7567549c-.995905-1.0367734-1.8041757-1.3535653-1.8041757-1.3535653l10.9260881-2.9807235 3.6227848 13.564452 2.3382117-.6335837 1.0103384 3.7583035-8.5445761 2.3183406zm-41.4094409-.3599908c-.4185687-.5615856-.9237379-1.0223738-1.5010742-1.3535653-.5773362-.3311915-1.212406-.5471859-1.9196429-.6479833-.7072369-.1007975-1.4289072-.0431989-2.1650109.1583959-.6928034.1871952-1.3278733.4895874-1.8619093.9071767-.5484694.4175893-.9814716.9215764-1.3134399 1.5119612-.3319683.5903849-.5484694 1.2239686-.6495033 1.9295505-.1010338.7055819-.0433002 1.4255635.1587675 2.1887439.2020677.7631804.5196026 1.4255634.9526048 1.9727494.4330021.5615856.9381713 1.0079741 1.5155076 1.3535653.5773362.3455911 1.212406.5615856 1.8907761.662383.6783701.0863978 1.3711735.0431989 2.063977-.1439963.7361037-.2015949 1.4000404-.5183867 1.9485098-.935976.5773362-.4175893 1.0247718-.935976 1.3567401-1.5263609.3319683-.5903848.534036-1.2239686.6206364-1.9295505.0866005-.6911822.0288669-1.4255634-.1732008-2.1887438-.1876343-.7343812-.5051692-1.3823646-.923738-1.9583498z"/>
</svg>
