<?xml version="1.0" encoding="UTF-8"?>
<svg width="800px" height="678px" viewBox="0 0 800 678" version="1.1" xmlns="http://www.w3.org/2000/svg" xmlns:xlink="http://www.w3.org/1999/xlink">
    <!-- Generator: Sketch 43.2 (39069) - http://www.bohemiancoding.com/sketch -->
    <title>GYMCMS-art</title>
    <desc>Created with Sketch.</desc>
    <defs></defs>
    <g id="Page-1" stroke="none" stroke-width="1" fill="none" fill-rule="evenodd">
        <g id="GYMCMS-art">
            <path d="M8.87952625,640.252517 C8.30636359,640.252517 7.87649159,628.932554 8.01978225,615.17665 C8.30636359,593.683051 8.59294492,590.100784 10.5990142,589.670912 C8.16307292,588.667877 7.87649159,586.661808 7.58991025,571.902869 C7.44661959,562.588976 7.16003826,551.842176 7.01674759,547.830037 C6.73016626,537.226528 6.15700359,472.315856 6.30029426,469.163462 C6.44358492,467.157392 7.30332892,466.72752 10.7423049,467.157392 C13.0349556,467.443974 15.1843156,467.157392 15.4708969,466.297648 C15.9007689,465.151323 17.0470942,465.294614 19.1964542,466.58423 C23.3518835,469.020171 23.2085929,467.443974 17.7635476,452.111872 C15.1843156,445.23392 13.6081182,439.215712 14.1812809,438.64255 C15.3276062,437.496224 14.4678622,436.49319 23.6384649,451.53871 C32.8090675,466.72752 34.3852649,468.017136 33.0956489,459.562987 C31.6627422,450.105803 26.5042782,437.209643 22.9220115,433.484086 C21.0592329,431.764598 18.3367102,426.462843 16.6172222,422.020832 C14.0379902,414.569718 14.0379902,413.566683 16.0440596,412.85023 C18.9098729,411.703904 21.0592329,414.569718 27.9371849,428.898784 C35.9614622,445.377211 42.5528328,457.127046 43.2692862,456.267302 C44.2723208,455.407558 38.1108222,426.892715 36.1047528,423.167158 C35.3882995,421.59096 32.8090675,418.008694 30.6597075,415.14288 C26.6475689,409.984416 16.4739316,387.774363 16.4739316,384.192096 C16.4739316,381.756155 20.1994889,381.756155 21.2025236,384.192096 C21.6323956,385.05184 25.2146622,390.353595 29.2268009,395.79864 C33.2389395,401.243686 36.5346248,407.118603 36.5346248,408.838091 C36.5346248,414.713008 41.2632168,424.170192 53.5862141,443.227851 C55.5922835,446.380246 57.7416435,449.246059 58.1715155,449.675931 C58.6013875,450.105803 60.4641661,452.971616 62.1836541,456.124011 C65.6226301,462.4288 65.4793394,460.995894 60.7507475,445.377211 C52.1533075,416.002624 44.9887742,400.527232 35.6748808,390.926758 C30.8029982,385.768294 28.2237662,381.182992 23.6384649,368.859995 C20.4860702,360.262555 17.9068382,352.66815 17.9068382,351.951696 C17.9068382,351.235243 16.6172222,347.939558 15.0410249,344.787163 C11.8886302,338.052502 11.6020489,336.476305 13.6081182,336.476305 C14.3245716,336.476305 17.3336756,340.201862 20.1994889,344.787163 C23.0653022,349.229174 29.3700915,358.113195 34.0986835,364.274694 C39.8303102,371.725808 43.1259955,377.744016 43.9857395,381.899446 C44.8454835,385.338422 47.8545875,392.216374 50.8636915,397.088256 C58.1715155,409.124672 69.6347688,425.603099 70.3512221,424.886646 C71.6408381,423.59703 52.4398888,346.936523 48.7143315,338.625665 C46.8515528,334.756817 43.6991582,329.741643 41.6930888,327.592283 C38.6839848,324.439889 36.5346248,318.27839 30.8029982,296.068337 C26.9341502,280.879526 22.7787209,265.547425 21.6323956,262.108449 C19.0531636,254.943915 18.7665822,251.934811 20.7726516,251.934811 C21.4891049,251.934811 25.5012435,258.812763 29.6566729,267.266913 C33.6688115,275.864353 40.5467635,289.190385 44.8454835,297.071371 C50.0039475,306.528555 53.2996328,314.696123 54.5892488,321.430785 C56.8818995,332.320875 63.9031421,348.36943 71.7841288,360.835718 C74.5066514,365.134438 80.8114407,375.451366 85.8266141,383.762224 C100.298971,408.121638 108.753121,420.444635 109.326283,418.151984 C110.329318,412.85023 98.292902,348.36943 90.2686247,315.699158 C82.9608007,286.181281 77.8023367,272.998539 70.2079314,263.827937 C65.0494674,257.523147 62.9001074,252.651265 56.8818995,234.310059 C53.0130515,222.416934 47.9978782,207.801286 45.8485182,202.06966 C39.4004382,184.731489 43.8424488,187.02414 56.8818995,207.944577 C60.3208755,213.389622 66.0525021,221.413899 69.6347688,225.85591 C79.0919527,237.605745 83.3906727,245.916603 84.3937074,254.800625 C85.5400327,263.971227 91.5582407,275.29119 105.170854,294.922011 C116.347526,310.970566 126.664454,327.305702 131.966209,337.192758 C133.972278,341.204897 137.841126,347.652977 140.420358,351.521824 C142.99959,355.533963 148.158054,363.55824 151.883611,369.433158 C170.511398,398.521163 193.724486,431.191435 197.450043,433.484086 C198.309787,434.057248 198.596368,433.054214 198.166496,430.904854 C197.736624,429.042075 196.017136,420.731216 194.297648,412.563648 C192.57816,404.39608 190.858672,397.088256 190.4288,396.371803 C189.569056,394.938896 184.124011,371.152646 179.252128,347.223105 C165.926097,282.885595 155.609169,252.364683 142.856299,239.898395 C136.838091,234.166769 136.838091,234.166769 130.533302,207.514705 C122.509025,173.984689 121.219409,167.82319 120.216374,160.658657 C119.643211,155.356902 119.786502,153.064252 120.932827,153.064252 C121.792571,153.064252 128.097361,164.527505 135.118603,178.56999 C141.996555,192.469185 150.450705,208.947612 153.74639,214.96582 C158.04511,222.846806 160.19447,228.865014 161.340795,236.459419 C162.773702,245.486731 170.654689,264.974262 173.950374,267.696785 C174.380246,268.126657 176.386315,271.279051 178.249094,274.861318 C180.255163,278.443585 183.83743,283.88863 186.559952,287.184315 C192.004998,293.918977 192.291579,296.498209 188.566022,304.379195 C187.133115,307.388299 185.413627,314.696123 184.840464,320.42775 C183.98072,329.884934 184.124011,331.317841 186.989824,335.47327 C190.715382,340.775025 196.87688,344.787163 213.498598,352.381568 C219.660096,355.247382 226.108176,358.829648 227.541083,360.405846 C229.11728,361.838752 236.854976,375.594656 244.879254,390.926758 C252.903531,406.258859 262.790587,425.029936 266.802726,432.481051 C279.842176,456.840464 362.3776,550.839141 364.813541,554.564699 C367.392773,558.433547 369.685424,561.156069 369.972005,560.869488 C370.831749,560.153035 367.392773,552.70192 349.48144,516.1628 C336.58528,489.654027 334.292629,485.641888 330.567072,484.352272 C327.701259,483.349237 325.981771,481.629749 325.408608,478.763936 C324.262283,474.608507 322.829376,471.312822 315.234971,454.691104 C305.204624,433.197504 304.918043,432.481051 307.210693,432.481051 C308.357019,432.481051 315.09168,441.221782 324.835445,455.120976 C326.698224,457.700208 330.567072,463.001963 333.576176,466.870811 C336.728571,471.02624 339.451093,476.327995 340.167547,480.196843 C341.027291,485.355307 344.179685,490.227189 355.642939,504.269675 C363.523925,514.01344 372.694528,525.763275 376.133504,530.348576 C379.429189,534.790587 382.438293,538.516144 382.868165,538.516144 C383.154747,538.516144 380.432224,532.927808 376.706667,526.049856 C371.118331,515.876219 361.804437,497.821595 359.225205,492.376549 C360.801403,491.230224 363.237344,493.952747 365.529995,497.391723 C367.822645,500.687408 369.972005,503.696512 370.545168,504.126384 C371.548203,504.986128 386.593723,525.619984 388.313211,528.342507 C388.886373,529.488832 389.746117,536.939947 390.032699,544.820933 C390.462571,557.573803 391.322315,565.311499 394.331419,578.637531 C394.761291,580.6436 395.334453,587.664843 395.334453,594.399504 C395.477744,603.426816 396.337488,607.868827 398.343557,611.594384 C402.069115,618.472336 402.785568,614.460197 399.919755,600.990875 C398.343557,593.396469 398.200267,588.954459 399.060011,585.658773 C401.925824,575.915008 400.063045,543.674608 395.621035,524.330368 C394.331419,519.171904 392.755221,506.848907 391.752187,496.961851 C389.889408,475.898123 388.456501,467.873846 384.444363,456.124011 C379.57248,442.081526 374.270725,436.349899 355.213067,424.600064 C352.633835,422.880576 349.338149,420.587926 347.905243,419.29831 C346.472336,418.008694 342.460197,416.002624 338.877931,414.856299 C326.268352,410.557579 288.009744,393.792571 282.994571,390.210304 C280.128758,388.204235 277.119654,386.628038 276.25991,386.628038 C275.400166,386.628038 274.397131,386.054875 274.11055,385.338422 C273.967259,384.765259 268.522214,381.039702 262.217424,377.314144 C255.912635,373.445296 245.595707,366.997216 239.147627,362.841787 C232.842838,358.829648 222.812491,352.954731 217.080864,349.802337 C211.205947,346.793233 205.044448,343.067675 203.32496,341.491478 C201.605472,339.915281 198.596368,337.049467 196.447008,335.186689 C192.148288,331.461131 191.861707,327.019121 194.011067,309.251078 C194.870811,303.376161 196.160427,292.342779 197.020171,284.891665 C200.315856,257.953019 207.193808,228.435142 210.919366,225.282747 C211.9224,224.423003 212.782144,222.560225 212.782144,221.127318 C212.782144,219.837702 214.931504,214.106076 217.654027,208.374449 C220.233259,202.786113 223.815526,194.331964 225.535014,189.603372 C227.397792,184.87478 229.833734,179.143153 231.12335,176.707212 C234.992198,169.256097 235.42207,168.396353 242.156731,153.780705 C245.738998,145.899718 249.321264,138.448604 250.037718,137.302278 C250.897462,136.155953 252.187078,133.576721 253.190112,131.570652 C254.049856,129.564582 256.91567,123.689665 259.494902,118.531201 C262.217424,113.229446 264.366784,108.070982 264.366784,107.067948 C264.366784,105.921622 264.939947,104.202134 265.6564,103.055809 C266.659435,101.336321 268.378923,101.909484 274.683712,106.064913 C278.839142,108.787436 286.720128,112.942865 292.165174,115.235516 C297.610219,117.528166 305.347915,122.256758 309.360053,125.839025 C318.244075,133.720012 334.149339,144.610102 349.624731,153.207542 C355.92952,156.789809 363.667216,161.088529 366.819611,162.808017 C373.840853,166.820156 383.154747,171.262166 386.593723,172.265201 C390.462571,173.411526 389.602827,176.42063 382.581584,186.594268 C378.999317,191.896022 376.133504,196.624614 376.133504,197.197777 C376.133504,197.77094 373.410981,201.783078 370.115296,206.081798 C361.661147,217.25847 351.057637,240.328267 347.045499,256.233531 C342.460197,274.431446 341.027291,276.867387 327.844549,289.190385 C316.094715,300.223766 310.076507,304.379195 297.466928,310.827275 L289.872523,314.696123 L294.171243,315.555867 C305.491205,318.135099 330.423781,301.513382 342.030325,283.745339 C345.18272,278.730166 349.051568,274.144865 350.484475,273.428411 C354.066741,271.422342 359.368496,273.714993 363.667216,279.446619 L367.392773,284.175211 L383.154747,284.605083 C397.770395,285.034955 399.346592,284.891665 403.645312,281.882561 C406.224544,280.019782 408.660485,278.013713 408.803776,277.44055 C409.090357,276.867387 410.236683,276.294225 411.383008,276.294225 C412.529333,276.294225 413.389077,275.721062 413.389077,275.004609 C413.389077,274.288155 417.974379,272.855249 423.706005,271.995505 C432.590026,270.419307 435.025968,270.562598 441.330757,272.568667 C445.486186,273.858283 450.071488,274.861318 451.790976,274.861318 C456.089696,274.861318 455.803114,277.44055 451.217813,279.160038 C447.492256,280.592945 436.029002,289.047094 435.169258,291.053163 C430.297376,292.056198 423.132843,298.790859 418.834123,305.668811 C411.956171,316.415611 405.937963,323.580145 404.505056,322.720401 C403.788603,322.290529 403.645312,318.135099 404.218475,313.549798 C405.3648,303.662742 403.931893,293.202523 401.782533,296.498209 C401.06608,297.644534 400.492917,300.796929 400.492917,303.519451 C400.492917,306.241974 399.203301,313.549798 397.627104,319.854587 C396.050907,326.016086 394.761291,332.607457 394.761291,334.326945 C394.761291,342.781094 379.715771,383.762224 376.706667,383.762224 C372.551237,383.762224 366.103157,360.835718 366.103157,346.363361 C366.103157,338.339083 369.685424,313.406507 371.834784,306.958427 C372.694528,304.235905 373.267691,300.653638 372.981109,298.93415 C372.551237,296.354918 371.118331,298.360987 366.962901,307.101718 C358.795333,323.866726 357.362427,330.458097 356.502683,354.81751 C356.072811,366.710635 355.213067,376.597691 354.639904,376.597691 C351.344219,376.597691 348.191824,353.671184 348.191824,330.028225 C348.191824,313.406507 348.621696,310.110822 352.203963,300.080475 C354.353323,293.918977 356.072811,287.900769 356.072811,286.897734 C356.072811,279.733201 348.478405,292.629361 343.749813,307.674881 C337.874896,326.589249 339.594384,358.256486 347.761952,378.60376 C351.6308,388.347526 356.072811,404.25279 355.069776,405.255824 C354.639904,405.685696 352.633835,403.966208 350.627765,401.530267 C348.478405,399.094326 343.319941,395.225478 339.021221,392.932827 C316.811168,381.039702 296.177312,351.808406 283.711024,314.409542 L277.549526,295.781755 L276.546491,301.943254 C275.256875,309.537659 276.833072,325.586214 279.555595,332.034294 C280.70192,334.613526 281.561664,337.765921 281.561664,338.768955 C281.561664,340.918315 286.863419,352.524859 291.878592,361.552171 C302.482101,380.323248 313.228901,389.637142 334.006048,398.091291 C341.743744,401.243686 349.768021,404.969243 351.774091,406.40215 C353.78016,407.835056 356.502683,409.411254 357.935589,409.984416 C359.225205,410.414288 360.371531,412.133776 360.371531,413.566683 C360.371531,414.99959 361.374565,417.435531 362.664181,419.011728 C364.670251,421.59096 364.813541,421.304379 364.240379,415.716043 C363.810507,412.277067 363.953797,409.554544 364.670251,409.554544 C365.959867,409.554544 373.267691,419.871472 373.267691,421.877542 C373.267691,422.737286 375.130469,426.319552 377.566411,430.04511 C382.868165,438.355968 386.163851,438.929131 386.163851,431.334726 C386.163851,428.325622 387.740048,416.719078 389.746117,405.542406 C391.752187,394.365734 393.328384,383.332352 393.328384,381.182992 C393.328384,379.033632 394.904581,372.298971 396.76736,366.137472 C399.776464,356.680288 399.919755,354.9608 398.056976,353.957766 C396.480779,352.954731 397.627104,351.091952 403.645312,344.787163 C408.517195,339.77199 412.099461,334.470235 413.675659,329.884934 C417.401216,319.281425 433.44977,302.659707 451.934266,290.33671 C460.245125,284.748374 468.412693,279.016747 470.132181,277.583841 C471.708378,276.150934 473.714448,274.861318 474.574192,274.861318 C475.290645,274.861318 477.153424,273.571702 478.58633,271.995505 C482.168597,268.126657 483.601504,268.413238 483.601504,273.14183 C483.601504,275.434481 484.317957,280.736235 485.177701,285.178246 C486.610608,292.199489 486.467317,293.632395 483.601504,299.364022 C481.882016,302.802998 473.857738,312.116891 465.833461,320.141169 C449.498325,336.333014 427.718144,360.119264 427.718144,361.695462 C427.718144,362.268624 426.715109,363.844822 425.425493,365.277728 C423.849296,367.140507 422.989552,371.009355 422.846261,378.317179 C422.55968,384.048806 421.413355,395.941931 419.980448,404.539371 C415.395147,433.484086 413.389077,450.105803 410.523264,482.632784 C406.511125,530.061995 406.081253,535.936912 407.51416,540.665504 C408.517195,544.677643 408.803776,544.247771 411.096427,534.933877 C412.529333,529.488832 415.251856,516.1628 417.114635,505.559291 C418.977413,494.955781 421.843227,482.059621 423.419424,476.901158 C424.995621,471.742694 426.715109,465.294614 427.144981,462.572091 C427.574853,459.849568 429.151051,453.68807 430.583957,448.959478 C432.016864,444.230886 434.452805,434.630411 436.172293,427.465878 C439.038106,414.856299 446.20264,395.225478 451.361104,385.338422 C452.65072,382.615899 455.373242,376.024528 457.236021,370.579483 C458.955509,365.277728 462.394485,358.543067 464.687136,355.533963 C466.979786,352.524859 473.571157,343.640838 479.159493,335.759851 C495.064757,313.263217 493.058688,315.125995 496.497664,319.281425 C498.073861,321.287494 501.512837,327.162411 504.37865,332.320875 C509.966986,343.067675 515.12545,346.506651 525.012506,346.506651 C529.167936,346.506651 531.747168,347.366395 533.896528,349.515755 C538.195248,353.814475 547.36585,355.677254 552.954186,353.527894 C555.390128,352.524859 561.981498,348.656011 567.713125,344.787163 C573.444751,341.061606 578.459925,337.909211 579.033087,337.909211 C579.462959,337.909211 583.188517,336.189723 587.343946,334.183654 C591.356085,332.177585 598.663909,329.02519 603.535791,327.162411 C615.858789,322.433819 628.038495,313.836379 635.632901,304.379195 C639.071877,300.080475 642.367562,296.498209 643.084015,296.354918 C645.949829,296.211627 642.510853,315.412577 636.635935,332.750747 C633.483541,342.351222 633.053669,342.637803 624.74281,347.079814 C620.014218,349.659046 613.99601,353.241312 611.416778,355.104091 C605.111989,359.832683 604.108954,357.683323 609.124127,350.375499 C611.416778,347.079814 614.569173,341.778059 616.14537,338.625665 C617.721567,335.47327 621.017253,331.317841 623.309903,329.311771 C640.504783,314.839414 643.943759,308.534625 627.608623,321.000913 C610.843615,334.040363 589.206725,349.372465 583.90497,352.094987 C574.734367,356.823579 563.557695,358.399776 549.228629,357.396742 C541.920805,356.823579 533.466656,356.393707 530.457552,356.536998 C524.152762,356.680288 510.396858,350.232208 506.52801,345.503617 C503.089034,341.204897 501.512837,343.784129 504.23536,348.942593 C507.531045,355.390672 515.841904,360.835718 523.72289,362.125334 C527.735029,362.698496 532.033749,364.274694 533.466656,365.56431 C539.628154,371.152646 545.932944,372.298971 565.707055,371.725808 C598.95049,370.579483 610.413743,367.140507 624.026357,353.957766 C625.889135,352.094987 627.751914,351.091952 627.895205,351.808406 C628.181786,352.524859 623.166613,363.55824 616.861823,376.31111 C610.557034,389.063979 605.39857,400.383942 605.39857,401.243686 C605.39857,405.255824 594.65177,431.907888 588.20369,443.801014 C584.334842,450.965547 581.039157,457.270336 581.039157,457.556918 C581.039157,457.843499 578.459925,463.431835 575.30753,469.879915 C566.280218,488.364411 558.255941,514.729893 556.536453,531.781483 C555.676709,539.80576 554.960256,547.400165 554.816965,548.546491 C554.100512,555.281152 557.252906,585.515483 559.545557,593.109888 C562.124789,601.420747 562.268079,605.576176 561.408335,647.990213 C560.548591,689.974378 566.996671,594.399504 565.420474,592.393435 C564.130858,590.960528 563.700986,588.238005 564.274149,585.228901 C564.704021,582.506379 564.56073,580.070437 563.844277,579.783856 C561.694917,579.067403 561.551626,534.790587 563.700986,522.754171 C565.850346,510.717755 573.15817,491.086933 580.036122,478.620646 C582.615354,474.178635 585.911039,467.587264 587.487237,464.004998 C589.063434,460.422731 592.50241,454.404523 595.081642,450.392384 C601.959594,439.788875 609.840581,422.593995 611.130197,415.286171 C611.703359,411.703904 615.715498,401.816848 620.157509,393.076118 C624.456229,384.478678 629.757983,373.158715 631.907343,368.000251 C638.355423,352.524859 647.096154,330.458097 649.388805,323.580145 C650.678421,319.997878 652.111327,316.558902 652.68449,315.699158 C656.839919,309.967531 658.845989,286.181281 655.550303,282.885595 C653.687525,281.022817 653.687525,277.727131 655.550303,277.727131 C656.410047,277.727131 659.562442,279.58991 662.714837,281.882561 C665.867231,284.175211 671.312277,286.754443 675.037834,287.614187 C680.053007,288.903803 681.342623,289.763547 680.769461,291.483035 C680.339589,292.772651 682.059077,298.360987 684.781599,304.092614 C690.799807,316.558902 692.376004,326.589249 693.66562,362.268624 C694.811946,394.222443 694.811946,395.225478 693.235748,396.801675 C692.519295,397.518128 687.07425,399.380907 681.199333,400.957104 C675.324415,402.533302 668.016591,404.969243 664.864197,406.258859 C653.974106,410.84416 649.388805,417.722112 655.263722,420.874507 C657.986245,422.307414 678.190229,422.020832 684.92489,420.444635 C691.802842,418.868438 693.52233,421.017798 691.659551,428.468912 C690.799807,431.764598 689.653482,436.63648 689.22361,439.215712 C688.650447,441.651654 685.784634,446.666827 682.632239,450.105803 C679.623135,453.68807 677.043903,457.127046 677.043903,457.700208 C677.043903,458.416662 675.181125,462.858672 672.888474,467.587264 C670.595823,472.315856 667.300138,479.050518 665.723941,482.632784 C655.836885,504.412965 644.08705,522.037717 628.754949,538.086272 C614.282591,553.275083 610.127162,558.433547 600.813269,573.049195 C591.785957,587.09168 583.90497,603.283525 583.90497,607.725536 C583.761679,609.445024 582.901935,612.454128 581.75561,614.460197 C579.462959,618.615626 578.889797,631.655077 581.039157,631.655077 C581.898901,631.655077 582.472063,633.947728 582.472063,636.67025 C582.472063,640.539098 583.475098,642.688458 586.484202,645.26769 C588.633562,647.130469 591.069503,648.849957 592.072538,648.849957 C595.368223,648.849957 599.237071,639.679354 599.523653,631.368496 C599.666943,626.783194 600.240106,620.048533 600.956559,616.322976 C602.102885,610.591349 601.959594,609.158443 599.666943,607.295664 C597.087711,605.003013 597.231002,604.429851 604.108954,590.960528 C612.133231,574.911973 616.431951,568.750475 625.172682,560.869488 C628.468367,557.860384 631.19089,554.564699 631.19089,553.561664 C631.19089,552.70192 633.770122,549.836107 636.779226,547.400165 C642.797434,542.671573 658.272826,523.184043 666.726975,510.001301 C669.592789,505.559291 672.745183,501.11728 673.748218,499.970955 C674.894543,498.96792 677.617066,494.382619 679.766426,489.940608 C688.793738,471.742694 691.659551,466.870811 692.949167,467.730555 C693.66562,468.160427 694.238783,469.306752 694.238783,470.309787 C694.238783,473.892054 706.848362,489.510736 723.040207,506.275744 C740.664959,524.473659 740.95154,526.049856 726.049311,522.754171 C718.741487,521.177973 701.833188,515.159765 693.235748,510.861045 C687.790703,508.281813 687.504122,511.290917 692.805876,515.732928 C699.827119,521.607845 717.595162,529.918704 726.335892,531.351611 C734.36017,532.784517 742.814319,535.363749 745.393551,537.369819 C746.253295,538.086272 747.39962,540.378923 747.972783,542.528283 C748.402655,544.677643 750.408724,548.833072 752.414794,551.698885 C754.277572,554.707989 757.859839,562.159104 760.29578,568.177312 C762.731722,574.338811 765.167663,580.070437 765.740826,580.786891 C767.746895,583.366123 774.338266,601.993909 775.3413,608.012117 C775.914463,611.164512 777.49066,616.896138 778.923567,620.621696 C780.499764,624.347253 781.64609,628.932554 781.64609,630.795333 C781.64609,632.658112 782.649124,634.950762 783.79545,635.953797 C784.941775,636.956832 785.94481,639.679354 785.94481,642.115296 C785.94481,644.407946 786.947844,647.130469 788.380751,648.133504 C790.24353,649.56641 790.816692,653.86513 791.676436,672.636208 C791.676436,672.636208 9.59597958,640.252517 8.87952625,640.252517 Z M598.377327,379.463504 C604.252245,377.170854 609.124127,375.164784 609.410709,375.164784 C609.553999,375.164784 609.69729,374.591622 609.69729,373.875168 C609.69729,373.158715 606.974767,373.588587 603.679082,374.734912 C595.368223,377.600726 577.45689,378.890342 576.167274,376.740982 C575.020949,375.021494 568.142997,374.591622 568.142997,376.31111 C568.142997,378.46047 578.889797,383.762224 583.331807,383.762224 C585.911039,383.762224 592.645701,381.899446 598.377327,379.463504 Z" id="Combined-Shape" fill="#C43715"></path>
            <path d="M787.377716,594.829376 C786.374682,591.820272 784.655194,588.381296 783.652159,587.09168 C782.505834,585.945355 781.216218,582.79296 780.786346,580.357019 C779.353439,573.335776 783.365578,574.482101 788.667332,582.649669 C791.533146,587.234971 793.109343,591.3904 793.109343,594.829376 C793.109343,601.993909 789.527076,601.850619 787.377716,594.829376 Z" id="Shape" fill="#C43715" fill-rule="nonzero"></path>
            <path d="M426.715109,420.158054 C427.144981,418.581856 428.577888,411.703904 429.867504,404.682662 C431.730282,394.365734 433.019898,390.783467 436.458874,386.914619 C438.894816,384.192096 441.474048,380.466539 442.333792,378.60376 C443.193536,376.740982 444.769733,375.164784 445.772768,375.164784 C447.635546,375.164784 446.20264,379.320214 438.035072,396.658384 C436.029002,400.957104 433.30648,408.408219 432.016864,412.99352 C430.727248,417.722112 428.864469,421.877542 427.861435,422.164123 C426.571819,422.593995 426.285237,421.877542 426.715109,420.158054 Z" id="Shape" fill="#C43715" fill-rule="nonzero"></path>
            <path d="M538.62512,345.073745 C536.905632,344.357291 534.183109,341.92135 532.463621,339.485409 C528.594773,334.040363 525.155797,333.610491 525.155797,338.625665 C525.155797,341.778059 524.725925,342.064641 520.570496,341.204897 C513.262672,339.915281 510.68344,338.052502 508.53408,332.607457 C507.244464,329.884934 504.665232,324.869761 502.659162,321.717366 L498.933605,315.842449 L505.238394,310.254113 C510.110277,305.955393 512.259637,304.952358 515.268741,305.525521 C517.27481,305.955393 524.296053,305.668811 530.887424,305.095649 C541.061061,303.949323 543.353712,304.235905 547.22256,306.385265 C552.237733,309.251078 562.41137,311.113857 562.41137,309.251078 C562.41137,307.53159 557.539488,304.952358 554.243802,304.952358 C552.810896,304.952358 549.801792,303.949323 547.509141,302.802998 C541.634224,299.650603 533.180074,298.647569 529.597808,300.510347 C527.448448,301.799963 525.012506,301.799963 521.143658,300.653638 C516.415066,299.507313 514.552288,299.793894 508.390789,302.802998 C504.37865,304.665777 500.509802,306.958427 500.07993,307.961462 C498.790314,309.967531 496.497664,306.958427 496.497664,302.946289 C496.497664,301.513382 495.63792,299.507313 494.491594,298.647569 C492.628816,297.071371 486.467317,276.437515 486.467317,271.565633 C486.467317,270.276017 487.18377,269.129691 487.900224,269.129691 C489.763002,269.129691 493.201978,277.010678 494.348304,283.88863 C495.494629,290.766582 497.357408,290.623291 499.363477,283.458758 C500.223221,280.306363 501.369546,277.727131 502.086,277.727131 C503.805488,277.727131 510.110277,285.321537 511.973056,289.476966 C513.835834,294.062267 521.286949,298.360987 525.155797,297.071371 C526.588704,296.641499 531.460586,292.772651 535.902597,288.330641 C545.359781,279.446619 553.527349,276.294225 557.252906,280.449654 C560.835173,284.318502 570.722229,305.238939 571.725263,311.113857 C573.444751,319.711297 575.020949,315.269286 573.874623,305.668811 C572.011845,291.483035 558.399232,266.120587 547.22256,256.376822 C544.643328,253.940881 542.350677,251.361649 542.350677,250.501905 C542.350677,249.785451 541.777514,249.068998 540.91777,249.068998 C539.198282,249.068998 539.054992,243.767243 540.77448,242.764209 C541.490933,242.334337 541.777514,240.614849 541.347642,239.181942 C540.91777,237.749035 541.347642,236.029547 542.350677,235.456385 C544.070165,234.310059 549.51521,238.465489 549.51521,241.044721 C549.658501,242.334337 560.835173,249.068998 563.127823,249.068998 C564.274149,249.068998 563.271114,236.459419 561.981498,235.313094 C559.688848,233.020443 561.551626,231.874118 574.591077,227.575398 C587.343946,223.563259 600.669978,216.685308 598.95049,214.96582 C598.663909,214.535948 597.517583,214.96582 596.514549,215.682273 C591.642666,219.40783 571.00881,218.691377 571.00881,214.679238 C571.00881,213.103041 573.731333,212.243297 584.908005,210.523809 C589.923178,209.664065 599.380362,206.36838 607.404639,202.642822 C626.605589,193.47222 629.757983,194.045382 629.757983,206.225089 C629.757983,219.837702 633.196959,221.413899 635.632901,208.947612 C637.065807,201.639788 638.212133,199.490428 643.513887,194.618545 C646.952863,191.46615 650.821711,188.886918 651.968037,188.886918 C656.553338,188.886918 655.550303,193.042348 649.532095,199.203846 C642.510853,206.51167 636.922517,216.685308 636.922517,222.416934 C636.922517,226.429073 638.212133,227.145526 640.934655,224.423003 C643.943759,221.413899 644.516922,224.423003 642.224271,230.297921 C639.501749,237.032582 640.934655,238.895361 645.376666,234.166769 C647.669317,231.730827 650.105258,230.727793 653.544234,230.871083 C656.266757,231.014374 658.416117,231.444246 658.416117,231.874118 C658.416117,232.30399 656.696629,235.026513 654.690559,237.749035 C652.68449,240.471558 649.532095,245.630022 647.669317,249.212289 C645.806538,252.794555 643.227306,256.663403 641.93769,257.666438 C639.78833,259.385926 639.215167,259.242635 636.779226,256.233531 C634.629866,253.367718 634.056703,253.224427 634.056703,255.087206 C634.056703,256.376822 634.773157,259.242635 635.776191,261.248705 C638.498714,267.266913 635.203029,280.736235 628.898239,289.333675 C623.883066,296.211627 614.569173,304.522486 613.279557,303.23287 C612.992975,302.946289 613.566138,299.220731 614.712463,294.922011 C617.721567,283.745339 619.154474,268.413238 617.148405,269.702854 C616.288661,270.132726 613.279557,277.870422 610.413743,286.754443 C600.956559,316.12903 597.660874,320.857622 576.310565,334.900107 C565.707055,341.778059 561.121754,344.07071 554.387093,345.073745 C544.500037,346.793233 542.637258,346.793233 538.62512,345.073745 Z M582.042191,320.42775 C584.621423,317.705227 588.20369,311.257147 590.35305,305.238939 C595.654805,290.480001 600.669978,280.879526 606.974767,273.714993 C615.142335,264.257809 618.724602,255.660369 619.441055,243.480662 C620.157509,232.30399 617.578277,216.971889 615.285626,218.261505 C614.569173,218.834668 613.99601,223.70655 613.99601,229.294886 C613.99601,237.892326 613.422847,240.471558 609.69729,246.776347 C603.535791,257.236566 602.676047,258.09631 592.50241,265.117553 L583.188517,271.422342 L583.045226,290.909873 C582.901935,309.107787 582.758645,310.683985 579.176378,317.132065 C577.027018,320.857622 575.30753,324.153307 575.30753,324.439889 C575.30753,326.159377 578.173343,324.439889 582.042191,320.42775 Z M552.381024,323.150273 C552.381024,322.147238 550.518245,319.854587 548.225594,318.27839 C542.637258,313.97967 518.277845,311.973601 515.268741,315.412577 C512.259637,319.138134 520.427205,323.293563 529.167936,322.57711 C532.893493,322.147238 537.478794,322.57711 539.484864,323.436854 C544.786618,325.586214 552.381024,325.442923 552.381024,323.150273 Z" id="Combined-Shape" fill="#C43715"></path>
            <path d="M788.810623,564.308464 C788.810623,563.592011 787.664298,561.729232 786.374682,560.296325 C783.222287,557.00064 771.615743,540.378923 771.615743,539.232597 C771.615743,538.659435 768.89322,534.933877 765.597535,530.778448 C762.158559,526.479728 758.289711,521.034683 756.856804,518.455451 C755.567188,516.019509 753.131247,513.583568 751.69834,513.153696 C748.116074,512.293952 744.963679,505.559291 743.817354,496.245397 C743.244191,492.376549 742.097866,487.074795 741.238122,484.782144 C739.805215,480.626715 740.235087,472.459147 744.390516,432.910923 C745.680132,419.728182 747.113039,412.563648 753.131247,388.777398 C755.137316,380.60983 765.167663,361.40888 770.182836,355.533963 C772.618778,352.954731 774.481556,350.375499 774.481556,349.802337 C774.481556,348.36943 763.448175,358.543067 761.155524,362.268624 C759.865908,364.274694 757.143386,367.71367 755.137316,370.149611 C749.692271,376.31111 743.674063,387.631072 740.235087,398.091291 C737.082692,407.978347 732.927263,430.04511 732.927263,437.066352 C732.927263,439.645584 732.21081,441.078491 731.207775,440.79191 C728.915124,439.932166 725.619439,430.331691 724.616404,421.017798 C724.043242,416.719078 723.040207,413.280102 722.180463,413.566683 C721.46401,413.853264 720.890847,415.14288 721.034138,416.432496 C721.177428,417.722112 721.6073,423.74032 722.037172,429.615238 C724.043242,455.694139 726.335892,471.456112 730.20474,485.355307 C732.640682,493.522875 734.216879,500.400827 733.930298,500.687408 C733.643716,501.11728 730.491322,499.970955 727.052346,498.538048 C720.747556,495.672235 711.863535,487.361376 699.540538,472.602438 L692.949167,464.57816 L696.388143,455.264267 C698.107631,450.249094 700.973444,443.801014 702.692932,440.9352 C706.131908,435.060283 712.86657,414.99959 711.863535,413.566683 C711.576954,412.85023 709.427594,412.420358 707.134943,412.420358 C701.546607,412.420358 700.256991,409.697835 704.26913,406.40215 L707.564815,403.822918 L705.128874,392.646246 C702.692932,380.75312 702.26306,360.405846 704.41242,352.094987 C705.128874,349.085883 705.702036,338.625665 705.845327,328.595318 L705.845327,310.397403 L700.686863,302.659707 C695.385108,294.492139 691.229679,292.056198 694.955236,299.220731 C697.247887,303.662742 697.82105,308.391334 695.958271,307.53159 C693.808911,306.671846 682.77553,293.918977 682.77553,292.199489 C682.77553,291.196454 684.638309,290.766582 688.220575,291.196454 C691.086388,291.626326 699.397247,292.342779 706.56178,292.772651 C719.887812,293.632395 729.201706,296.211627 745.10697,303.376161 C749.835562,305.525521 758.576292,308.534625 764.45121,309.824241 C770.326127,311.113857 778.780276,313.406507 783.078996,314.839414 L790.959983,317.418646 L791.103274,331.17455 C791.246564,340.058571 791.963018,345.790198 793.109343,347.223105 C795.115412,349.659046 794.112378,366.137472 791.819727,368.430123 C791.103274,369.146576 791.246564,371.869099 792.106308,374.878203 C793.539215,380.179958 793.682506,385.481712 793.109343,416.002624 C792.966052,424.743355 792.822762,443.371142 792.822762,457.556918 C793.109343,533.214389 792.39289,565.741371 790.673402,565.741371 C789.670367,565.741371 788.810623,565.168208 788.810623,564.308464 Z" id="Shape" fill="#C43715" fill-rule="nonzero"></path>
            <path d="M449.211744,208.66103 C449.211744,205.508636 458.525637,193.328929 462.107904,191.896022 C464.113973,191.036278 471.851669,189.030209 479.302784,187.454012 C505.954848,181.579094 551.66457,182.295548 584.334842,189.030209 C594.938351,191.179569 601.673013,191.896022 608.694255,191.32286 C621.590415,190.176534 620.873962,192.325894 605.971733,198.917265 L594.65177,203.789148 L536.61905,203.932438 C481.452144,203.932438 478.013168,204.21902 465.976752,207.228124 C451.504394,210.81039 449.211744,211.096972 449.211744,208.66103 Z" id="Shape" fill="#C43715" fill-rule="nonzero"></path>
            <path d="M452.79401,184.158326 C452.220848,183.012001 453.367173,177.996828 454.94337,172.981654 C458.239056,163.094598 471.135216,145.899718 485.607573,131.570652 C490.049584,127.271932 493.63185,122.68663 493.63185,121.253724 C493.63185,119.820817 494.205013,118.674492 494.921466,118.674492 C495.63792,118.674492 497.214117,116.955004 498.217152,114.805644 C501.082965,109.074017 504.23536,103.772262 505.238394,102.912518 C505.668266,102.482646 507.387754,99.9034145 508.963952,97.1808918 C513.549253,89.5864865 519.137589,85.1444758 529.454517,80.8457559 C539.198282,76.6903265 555.246837,74.1110945 555.246837,76.6903265 C555.246837,77.5500705 557.252906,78.9829772 559.545557,79.9860119 C562.124789,81.1323372 563.844277,82.8518252 563.844277,84.4280225 C563.844277,86.0042198 564.56073,87.1505452 565.277183,87.1505452 C566.136927,87.1505452 566.71009,90.7328118 566.71009,95.0315318 C566.71009,101.04974 567.139962,102.912518 568.85945,102.912518 C570.578938,102.912518 571.00881,101.04974 571.00881,95.0315318 C571.00881,87.5804172 571.152101,87.1505452 574.591077,87.1505452 C577.743471,87.1505452 578.173343,86.5773825 578.173343,82.2786625 L578.173343,77.4067799 L591.785957,76.4037452 C599.380362,75.8305825 609.124127,75.8305825 613.709429,76.2604545 C618.151439,76.8336172 626.032426,77.5500705 631.19089,78.1232332 C636.492645,78.5531052 642.080981,79.9860119 644.08705,81.4189185 C646.093119,82.7085345 649.388805,84.2847319 651.681455,84.8578945 C655.836885,85.8609292 656.696629,88.2968705 653.830815,91.3059745 C652.254618,92.7388812 652.68449,92.8821718 655.693594,92.1657185 C660.565477,91.0193932 663.43129,93.8852065 668.589754,105.49175 C676.470741,122.973212 673.318346,142.317452 660.852058,153.350833 C651.824746,161.37511 649.532095,159.942204 656.410047,150.771601 C658.559407,148.049078 659.849023,145.469846 659.562442,145.039974 C658.129535,143.750358 641.364527,160.372076 633.913413,170.259132 C627.322042,179.143153 626.319007,180.002897 620.157509,180.862641 C608.121093,182.438838 582.901935,181.722385 570.865519,179.429734 C561.981498,177.710246 550.518245,177.137084 526.588704,177.137084 C494.061722,177.137084 486.467317,177.996828 457.09273,185.447942 C454.656789,186.021105 453.223882,185.591233 452.79401,184.158326 Z" id="Shape" fill="#C43715" fill-rule="nonzero"></path>
            <path d="M366.819611,90.1596492 C366.389739,89.2999052 362.807472,88.5834518 359.081915,88.5834518 C353.493579,88.5834518 351.6308,87.8669985 348.478405,84.5713132 C343.893104,79.6994305 343.749813,78.4098145 347.618661,74.8275479 C349.194859,73.3946412 351.200928,70.9586999 352.060672,69.5257932 C353.206997,67.2331426 353.063707,67.0898519 350.484475,68.3794679 C348.908277,69.2392119 347.188789,70.6721186 346.758917,71.3885719 C346.329045,72.2483159 344.752848,72.8214785 343.463232,72.8214785 C341.743744,72.8214785 339.737675,69.6690839 337.158443,63.0777132 C332.28656,51.0412973 332.28656,49.7516813 336.871861,42.7304386 C340.024256,38.0018466 341.743744,36.8555213 348.048533,35.5659053 C360.944693,32.8433826 361.517856,33.989708 359.081915,56.1997613 C358.07888,65.3703639 358.365461,66.8032706 361.661147,72.6781879 C363.667216,76.2604545 366.819611,80.4158839 368.682389,81.9920812 C370.688459,83.5682785 371.834784,85.8609292 371.548203,87.5804172 C371.118331,90.8761025 368.252517,92.4522998 366.819611,90.1596492 Z" id="Shape" fill="#C43715" fill-rule="nonzero"></path>
            <path d="M387.310176,86.0042198 C385.877269,85.7176385 384.730944,84.7146038 384.730944,83.8548599 C384.730944,82.8518252 382.295003,80.9890465 379.285899,79.6994305 C361.804437,71.5318625 359.511787,56.9162146 375.27376,52.6174946 C380.575515,51.1845879 382.295003,48.4620653 377.852992,48.4620653 C376.563376,48.4620653 373.1244,49.0352279 370.545168,49.8949719 C367.822645,50.6114253 365.386704,51.0412973 365.100123,50.7547159 C364.383669,50.0382626 368.539099,26.8251747 370.258587,22.383164 C373.697563,13.2125614 385.447397,13.0692707 394.618,22.2398733 C397.913685,25.5355587 398.056976,25.82214 395.907616,30.2641507 C394.761291,32.8433826 392.611931,39.4347533 391.035733,45.0230893 L388.456501,55.3400173 L392.46864,64.6539106 C394.618,69.8123746 397.627104,75.1141292 399.203301,76.5470359 C406.224544,82.8518252 399.203301,88.4401612 387.310176,86.0042198 Z" id="Shape" fill="#C43715" fill-rule="nonzero"></path>
            <path d="M403.645312,72.3916065 C401.925824,70.5288279 400.492917,67.9495959 400.492917,66.6599799 C400.492917,65.3703639 399.346592,63.7941666 398.056976,62.9344226 C396.337488,62.0746786 395.477744,59.7820279 395.477744,55.7698893 C395.477744,49.1785186 398.056976,46.5992866 406.654416,44.1633453 C413.389077,42.157276 413.532368,40.437788 406.797707,40.437788 C398.343557,40.437788 397.627104,34.9927426 404.075184,20.233804 C407.227579,13.2125614 407.657451,12.7826894 413.96224,11.9229454 C424.995621,10.2034574 427.861435,15.2186307 421.270064,24.102652 C413.389077,34.849452 412.529333,50.6114253 419.120704,62.3612599 C421.556645,66.5166892 423.419424,70.2422466 423.419424,70.6721186 C423.419424,72.1050252 413.675659,75.6872919 410.093392,75.6872919 C408.230613,75.6872919 405.3648,74.2543852 403.645312,72.3916065 Z" id="Shape" fill="#C43715" fill-rule="nonzero"></path>
            <path d="M481.738725,67.5197239 C481.165562,67.0898519 480.73569,65.3703639 480.73569,63.9374572 C480.73569,62.5045506 480.162528,61.3582252 479.589365,61.3582252 C477.153424,61.3582252 475.433936,52.4742039 476.150389,42.8737293 C477.010133,29.261116 479.732656,29.261116 482.88505,43.1603106 C486.753898,61.0716439 486.324026,72.1050252 481.738725,67.5197239 Z" id="Shape" fill="#C43715" fill-rule="nonzero"></path>
            <path d="M465.833461,42.8737293 C465.403589,42.157276 461.534741,39.578044 457.379312,37.2853933 C449.355034,32.8433826 442.04721,25.392268 442.04721,21.8100013 C442.04721,20.8069667 444.626442,18.084444 447.778837,16.0783747 C452.937301,12.6393987 454.226917,12.3528174 462.681066,13.2125614 C473.284576,14.3588867 477.010133,17.3679907 478.58633,25.82214 C479.589365,30.8373133 479.302784,31.1238947 475.433936,31.5537667 C472.424832,31.840348 471.565088,32.700092 471.851669,34.7061613 C472.997994,41.1542413 468.555984,47.3157399 465.833461,42.8737293 Z" id="Shape" fill="#C43715" fill-rule="nonzero"></path>
            <path d="M425.568784,34.9927426 C422.702971,30.550732 424.135877,26.9684653 429.00776,26.9684653 C431.15712,26.9684653 433.593061,26.252012 434.596096,25.2489773 C436.602165,23.242908 438.751525,24.962396 442.477082,31.1238947 L444.913024,35.4226146 L439.611269,36.8555213 C431.30041,39.148172 428.004725,38.7183 425.568784,34.9927426 Z" id="Shape" fill="#C43715" fill-rule="nonzero"></path>
            <path d="M511.399893,281.309398 C506.671301,276.724097 506.241429,275.721062 507.101173,270.849179 C507.674336,267.983366 508.67737,259.672507 509.393824,252.364683 C510.82673,235.886257 511.543184,233.880187 515.555322,232.733862 C520.283914,231.444246 528.308192,231.730827 527.448448,233.020443 C527.018576,233.736897 527.735029,237.462454 528.881354,241.331302 C530.17097,245.486731 530.887424,251.218358 530.457552,255.517078 C530.02768,259.529217 530.314261,263.827937 531.030714,265.117553 C532.893493,268.556529 530.314261,278.730166 526.445413,282.885595 C522.003402,287.614187 517.561392,287.184315 511.399893,281.309398 Z" id="Shape" fill="#C43715" fill-rule="nonzero"></path>
            <path d="M537.192213,269.846145 C536.045888,261.821867 537.048922,259.099345 541.204352,259.099345 C547.795722,259.242635 552.094442,265.834006 550.374954,272.855249 C549.658501,275.721062 548.655466,276.294225 543.783584,276.294225 C538.338538,276.294225 538.195248,276.294225 537.192213,269.846145 Z" id="Shape" fill="#C43715" fill-rule="nonzero"></path>
            <path d="M488.186805,261.248705 C482.025306,256.090241 478.58633,246.489766 480.305818,239.468523 L481.595434,234.023478 L492.628816,233.593606 C503.089034,233.163734 503.662197,233.307025 503.662197,236.316129 C503.662197,237.892326 502.372581,241.188011 500.653093,243.480662 C497.500698,248.065963 497.93057,252.794555 501.512837,251.361649 C504.521941,250.215323 504.37865,256.520113 501.226256,260.24567 C497.070826,265.117553 493.058688,265.404134 488.186805,261.248705 Z" id="Shape" fill="#C43715" fill-rule="nonzero"></path>
            <path d="M518.564426,225.282747 C518.994298,223.993131 519.42417,221.127318 519.42417,218.834668 C519.42417,215.825564 520.140624,214.679238 522.003402,214.679238 C523.866181,214.679238 524.439344,215.968854 524.725925,221.127318 C524.869216,227.145526 524.725925,227.575398 521.286949,227.575398 C518.564426,227.575398 517.847973,227.002235 518.564426,225.282747 Z" id="Shape" fill="#C43715" fill-rule="nonzero"></path>
            <path d="M502.659162,221.413899 C492.198944,218.977958 495.78121,214.679238 508.390789,214.679238 C512.546218,214.679238 513.692544,215.252401 513.692544,217.25847 C513.692544,219.837702 510.970021,223.419969 509.537114,223.133387 C508.963952,222.990097 505.954848,222.273643 502.659162,221.413899 Z" id="Shape" fill="#C43715" fill-rule="nonzero"></path>
            <path d="M532.32033,219.694412 C531.460586,218.548086 531.030714,216.971889 531.603877,216.112145 C532.750202,214.249366 558.11265,214.106076 558.11265,216.112145 C558.11265,216.971889 556.536453,217.545052 554.673674,217.545052 C552.810896,217.545052 548.512176,218.548086 545.21649,219.694412 C537.622085,222.416934 534.612981,222.416934 532.32033,219.694412 Z" id="Shape" fill="#C43715" fill-rule="nonzero"></path>
            <path d="M373.1244,159.08246 C358.652043,151.344764 337.158443,139.021766 324.692155,131.28407 C320.536725,128.704838 316.524587,124.979281 315.664843,122.973212 C314.805099,120.823852 314.948389,113.9459 315.951424,104.202134 C317.24104,90.5895212 318.100784,87.7237078 323.68912,76.9769079 C327.128096,70.3855372 330.853653,64.9404919 331.856688,64.9404919 C334.722501,64.9404919 335.152373,70.9586999 332.573141,74.9708385 C329.277456,79.8427212 329.707328,81.4189185 334.292629,81.4189185 C337.158443,81.5622092 339.307803,83.1384065 343.176651,88.2968705 C345.899173,91.8791372 348.478405,95.4614038 348.621696,96.1778572 C348.908277,96.7510198 346.185755,99.9034145 342.603488,103.055809 C337.445024,107.64111 336.012117,109.79047 336.012117,113.229446 L336.012117,117.671457 L339.307803,112.799574 C342.890069,107.354529 348.621696,104.918588 346.902208,109.503889 C344.466267,115.665388 344.322976,125.265862 346.472336,126.98535 C348.191824,128.418257 348.621696,127.701804 349.48144,121.397014 C351.344219,107.927692 366.819611,95.7479852 382.295003,95.7479852 C384.157781,95.7479852 388.16992,94.7449505 391.035733,93.5986252 C397.770395,90.7328118 423.419424,88.8700332 423.419424,91.1626838 C423.419424,92.0224278 421.556645,93.7419158 419.407285,94.8882412 C414.392112,97.4674731 408.230613,105.34846 406.797707,110.936796 C405.794672,114.662353 406.511125,114.375772 412.815915,107.354529 C421.270064,98.0406358 428.577888,94.4583692 438.894816,94.3150785 C447.062384,94.3150785 447.492256,93.7419158 444.05328,88.8700332 C441.90392,85.7176385 441.90392,85.2877665 444.913024,82.1353719 C448.49529,78.4098145 448.352,78.2665239 439.89785,76.4037452 C435.312549,75.4007105 424.70904,64.9404919 420.840192,57.7759586 C418.547541,53.3339479 417.544507,39.4347533 419.550576,37.5719746 C420.123739,36.998812 422.273099,38.1451373 424.279168,40.2944973 C428.577888,45.0230893 433.593061,45.3096706 442.906954,41.297532 C449.068453,38.5750093 449.928197,38.5750093 453.080592,40.5810786 C456.806149,43.01702 456.376277,45.5962519 452.077557,45.5962519 C448.781872,45.5962519 440.614304,52.3309133 440.614304,55.0534359 C440.614304,58.0625399 443.050245,57.4893773 448.352,53.4772386 C450.787941,51.6144599 455.516533,49.6083906 458.525637,49.1785186 C463.684101,48.3187746 464.687136,48.6053559 468.126112,52.4742039 C470.275472,54.9101453 474.001029,62.7911319 476.43697,70.2422466 C478.872912,77.5500705 481.452144,84.1414412 482.311888,85.0011852 C485.03441,87.7237078 483.744794,94.0284972 479.732656,96.8943105 C474.574192,100.619868 476.29368,102.196065 482.74176,99.9034145 C485.607573,98.9003798 488.186805,98.4705078 488.759968,98.9003798 C490.049584,100.189996 478.156458,118.101329 469.8456,127.271932 C465.976752,131.570652 460.531706,137.875441 457.952474,141.314417 C451.647685,149.338694 448.49529,150.914892 430.583957,153.780705 C422.273099,155.213612 410.093392,158.222716 403.358731,160.515366 C396.624069,162.808017 390.175989,165.100668 388.886373,165.53054 C387.740048,165.817121 380.575515,162.951308 373.1244,159.08246 Z" id="Shape" fill="#C43715" fill-rule="nonzero"></path>
            <path d="M414.535403,81.8487905 C409.806811,80.7024652 411.956171,77.8366519 419.550576,75.4007105 C424.995621,73.6812225 427.288272,73.5379319 428.004725,74.6842572 C429.867504,77.5500705 429.294341,78.4098145 424.852331,80.7024652 C420.696901,82.8518252 418.977413,82.9951159 414.535403,81.8487905 Z" id="Shape" fill="#C43715" fill-rule="nonzero"></path>
            <text id="GYM-CMS.xyZ" font-family="KremlinBolshevik-Bold, Kremlin Bolshevik" font-size="78.809646" font-weight="bold">
                <tspan x="45.5618266" y="534.827604" fill="#F7F7F7">GYM</tspan>
                <tspan x="45.5618266" y="622.827604" fill="#F7F7F7">CMS</tspan>
                <tspan x="261.172396" y="622.827604" fill="#FFD700">.</tspan>
                <tspan x="286.108261" y="622.827604" fill="#FFD700">xyZ</tspan>
            </text>
        </g>
    </g>
</svg>