<?xml version="1.0" encoding="UTF-8"?>
<svg width="789px" height="662px" viewBox="0 0 789 662" version="1.1" xmlns="http://www.w3.org/2000/svg" xmlns:xlink="http://www.w3.org/1999/xlink">
    <!-- Generator: Sketch 48.2 (47327) - http://www.bohemiancoding.com/sketch -->
    <title>GYMCMS-art</title>
    <desc>Created with Sketch.</desc>
    <defs></defs>
    <g id="Page-1" stroke="none" stroke-width="1" fill="none" fill-rule="evenodd">
        <g id="GYMCMS-art">
            <path d="M2.87952625,629.252517 C2.30636359,629.252517 1.87649159,617.932554 2.01978225,604.17665 C2.30636359,582.683051 2.59294492,579.100784 4.5990142,578.670912 C2.16307292,577.667877 1.87649159,575.661808 1.58991025,560.902869 C1.44661959,551.588976 1.16003826,540.842176 1.01674759,536.830037 C0.73016626,526.226528 0.15700359,461.315856 0.30029426,458.163462 C0.44358492,456.157392 1.30332892,455.72752 4.7423049,456.157392 C7.0349556,456.443974 9.1843156,456.157392 9.4708969,455.297648 C9.9007689,454.151323 11.0470942,454.294614 13.1964542,455.58423 C17.3518835,458.020171 17.2085929,456.443974 11.7635476,441.111872 C9.1843156,434.23392 7.6081182,428.215712 8.1812809,427.64255 C9.3276062,426.496224 8.4678622,425.49319 17.6384649,440.53871 C26.8090675,455.72752 28.3852649,457.017136 27.0956489,448.562987 C25.6627422,439.105803 20.5042782,426.209643 16.9220115,422.484086 C15.0592329,420.764598 12.3367102,415.462843 10.6172222,411.020832 C8.0379902,403.569718 8.0379902,402.566683 10.0440596,401.85023 C12.9098729,400.703904 15.0592329,403.569718 21.9371849,417.898784 C29.9614622,434.377211 36.5528328,446.127046 37.2692862,445.267302 C38.2723208,444.407558 32.1108222,415.892715 30.1047528,412.167158 C29.3882995,410.59096 26.8090675,407.008694 24.6597075,404.14288 C20.6475689,398.984416 10.4739316,376.774363 10.4739316,373.192096 C10.4739316,370.756155 14.1994889,370.756155 15.2025236,373.192096 C15.6323956,374.05184 19.2146622,379.353595 23.2268009,384.79864 C27.2389395,390.243686 30.5346248,396.118603 30.5346248,397.838091 C30.5346248,403.713008 35.2632168,413.170192 47.5862141,432.227851 C49.5922835,435.380246 51.7416435,438.246059 52.1715155,438.675931 C52.6013875,439.105803 54.4641661,441.971616 56.1836541,445.124011 C59.6226301,451.4288 59.4793394,449.995894 54.7507475,434.377211 C46.1533075,405.002624 38.9887742,389.527232 29.6748808,379.926758 C24.8029982,374.768294 22.2237662,370.182992 17.6384649,357.859995 C14.4860702,349.262555 11.9068382,341.66815 11.9068382,340.951696 C11.9068382,340.235243 10.6172222,336.939558 9.0410249,333.787163 C5.8886302,327.052502 5.6020489,325.476305 7.6081182,325.476305 C8.3245716,325.476305 11.3336756,329.201862 14.1994889,333.787163 C17.0653022,338.229174 23.3700915,347.113195 28.0986835,353.274694 C33.8303102,360.725808 37.1259955,366.744016 37.9857395,370.899446 C38.8454835,374.338422 41.8545875,381.216374 44.8636915,386.088256 C52.1715155,398.124672 63.6347688,414.603099 64.3512221,413.886646 C65.6408381,412.59703 46.4398888,335.936523 42.7143315,327.625665 C40.8515528,323.756817 37.6991582,318.741643 35.6930888,316.592283 C32.6839848,313.439889 30.5346248,307.27839 24.8029982,285.068337 C20.9341502,269.879526 16.7787209,254.547425 15.6323956,251.108449 C13.0531636,243.943915 12.7665822,240.934811 14.7726516,240.934811 C15.4891049,240.934811 19.5012435,247.812763 23.6566729,256.266913 C27.6688115,264.864353 34.5467635,278.190385 38.8454835,286.071371 C44.0039475,295.528555 47.2996328,303.696123 48.5892488,310.430785 C50.8818995,321.320875 57.9031421,337.36943 65.7841288,349.835718 C68.5066514,354.134438 74.8114407,364.451366 79.8266141,372.762224 C94.298971,397.121638 102.753121,409.444635 103.326283,407.151984 C104.329318,401.85023 92.292902,337.36943 84.2686247,304.699158 C76.9608007,275.181281 71.8023367,261.998539 64.2079314,252.827937 C59.0494674,246.523147 56.9001074,241.651265 50.8818995,223.310059 C47.0130515,211.416934 41.9978782,196.801286 39.8485182,191.06966 C33.4004382,173.731489 37.8424488,176.02414 50.8818995,196.944577 C54.3208755,202.389622 60.0525021,210.413899 63.6347688,214.85591 C73.0919527,226.605745 77.3906727,234.916603 78.3937074,243.800625 C79.5400327,252.971227 85.5582407,264.29119 99.170854,283.922011 C110.347526,299.970566 120.664454,316.305702 125.966209,326.192758 C127.972278,330.204897 131.841126,336.652977 134.420358,340.521824 C136.99959,344.533963 142.158054,352.55824 145.883611,358.433158 C164.511398,387.521163 187.724486,420.191435 191.450043,422.484086 C192.309787,423.057248 192.596368,422.054214 192.166496,419.904854 C191.736624,418.042075 190.017136,409.731216 188.297648,401.563648 C186.57816,393.39608 184.858672,386.088256 184.4288,385.371803 C183.569056,383.938896 178.124011,360.152646 173.252128,336.223105 C159.926097,271.885595 149.609169,241.364683 136.856299,228.898395 C130.838091,223.166769 130.838091,223.166769 124.533302,196.514705 C116.509025,162.984689 115.219409,156.82319 114.216374,149.658657 C113.643211,144.356902 113.786502,142.064252 114.932827,142.064252 C115.792571,142.064252 122.097361,153.527505 129.118603,167.56999 C135.996555,181.469185 144.450705,197.947612 147.74639,203.96582 C152.04511,211.846806 154.19447,217.865014 155.340795,225.459419 C156.773702,234.486731 164.654689,253.974262 167.950374,256.696785 C168.380246,257.126657 170.386315,260.279051 172.249094,263.861318 C174.255163,267.443585 177.83743,272.88863 180.559952,276.184315 C186.004998,282.918977 186.291579,285.498209 182.566022,293.379195 C181.133115,296.388299 179.413627,303.696123 178.840464,309.42775 C177.98072,318.884934 178.124011,320.317841 180.989824,324.47327 C184.715382,329.775025 190.87688,333.787163 207.498598,341.381568 C213.660096,344.247382 220.108176,347.829648 221.541083,349.405846 C223.11728,350.838752 230.854976,364.594656 238.879254,379.926758 C246.903531,395.258859 256.790587,414.029936 260.802726,421.481051 C273.842176,445.840464 356.3776,539.839141 358.813541,543.564699 C361.392773,547.433547 363.685424,550.156069 363.972005,549.869488 C364.831749,549.153035 361.392773,541.70192 343.48144,505.1628 C330.58528,478.654027 328.292629,474.641888 324.567072,473.352272 C321.701259,472.349237 319.981771,470.629749 319.408608,467.763936 C318.262283,463.608507 316.829376,460.312822 309.234971,443.691104 C299.204624,422.197504 298.918043,421.481051 301.210693,421.481051 C302.357019,421.481051 309.09168,430.221782 318.835445,444.120976 C320.698224,446.700208 324.567072,452.001963 327.576176,455.870811 C330.728571,460.02624 333.451093,465.327995 334.167547,469.196843 C335.027291,474.355307 338.179685,479.227189 349.642939,493.269675 C357.523925,503.01344 366.694528,514.763275 370.133504,519.348576 C373.429189,523.790587 376.438293,527.516144 376.868165,527.516144 C377.154747,527.516144 374.432224,521.927808 370.706667,515.049856 C365.118331,504.876219 355.804437,486.821595 353.225205,481.376549 C354.801403,480.230224 357.237344,482.952747 359.529995,486.391723 C361.822645,489.687408 363.972005,492.696512 364.545168,493.126384 C365.548203,493.986128 380.593723,514.619984 382.313211,517.342507 C382.886373,518.488832 383.746117,525.939947 384.032699,533.820933 C384.462571,546.573803 385.322315,554.311499 388.331419,567.637531 C388.761291,569.6436 389.334453,576.664843 389.334453,583.399504 C389.477744,592.426816 390.337488,596.868827 392.343557,600.594384 C396.069115,607.472336 396.785568,603.460197 393.919755,589.990875 C392.343557,582.396469 392.200267,577.954459 393.060011,574.658773 C395.925824,564.915008 394.063045,532.674608 389.621035,513.330368 C388.331419,508.171904 386.755221,495.848907 385.752187,485.961851 C383.889408,464.898123 382.456501,456.873846 378.444363,445.124011 C373.57248,431.081526 368.270725,425.349899 349.213067,413.600064 C346.633835,411.880576 343.338149,409.587926 341.905243,408.29831 C340.472336,407.008694 336.460197,405.002624 332.877931,403.856299 C320.268352,399.557579 282.009744,382.792571 276.994571,379.210304 C274.128758,377.204235 271.119654,375.628038 270.25991,375.628038 C269.400166,375.628038 268.397131,375.054875 268.11055,374.338422 C267.967259,373.765259 262.522214,370.039702 256.217424,366.314144 C249.912635,362.445296 239.595707,355.997216 233.147627,351.841787 C226.842838,347.829648 216.812491,341.954731 211.080864,338.802337 C205.205947,335.793233 199.044448,332.067675 197.32496,330.491478 C195.605472,328.915281 192.596368,326.049467 190.447008,324.186689 C186.148288,320.461131 185.861707,316.019121 188.011067,298.251078 C188.870811,292.376161 190.160427,281.342779 191.020171,273.891665 C194.315856,246.953019 201.193808,217.435142 204.919366,214.282747 C205.9224,213.423003 206.782144,211.560225 206.782144,210.127318 C206.782144,208.837702 208.931504,203.106076 211.654027,197.374449 C214.233259,191.786113 217.815526,183.331964 219.535014,178.603372 C221.397792,173.87478 223.833734,168.143153 225.12335,165.707212 C228.992198,158.256097 229.42207,157.396353 236.156731,142.780705 C239.738998,134.899718 243.321264,127.448604 244.037718,126.302278 C244.897462,125.155953 246.187078,122.576721 247.190112,120.570652 C248.049856,118.564582 250.91567,112.689665 253.494902,107.531201 C256.217424,102.229446 258.366784,97.070982 258.366784,96.067948 C258.366784,94.921622 258.939947,93.202134 259.6564,92.055809 C260.659435,90.336321 262.378923,90.909484 268.683712,95.064913 C272.839142,97.787436 280.720128,101.942865 286.165174,104.235516 C291.610219,106.528166 299.347915,111.256758 303.360053,114.839025 C312.244075,122.720012 328.149339,133.610102 343.624731,142.207542 C349.92952,145.789809 357.667216,150.088529 360.819611,151.808017 C367.840853,155.820156 377.154747,160.262166 380.593723,161.265201 C384.462571,162.411526 383.602827,165.42063 376.581584,175.594268 C372.999317,180.896022 370.133504,185.624614 370.133504,186.197777 C370.133504,186.77094 367.410981,190.783078 364.115296,195.081798 C355.661147,206.25847 345.057637,229.328267 341.045499,245.233531 C336.460197,263.431446 335.027291,265.867387 321.844549,278.190385 C310.094715,289.223766 304.076507,293.379195 291.466928,299.827275 L283.872523,303.696123 L288.171243,304.555867 C299.491205,307.135099 324.423781,290.513382 336.030325,272.745339 C339.18272,267.730166 343.051568,263.144865 344.484475,262.428411 C348.066741,260.422342 353.368496,262.714993 357.667216,268.446619 L361.392773,273.175211 L377.154747,273.605083 C391.770395,274.034955 393.346592,273.891665 397.645312,270.882561 C400.224544,269.019782 402.660485,267.013713 402.803776,266.44055 C403.090357,265.867387 404.236683,265.294225 405.383008,265.294225 C406.529333,265.294225 407.389077,264.721062 407.389077,264.004609 C407.389077,263.288155 411.974379,261.855249 417.706005,260.995505 C426.590026,259.419307 429.025968,259.562598 435.330757,261.568667 C439.486186,262.858283 444.071488,263.861318 445.790976,263.861318 C450.089696,263.861318 449.803114,266.44055 445.217813,268.160038 C441.492256,269.592945 430.029002,278.047094 429.169258,280.053163 C424.297376,281.056198 417.132843,287.790859 412.834123,294.668811 C405.956171,305.415611 399.937963,312.580145 398.505056,311.720401 C397.788603,311.290529 397.645312,307.135099 398.218475,302.549798 C399.3648,292.662742 397.931893,282.202523 395.782533,285.498209 C395.06608,286.644534 394.492917,289.796929 394.492917,292.519451 C394.492917,295.241974 393.203301,302.549798 391.627104,308.854587 C390.050907,315.016086 388.761291,321.607457 388.761291,323.326945 C388.761291,331.781094 373.715771,372.762224 370.706667,372.762224 C366.551237,372.762224 360.103157,349.835718 360.103157,335.363361 C360.103157,327.339083 363.685424,302.406507 365.834784,295.958427 C366.694528,293.235905 367.267691,289.653638 366.981109,287.93415 C366.551237,285.354918 365.118331,287.360987 360.962901,296.101718 C352.795333,312.866726 351.362427,319.458097 350.502683,343.81751 C350.072811,355.710635 349.213067,365.597691 348.639904,365.597691 C345.344219,365.597691 342.191824,342.671184 342.191824,319.028225 C342.191824,302.406507 342.621696,299.110822 346.203963,289.080475 C348.353323,282.918977 350.072811,276.900769 350.072811,275.897734 C350.072811,268.733201 342.478405,281.629361 337.749813,296.674881 C331.874896,315.589249 333.594384,347.256486 341.761952,367.60376 C345.6308,377.347526 350.072811,393.25279 349.069776,394.255824 C348.639904,394.685696 346.633835,392.966208 344.627765,390.530267 C342.478405,388.094326 337.319941,384.225478 333.021221,381.932827 C310.811168,370.039702 290.177312,340.808406 277.711024,303.409542 L271.549526,284.781755 L270.546491,290.943254 C269.256875,298.537659 270.833072,314.586214 273.555595,321.034294 C274.70192,323.613526 275.561664,326.765921 275.561664,327.768955 C275.561664,329.918315 280.863419,341.524859 285.878592,350.552171 C296.482101,369.323248 307.228901,378.637142 328.006048,387.091291 C335.743744,390.243686 343.768021,393.969243 345.774091,395.40215 C347.78016,396.835056 350.502683,398.411254 351.935589,398.984416 C353.225205,399.414288 354.371531,401.133776 354.371531,402.566683 C354.371531,403.99959 355.374565,406.435531 356.664181,408.011728 C358.670251,410.59096 358.813541,410.304379 358.240379,404.716043 C357.810507,401.277067 357.953797,398.554544 358.670251,398.554544 C359.959867,398.554544 367.267691,408.871472 367.267691,410.877542 C367.267691,411.737286 369.130469,415.319552 371.566411,419.04511 C376.868165,427.355968 380.163851,427.929131 380.163851,420.334726 C380.163851,417.325622 381.740048,405.719078 383.746117,394.542406 C385.752187,383.365734 387.328384,372.332352 387.328384,370.182992 C387.328384,368.033632 388.904581,361.298971 390.76736,355.137472 C393.776464,345.680288 393.919755,343.9608 392.056976,342.957766 C390.480779,341.954731 391.627104,340.091952 397.645312,333.787163 C402.517195,328.77199 406.099461,323.470235 407.675659,318.884934 C411.401216,308.281425 427.44977,291.659707 445.934266,279.33671 C454.245125,273.748374 462.412693,268.016747 464.132181,266.583841 C465.708378,265.150934 467.714448,263.861318 468.574192,263.861318 C469.290645,263.861318 471.153424,262.571702 472.58633,260.995505 C476.168597,257.126657 477.601504,257.413238 477.601504,262.14183 C477.601504,264.434481 478.317957,269.736235 479.177701,274.178246 C480.610608,281.199489 480.467317,282.632395 477.601504,288.364022 C475.882016,291.802998 467.857738,301.116891 459.833461,309.141169 C443.498325,325.333014 421.718144,349.119264 421.718144,350.695462 C421.718144,351.268624 420.715109,352.844822 419.425493,354.277728 C417.849296,356.140507 416.989552,360.009355 416.846261,367.317179 C416.55968,373.048806 415.413355,384.941931 413.980448,393.539371 C409.395147,422.484086 407.389077,439.105803 404.523264,471.632784 C400.511125,519.061995 400.081253,524.936912 401.51416,529.665504 C402.517195,533.677643 402.803776,533.247771 405.096427,523.933877 C406.529333,518.488832 409.251856,505.1628 411.114635,494.559291 C412.977413,483.955781 415.843227,471.059621 417.419424,465.901158 C418.995621,460.742694 420.715109,454.294614 421.144981,451.572091 C421.574853,448.849568 423.151051,442.68807 424.583957,437.959478 C426.016864,433.230886 428.452805,423.630411 430.172293,416.465878 C433.038106,403.856299 440.20264,384.225478 445.361104,374.338422 C446.65072,371.615899 449.373242,365.024528 451.236021,359.579483 C452.955509,354.277728 456.394485,347.543067 458.687136,344.533963 C460.979786,341.524859 467.571157,332.640838 473.159493,324.759851 C489.064757,302.263217 487.058688,304.125995 490.497664,308.281425 C492.073861,310.287494 495.512837,316.162411 498.37865,321.320875 C503.966986,332.067675 509.12545,335.506651 519.012506,335.506651 C523.167936,335.506651 525.747168,336.366395 527.896528,338.515755 C532.195248,342.814475 541.36585,344.677254 546.954186,342.527894 C549.390128,341.524859 555.981498,337.656011 561.713125,333.787163 C567.444751,330.061606 572.459925,326.909211 573.033087,326.909211 C573.462959,326.909211 577.188517,325.189723 581.343946,323.183654 C585.356085,321.177585 592.663909,318.02519 597.535791,316.162411 C609.858789,311.433819 622.038495,302.836379 629.632901,293.379195 C633.071877,289.080475 636.367562,285.498209 637.084015,285.354918 C639.949829,285.211627 636.510853,304.412577 630.635935,321.750747 C627.483541,331.351222 627.053669,331.637803 618.74281,336.079814 C614.014218,338.659046 607.99601,342.241312 605.416778,344.104091 C599.111989,348.832683 598.108954,346.683323 603.124127,339.375499 C605.416778,336.079814 608.569173,330.778059 610.14537,327.625665 C611.721567,324.47327 615.017253,320.317841 617.309903,318.311771 C634.504783,303.839414 637.943759,297.534625 621.608623,310.000913 C604.843615,323.040363 583.206725,338.372465 577.90497,341.094987 C568.734367,345.823579 557.557695,347.399776 543.228629,346.396742 C535.920805,345.823579 527.466656,345.393707 524.457552,345.536998 C518.152762,345.680288 504.396858,339.232208 500.52801,334.503617 C497.089034,330.204897 495.512837,332.784129 498.23536,337.942593 C501.531045,344.390672 509.841904,349.835718 517.72289,351.125334 C521.735029,351.698496 526.033749,353.274694 527.466656,354.56431 C533.628154,360.152646 539.932944,361.298971 559.707055,360.725808 C592.95049,359.579483 604.413743,356.140507 618.026357,342.957766 C619.889135,341.094987 621.751914,340.091952 621.895205,340.808406 C622.181786,341.524859 617.166613,352.55824 610.861823,365.31111 C604.557034,378.063979 599.39857,389.383942 599.39857,390.243686 C599.39857,394.255824 588.65177,420.907888 582.20369,432.801014 C578.334842,439.965547 575.039157,446.270336 575.039157,446.556918 C575.039157,446.843499 572.459925,452.431835 569.30753,458.879915 C560.280218,477.364411 552.255941,503.729893 550.536453,520.781483 C549.676709,528.80576 548.960256,536.400165 548.816965,537.546491 C548.100512,544.281152 551.252906,574.515483 553.545557,582.109888 C556.124789,590.420747 556.268079,594.576176 555.408335,636.990213 C554.548591,678.974378 560.996671,583.399504 559.420474,581.393435 C558.130858,579.960528 557.700986,577.238005 558.274149,574.228901 C558.704021,571.506379 558.56073,569.070437 557.844277,568.783856 C555.694917,568.067403 555.551626,523.790587 557.700986,511.754171 C559.850346,499.717755 567.15817,480.086933 574.036122,467.620646 C576.615354,463.178635 579.911039,456.587264 581.487237,453.004998 C583.063434,449.422731 586.50241,443.404523 589.081642,439.392384 C595.959594,428.788875 603.840581,411.593995 605.130197,404.286171 C605.703359,400.703904 609.715498,390.816848 614.157509,382.076118 C618.456229,373.478678 623.757983,362.158715 625.907343,357.000251 C632.355423,341.524859 641.096154,319.458097 643.388805,312.580145 C644.678421,308.997878 646.111327,305.558902 646.68449,304.699158 C650.839919,298.967531 652.845989,275.181281 649.550303,271.885595 C647.687525,270.022817 647.687525,266.727131 649.550303,266.727131 C650.410047,266.727131 653.562442,268.58991 656.714837,270.882561 C659.867231,273.175211 665.312277,275.754443 669.037834,276.614187 C674.053007,277.903803 675.342623,278.763547 674.769461,280.483035 C674.339589,281.772651 676.059077,287.360987 678.781599,293.092614 C684.799807,305.558902 686.376004,315.589249 687.66562,351.268624 C688.811946,383.222443 688.811946,384.225478 687.235748,385.801675 C686.519295,386.518128 681.07425,388.380907 675.199333,389.957104 C669.324415,391.533302 662.016591,393.969243 658.864197,395.258859 C647.974106,399.84416 643.388805,406.722112 649.263722,409.874507 C651.986245,411.307414 672.190229,411.020832 678.92489,409.444635 C685.802842,407.868438 687.52233,410.017798 685.659551,417.468912 C684.799807,420.764598 683.653482,425.63648 683.22361,428.215712 C682.650447,430.651654 679.784634,435.666827 676.632239,439.105803 C673.623135,442.68807 671.043903,446.127046 671.043903,446.700208 C671.043903,447.416662 669.181125,451.858672 666.888474,456.587264 C664.595823,461.315856 661.300138,468.050518 659.723941,471.632784 C649.836885,493.412965 638.08705,511.037717 622.754949,527.086272 C608.282591,542.275083 604.127162,547.433547 594.813269,562.049195 C585.785957,576.09168 577.90497,592.283525 577.90497,596.725536 C577.761679,598.445024 576.901935,601.454128 575.75561,603.460197 C573.462959,607.615626 572.889797,620.655077 575.039157,620.655077 C575.898901,620.655077 576.472063,622.947728 576.472063,625.67025 C576.472063,629.539098 577.475098,631.688458 580.484202,634.26769 C582.633562,636.130469 585.069503,637.849957 586.072538,637.849957 C589.368223,637.849957 593.237071,628.679354 593.523653,620.368496 C593.666943,615.783194 594.240106,609.048533 594.956559,605.322976 C596.102885,599.591349 595.959594,598.158443 593.666943,596.295664 C591.087711,594.003013 591.231002,593.429851 598.108954,579.960528 C606.133231,563.911973 610.431951,557.750475 619.172682,549.869488 C622.468367,546.860384 625.19089,543.564699 625.19089,542.561664 C625.19089,541.70192 627.770122,538.836107 630.779226,536.400165 C636.797434,531.671573 652.272826,512.184043 660.726975,499.001301 C663.592789,494.559291 666.745183,490.11728 667.748218,488.970955 C668.894543,487.96792 671.617066,483.382619 673.766426,478.940608 C682.793738,460.742694 685.659551,455.870811 686.949167,456.730555 C687.66562,457.160427 688.238783,458.306752 688.238783,459.309787 C688.238783,462.892054 700.848362,478.510736 717.040207,495.275744 C734.664959,513.473659 734.95154,515.049856 720.049311,511.754171 C712.741487,510.177973 695.833188,504.159765 687.235748,499.861045 C681.790703,497.281813 681.504122,500.290917 686.805876,504.732928 C693.827119,510.607845 711.595162,518.918704 720.335892,520.351611 C728.36017,521.784517 736.814319,524.363749 739.393551,526.369819 C740.253295,527.086272 741.39962,529.378923 741.972783,531.528283 C742.402655,533.677643 744.408724,537.833072 746.414794,540.698885 C748.277572,543.707989 751.859839,551.159104 754.29578,557.177312 C756.731722,563.338811 759.167663,569.070437 759.740826,569.786891 C761.746895,572.366123 768.338266,590.993909 769.3413,597.012117 C769.914463,600.164512 771.49066,605.896138 772.923567,609.621696 C774.499764,613.347253 775.64609,617.932554 775.64609,619.795333 C775.64609,621.658112 776.649124,623.950762 777.79545,624.953797 C778.941775,625.956832 779.94481,628.679354 779.94481,631.115296 C779.94481,633.407946 780.947844,636.130469 782.380751,637.133504 C784.24353,638.56641 784.816692,642.86513 785.676436,661.636208 C785.676436,661.636208 3.59597958,629.252517 2.87952625,629.252517 Z M592.377327,368.463504 C598.252245,366.170854 603.124127,364.164784 603.410709,364.164784 C603.553999,364.164784 603.69729,363.591622 603.69729,362.875168 C603.69729,362.158715 600.974767,362.588587 597.679082,363.734912 C589.368223,366.600726 571.45689,367.890342 570.167274,365.740982 C569.020949,364.021494 562.142997,363.591622 562.142997,365.31111 C562.142997,367.46047 572.889797,372.762224 577.331807,372.762224 C579.911039,372.762224 586.645701,370.899446 592.377327,368.463504 Z" id="Combined-Shape" fill="#C43715" fill-rule="nonzero"></path>
            <path d="M781.377716,583.829376 C780.374682,580.820272 778.655194,577.381296 777.652159,576.09168 C776.505834,574.945355 775.216218,571.79296 774.786346,569.357019 C773.353439,562.335776 777.365578,563.482101 782.667332,571.649669 C785.533146,576.234971 787.109343,580.3904 787.109343,583.829376 C787.109343,590.993909 783.527076,590.850619 781.377716,583.829376 Z" id="Shape" fill="#C43715" fill-rule="nonzero"></path>
            <path d="M420.715109,409.158054 C421.144981,407.581856 422.577888,400.703904 423.867504,393.682662 C425.730282,383.365734 427.019898,379.783467 430.458874,375.914619 C432.894816,373.192096 435.474048,369.466539 436.333792,367.60376 C437.193536,365.740982 438.769733,364.164784 439.772768,364.164784 C441.635546,364.164784 440.20264,368.320214 432.035072,385.658384 C430.029002,389.957104 427.30648,397.408219 426.016864,401.99352 C424.727248,406.722112 422.864469,410.877542 421.861435,411.164123 C420.571819,411.593995 420.285237,410.877542 420.715109,409.158054 Z" id="Shape" fill="#C43715" fill-rule="nonzero"></path>
            <path d="M532.62512,334.073745 C530.905632,333.357291 528.183109,330.92135 526.463621,328.485409 C522.594773,323.040363 519.155797,322.610491 519.155797,327.625665 C519.155797,330.778059 518.725925,331.064641 514.570496,330.204897 C507.262672,328.915281 504.68344,327.052502 502.53408,321.607457 C501.244464,318.884934 498.665232,313.869761 496.659162,310.717366 L492.933605,304.842449 L499.238394,299.254113 C504.110277,294.955393 506.259637,293.952358 509.268741,294.525521 C511.27481,294.955393 518.296053,294.668811 524.887424,294.095649 C535.061061,292.949323 537.353712,293.235905 541.22256,295.385265 C546.237733,298.251078 556.41137,300.113857 556.41137,298.251078 C556.41137,296.53159 551.539488,293.952358 548.243802,293.952358 C546.810896,293.952358 543.801792,292.949323 541.509141,291.802998 C535.634224,288.650603 527.180074,287.647569 523.597808,289.510347 C521.448448,290.799963 519.012506,290.799963 515.143658,289.653638 C510.415066,288.507313 508.552288,288.793894 502.390789,291.802998 C498.37865,293.665777 494.509802,295.958427 494.07993,296.961462 C492.790314,298.967531 490.497664,295.958427 490.497664,291.946289 C490.497664,290.513382 489.63792,288.507313 488.491594,287.647569 C486.628816,286.071371 480.467317,265.437515 480.467317,260.565633 C480.467317,259.276017 481.18377,258.129691 481.900224,258.129691 C483.763002,258.129691 487.201978,266.010678 488.348304,272.88863 C489.494629,279.766582 491.357408,279.623291 493.363477,272.458758 C494.223221,269.306363 495.369546,266.727131 496.086,266.727131 C497.805488,266.727131 504.110277,274.321537 505.973056,278.476966 C507.835834,283.062267 515.286949,287.360987 519.155797,286.071371 C520.588704,285.641499 525.460586,281.772651 529.902597,277.330641 C539.359781,268.446619 547.527349,265.294225 551.252906,269.449654 C554.835173,273.318502 564.722229,294.238939 565.725263,300.113857 C567.444751,308.711297 569.020949,304.269286 567.874623,294.668811 C566.011845,280.483035 552.399232,255.120587 541.22256,245.376822 C538.643328,242.940881 536.350677,240.361649 536.350677,239.501905 C536.350677,238.785451 535.777514,238.068998 534.91777,238.068998 C533.198282,238.068998 533.054992,232.767243 534.77448,231.764209 C535.490933,231.334337 535.777514,229.614849 535.347642,228.181942 C534.91777,226.749035 535.347642,225.029547 536.350677,224.456385 C538.070165,223.310059 543.51521,227.465489 543.51521,230.044721 C543.658501,231.334337 554.835173,238.068998 557.127823,238.068998 C558.274149,238.068998 557.271114,225.459419 555.981498,224.313094 C553.688848,222.020443 555.551626,220.874118 568.591077,216.575398 C581.343946,212.563259 594.669978,205.685308 592.95049,203.96582 C592.663909,203.535948 591.517583,203.96582 590.514549,204.682273 C585.642666,208.40783 565.00881,207.691377 565.00881,203.679238 C565.00881,202.103041 567.731333,201.243297 578.908005,199.523809 C583.923178,198.664065 593.380362,195.36838 601.404639,191.642822 C620.605589,182.47222 623.757983,183.045382 623.757983,195.225089 C623.757983,208.837702 627.196959,210.413899 629.632901,197.947612 C631.065807,190.639788 632.212133,188.490428 637.513887,183.618545 C640.952863,180.46615 644.821711,177.886918 645.968037,177.886918 C650.553338,177.886918 649.550303,182.042348 643.532095,188.203846 C636.510853,195.51167 630.922517,205.685308 630.922517,211.416934 C630.922517,215.429073 632.212133,216.145526 634.934655,213.423003 C637.943759,210.413899 638.516922,213.423003 636.224271,219.297921 C633.501749,226.032582 634.934655,227.895361 639.376666,223.166769 C641.669317,220.730827 644.105258,219.727793 647.544234,219.871083 C650.266757,220.014374 652.416117,220.444246 652.416117,220.874118 C652.416117,221.30399 650.696629,224.026513 648.690559,226.749035 C646.68449,229.471558 643.532095,234.630022 641.669317,238.212289 C639.806538,241.794555 637.227306,245.663403 635.93769,246.666438 C633.78833,248.385926 633.215167,248.242635 630.779226,245.233531 C628.629866,242.367718 628.056703,242.224427 628.056703,244.087206 C628.056703,245.376822 628.773157,248.242635 629.776191,250.248705 C632.498714,256.266913 629.203029,269.736235 622.898239,278.333675 C617.883066,285.211627 608.569173,293.522486 607.279557,292.23287 C606.992975,291.946289 607.566138,288.220731 608.712463,283.922011 C611.721567,272.745339 613.154474,257.413238 611.148405,258.702854 C610.288661,259.132726 607.279557,266.870422 604.413743,275.754443 C594.956559,305.12903 591.660874,309.857622 570.310565,323.900107 C559.707055,330.778059 555.121754,333.07071 548.387093,334.073745 C538.500037,335.793233 536.637258,335.793233 532.62512,334.073745 Z M576.042191,309.42775 C578.621423,306.705227 582.20369,300.257147 584.35305,294.238939 C589.654805,279.480001 594.669978,269.879526 600.974767,262.714993 C609.142335,253.257809 612.724602,244.660369 613.441055,232.480662 C614.157509,221.30399 611.578277,205.971889 609.285626,207.261505 C608.569173,207.834668 607.99601,212.70655 607.99601,218.294886 C607.99601,226.892326 607.422847,229.471558 603.69729,235.776347 C597.535791,246.236566 596.676047,247.09631 586.50241,254.117553 L577.188517,260.422342 L577.045226,279.909873 C576.901935,298.107787 576.758645,299.683985 573.176378,306.132065 C571.027018,309.857622 569.30753,313.153307 569.30753,313.439889 C569.30753,315.159377 572.173343,313.439889 576.042191,309.42775 Z M546.381024,312.150273 C546.381024,311.147238 544.518245,308.854587 542.225594,307.27839 C536.637258,302.97967 512.277845,300.973601 509.268741,304.412577 C506.259637,308.138134 514.427205,312.293563 523.167936,311.57711 C526.893493,311.147238 531.478794,311.57711 533.484864,312.436854 C538.786618,314.586214 546.381024,314.442923 546.381024,312.150273 Z" id="Combined-Shape" fill="#C43715" fill-rule="nonzero"></path>
            <path d="M782.810623,553.308464 C782.810623,552.592011 781.664298,550.729232 780.374682,549.296325 C777.222287,546.00064 765.615743,529.378923 765.615743,528.232597 C765.615743,527.659435 762.89322,523.933877 759.597535,519.778448 C756.158559,515.479728 752.289711,510.034683 750.856804,507.455451 C749.567188,505.019509 747.131247,502.583568 745.69834,502.153696 C742.116074,501.293952 738.963679,494.559291 737.817354,485.245397 C737.244191,481.376549 736.097866,476.074795 735.238122,473.782144 C733.805215,469.626715 734.235087,461.459147 738.390516,421.910923 C739.680132,408.728182 741.113039,401.563648 747.131247,377.777398 C749.137316,369.60983 759.167663,350.40888 764.182836,344.533963 C766.618778,341.954731 768.481556,339.375499 768.481556,338.802337 C768.481556,337.36943 757.448175,347.543067 755.155524,351.268624 C753.865908,353.274694 751.143386,356.71367 749.137316,359.149611 C743.692271,365.31111 737.674063,376.631072 734.235087,387.091291 C731.082692,396.978347 726.927263,419.04511 726.927263,426.066352 C726.927263,428.645584 726.21081,430.078491 725.207775,429.79191 C722.915124,428.932166 719.619439,419.331691 718.616404,410.017798 C718.043242,405.719078 717.040207,402.280102 716.180463,402.566683 C715.46401,402.853264 714.890847,404.14288 715.034138,405.432496 C715.177428,406.722112 715.6073,412.74032 716.037172,418.615238 C718.043242,444.694139 720.335892,460.456112 724.20474,474.355307 C726.640682,482.522875 728.216879,489.400827 727.930298,489.687408 C727.643716,490.11728 724.491322,488.970955 721.052346,487.538048 C714.747556,484.672235 705.863535,476.361376 693.540538,461.602438 L686.949167,453.57816 L690.388143,444.264267 C692.107631,439.249094 694.973444,432.801014 696.692932,429.9352 C700.131908,424.060283 706.86657,403.99959 705.863535,402.566683 C705.576954,401.85023 703.427594,401.420358 701.134943,401.420358 C695.546607,401.420358 694.256991,398.697835 698.26913,395.40215 L701.564815,392.822918 L699.128874,381.646246 C696.692932,369.75312 696.26306,349.405846 698.41242,341.094987 C699.128874,338.085883 699.702036,327.625665 699.845327,317.595318 L699.845327,299.397403 L694.686863,291.659707 C689.385108,283.492139 685.229679,281.056198 688.955236,288.220731 C691.247887,292.662742 691.82105,297.391334 689.958271,296.53159 C687.808911,295.671846 676.77553,282.918977 676.77553,281.199489 C676.77553,280.196454 678.638309,279.766582 682.220575,280.196454 C685.086388,280.626326 693.397247,281.342779 700.56178,281.772651 C713.887812,282.632395 723.201706,285.211627 739.10697,292.376161 C743.835562,294.525521 752.576292,297.534625 758.45121,298.824241 C764.326127,300.113857 772.780276,302.406507 777.078996,303.839414 L784.959983,306.418646 L785.103274,320.17455 C785.246564,329.058571 785.963018,334.790198 787.109343,336.223105 C789.115412,338.659046 788.112378,355.137472 785.819727,357.430123 C785.103274,358.146576 785.246564,360.869099 786.106308,363.878203 C787.539215,369.179958 787.682506,374.481712 787.109343,405.002624 C786.966052,413.743355 786.822762,432.371142 786.822762,446.556918 C787.109343,522.214389 786.39289,554.741371 784.673402,554.741371 C783.670367,554.741371 782.810623,554.168208 782.810623,553.308464 Z" id="Shape" fill="#C43715" fill-rule="nonzero"></path>
            <path d="M443.211744,197.66103 C443.211744,194.508636 452.525637,182.328929 456.107904,180.896022 C458.113973,180.036278 465.851669,178.030209 473.302784,176.454012 C499.954848,170.579094 545.66457,171.295548 578.334842,178.030209 C588.938351,180.179569 595.673013,180.896022 602.694255,180.32286 C615.590415,179.176534 614.873962,181.325894 599.971733,187.917265 L588.65177,192.789148 L530.61905,192.932438 C475.452144,192.932438 472.013168,193.21902 459.976752,196.228124 C445.504394,199.81039 443.211744,200.096972 443.211744,197.66103 Z" id="Shape" fill="#C43715" fill-rule="nonzero"></path>
            <path d="M446.79401,173.158326 C446.220848,172.012001 447.367173,166.996828 448.94337,161.981654 C452.239056,152.094598 465.135216,134.899718 479.607573,120.570652 C484.049584,116.271932 487.63185,111.68663 487.63185,110.253724 C487.63185,108.820817 488.205013,107.674492 488.921466,107.674492 C489.63792,107.674492 491.214117,105.955004 492.217152,103.805644 C495.082965,98.074017 498.23536,92.772262 499.238394,91.912518 C499.668266,91.482646 501.387754,88.9034145 502.963952,86.1808918 C507.549253,78.5864865 513.137589,74.1444758 523.454517,69.8457559 C533.198282,65.6903265 549.246837,63.1110945 549.246837,65.6903265 C549.246837,66.5500705 551.252906,67.9829772 553.545557,68.9860119 C556.124789,70.1323372 557.844277,71.8518252 557.844277,73.4280225 C557.844277,75.0042198 558.56073,76.1505452 559.277183,76.1505452 C560.136927,76.1505452 560.71009,79.7328118 560.71009,84.0315318 C560.71009,90.04974 561.139962,91.912518 562.85945,91.912518 C564.578938,91.912518 565.00881,90.04974 565.00881,84.0315318 C565.00881,76.5804172 565.152101,76.1505452 568.591077,76.1505452 C571.743471,76.1505452 572.173343,75.5773825 572.173343,71.2786625 L572.173343,66.4067799 L585.785957,65.4037452 C593.380362,64.8305825 603.124127,64.8305825 607.709429,65.2604545 C612.151439,65.8336172 620.032426,66.5500705 625.19089,67.1232332 C630.492645,67.5531052 636.080981,68.9860119 638.08705,70.4189185 C640.093119,71.7085345 643.388805,73.2847319 645.681455,73.8578945 C649.836885,74.8609292 650.696629,77.2968705 647.830815,80.3059745 C646.254618,81.7388812 646.68449,81.8821718 649.693594,81.1657185 C654.565477,80.0193932 657.43129,82.8852065 662.589754,94.49175 C670.470741,111.973212 667.318346,131.317452 654.852058,142.350833 C645.824746,150.37511 643.532095,148.942204 650.410047,139.771601 C652.559407,137.049078 653.849023,134.469846 653.562442,134.039974 C652.129535,132.750358 635.364527,149.372076 627.913413,159.259132 C621.322042,168.143153 620.319007,169.002897 614.157509,169.862641 C602.121093,171.438838 576.901935,170.722385 564.865519,168.429734 C555.981498,166.710246 544.518245,166.137084 520.588704,166.137084 C488.061722,166.137084 480.467317,166.996828 451.09273,174.447942 C448.656789,175.021105 447.223882,174.591233 446.79401,173.158326 Z" id="Shape" fill="#C43715" fill-rule="nonzero"></path>
            <path d="M360.819611,79.1596492 C360.389739,78.2999052 356.807472,77.5834518 353.081915,77.5834518 C347.493579,77.5834518 345.6308,76.8669985 342.478405,73.5713132 C337.893104,68.6994305 337.749813,67.4098145 341.618661,63.8275479 C343.194859,62.3946412 345.200928,59.9586999 346.060672,58.5257932 C347.206997,56.2331426 347.063707,56.0898519 344.484475,57.3794679 C342.908277,58.2392119 341.188789,59.6721186 340.758917,60.3885719 C340.329045,61.2483159 338.752848,61.8214785 337.463232,61.8214785 C335.743744,61.8214785 333.737675,58.6690839 331.158443,52.0777132 C326.28656,40.0412973 326.28656,38.7516813 330.871861,31.7304386 C334.024256,27.0018466 335.743744,25.8555213 342.048533,24.5659053 C354.944693,21.8433826 355.517856,22.989708 353.081915,45.1997613 C352.07888,54.3703639 352.365461,55.8032706 355.661147,61.6781879 C357.667216,65.2604545 360.819611,69.4158839 362.682389,70.9920812 C364.688459,72.5682785 365.834784,74.8609292 365.548203,76.5804172 C365.118331,79.8761025 362.252517,81.4522998 360.819611,79.1596492 Z" id="Shape" fill="#C43715" fill-rule="nonzero"></path>
            <path d="M381.310176,75.0042198 C379.877269,74.7176385 378.730944,73.7146038 378.730944,72.8548599 C378.730944,71.8518252 376.295003,69.9890465 373.285899,68.6994305 C355.804437,60.5318625 353.511787,45.9162146 369.27376,41.6174946 C374.575515,40.1845879 376.295003,37.4620653 371.852992,37.4620653 C370.563376,37.4620653 367.1244,38.0352279 364.545168,38.8949719 C361.822645,39.6114253 359.386704,40.0412973 359.100123,39.7547159 C358.383669,39.0382626 362.539099,15.8251747 364.258587,11.383164 C367.697563,2.2125614 379.447397,2.0692707 388.618,11.2398733 C391.913685,14.5355587 392.056976,14.82214 389.907616,19.2641507 C388.761291,21.8433826 386.611931,28.4347533 385.035733,34.0230893 L382.456501,44.3400173 L386.46864,53.6539106 C388.618,58.8123746 391.627104,64.1141292 393.203301,65.5470359 C400.224544,71.8518252 393.203301,77.4401612 381.310176,75.0042198 Z" id="Shape" fill="#C43715" fill-rule="nonzero"></path>
            <path d="M397.645312,61.3916065 C395.925824,59.5288279 394.492917,56.9495959 394.492917,55.6599799 C394.492917,54.3703639 393.346592,52.7941666 392.056976,51.9344226 C390.337488,51.0746786 389.477744,48.7820279 389.477744,44.7698893 C389.477744,38.1785186 392.056976,35.5992866 400.654416,33.1633453 C407.389077,31.157276 407.532368,29.437788 400.797707,29.437788 C392.343557,29.437788 391.627104,23.9927426 398.075184,9.233804 C401.227579,2.2125614 401.657451,1.7826894 407.96224,0.9229454 C418.995621,-0.7965426 421.861435,4.2186307 415.270064,13.102652 C407.389077,23.849452 406.529333,39.6114253 413.120704,51.3612599 C415.556645,55.5166892 417.419424,59.2422466 417.419424,59.6721186 C417.419424,61.1050252 407.675659,64.6872919 404.093392,64.6872919 C402.230613,64.6872919 399.3648,63.2543852 397.645312,61.3916065 Z" id="Shape" fill="#C43715" fill-rule="nonzero"></path>
            <path d="M475.738725,56.5197239 C475.165562,56.0898519 474.73569,54.3703639 474.73569,52.9374572 C474.73569,51.5045506 474.162528,50.3582252 473.589365,50.3582252 C471.153424,50.3582252 469.433936,41.4742039 470.150389,31.8737293 C471.010133,18.261116 473.732656,18.261116 476.88505,32.1603106 C480.753898,50.0716439 480.324026,61.1050252 475.738725,56.5197239 Z" id="Shape" fill="#C43715" fill-rule="nonzero"></path>
            <path d="M459.833461,31.8737293 C459.403589,31.157276 455.534741,28.578044 451.379312,26.2853933 C443.355034,21.8433826 436.04721,14.392268 436.04721,10.8100013 C436.04721,9.8069667 438.626442,7.084444 441.778837,5.0783747 C446.937301,1.6393987 448.226917,1.3528174 456.681066,2.2125614 C467.284576,3.3588867 471.010133,6.3679907 472.58633,14.82214 C473.589365,19.8373133 473.302784,20.1238947 469.433936,20.5537667 C466.424832,20.840348 465.565088,21.700092 465.851669,23.7061613 C466.997994,30.1542413 462.555984,36.3157399 459.833461,31.8737293 Z" id="Shape" fill="#C43715" fill-rule="nonzero"></path>
            <path d="M419.568784,23.9927426 C416.702971,19.550732 418.135877,15.9684653 423.00776,15.9684653 C425.15712,15.9684653 427.593061,15.252012 428.596096,14.2489773 C430.602165,12.242908 432.751525,13.962396 436.477082,20.1238947 L438.913024,24.4226146 L433.611269,25.8555213 C425.30041,28.148172 422.004725,27.7183 419.568784,23.9927426 Z" id="Shape" fill="#C43715" fill-rule="nonzero"></path>
            <path d="M505.399893,270.309398 C500.671301,265.724097 500.241429,264.721062 501.101173,259.849179 C501.674336,256.983366 502.67737,248.672507 503.393824,241.364683 C504.82673,224.886257 505.543184,222.880187 509.555322,221.733862 C514.283914,220.444246 522.308192,220.730827 521.448448,222.020443 C521.018576,222.736897 521.735029,226.462454 522.881354,230.331302 C524.17097,234.486731 524.887424,240.218358 524.457552,244.517078 C524.02768,248.529217 524.314261,252.827937 525.030714,254.117553 C526.893493,257.556529 524.314261,267.730166 520.445413,271.885595 C516.003402,276.614187 511.561392,276.184315 505.399893,270.309398 Z" id="Shape" fill="#C43715" fill-rule="nonzero"></path>
            <path d="M531.192213,258.846145 C530.045888,250.821867 531.048922,248.099345 535.204352,248.099345 C541.795722,248.242635 546.094442,254.834006 544.374954,261.855249 C543.658501,264.721062 542.655466,265.294225 537.783584,265.294225 C532.338538,265.294225 532.195248,265.294225 531.192213,258.846145 Z" id="Shape" fill="#C43715" fill-rule="nonzero"></path>
            <path d="M482.186805,250.248705 C476.025306,245.090241 472.58633,235.489766 474.305818,228.468523 L475.595434,223.023478 L486.628816,222.593606 C497.089034,222.163734 497.662197,222.307025 497.662197,225.316129 C497.662197,226.892326 496.372581,230.188011 494.653093,232.480662 C491.500698,237.065963 491.93057,241.794555 495.512837,240.361649 C498.521941,239.215323 498.37865,245.520113 495.226256,249.24567 C491.070826,254.117553 487.058688,254.404134 482.186805,250.248705 Z" id="Shape" fill="#C43715" fill-rule="nonzero"></path>
            <path d="M512.564426,214.282747 C512.994298,212.993131 513.42417,210.127318 513.42417,207.834668 C513.42417,204.825564 514.140624,203.679238 516.003402,203.679238 C517.866181,203.679238 518.439344,204.968854 518.725925,210.127318 C518.869216,216.145526 518.725925,216.575398 515.286949,216.575398 C512.564426,216.575398 511.847973,216.002235 512.564426,214.282747 Z" id="Shape" fill="#C43715" fill-rule="nonzero"></path>
            <path d="M496.659162,210.413899 C486.198944,207.977958 489.78121,203.679238 502.390789,203.679238 C506.546218,203.679238 507.692544,204.252401 507.692544,206.25847 C507.692544,208.837702 504.970021,212.419969 503.537114,212.133387 C502.963952,211.990097 499.954848,211.273643 496.659162,210.413899 Z" id="Shape" fill="#C43715" fill-rule="nonzero"></path>
            <path d="M526.32033,208.694412 C525.460586,207.548086 525.030714,205.971889 525.603877,205.112145 C526.750202,203.249366 552.11265,203.106076 552.11265,205.112145 C552.11265,205.971889 550.536453,206.545052 548.673674,206.545052 C546.810896,206.545052 542.512176,207.548086 539.21649,208.694412 C531.622085,211.416934 528.612981,211.416934 526.32033,208.694412 Z" id="Shape" fill="#C43715" fill-rule="nonzero"></path>
            <path d="M367.1244,148.08246 C352.652043,140.344764 331.158443,128.021766 318.692155,120.28407 C314.536725,117.704838 310.524587,113.979281 309.664843,111.973212 C308.805099,109.823852 308.948389,102.9459 309.951424,93.202134 C311.24104,79.5895212 312.100784,76.7237078 317.68912,65.9769079 C321.128096,59.3855372 324.853653,53.9404919 325.856688,53.9404919 C328.722501,53.9404919 329.152373,59.9586999 326.573141,63.9708385 C323.277456,68.8427212 323.707328,70.4189185 328.292629,70.4189185 C331.158443,70.5622092 333.307803,72.1384065 337.176651,77.2968705 C339.899173,80.8791372 342.478405,84.4614038 342.621696,85.1778572 C342.908277,85.7510198 340.185755,88.9034145 336.603488,92.055809 C331.445024,96.64111 330.012117,98.79047 330.012117,102.229446 L330.012117,106.671457 L333.307803,101.799574 C336.890069,96.354529 342.621696,93.918588 340.902208,98.503889 C338.466267,104.665388 338.322976,114.265862 340.472336,115.98535 C342.191824,117.418257 342.621696,116.701804 343.48144,110.397014 C345.344219,96.927692 360.819611,84.7479852 376.295003,84.7479852 C378.157781,84.7479852 382.16992,83.7449505 385.035733,82.5986252 C391.770395,79.7328118 417.419424,77.8700332 417.419424,80.1626838 C417.419424,81.0224278 415.556645,82.7419158 413.407285,83.8882412 C408.392112,86.4674731 402.230613,94.34846 400.797707,99.936796 C399.794672,103.662353 400.511125,103.375772 406.815915,96.354529 C415.270064,87.0406358 422.577888,83.4583692 432.894816,83.3150785 C441.062384,83.3150785 441.492256,82.7419158 438.05328,77.8700332 C435.90392,74.7176385 435.90392,74.2877665 438.913024,71.1353719 C442.49529,67.4098145 442.352,67.2665239 433.89785,65.4037452 C429.312549,64.4007105 418.70904,53.9404919 414.840192,46.7759586 C412.547541,42.3339479 411.544507,28.4347533 413.550576,26.5719746 C414.123739,25.998812 416.273099,27.1451373 418.279168,29.2944973 C422.577888,34.0230893 427.593061,34.3096706 436.906954,30.297532 C443.068453,27.5750093 443.928197,27.5750093 447.080592,29.5810786 C450.806149,32.01702 450.376277,34.5962519 446.077557,34.5962519 C442.781872,34.5962519 434.614304,41.3309133 434.614304,44.0534359 C434.614304,47.0625399 437.050245,46.4893773 442.352,42.4772386 C444.787941,40.6144599 449.516533,38.6083906 452.525637,38.1785186 C457.684101,37.3187746 458.687136,37.6053559 462.126112,41.4742039 C464.275472,43.9101453 468.001029,51.7911319 470.43697,59.2422466 C472.872912,66.5500705 475.452144,73.1414412 476.311888,74.0011852 C479.03441,76.7237078 477.744794,83.0284972 473.732656,85.8943105 C468.574192,89.619868 470.29368,91.196065 476.74176,88.9034145 C479.607573,87.9003798 482.186805,87.4705078 482.759968,87.9003798 C484.049584,89.189996 472.156458,107.101329 463.8456,116.271932 C459.976752,120.570652 454.531706,126.875441 451.952474,130.314417 C445.647685,138.338694 442.49529,139.914892 424.583957,142.780705 C416.273099,144.213612 404.093392,147.222716 397.358731,149.515366 C390.624069,151.808017 384.175989,154.100668 382.886373,154.53054 C381.740048,154.817121 374.575515,151.951308 367.1244,148.08246 Z" id="Shape" fill="#C43715" fill-rule="nonzero"></path>
            <path d="M408.535403,70.8487905 C403.806811,69.7024652 405.956171,66.8366519 413.550576,64.4007105 C418.995621,62.6812225 421.288272,62.5379319 422.004725,63.6842572 C423.867504,66.5500705 423.294341,67.4098145 418.852331,69.7024652 C414.696901,71.8518252 412.977413,71.9951159 408.535403,70.8487905 Z" id="Shape" fill="#C43715" fill-rule="nonzero"></path>
            <path d="M39.9851206,466.028733 L96.9374038,466.028733 L97.3606978,466.452027 L97.3606978,480.15136 L96.9374038,480.574654 L61.7270395,480.574654 L61.7270395,509.281683 L82.8147768,509.281683 L82.8147768,502.316573 L73.3099025,502.316573 L72.8866086,501.893279 L72.8866086,488.193946 L73.3099025,487.770652 L96.9374038,487.770652 L97.3606978,488.193946 L97.3606978,523.40431 L96.9374038,523.827604 L39.9851206,523.827604 L39.5618266,523.40431 L39.5618266,516.4392 L39.9851206,516.015906 L43.5638789,516.015906 L43.5638789,474.032837 L39.9851206,474.032837 L39.5618266,473.609543 L39.5618266,466.452027 L39.9851206,466.028733 Z M101.709082,466.182658 L120.449461,466.182658 C120.808622,466.182658 124.65671,473.340103 131.993843,487.655208 L135.803489,487.655208 L135.803489,466.605952 L136.226783,466.182658 L158.315033,466.182658 L158.738327,466.605952 L158.738327,473.532581 L158.315033,473.955875 L154.736275,473.955875 L154.736275,515.823499 L158.315033,515.823499 L158.738327,516.246793 L158.738327,523.40431 L158.315033,523.827604 L136.419189,523.827604 L135.995895,523.40431 L135.995895,500.892766 L120.218574,500.892766 C118.987167,499.276544 116.113927,493.812258 111.598769,484.499744 C108.315017,478.342709 106.557723,475.251411 106.326834,475.225757 L101.709082,475.225757 L101.285788,474.802463 L101.285788,466.605952 L101.709082,466.182658 Z M163.625449,458.717291 L172.014366,458.717291 L172.43766,459.140585 L172.43766,466.25962 L252.055413,466.25962 L252.478707,466.682914 L252.478707,473.840431 L252.055413,474.263725 L248.476655,474.263725 L248.476655,516.054387 L252.055413,516.054387 L252.478707,516.477681 L252.478707,523.40431 L252.055413,523.827604 L230.852232,523.827604 L230.428938,523.40431 L230.428938,480.76706 L216.960493,480.76706 L216.768086,496.505901 L216.768086,516.054387 L220.346845,516.054387 L220.770139,516.477681 L220.770139,523.40431 L220.346845,523.827604 L195.334018,523.827604 L194.910724,523.40431 L194.910724,516.477681 L195.334018,516.054387 L198.720369,516.054387 L198.720369,480.76706 L185.251924,480.76706 L185.059518,496.505901 L185.059518,523.40431 L184.636224,523.827604 L163.625449,523.827604 L163.202155,523.40431 L163.202155,516.477681 L163.625449,516.054387 L167.204207,516.054387 L167.204207,480.574654 L163.625449,480.574654 L163.202155,480.15136 L163.202155,459.140585 L163.625449,458.717291 Z" id="GYM" fill="#FFFFFF"></path>
            <path d="M39.9851206,554.413545 L96.5525911,554.413545 L96.9758851,554.836839 L96.9758851,575.770652 L96.5525911,576.193946 L82.9302207,576.193946 L82.5069267,575.770652 L82.5069267,568.882504 L61.3422268,568.882504 L61.3422268,597.589533 L82.5069267,597.589533 L82.5069267,590.470498 L82.9302207,590.047204 L96.5525911,590.047204 L96.9758851,590.470498 L96.9758851,611.40431 L96.5525911,611.827604 L39.9851206,611.827604 L39.5618266,611.40431 L39.5618266,604.477681 L39.9851206,604.092868 L43.5253977,604.092868 L43.5253977,562.379169 L39.9851206,562.379169 L39.5618266,561.955875 L39.5618266,554.836839 L39.9851206,554.413545 Z M101.516675,546.717291 L109.905593,546.717291 L110.328887,547.140585 L110.328887,554.25962 L189.946639,554.25962 L190.369933,554.682914 L190.369933,561.840431 L189.946639,562.263725 L186.367881,562.263725 L186.367881,604.054387 L189.946639,604.054387 L190.369933,604.477681 L190.369933,611.40431 L189.946639,611.827604 L168.743458,611.827604 L168.320164,611.40431 L168.320164,568.76706 L154.851719,568.76706 L154.659313,584.505901 L154.659313,604.054387 L158.238071,604.054387 L158.661365,604.477681 L158.661365,611.40431 L158.238071,611.827604 L133.225244,611.827604 L132.80195,611.40431 L132.80195,604.477681 L133.225244,604.054387 L136.611596,604.054387 L136.611596,568.76706 L123.14315,568.76706 L122.950744,584.505901 L122.950744,611.40431 L122.52745,611.827604 L101.516675,611.827604 L101.093381,611.40431 L101.093381,604.477681 L101.516675,604.054387 L105.095434,604.054387 L105.095434,568.574654 L101.516675,568.574654 L101.093381,568.15136 L101.093381,547.140585 L101.516675,546.717291 Z M198.066188,554.182658 L250.862494,554.182658 L251.285788,554.605952 L251.285788,578.156491 L250.862494,578.579785 L237.201642,578.579785 L236.778348,578.156491 L236.778348,570.57568 L221.616727,570.57568 L251.516675,595.434582 L251.516675,611.40431 L251.093381,611.827604 L194.064136,611.827604 L193.640842,611.40431 L193.640842,587.853771 L194.064136,587.430477 L207.724987,587.430477 L208.148281,587.853771 L208.148281,595.434582 L226.696255,595.434582 L197.642894,570.229348 L197.642894,554.605952 L198.066188,554.182658 Z" id="CMS" fill="#FFFFFF"></path>
            <polygon id="." fill="#FFD700" points="274.182145 592.740893 274.182145 611.866085 255.28784 611.866085 255.28784 592.740893"></polygon>
            <path d="M280.723961,554.336583 L299.42586,554.336583 C299.78502,554.336583 303.633109,561.468374 310.970242,575.73217 L314.741406,575.73217 L314.741406,554.759877 L315.1647,554.336583 L333.173936,554.336583 L333.59723,554.759877 L333.59723,575.963058 L337.599282,575.963058 C337.599282,574.96254 339.97227,570.267872 344.718317,561.878912 C347.129823,556.978939 348.527962,554.464854 348.912776,554.336583 L367.614675,554.336583 L368.037969,554.759877 L368.037969,562.956388 L367.614675,563.341201 L362.766034,563.341201 L356.262699,575.73217 L358.802463,587.276552 L358.99487,587.276552 L358.802463,587.50744 C360.752191,597.563929 361.868136,602.592099 362.150334,602.592099 L361.919446,602.822986 L367.807081,602.822986 L368.230375,603.207799 L368.230375,611.40431 L367.807081,611.827604 L345.564905,611.827604 C345.257054,611.827604 344.423301,608.402805 343.063623,601.553104 L340.100565,589.162135 L334.443818,588.969728 L333.59723,588.969728 L333.59723,611.40431 L333.173936,611.827604 L315.1647,611.827604 L314.741406,611.40431 L314.741406,588.969728 L313.471524,588.969728 L308.238071,589.162135 L302.966137,611.827604 L280.531555,611.827604 L280.108261,611.40431 L280.108261,603.207799 L280.531555,602.822986 L286.41919,602.822986 L286.188302,602.592099 L286.188302,602.399692 C286.521808,602.399692 287.637754,597.435658 289.536173,587.50744 L289.343766,587.276552 C289.600309,587.276552 290.369927,584.198081 291.652643,578.041047 L292.075937,575.73217 L285.572602,563.341201 L280.723961,563.341201 L280.300667,562.956388 L280.300667,554.759877 L280.723961,554.336583 Z M373.079015,554.105695 L395.205747,554.105695 L395.629041,554.528989 L395.629041,576.848127 L407.40431,576.848127 L407.40431,554.528989 L407.827604,554.105695 L429.954336,554.105695 L430.37763,554.528989 L430.37763,561.686506 L429.954336,562.1098 L426.375578,562.1098 L426.375578,562.340688 L426.567984,584.005644 L426.375578,604.015906 L429.954336,604.015906 L430.37763,604.4392 L430.37763,611.40431 L429.954336,611.827604 L407.827604,611.827604 L407.40431,611.40431 L407.40431,590.54746 L377.081068,590.54746 L376.657774,590.124166 L376.657774,562.1098 L373.079015,562.1098 L372.655721,561.686506 L372.655721,554.528989 L373.079015,554.105695 Z M434.649051,554.182658 L487.868651,554.182658 L488.291945,554.605952 L488.291945,562.186763 L459.200103,595.434582 L491.447409,595.434582 L491.870703,595.819395 L491.870703,611.40431 L491.447409,611.827604 L434.572089,611.827604 L434.148795,611.40431 L434.148795,604.900975 L463.856337,570.57568 L434.649051,570.57568 L434.225757,570.190867 L434.225757,554.605952 L434.649051,554.182658 Z" id="xyZ" fill="#FFD700"></path>
        </g>
    </g>
</svg>